<svg width="238" height="273" viewBox="0 0 238 273" fill="none" xmlns="http://www.w3.org/2000/svg">
<g clip-path="url(#clip0_1_301)">
<path d="M238 78.1531V207.988L213.932 221.885L193.865 233.482L169.86 247.348L148.092 259.922L130.735 269.943L125.474 273V143.165L148.092 130.087V229.701L169.86 217.127V117.513L193.865 103.647V203.293L213.932 191.696V92.0505L217.776 89.8445L238 78.1531Z" fill="#ACBFBF" fill-opacity="0.34"/>
<path d="M228.203 65.6423L213.932 73.8673L202.024 80.7372L193.865 85.4642L169.86 99.33L148.092 111.904L125.474 124.95L111.959 132.766V267.422L97.4051 259.008H97.3736L88.175 253.682V118.931L111.959 105.192L125.474 97.4077L148.092 84.3297L169.86 71.7559L178.177 66.9658L169.86 62.1758L157.89 55.2429L148.092 60.9153L125.474 73.9618L111.959 81.7771L88.175 95.5169L68.108 107.114V242.085L44.6073 228.503L23.8157 216.497L0 202.757V66.1465L23.8157 52.4067L44.6073 40.4001L68.108 26.8179L88.175 15.2209L88.3955 15.0949L109.534 2.89923L114.542 0L125.474 6.30267V6.33418L139.272 14.2755V14.3071L125.474 22.2799L118.48 26.3136L113.125 29.4019L111.959 28.7402V30.0637L88.175 43.8035L68.108 55.4004L44.6073 68.9827L23.8157 80.9893V183.66L21.5476 184.983L23.8157 186.307L37.2987 194.091L44.6073 198.313V92.2711L68.108 78.6888L88.175 67.1234L111.959 53.3836L125.474 45.5683L133.318 41.0619L148.092 32.5218L159.465 25.9355L169.86 31.9545L184.036 40.148H184.068L193.865 45.8204L204.324 51.8394V51.871L213.932 57.3858V57.4173L228.203 65.6423Z" fill="#ACBFBF" fill-opacity="0.34"/>
</g>
<defs>
<clipPath id="clip0_1_301">
<rect width="238" height="273" fill="white"/>
</clipPath>
</defs>
</svg>
