<svg width="153" height="151" viewBox="0 0 153 151" fill="none" xmlns="http://www.w3.org/2000/svg">
<path d="M53.0341 85.36C51.2101 85.36 49.5061 85.072 47.9221 84.496C46.3621 83.92 45.0901 83.068 44.1061 81.94C43.1461 80.788 42.6661 79.372 42.6661 77.692C42.6661 76.468 42.9061 75.448 43.3861 74.632C43.8661 73.792 44.4181 73.132 45.0421 72.652C45.6901 72.172 46.2541 71.824 46.7341 71.608C47.2381 71.392 47.5021 71.284 47.5261 71.284V71.068C47.5261 71.068 47.3101 70.972 46.8781 70.78C46.4461 70.588 45.9541 70.276 45.4021 69.844C44.8501 69.412 44.3581 68.836 43.9261 68.116C43.5181 67.372 43.3141 66.46 43.3141 65.38C43.3141 63.868 43.7461 62.56 44.6101 61.456C45.4981 60.352 46.6741 59.5 48.1381 58.9C49.6261 58.3 51.2581 58 53.0341 58C54.8101 58 56.4301 58.3 57.8941 58.9C59.3821 59.5 60.5581 60.352 61.4221 61.456C62.2861 62.56 62.7181 63.856 62.7181 65.344C62.7181 66.424 62.5021 67.336 62.0701 68.08C61.6621 68.824 61.1821 69.412 60.6301 69.844C60.0781 70.276 59.5861 70.588 59.1541 70.78C58.7461 70.972 58.5301 71.068 58.5061 71.068V71.284C58.5301 71.284 58.7821 71.392 59.2621 71.608C59.7661 71.824 60.3301 72.172 60.9541 72.652C61.6021 73.132 62.1661 73.792 62.6461 74.632C63.1261 75.448 63.3661 76.468 63.3661 77.692C63.3661 79.372 62.8861 80.788 61.9261 81.94C60.9661 83.068 59.6941 83.92 58.1101 84.496C56.5501 85.072 54.8581 85.36 53.0341 85.36ZM53.0341 69.052C54.0661 69.052 54.9661 68.764 55.7341 68.188C56.5021 67.612 56.8861 66.832 56.8861 65.848C56.8861 64.888 56.5021 64.132 55.7341 63.58C54.9661 63.004 54.0661 62.716 53.0341 62.716C52.0021 62.716 51.1021 63.004 50.3341 63.58C49.5661 64.132 49.1821 64.9 49.1821 65.884C49.1821 66.868 49.5661 67.648 50.3341 68.224C51.1021 68.776 52.0021 69.052 53.0341 69.052ZM53.0341 80.536C54.4741 80.536 55.5541 80.164 56.2741 79.42C57.0181 78.676 57.3901 77.86 57.3901 76.972C57.3901 76.132 57.0181 75.352 56.2741 74.632C55.5541 73.888 54.4741 73.516 53.0341 73.516C51.5701 73.516 50.4661 73.888 49.7221 74.632C49.0021 75.352 48.6421 76.132 48.6421 76.972C48.6421 77.86 49.0141 78.676 49.7581 79.42C50.5021 80.164 51.5941 80.536 53.0341 80.536ZM67.1306 85C67.2506 82.288 67.6466 79.792 68.3186 77.512C68.9906 75.232 69.7826 73.192 70.6946 71.392C71.6306 69.568 72.5546 68.02 73.4666 66.748C74.3786 65.452 75.1346 64.456 75.7346 63.76H62.9186V58.36H82.6466V62.788C82.6466 62.788 82.3466 63.112 81.7466 63.76C81.1706 64.408 80.4386 65.368 79.5506 66.64C78.6866 67.888 77.7986 69.424 76.8866 71.248C75.9746 73.048 75.1946 75.1 74.5466 77.404C73.8986 79.708 73.5146 82.24 73.3946 85H67.1306ZM87.4298 69.952C86.0858 69.952 84.9458 69.676 84.0098 69.124C83.0978 68.548 82.4018 67.804 81.9218 66.892C81.4418 65.98 81.2018 65.008 81.2018 63.976C81.2018 62.944 81.4418 61.972 81.9218 61.06C82.4018 60.148 83.0978 59.416 84.0098 58.864C84.9458 58.288 86.0858 58 87.4298 58C88.7498 58 89.8658 58.288 90.7778 58.864C91.7138 59.416 92.4098 60.148 92.8658 61.06C93.3458 61.972 93.5858 62.944 93.5858 63.976C93.5858 65.008 93.3458 65.98 92.8658 66.892C92.4098 67.804 91.7138 68.548 90.7778 69.124C89.8658 69.676 88.7498 69.952 87.4298 69.952ZM85.3058 85L100.534 58.36H105.25L90.0218 85H85.3058ZM87.3938 66.496C88.1378 66.496 88.7138 66.244 89.1218 65.74C89.5538 65.236 89.7698 64.66 89.7698 64.012C89.7698 63.34 89.5538 62.752 89.1218 62.248C88.7138 61.744 88.1378 61.492 87.3938 61.492C86.6258 61.492 86.0378 61.744 85.6298 62.248C85.2218 62.752 85.0178 63.34 85.0178 64.012C85.0178 64.66 85.2218 65.236 85.6298 65.74C86.0378 66.244 86.6258 66.496 87.3938 66.496ZM103.162 85.36C101.818 85.36 100.678 85.084 99.7418 84.532C98.8298 83.956 98.1338 83.212 97.6538 82.3C97.1738 81.388 96.9338 80.404 96.9338 79.348C96.9338 78.316 97.1738 77.356 97.6538 76.468C98.1338 75.556 98.8298 74.824 99.7418 74.272C100.678 73.696 101.818 73.408 103.162 73.408C104.506 73.408 105.634 73.696 106.546 74.272C107.458 74.824 108.154 75.556 108.634 76.468C109.114 77.356 109.354 78.316 109.354 79.348C109.354 80.404 109.114 81.388 108.634 82.3C108.154 83.212 107.458 83.956 106.546 84.532C105.634 85.084 104.506 85.36 103.162 85.36ZM103.126 81.904C103.894 81.904 104.482 81.652 104.89 81.148C105.298 80.644 105.502 80.056 105.502 79.384C105.502 78.736 105.298 78.16 104.89 77.656C104.482 77.152 103.894 76.9 103.126 76.9C102.382 76.9 101.794 77.152 101.362 77.656C100.954 78.16 100.75 78.736 100.75 79.384C100.75 80.056 100.954 80.644 101.362 81.148C101.794 81.652 102.382 81.904 103.126 81.904Z" fill="white"/>
<path d="M37.7854 97V91.82H41.0754V92.422H38.4714V94.06H40.7534V94.662H38.4714V96.398H41.1104V97H37.7854ZM41.7062 97V93.29H42.3712V93.752H42.3992C42.4785 93.612 42.5952 93.4883 42.7492 93.381C42.9032 93.2737 43.1202 93.22 43.4002 93.22C43.4795 93.22 43.5519 93.2247 43.6172 93.234C43.6825 93.2387 43.7152 93.241 43.7152 93.241V93.878C43.7152 93.878 43.6779 93.8757 43.6032 93.871C43.5332 93.8617 43.4585 93.857 43.3792 93.857C43.0572 93.857 42.8075 93.9503 42.6302 94.137C42.4575 94.319 42.3712 94.6177 42.3712 95.033V97H41.7062ZM44.5998 97V93.836H43.9908V93.29H44.5998V92.835C44.5998 92.639 44.6348 92.4477 44.7048 92.261C44.7748 92.0697 44.8914 91.9133 45.0548 91.792C45.2181 91.6707 45.4398 91.61 45.7198 91.61C45.8551 91.61 45.9624 91.6217 46.0418 91.645C46.1258 91.6637 46.1678 91.673 46.1678 91.673V92.198C46.1678 92.198 46.1304 92.191 46.0558 92.177C45.9858 92.1583 45.9041 92.149 45.8108 92.149C45.5961 92.149 45.4514 92.2143 45.3768 92.345C45.3021 92.4757 45.2648 92.639 45.2648 92.835V93.29H46.1258V93.836H45.2648V97H44.5998ZM48.0611 97.07C47.6644 97.07 47.3307 96.979 47.0601 96.797C46.7894 96.6103 46.5841 96.37 46.4441 96.076C46.3041 95.782 46.2341 95.4717 46.2341 95.145C46.2341 94.8137 46.3041 94.5033 46.4441 94.214C46.5841 93.92 46.7894 93.682 47.0601 93.5C47.3307 93.3133 47.6644 93.22 48.0611 93.22C48.4577 93.22 48.7914 93.3133 49.0621 93.5C49.3327 93.682 49.5381 93.92 49.6781 94.214C49.8181 94.5033 49.8881 94.8137 49.8881 95.145C49.8881 95.4717 49.8181 95.782 49.6781 96.076C49.5381 96.37 49.3327 96.6103 49.0621 96.797C48.7914 96.979 48.4577 97.07 48.0611 97.07ZM48.0611 96.489C48.3131 96.489 48.5231 96.426 48.6911 96.3C48.8637 96.1693 48.9921 96.0013 49.0761 95.796C49.1647 95.5907 49.2091 95.3737 49.2091 95.145C49.2091 94.9117 49.1647 94.6947 49.0761 94.494C48.9921 94.2887 48.8637 94.123 48.6911 93.997C48.5231 93.8663 48.3131 93.801 48.0611 93.801C47.8137 93.801 47.6037 93.8663 47.4311 93.997C47.2584 94.123 47.1277 94.2887 47.0391 94.494C46.9551 94.6947 46.9131 94.9117 46.9131 95.145C46.9131 95.3737 46.9551 95.5907 47.0391 95.796C47.1277 96.0013 47.2584 96.1693 47.4311 96.3C47.6037 96.426 47.8137 96.489 48.0611 96.489ZM50.5153 97L50.5223 91.68H51.1803V97H50.5153ZM53.6645 98.47C53.3565 98.47 53.0998 98.428 52.8945 98.344C52.6891 98.2647 52.5235 98.162 52.3975 98.036C52.2761 97.9147 52.1851 97.7933 52.1245 97.672C52.0638 97.5507 52.0241 97.448 52.0055 97.364C51.9868 97.2847 51.9775 97.245 51.9775 97.245H52.6425C52.6425 97.245 52.6541 97.2777 52.6775 97.343C52.7008 97.4083 52.7451 97.483 52.8105 97.567C52.8805 97.651 52.9831 97.7257 53.1185 97.791C53.2538 97.8563 53.4358 97.889 53.6645 97.889C53.9351 97.889 54.1475 97.8353 54.3015 97.728C54.4555 97.6253 54.5651 97.49 54.6305 97.322C54.7005 97.154 54.7355 96.9767 54.7355 96.79V96.363H54.7005C54.6538 96.4423 54.5791 96.5333 54.4765 96.636C54.3785 96.734 54.2478 96.8203 54.0845 96.895C53.9211 96.965 53.7205 97 53.4825 97C53.2025 97 52.9575 96.9463 52.7475 96.839C52.5375 96.7317 52.3625 96.587 52.2225 96.405C52.0871 96.223 51.9845 96.02 51.9145 95.796C51.8445 95.572 51.8095 95.3433 51.8095 95.11C51.8095 94.8767 51.8445 94.648 51.9145 94.424C51.9845 94.2 52.0871 93.997 52.2225 93.815C52.3625 93.633 52.5375 93.4883 52.7475 93.381C52.9575 93.2737 53.2025 93.22 53.4825 93.22C53.7205 93.22 53.9211 93.2573 54.0845 93.332C54.2478 93.402 54.3785 93.486 54.4765 93.584C54.5791 93.682 54.6538 93.773 54.7005 93.857H54.7355V93.29H55.4005V96.783C55.4005 97.301 55.2488 97.7117 54.9455 98.015C54.6468 98.3183 54.2198 98.47 53.6645 98.47ZM53.6085 96.433C53.8558 96.433 54.0611 96.37 54.2245 96.244C54.3925 96.1133 54.5161 95.9477 54.5955 95.747C54.6795 95.5463 54.7215 95.334 54.7215 95.11C54.7215 94.886 54.6795 94.6737 54.5955 94.473C54.5161 94.2677 54.3925 94.102 54.2245 93.976C54.0611 93.85 53.8558 93.787 53.6085 93.787C53.3611 93.787 53.1535 93.85 52.9855 93.976C52.8175 94.102 52.6915 94.2677 52.6075 94.473C52.5281 94.6737 52.4885 94.886 52.4885 95.11C52.4885 95.334 52.5281 95.5463 52.6075 95.747C52.6915 95.9477 52.8175 96.1133 52.9855 96.244C53.1535 96.37 53.3611 96.433 53.6085 96.433ZM57.3855 97.07C57.1008 97.07 56.8652 97.0303 56.6785 96.951C56.4965 96.8717 56.3518 96.7737 56.2445 96.657C56.1372 96.5357 56.0578 96.4167 56.0065 96.3C55.9552 96.1787 55.9225 96.0783 55.9085 95.999C55.8945 95.9197 55.8875 95.88 55.8875 95.88H56.5595C56.5595 95.88 56.5665 95.9127 56.5805 95.978C56.5992 96.0387 56.6342 96.111 56.6855 96.195C56.7415 96.2743 56.8255 96.3467 56.9375 96.412C57.0542 96.4727 57.2082 96.503 57.3995 96.503C57.6188 96.503 57.7892 96.4517 57.9105 96.349C58.0318 96.2417 58.0925 96.111 58.0925 95.957C58.0925 95.8217 58.0435 95.7143 57.9455 95.635C57.8522 95.5557 57.7168 95.495 57.5395 95.453L57.0355 95.334C56.8488 95.2873 56.6738 95.2243 56.5105 95.145C56.3472 95.0657 56.2142 94.9583 56.1115 94.823C56.0135 94.683 55.9645 94.5103 55.9645 94.305C55.9645 93.9877 56.0835 93.7287 56.3215 93.528C56.5595 93.3227 56.8698 93.22 57.2525 93.22C57.5092 93.22 57.7215 93.2573 57.8895 93.332C58.0575 93.402 58.1905 93.4907 58.2885 93.598C58.3912 93.7053 58.4658 93.8127 58.5125 93.92C58.5638 94.0273 58.5965 94.1183 58.6105 94.193C58.6245 94.263 58.6315 94.298 58.6315 94.298H57.9875C57.9875 94.298 57.9805 94.2723 57.9665 94.221C57.9525 94.165 57.9198 94.1043 57.8685 94.039C57.8218 93.969 57.7495 93.9083 57.6515 93.857C57.5535 93.801 57.4228 93.773 57.2595 93.773C57.0355 93.773 56.8722 93.8243 56.7695 93.927C56.6668 94.0297 56.6155 94.1417 56.6155 94.263C56.6155 94.3797 56.6622 94.4753 56.7555 94.55C56.8535 94.62 56.9795 94.6737 57.1335 94.711L57.6445 94.83C57.9618 94.9047 58.2232 95.0283 58.4285 95.201C58.6385 95.369 58.7435 95.6117 58.7435 95.929C58.7435 96.1343 58.6898 96.3257 58.5825 96.503C58.4752 96.6757 58.3212 96.8133 58.1205 96.916C57.9198 97.0187 57.6748 97.07 57.3855 97.07ZM60.0475 97L58.8505 93.29H59.5295L60.4115 96.104L61.3355 93.29H61.9655L62.8825 96.104L63.7715 93.29H64.4505L63.2465 97H62.5325L61.6505 94.263L60.7685 97H60.0475ZM66.3096 93.22C66.5429 93.22 66.7389 93.2573 66.8976 93.332C67.0562 93.4067 67.1846 93.4953 67.2826 93.598C67.3806 93.696 67.4552 93.7893 67.5066 93.878H67.5486V93.29H68.2136V97H67.5486V96.412H67.5066C67.4552 96.5007 67.3806 96.5963 67.2826 96.699C67.1846 96.8017 67.0562 96.8903 66.8976 96.965C66.7389 97.035 66.5429 97.07 66.3096 97.07C66.0296 97.07 65.7846 97.0163 65.5746 96.909C65.3646 96.797 65.1896 96.65 65.0496 96.468C64.9096 96.2813 64.8046 96.0737 64.7346 95.845C64.6646 95.6163 64.6296 95.383 64.6296 95.145C64.6296 94.907 64.6646 94.6737 64.7346 94.445C64.8046 94.2163 64.9096 94.011 65.0496 93.829C65.1896 93.6423 65.3646 93.4953 65.5746 93.388C65.7846 93.276 66.0296 93.22 66.3096 93.22ZM66.4216 93.787C66.1742 93.787 65.9666 93.8547 65.7986 93.99C65.6306 94.1207 65.5046 94.2887 65.4206 94.494C65.3412 94.6993 65.3016 94.9163 65.3016 95.145C65.3016 95.369 65.3412 95.586 65.4206 95.796C65.5046 96.0013 65.6306 96.1717 65.7986 96.307C65.9666 96.4377 66.1742 96.503 66.4216 96.503C66.6689 96.503 66.8742 96.4377 67.0376 96.307C67.2056 96.1717 67.3292 96.0013 67.4086 95.796C67.4926 95.586 67.5346 95.369 67.5346 95.145C67.5346 94.9163 67.4926 94.6993 67.4086 94.494C67.3292 94.2887 67.2056 94.1207 67.0376 93.99C66.8742 93.8547 66.6689 93.787 66.4216 93.787ZM68.9108 97V91.68H69.5758V93.829H69.6178C69.6504 93.773 69.7041 93.696 69.7788 93.598C69.8581 93.5 69.9701 93.4137 70.1148 93.339C70.2594 93.2597 70.4414 93.22 70.6608 93.22C70.9314 93.22 71.1624 93.283 71.3538 93.409C71.5451 93.5303 71.6898 93.696 71.7878 93.906C71.8904 94.116 71.9418 94.3517 71.9418 94.613V97H71.2768V94.655C71.2768 94.4077 71.2068 94.2023 71.0668 94.039C70.9314 93.8757 70.7331 93.794 70.4718 93.794C70.2618 93.794 70.0914 93.8477 69.9608 93.955C69.8301 94.0577 69.7321 94.1953 69.6668 94.368C69.6061 94.536 69.5758 94.7157 69.5758 94.907V97H68.9108ZM72.5718 97V93.29H73.2368V93.752H73.2648C73.3442 93.612 73.4608 93.4883 73.6148 93.381C73.7688 93.2737 73.9858 93.22 74.2658 93.22C74.3452 93.22 74.4175 93.2247 74.4828 93.234C74.5482 93.2387 74.5808 93.241 74.5808 93.241V93.878C74.5808 93.878 74.5435 93.8757 74.4688 93.871C74.3988 93.8617 74.3242 93.857 74.2448 93.857C73.9228 93.857 73.6732 93.9503 73.4958 94.137C73.3232 94.319 73.2368 94.6177 73.2368 95.033V97H72.5718ZM76.321 97.07C76.0364 97.07 75.8007 97.0303 75.614 96.951C75.432 96.8717 75.2874 96.7737 75.18 96.657C75.0727 96.5357 74.9934 96.4167 74.942 96.3C74.8907 96.1787 74.858 96.0783 74.844 95.999C74.83 95.9197 74.823 95.88 74.823 95.88H75.495C75.495 95.88 75.502 95.9127 75.516 95.978C75.5347 96.0387 75.5697 96.111 75.621 96.195C75.677 96.2743 75.761 96.3467 75.873 96.412C75.9897 96.4727 76.1437 96.503 76.335 96.503C76.5544 96.503 76.7247 96.4517 76.846 96.349C76.9674 96.2417 77.028 96.111 77.028 95.957C77.028 95.8217 76.979 95.7143 76.881 95.635C76.7877 95.5557 76.6524 95.495 76.475 95.453L75.971 95.334C75.7844 95.2873 75.6094 95.2243 75.446 95.145C75.2827 95.0657 75.1497 94.9583 75.047 94.823C74.949 94.683 74.9 94.5103 74.9 94.305C74.9 93.9877 75.019 93.7287 75.257 93.528C75.495 93.3227 75.8054 93.22 76.188 93.22C76.4447 93.22 76.657 93.2573 76.825 93.332C76.993 93.402 77.126 93.4907 77.224 93.598C77.3267 93.7053 77.4014 93.8127 77.448 93.92C77.4994 94.0273 77.532 94.1183 77.546 94.193C77.56 94.263 77.567 94.298 77.567 94.298H76.923C76.923 94.298 76.916 94.2723 76.902 94.221C76.888 94.165 76.8554 94.1043 76.804 94.039C76.7574 93.969 76.685 93.9083 76.587 93.857C76.489 93.801 76.3584 93.773 76.195 93.773C75.971 93.773 75.8077 93.8243 75.705 93.927C75.6024 94.0297 75.551 94.1417 75.551 94.263C75.551 94.3797 75.5977 94.4753 75.691 94.55C75.789 94.62 75.915 94.6737 76.069 94.711L76.58 94.83C76.8974 94.9047 77.1587 95.0283 77.364 95.201C77.574 95.369 77.679 95.6117 77.679 95.929C77.679 96.1343 77.6254 96.3257 77.518 96.503C77.4107 96.6757 77.2567 96.8133 77.056 96.916C76.8554 97.0187 76.6104 97.07 76.321 97.07ZM79.8564 97.07C79.553 97.07 79.287 97.0163 79.0584 96.909C78.8297 96.797 78.6384 96.65 78.4844 96.468C78.335 96.2813 78.2207 96.0737 78.1414 95.845C78.0667 95.6163 78.0294 95.383 78.0294 95.145C78.0294 94.907 78.0667 94.676 78.1414 94.452C78.216 94.2233 78.328 94.0157 78.4774 93.829C78.6314 93.6423 78.8227 93.4953 79.0514 93.388C79.28 93.276 79.5484 93.22 79.8564 93.22C80.155 93.22 80.4024 93.2643 80.5984 93.353C80.7944 93.4417 80.9507 93.5537 81.0674 93.689C81.1887 93.8197 81.2774 93.9527 81.3334 94.088C81.394 94.2187 81.4337 94.3283 81.4524 94.417C81.471 94.5057 81.4804 94.55 81.4804 94.55H80.8364C80.8364 94.55 80.8247 94.5127 80.8014 94.438C80.778 94.3587 80.7337 94.27 80.6684 94.172C80.603 94.074 80.505 93.9877 80.3744 93.913C80.2437 93.8337 80.071 93.794 79.8564 93.794C79.5997 93.794 79.3827 93.8593 79.2054 93.99C79.0327 94.116 78.902 94.2817 78.8134 94.487C78.7294 94.6923 78.6874 94.9117 78.6874 95.145C78.6874 95.3783 78.7294 95.5977 78.8134 95.803C78.902 96.0083 79.0327 96.1763 79.2054 96.307C79.3827 96.433 79.5997 96.496 79.8564 96.496C80.071 96.496 80.2437 96.4587 80.3744 96.384C80.505 96.3047 80.603 96.216 80.6684 96.118C80.7337 96.02 80.778 95.9337 80.8014 95.859C80.8247 95.7797 80.8364 95.74 80.8364 95.74H81.4804C81.4804 95.74 81.471 95.7843 81.4524 95.873C81.4337 95.9617 81.394 96.0737 81.3334 96.209C81.2774 96.3397 81.1887 96.4727 81.0674 96.608C80.9507 96.7387 80.7944 96.8483 80.5984 96.937C80.4024 97.0257 80.155 97.07 79.8564 97.07ZM82.1123 97V91.68H82.7773V93.829H82.8193C82.852 93.773 82.9057 93.696 82.9803 93.598C83.0597 93.5 83.1717 93.4137 83.3163 93.339C83.461 93.2597 83.643 93.22 83.8623 93.22C84.133 93.22 84.364 93.283 84.5553 93.409C84.7467 93.5303 84.8913 93.696 84.9893 93.906C85.092 94.116 85.1433 94.3517 85.1433 94.613V97H84.4783V94.655C84.4783 94.4077 84.4083 94.2023 84.2683 94.039C84.133 93.8757 83.9347 93.794 83.6733 93.794C83.4633 93.794 83.293 93.8477 83.1623 93.955C83.0317 94.0577 82.9337 94.1953 82.8683 94.368C82.8077 94.536 82.7773 94.7157 82.7773 94.907V97H82.1123ZM87.4604 97.07C87.1571 97.07 86.8934 97.0163 86.6694 96.909C86.4501 96.797 86.2681 96.6477 86.1234 96.461C85.9834 96.2743 85.8784 96.069 85.8084 95.845C85.7384 95.6163 85.7034 95.383 85.7034 95.145C85.7034 94.9117 85.7361 94.6807 85.8014 94.452C85.8714 94.2233 85.9764 94.0157 86.1164 93.829C86.2611 93.6423 86.4407 93.4953 86.6554 93.388C86.8747 93.276 87.1337 93.22 87.4324 93.22C87.7497 93.22 88.0297 93.2923 88.2724 93.437C88.5151 93.5817 88.7064 93.7963 88.8464 94.081C88.9864 94.3657 89.0564 94.7227 89.0564 95.152V95.348H86.3754C86.3894 95.558 86.4384 95.7517 86.5224 95.929C86.6111 96.1017 86.7347 96.2417 86.8934 96.349C87.0521 96.4517 87.2411 96.503 87.4604 96.503C87.6517 96.503 87.8057 96.4727 87.9224 96.412C88.0437 96.3467 88.1394 96.272 88.2094 96.188C88.2794 96.104 88.3261 96.0317 88.3494 95.971C88.3774 95.9057 88.3914 95.873 88.3914 95.873H89.0144C89.0144 95.873 89.0027 95.915 88.9794 95.999C88.9561 96.0783 88.9141 96.1763 88.8534 96.293C88.7927 96.4097 88.7041 96.5287 88.5874 96.65C88.4707 96.7667 88.3214 96.867 88.1394 96.951C87.9574 97.0303 87.7311 97.07 87.4604 97.07ZM86.3824 94.83H88.4054C88.3961 94.5873 88.3447 94.3913 88.2514 94.242C88.1581 94.088 88.0391 93.9737 87.8944 93.899C87.7497 93.8243 87.5957 93.787 87.4324 93.787C87.1384 93.787 86.8981 93.8827 86.7114 94.074C86.5247 94.2607 86.4151 94.5127 86.3824 94.83ZM90.0478 92.583C89.9218 92.583 89.8168 92.541 89.7328 92.457C89.6535 92.373 89.6138 92.2727 89.6138 92.156C89.6138 92.0347 89.6535 91.932 89.7328 91.848C89.8168 91.764 89.9218 91.722 90.0478 91.722C90.1692 91.722 90.2718 91.764 90.3558 91.848C90.4398 91.932 90.4818 92.0347 90.4818 92.156C90.4818 92.2727 90.4398 92.373 90.3558 92.457C90.2718 92.541 90.1692 92.583 90.0478 92.583ZM89.7188 97V93.29H90.3838V97H89.7188ZM91.1095 97V93.29H91.7745V93.829H91.8165C91.8492 93.773 91.9029 93.696 91.9775 93.598C92.0569 93.5 92.1689 93.4137 92.3135 93.339C92.4582 93.2597 92.6402 93.22 92.8595 93.22C93.1302 93.22 93.3612 93.283 93.5525 93.409C93.7439 93.5303 93.8885 93.696 93.9865 93.906C94.0892 94.116 94.1405 94.3517 94.1405 94.613V97H93.4755V94.655C93.4755 94.4077 93.4055 94.2023 93.2655 94.039C93.1302 93.8757 92.9319 93.794 92.6705 93.794C92.4605 93.794 92.2902 93.8477 92.1595 93.955C92.0289 94.0577 91.9309 94.1953 91.8655 94.368C91.8049 94.536 91.7745 94.7157 91.7745 94.907V97H91.1095ZM94.8422 97L94.8492 91.68H95.5072V97H94.8422ZM96.6404 92.583C96.5144 92.583 96.4094 92.541 96.3254 92.457C96.2461 92.373 96.2064 92.2727 96.2064 92.156C96.2064 92.0347 96.2461 91.932 96.3254 91.848C96.4094 91.764 96.5144 91.722 96.6404 91.722C96.7617 91.722 96.8644 91.764 96.9484 91.848C97.0324 91.932 97.0744 92.0347 97.0744 92.156C97.0744 92.2727 97.0324 92.373 96.9484 92.457C96.8644 92.541 96.7617 92.583 96.6404 92.583ZM96.3114 97V93.29H96.9764V97H96.3114ZM99.4591 97.07C99.1558 97.07 98.8898 97.0163 98.6611 96.909C98.4324 96.797 98.2411 96.65 98.0871 96.468C97.9378 96.2813 97.8234 96.0737 97.7441 95.845C97.6694 95.6163 97.6321 95.383 97.6321 95.145C97.6321 94.907 97.6694 94.676 97.7441 94.452C97.8188 94.2233 97.9308 94.0157 98.0801 93.829C98.2341 93.6423 98.4254 93.4953 98.6541 93.388C98.8828 93.276 99.1511 93.22 99.4591 93.22C99.7578 93.22 100.005 93.2643 100.201 93.353C100.397 93.4417 100.553 93.5537 100.67 93.689C100.791 93.8197 100.88 93.9527 100.936 94.088C100.997 94.2187 101.036 94.3283 101.055 94.417C101.074 94.5057 101.083 94.55 101.083 94.55H100.439C100.439 94.55 100.427 94.5127 100.404 94.438C100.381 94.3587 100.336 94.27 100.271 94.172C100.206 94.074 100.108 93.9877 99.9771 93.913C99.8464 93.8337 99.6738 93.794 99.4591 93.794C99.2024 93.794 98.9854 93.8593 98.8081 93.99C98.6354 94.116 98.5048 94.2817 98.4161 94.487C98.3321 94.6923 98.2901 94.9117 98.2901 95.145C98.2901 95.3783 98.3321 95.5977 98.4161 95.803C98.5048 96.0083 98.6354 96.1763 98.8081 96.307C98.9854 96.433 99.2024 96.496 99.4591 96.496C99.6738 96.496 99.8464 96.4587 99.9771 96.384C100.108 96.3047 100.206 96.216 100.271 96.118C100.336 96.02 100.381 95.9337 100.404 95.859C100.427 95.7797 100.439 95.74 100.439 95.74H101.083C101.083 95.74 101.074 95.7843 101.055 95.873C101.036 95.9617 100.997 96.0737 100.936 96.209C100.88 96.3397 100.791 96.4727 100.67 96.608C100.553 96.7387 100.397 96.8483 100.201 96.937C100.005 97.0257 99.7578 97.07 99.4591 97.07ZM101.715 97V91.68H102.38V93.829H102.422C102.455 93.773 102.508 93.696 102.583 93.598C102.662 93.5 102.774 93.4137 102.919 93.339C103.064 93.2597 103.246 93.22 103.465 93.22C103.736 93.22 103.967 93.283 104.158 93.409C104.349 93.5303 104.494 93.696 104.592 93.906C104.695 94.116 104.746 94.3517 104.746 94.613V97H104.081V94.655C104.081 94.4077 104.011 94.2023 103.871 94.039C103.736 93.8757 103.537 93.794 103.276 93.794C103.066 93.794 102.896 93.8477 102.765 93.955C102.634 94.0577 102.536 94.1953 102.471 94.368C102.41 94.536 102.38 94.7157 102.38 94.907V97H101.715ZM105.446 97V91.68H106.111V94.774L107.588 93.29H108.456L106.748 94.977L108.491 97H107.644L106.111 95.215V97H105.446ZM110.281 97.07C109.978 97.07 109.714 97.0163 109.49 96.909C109.271 96.797 109.089 96.6477 108.944 96.461C108.804 96.2743 108.699 96.069 108.629 95.845C108.559 95.6163 108.524 95.383 108.524 95.145C108.524 94.9117 108.557 94.6807 108.622 94.452C108.692 94.2233 108.797 94.0157 108.937 93.829C109.082 93.6423 109.262 93.4953 109.476 93.388C109.696 93.276 109.955 93.22 110.253 93.22C110.571 93.22 110.851 93.2923 111.093 93.437C111.336 93.5817 111.527 93.7963 111.667 94.081C111.807 94.3657 111.877 94.7227 111.877 95.152V95.348H109.196C109.21 95.558 109.259 95.7517 109.343 95.929C109.432 96.1017 109.556 96.2417 109.714 96.349C109.873 96.4517 110.062 96.503 110.281 96.503C110.473 96.503 110.627 96.4727 110.743 96.412C110.865 96.3467 110.96 96.272 111.03 96.188C111.1 96.104 111.147 96.0317 111.17 95.971C111.198 95.9057 111.212 95.873 111.212 95.873H111.835C111.835 95.873 111.824 95.915 111.8 95.999C111.777 96.0783 111.735 96.1763 111.674 96.293C111.614 96.4097 111.525 96.5287 111.408 96.65C111.292 96.7667 111.142 96.867 110.96 96.951C110.778 97.0303 110.552 97.07 110.281 97.07ZM109.203 94.83H111.226C111.217 94.5873 111.166 94.3913 111.072 94.242C110.979 94.088 110.86 93.9737 110.715 93.899C110.571 93.8243 110.417 93.787 110.253 93.787C109.959 93.787 109.719 93.8827 109.532 94.074C109.346 94.2607 109.236 94.5127 109.203 94.83ZM112.869 92.583C112.743 92.583 112.638 92.541 112.554 92.457C112.475 92.373 112.435 92.2727 112.435 92.156C112.435 92.0347 112.475 91.932 112.554 91.848C112.638 91.764 112.743 91.722 112.869 91.722C112.99 91.722 113.093 91.764 113.177 91.848C113.261 91.932 113.303 92.0347 113.303 92.156C113.303 92.2727 113.261 92.373 113.177 92.457C113.093 92.541 112.99 92.583 112.869 92.583ZM112.54 97V93.29H113.205V97H112.54ZM115.506 97.07C115.123 97.07 114.834 96.972 114.638 96.776C114.446 96.58 114.351 96.3047 114.351 95.95V93.836H113.686V93.29H114.351V92.359H115.016V93.29H115.919V93.836H115.016V95.95C115.016 96.1367 115.067 96.2743 115.17 96.363C115.272 96.447 115.422 96.489 115.618 96.489C115.72 96.489 115.818 96.482 115.912 96.468C116.005 96.454 116.052 96.447 116.052 96.447V97.014C116.052 97.014 115.998 97.0233 115.891 97.042C115.783 97.0607 115.655 97.07 115.506 97.07ZM41.9926 108V104.29H42.6576V104.829H42.6996C42.7323 104.773 42.786 104.696 42.8606 104.598C42.94 104.5 43.052 104.414 43.1966 104.339C43.3413 104.26 43.5233 104.22 43.7426 104.22C44.0133 104.22 44.2443 104.283 44.4356 104.409C44.627 104.53 44.7716 104.696 44.8696 104.906C44.9723 105.116 45.0236 105.352 45.0236 105.613V108H44.3586V105.655C44.3586 105.408 44.2886 105.202 44.1486 105.039C44.0133 104.876 43.815 104.794 43.5536 104.794C43.3436 104.794 43.1733 104.848 43.0426 104.955C42.912 105.058 42.814 105.195 42.7486 105.368C42.688 105.536 42.6576 105.716 42.6576 105.907V108H41.9926ZM47.3423 108.07C47.039 108.07 46.7753 108.016 46.5513 107.909C46.332 107.797 46.15 107.648 46.0053 107.461C45.8653 107.274 45.7603 107.069 45.6903 106.845C45.6203 106.616 45.5853 106.383 45.5853 106.145C45.5853 105.912 45.618 105.681 45.6833 105.452C45.7533 105.223 45.8583 105.016 45.9983 104.829C46.143 104.642 46.3227 104.495 46.5373 104.388C46.7567 104.276 47.0157 104.22 47.3143 104.22C47.6317 104.22 47.9117 104.292 48.1543 104.437C48.397 104.582 48.5883 104.796 48.7283 105.081C48.8683 105.366 48.9383 105.723 48.9383 106.152V106.348H46.2573C46.2713 106.558 46.3203 106.752 46.4043 106.929C46.493 107.102 46.6167 107.242 46.7753 107.349C46.934 107.452 47.123 107.503 47.3423 107.503C47.5337 107.503 47.6877 107.473 47.8043 107.412C47.9257 107.347 48.0213 107.272 48.0913 107.188C48.1613 107.104 48.208 107.032 48.2313 106.971C48.2593 106.906 48.2733 106.873 48.2733 106.873H48.8963C48.8963 106.873 48.8847 106.915 48.8613 106.999C48.838 107.078 48.796 107.176 48.7353 107.293C48.6747 107.41 48.586 107.529 48.4693 107.65C48.3527 107.767 48.2033 107.867 48.0213 107.951C47.8393 108.03 47.613 108.07 47.3423 108.07ZM46.2643 105.83H48.2873C48.278 105.587 48.2267 105.391 48.1333 105.242C48.04 105.088 47.921 104.974 47.7763 104.899C47.6317 104.824 47.4777 104.787 47.3143 104.787C47.0203 104.787 46.78 104.883 46.5933 105.074C46.4067 105.261 46.297 105.513 46.2643 105.83ZM50.7068 108.07C50.3381 108.07 50.0441 107.956 49.8248 107.727C49.6054 107.498 49.4958 107.181 49.4958 106.775V104.29H50.1608V106.74C50.1608 106.983 50.2261 107.169 50.3568 107.3C50.4921 107.431 50.6694 107.496 50.8888 107.496C51.1128 107.496 51.2924 107.438 51.4278 107.321C51.5631 107.204 51.6611 107.055 51.7218 106.873C51.7824 106.691 51.8128 106.504 51.8128 106.313V104.29H52.4778V108H51.8128V107.468H51.7708C51.7428 107.524 51.6891 107.601 51.6098 107.699C51.5304 107.792 51.4184 107.879 51.2738 107.958C51.1291 108.033 50.9401 108.07 50.7068 108.07ZM54.7976 108.07C54.4943 108.07 54.2306 108.016 54.0066 107.909C53.7873 107.797 53.6053 107.648 53.4606 107.461C53.3206 107.274 53.2156 107.069 53.1456 106.845C53.0756 106.616 53.0406 106.383 53.0406 106.145C53.0406 105.912 53.0733 105.681 53.1386 105.452C53.2086 105.223 53.3136 105.016 53.4536 104.829C53.5983 104.642 53.7779 104.495 53.9926 104.388C54.2119 104.276 54.4709 104.22 54.7696 104.22C55.0869 104.22 55.3669 104.292 55.6096 104.437C55.8523 104.582 56.0436 104.796 56.1836 105.081C56.3236 105.366 56.3936 105.723 56.3936 106.152V106.348H53.7126C53.7266 106.558 53.7756 106.752 53.8596 106.929C53.9483 107.102 54.0719 107.242 54.2306 107.349C54.3893 107.452 54.5783 107.503 54.7976 107.503C54.9889 107.503 55.1429 107.473 55.2596 107.412C55.3809 107.347 55.4766 107.272 55.5466 107.188C55.6166 107.104 55.6633 107.032 55.6866 106.971C55.7146 106.906 55.7286 106.873 55.7286 106.873H56.3516C56.3516 106.873 56.3399 106.915 56.3166 106.999C56.2933 107.078 56.2513 107.176 56.1906 107.293C56.1299 107.41 56.0413 107.529 55.9246 107.65C55.8079 107.767 55.6586 107.867 55.4766 107.951C55.2946 108.03 55.0683 108.07 54.7976 108.07ZM53.7196 105.83H55.7426C55.7333 105.587 55.6819 105.391 55.5886 105.242C55.4953 105.088 55.3763 104.974 55.2316 104.899C55.0869 104.824 54.9329 104.787 54.7696 104.787C54.4756 104.787 54.2353 104.883 54.0486 105.074C53.8619 105.261 53.7523 105.513 53.7196 105.83ZM56.951 108V104.29H57.616V104.752H57.644C57.7234 104.612 57.84 104.488 57.994 104.381C58.148 104.274 58.365 104.22 58.645 104.22C58.7244 104.22 58.7967 104.225 58.862 104.234C58.9274 104.239 58.96 104.241 58.96 104.241V104.878C58.96 104.878 58.9227 104.876 58.848 104.871C58.778 104.862 58.7034 104.857 58.624 104.857C58.302 104.857 58.0524 104.95 57.875 105.137C57.7024 105.319 57.616 105.618 57.616 106.033V108H56.951ZM62.1525 108L60.3255 102.82H61.0535L62.5865 107.216L64.1195 102.82H64.8475L63.0135 108H62.1525ZM66.5705 108.07C66.2671 108.07 66.0035 108.016 65.7795 107.909C65.5601 107.797 65.3781 107.648 65.2335 107.461C65.0935 107.274 64.9885 107.069 64.9185 106.845C64.8485 106.616 64.8135 106.383 64.8135 106.145C64.8135 105.912 64.8461 105.681 64.9115 105.452C64.9815 105.223 65.0865 105.016 65.2265 104.829C65.3711 104.642 65.5508 104.495 65.7655 104.388C65.9848 104.276 66.2438 104.22 66.5425 104.22C66.8598 104.22 67.1398 104.292 67.3825 104.437C67.6251 104.582 67.8165 104.796 67.9565 105.081C68.0965 105.366 68.1665 105.723 68.1665 106.152V106.348H65.4855C65.4995 106.558 65.5485 106.752 65.6325 106.929C65.7211 107.102 65.8448 107.242 66.0035 107.349C66.1621 107.452 66.3511 107.503 66.5705 107.503C66.7618 107.503 66.9158 107.473 67.0325 107.412C67.1538 107.347 67.2495 107.272 67.3195 107.188C67.3895 107.104 67.4361 107.032 67.4595 106.971C67.4875 106.906 67.5015 106.873 67.5015 106.873H68.1245C68.1245 106.873 68.1128 106.915 68.0895 106.999C68.0661 107.078 68.0241 107.176 67.9635 107.293C67.9028 107.41 67.8141 107.529 67.6975 107.65C67.5808 107.767 67.4315 107.867 67.2495 107.951C67.0675 108.03 66.8411 108.07 66.5705 108.07ZM65.4925 105.83H67.5155C67.5061 105.587 67.4548 105.391 67.3615 105.242C67.2681 105.088 67.1491 104.974 67.0045 104.899C66.8598 104.824 66.7058 104.787 66.5425 104.787C66.2485 104.787 66.0081 104.883 65.8215 105.074C65.6348 105.261 65.5251 105.513 65.4925 105.83ZM68.7239 108V104.29H69.3889V104.752H69.4169C69.4962 104.612 69.6129 104.488 69.7669 104.381C69.9209 104.274 70.1379 104.22 70.4179 104.22C70.4972 104.22 70.5696 104.225 70.6349 104.234C70.7002 104.239 70.7329 104.241 70.7329 104.241V104.878C70.7329 104.878 70.6956 104.876 70.6209 104.871C70.5509 104.862 70.4762 104.857 70.3969 104.857C70.0749 104.857 69.8252 104.95 69.6479 105.137C69.4752 105.319 69.3889 105.618 69.3889 106.033V108H68.7239ZM72.6901 108.07C72.3074 108.07 72.0181 107.972 71.8221 107.776C71.6308 107.58 71.5351 107.305 71.5351 106.95V104.836H70.8701V104.29H71.5351V103.359H72.2001V104.29H73.1031V104.836H72.2001V106.95C72.2001 107.137 72.2514 107.274 72.3541 107.363C72.4568 107.447 72.6061 107.489 72.8021 107.489C72.9048 107.489 73.0028 107.482 73.0961 107.468C73.1894 107.454 73.2361 107.447 73.2361 107.447V108.014C73.2361 108.014 73.1824 108.023 73.0751 108.042C72.9678 108.061 72.8394 108.07 72.6901 108.07ZM73.7592 108V104.29H74.4242V104.752H74.4522C74.5316 104.612 74.6482 104.488 74.8022 104.381C74.9562 104.274 75.1732 104.22 75.4532 104.22C75.5326 104.22 75.6049 104.225 75.6702 104.234C75.7356 104.239 75.7682 104.241 75.7682 104.241V104.878C75.7682 104.878 75.7309 104.876 75.6562 104.871C75.5862 104.862 75.5116 104.857 75.4322 104.857C75.1102 104.857 74.8606 104.95 74.6832 105.137C74.5106 105.319 74.4242 105.618 74.4242 106.033V108H73.7592ZM76.7212 103.583C76.5952 103.583 76.4902 103.541 76.4062 103.457C76.3268 103.373 76.2872 103.273 76.2872 103.156C76.2872 103.035 76.3268 102.932 76.4062 102.848C76.4902 102.764 76.5952 102.722 76.7212 102.722C76.8425 102.722 76.9452 102.764 77.0292 102.848C77.1132 102.932 77.1552 103.035 77.1552 103.156C77.1552 103.273 77.1132 103.373 77.0292 103.457C76.9452 103.541 76.8425 103.583 76.7212 103.583ZM76.3922 108V104.29H77.0572V108H76.3922ZM79.4699 108.07C79.1665 108.07 78.9029 108.016 78.6789 107.909C78.4595 107.797 78.2775 107.648 78.1329 107.461C77.9929 107.274 77.8879 107.069 77.8179 106.845C77.7479 106.616 77.7129 106.383 77.7129 106.145C77.7129 105.912 77.7455 105.681 77.8109 105.452C77.8809 105.223 77.9859 105.016 78.1259 104.829C78.2705 104.642 78.4502 104.495 78.6649 104.388C78.8842 104.276 79.1432 104.22 79.4419 104.22C79.7592 104.22 80.0392 104.292 80.2819 104.437C80.5245 104.582 80.7159 104.796 80.8559 105.081C80.9959 105.366 81.0659 105.723 81.0659 106.152V106.348H78.3849C78.3989 106.558 78.4479 106.752 78.5319 106.929C78.6205 107.102 78.7442 107.242 78.9029 107.349C79.0615 107.452 79.2505 107.503 79.4699 107.503C79.6612 107.503 79.8152 107.473 79.9319 107.412C80.0532 107.347 80.1489 107.272 80.2189 107.188C80.2889 107.104 80.3355 107.032 80.3589 106.971C80.3869 106.906 80.4009 106.873 80.4009 106.873H81.0239C81.0239 106.873 81.0122 106.915 80.9889 106.999C80.9655 107.078 80.9235 107.176 80.8629 107.293C80.8022 107.41 80.7135 107.529 80.5969 107.65C80.4802 107.767 80.3309 107.867 80.1489 107.951C79.9669 108.03 79.7405 108.07 79.4699 108.07ZM78.3919 105.83H80.4149C80.4055 105.587 80.3542 105.391 80.2609 105.242C80.1675 105.088 80.0485 104.974 79.9039 104.899C79.7592 104.824 79.6052 104.787 79.4419 104.787C79.1479 104.787 78.9075 104.883 78.7209 105.074C78.5342 105.261 78.4245 105.513 78.3919 105.83ZM83.5973 108.07C83.364 108.07 83.168 108.033 83.0093 107.958C82.8506 107.883 82.7223 107.795 82.6243 107.692C82.531 107.589 82.4563 107.496 82.4003 107.412H82.3583V108H81.6933V102.68H82.3583V104.878H82.4003C82.4563 104.789 82.531 104.694 82.6243 104.591C82.7223 104.488 82.8506 104.402 83.0093 104.332C83.168 104.257 83.364 104.22 83.5973 104.22C83.8773 104.22 84.1223 104.276 84.3323 104.388C84.5423 104.495 84.7173 104.642 84.8573 104.829C84.9973 105.011 85.1023 105.216 85.1723 105.445C85.2423 105.674 85.2773 105.907 85.2773 106.145C85.2773 106.383 85.2423 106.616 85.1723 106.845C85.1023 107.074 84.9973 107.281 84.8573 107.468C84.7173 107.65 84.5423 107.797 84.3323 107.909C84.1223 108.016 83.8773 108.07 83.5973 108.07ZM83.4853 107.503C83.7373 107.503 83.945 107.438 84.1083 107.307C84.2763 107.172 84.4 107.001 84.4793 106.796C84.5633 106.586 84.6053 106.369 84.6053 106.145C84.6053 105.916 84.5633 105.699 84.4793 105.494C84.4 105.289 84.2763 105.121 84.1083 104.99C83.945 104.855 83.7373 104.787 83.4853 104.787C83.238 104.787 83.0303 104.855 82.8623 104.99C82.699 105.121 82.5753 105.289 82.4913 105.494C82.412 105.699 82.3723 105.916 82.3723 106.145C82.3723 106.369 82.412 106.586 82.4913 106.796C82.5753 107.001 82.699 107.172 82.8623 107.307C83.0303 107.438 83.238 107.503 83.4853 107.503ZM87.1977 108.07C86.913 108.07 86.6774 108.03 86.4907 107.951C86.3087 107.872 86.164 107.774 86.0567 107.657C85.9494 107.536 85.87 107.417 85.8187 107.3C85.7674 107.179 85.7347 107.078 85.7207 106.999C85.7067 106.92 85.6997 106.88 85.6997 106.88H86.3717C86.3717 106.88 86.3787 106.913 86.3927 106.978C86.4114 107.039 86.4464 107.111 86.4977 107.195C86.5537 107.274 86.6377 107.347 86.7497 107.412C86.8664 107.473 87.0204 107.503 87.2117 107.503C87.431 107.503 87.6014 107.452 87.7227 107.349C87.844 107.242 87.9047 107.111 87.9047 106.957C87.9047 106.822 87.8557 106.714 87.7577 106.635C87.6644 106.556 87.529 106.495 87.3517 106.453L86.8477 106.334C86.661 106.287 86.486 106.224 86.3227 106.145C86.1594 106.066 86.0264 105.958 85.9237 105.823C85.8257 105.683 85.7767 105.51 85.7767 105.305C85.7767 104.988 85.8957 104.729 86.1337 104.528C86.3717 104.323 86.682 104.22 87.0647 104.22C87.3214 104.22 87.5337 104.257 87.7017 104.332C87.8697 104.402 88.0027 104.491 88.1007 104.598C88.2034 104.705 88.278 104.813 88.3247 104.92C88.376 105.027 88.4087 105.118 88.4227 105.193C88.4367 105.263 88.4437 105.298 88.4437 105.298H87.7997C87.7997 105.298 87.7927 105.272 87.7787 105.221C87.7647 105.165 87.732 105.104 87.6807 105.039C87.634 104.969 87.5617 104.908 87.4637 104.857C87.3657 104.801 87.235 104.773 87.0717 104.773C86.8477 104.773 86.6844 104.824 86.5817 104.927C86.479 105.03 86.4277 105.142 86.4277 105.263C86.4277 105.38 86.4744 105.475 86.5677 105.55C86.6657 105.62 86.7917 105.674 86.9457 105.711L87.4567 105.83C87.774 105.905 88.0354 106.028 88.2407 106.201C88.4507 106.369 88.5557 106.612 88.5557 106.929C88.5557 107.134 88.502 107.326 88.3947 107.503C88.2874 107.676 88.1334 107.813 87.9327 107.916C87.732 108.019 87.487 108.07 87.1977 108.07ZM89.1144 109.372V104.29H89.7794V104.878H89.8214C89.8774 104.789 89.9521 104.694 90.0454 104.591C90.1434 104.488 90.2717 104.402 90.4304 104.332C90.5891 104.257 90.7851 104.22 91.0184 104.22C91.2984 104.22 91.5434 104.276 91.7534 104.388C91.9634 104.495 92.1384 104.642 92.2784 104.829C92.4184 105.011 92.5234 105.216 92.5934 105.445C92.6634 105.674 92.6984 105.907 92.6984 106.145C92.6984 106.383 92.6634 106.616 92.5934 106.845C92.5234 107.074 92.4184 107.281 92.2784 107.468C92.1384 107.65 91.9634 107.797 91.7534 107.909C91.5434 108.016 91.2984 108.07 91.0184 108.07C90.7851 108.07 90.5891 108.033 90.4304 107.958C90.2717 107.883 90.1434 107.795 90.0454 107.692C89.9521 107.589 89.8774 107.496 89.8214 107.412H89.7794V109.372H89.1144ZM89.7934 106.145C89.7934 106.369 89.8331 106.586 89.9124 106.796C89.9964 107.001 90.1201 107.172 90.2834 107.307C90.4514 107.438 90.6591 107.503 90.9064 107.503C91.1584 107.503 91.3661 107.438 91.5294 107.307C91.6974 107.172 91.8211 107.001 91.9004 106.796C91.9844 106.586 92.0264 106.369 92.0264 106.145C92.0264 105.916 91.9844 105.699 91.9004 105.494C91.8211 105.289 91.6974 105.121 91.5294 104.99C91.3661 104.855 91.1584 104.787 90.9064 104.787C90.6591 104.787 90.4514 104.855 90.2834 104.99C90.1201 105.121 89.9964 105.289 89.9124 105.494C89.8331 105.699 89.7934 105.916 89.7934 106.145ZM94.8366 104.22C95.07 104.22 95.266 104.257 95.4246 104.332C95.5833 104.407 95.7116 104.495 95.8096 104.598C95.9076 104.696 95.9823 104.789 96.0336 104.878H96.0756V104.29H96.7406V108H96.0756V107.412H96.0336C95.9823 107.501 95.9076 107.596 95.8096 107.699C95.7116 107.802 95.5833 107.89 95.4246 107.965C95.266 108.035 95.07 108.07 94.8366 108.07C94.5566 108.07 94.3116 108.016 94.1016 107.909C93.8916 107.797 93.7166 107.65 93.5766 107.468C93.4366 107.281 93.3316 107.074 93.2616 106.845C93.1916 106.616 93.1566 106.383 93.1566 106.145C93.1566 105.907 93.1916 105.674 93.2616 105.445C93.3316 105.216 93.4366 105.011 93.5766 104.829C93.7166 104.642 93.8916 104.495 94.1016 104.388C94.3116 104.276 94.5566 104.22 94.8366 104.22ZM94.9486 104.787C94.7013 104.787 94.4936 104.855 94.3256 104.99C94.1576 105.121 94.0316 105.289 93.9476 105.494C93.8683 105.699 93.8286 105.916 93.8286 106.145C93.8286 106.369 93.8683 106.586 93.9476 106.796C94.0316 107.001 94.1576 107.172 94.3256 107.307C94.4936 107.438 94.7013 107.503 94.9486 107.503C95.196 107.503 95.4013 107.438 95.5646 107.307C95.7326 107.172 95.8563 107.001 95.9356 106.796C96.0196 106.586 96.0616 106.369 96.0616 106.145C96.0616 105.916 96.0196 105.699 95.9356 105.494C95.8563 105.289 95.7326 105.121 95.5646 104.99C95.4013 104.855 95.196 104.787 94.9486 104.787ZM97.3678 108V104.29H98.0328V104.752H98.0608C98.1402 104.612 98.2568 104.488 98.4108 104.381C98.5648 104.274 98.7818 104.22 99.0618 104.22C99.1412 104.22 99.2135 104.225 99.2788 104.234C99.3442 104.239 99.3768 104.241 99.3768 104.241V104.878C99.3768 104.878 99.3395 104.876 99.2648 104.871C99.1948 104.862 99.1202 104.857 99.0408 104.857C98.7188 104.857 98.4692 104.95 98.2918 105.137C98.1192 105.319 98.0328 105.618 98.0328 106.033V108H97.3678ZM101.334 108.07C100.951 108.07 100.662 107.972 100.466 107.776C100.275 107.58 100.179 107.305 100.179 106.95V104.836H99.514V104.29H100.179V103.359H100.844V104.29H101.747V104.836H100.844V106.95C100.844 107.137 100.895 107.274 100.998 107.363C101.101 107.447 101.25 107.489 101.446 107.489C101.549 107.489 101.647 107.482 101.74 107.468C101.833 107.454 101.88 107.447 101.88 107.447V108.014C101.88 108.014 101.826 108.023 101.719 108.042C101.612 108.061 101.483 108.07 101.334 108.07ZM102.403 108V104.29H103.068V104.829H103.11C103.143 104.773 103.197 104.696 103.271 104.598C103.351 104.5 103.463 104.414 103.607 104.339C103.752 104.26 103.934 104.22 104.153 104.22C104.424 104.22 104.655 104.283 104.846 104.409C105.038 104.53 105.182 104.696 105.28 104.906C105.383 105.116 105.434 105.352 105.434 105.613V108H104.769V105.655C104.769 105.408 104.699 105.202 104.559 105.039C104.424 104.876 104.226 104.794 103.964 104.794C103.754 104.794 103.584 104.848 103.453 104.955C103.323 105.058 103.225 105.195 103.159 105.368C103.099 105.536 103.068 105.716 103.068 105.907V108H102.403ZM107.753 108.07C107.45 108.07 107.186 108.016 106.962 107.909C106.743 107.797 106.561 107.648 106.416 107.461C106.276 107.274 106.171 107.069 106.101 106.845C106.031 106.616 105.996 106.383 105.996 106.145C105.996 105.912 106.029 105.681 106.094 105.452C106.164 105.223 106.269 105.016 106.409 104.829C106.554 104.642 106.733 104.495 106.948 104.388C107.167 104.276 107.426 104.22 107.725 104.22C108.042 104.22 108.322 104.292 108.565 104.437C108.808 104.582 108.999 104.796 109.139 105.081C109.279 105.366 109.349 105.723 109.349 106.152V106.348H106.668C106.682 106.558 106.731 106.752 106.815 106.929C106.904 107.102 107.027 107.242 107.186 107.349C107.345 107.452 107.534 107.503 107.753 107.503C107.944 107.503 108.098 107.473 108.215 107.412C108.336 107.347 108.432 107.272 108.502 107.188C108.572 107.104 108.619 107.032 108.642 106.971C108.67 106.906 108.684 106.873 108.684 106.873H109.307C109.307 106.873 109.295 106.915 109.272 106.999C109.249 107.078 109.207 107.176 109.146 107.293C109.085 107.41 108.997 107.529 108.88 107.65C108.763 107.767 108.614 107.867 108.432 107.951C108.25 108.03 108.024 108.07 107.753 108.07ZM106.675 105.83H108.698C108.689 105.587 108.637 105.391 108.544 105.242C108.451 105.088 108.332 104.974 108.187 104.899C108.042 104.824 107.888 104.787 107.725 104.787C107.431 104.787 107.191 104.883 107.004 105.074C106.817 105.261 106.708 105.513 106.675 105.83ZM109.906 108V104.29H110.571V104.752H110.599C110.679 104.612 110.795 104.488 110.949 104.381C111.103 104.274 111.32 104.22 111.6 104.22C111.68 104.22 111.752 104.225 111.817 104.234C111.883 104.239 111.915 104.241 111.915 104.241V104.878C111.915 104.878 111.878 104.876 111.803 104.871C111.733 104.862 111.659 104.857 111.579 104.857C111.257 104.857 111.008 104.95 110.83 105.137C110.658 105.319 110.571 105.618 110.571 106.033V108H109.906Z" fill="white"/>
<ellipse cx="76.8301" cy="75.5" rx="70.5" ry="71" transform="rotate(-90 76.8301 75.5)" stroke="#00BF64" stroke-width="10"/>
<path d="M80.3295 5.08417C79.1699 5.02827 78.003 5 76.8294 5C56.0457 5 37.3477 13.8674 24.3633 28" stroke="#D9D9D9" stroke-width="10" stroke-linecap="round"/>
</svg>
