<svg width="153" height="154" viewBox="0 0 153 154" fill="none" xmlns="http://www.w3.org/2000/svg">
<path d="M57.0481 88V82.816L44.1961 82.78V77.416L55.5361 61.36H63.2761V77.596H67.2361V82.816H63.2761V88H57.0481ZM50.2801 77.596H57.0481V67.948L50.2801 77.596ZM78.2038 61.36V88H71.9757V69.46H66.7917V65.68L67.5837 65.428C69.1677 65.02 70.4517 64.528 71.4357 63.952C72.4438 63.352 73.4038 62.584 74.3157 61.648L74.5677 61.36H78.2038ZM85.6662 72.952C84.3222 72.952 83.1822 72.676 82.2462 72.124C81.3342 71.548 80.6382 70.804 80.1582 69.892C79.6782 68.98 79.4382 68.008 79.4382 66.976C79.4382 65.944 79.6782 64.972 80.1582 64.06C80.6382 63.148 81.3342 62.416 82.2462 61.864C83.1822 61.288 84.3222 61 85.6662 61C86.9862 61 88.1022 61.288 89.0142 61.864C89.9502 62.416 90.6462 63.148 91.1022 64.06C91.5822 64.972 91.8222 65.944 91.8222 66.976C91.8222 68.008 91.5822 68.98 91.1022 69.892C90.6462 70.804 89.9502 71.548 89.0142 72.124C88.1022 72.676 86.9862 72.952 85.6662 72.952ZM83.5422 88L98.7702 61.36H103.486L88.2582 88H83.5422ZM85.6302 69.496C86.3742 69.496 86.9502 69.244 87.3582 68.74C87.7902 68.236 88.0062 67.66 88.0062 67.012C88.0062 66.34 87.7902 65.752 87.3582 65.248C86.9502 64.744 86.3742 64.492 85.6302 64.492C84.8622 64.492 84.2742 64.744 83.8662 65.248C83.4582 65.752 83.2542 66.34 83.2542 67.012C83.2542 67.66 83.4582 68.236 83.8662 68.74C84.2742 69.244 84.8622 69.496 85.6302 69.496ZM101.398 88.36C100.054 88.36 98.9142 88.084 97.9782 87.532C97.0662 86.956 96.3702 86.212 95.8902 85.3C95.4102 84.388 95.1702 83.404 95.1702 82.348C95.1702 81.316 95.4102 80.356 95.8902 79.468C96.3702 78.556 97.0662 77.824 97.9782 77.272C98.9142 76.696 100.054 76.408 101.398 76.408C102.742 76.408 103.87 76.696 104.782 77.272C105.694 77.824 106.39 78.556 106.87 79.468C107.35 80.356 107.59 81.316 107.59 82.348C107.59 83.404 107.35 84.388 106.87 85.3C106.39 86.212 105.694 86.956 104.782 87.532C103.87 88.084 102.742 88.36 101.398 88.36ZM101.362 84.904C102.13 84.904 102.718 84.652 103.126 84.148C103.534 83.644 103.738 83.056 103.738 82.384C103.738 81.736 103.534 81.16 103.126 80.656C102.718 80.152 102.13 79.9 101.362 79.9C100.618 79.9 100.03 80.152 99.5982 80.656C99.1902 81.16 98.9862 81.736 98.9862 82.384C98.9862 83.056 99.1902 83.644 99.5982 84.148C100.03 84.652 100.618 84.904 101.362 84.904Z" fill="white"/>
<path d="M42.0824 101V95.82H45.3724V96.422H42.7684V98.06H45.0504V98.662H42.7684V100.398H45.4074V101H42.0824ZM46.0032 101V97.29H46.6682V97.829H46.6962C46.7335 97.759 46.7918 97.6773 46.8712 97.584C46.9505 97.486 47.0578 97.402 47.1932 97.332C47.3332 97.2573 47.5082 97.22 47.7182 97.22C47.9935 97.22 48.2245 97.2877 48.4112 97.423C48.6025 97.5537 48.7448 97.731 48.8382 97.955H48.8452C48.9478 97.7497 49.0925 97.577 49.2792 97.437C49.4705 97.2923 49.7178 97.22 50.0212 97.22C50.4225 97.22 50.7305 97.3577 50.9452 97.633C51.1645 97.9037 51.2742 98.2537 51.2742 98.683V101H50.6092V98.718C50.6092 98.4427 50.5438 98.221 50.4132 98.053C50.2825 97.8803 50.0935 97.794 49.8462 97.794C49.6315 97.794 49.4588 97.8523 49.3282 97.969C49.2022 98.0857 49.1112 98.2303 49.0552 98.403C48.9992 98.5757 48.9712 98.7483 48.9712 98.921V101H48.3062V98.718C48.3062 98.4427 48.2408 98.221 48.1102 98.053C47.9842 97.8803 47.7952 97.794 47.5432 97.794C47.3285 97.794 47.1558 97.8523 47.0252 97.969C46.8992 98.0857 46.8082 98.2327 46.7522 98.41C46.6962 98.5827 46.6682 98.753 46.6682 98.921V101H46.0032ZM53.6582 101.07C53.2616 101.07 52.9279 100.979 52.6572 100.797C52.3866 100.61 52.1812 100.37 52.0412 100.076C51.9012 99.782 51.8312 99.4717 51.8312 99.145C51.8312 98.8137 51.9012 98.5033 52.0412 98.214C52.1812 97.92 52.3866 97.682 52.6572 97.5C52.9279 97.3133 53.2616 97.22 53.6582 97.22C54.0549 97.22 54.3886 97.3133 54.6592 97.5C54.9299 97.682 55.1352 97.92 55.2752 98.214C55.4152 98.5033 55.4852 98.8137 55.4852 99.145C55.4852 99.4717 55.4152 99.782 55.2752 100.076C55.1352 100.37 54.9299 100.61 54.6592 100.797C54.3886 100.979 54.0549 101.07 53.6582 101.07ZM53.6582 100.489C53.9102 100.489 54.1202 100.426 54.2882 100.3C54.4609 100.169 54.5892 100.001 54.6732 99.796C54.7619 99.5907 54.8062 99.3737 54.8062 99.145C54.8062 98.9117 54.7619 98.6947 54.6732 98.494C54.5892 98.2887 54.4609 98.123 54.2882 97.997C54.1202 97.8663 53.9102 97.801 53.6582 97.801C53.4109 97.801 53.2009 97.8663 53.0282 97.997C52.8556 98.123 52.7249 98.2887 52.6362 98.494C52.5522 98.6947 52.5102 98.9117 52.5102 99.145C52.5102 99.3737 52.5522 99.5907 52.6362 99.796C52.7249 100.001 52.8556 100.169 53.0282 100.3C53.2009 100.426 53.4109 100.489 53.6582 100.489ZM57.5491 101.07C57.1664 101.07 56.8771 100.972 56.6811 100.776C56.4897 100.58 56.3941 100.305 56.3941 99.95V97.836H55.7291V97.29H56.3941V96.359H57.0591V97.29H57.9621V97.836H57.0591V99.95C57.0591 100.137 57.1104 100.274 57.2131 100.363C57.3157 100.447 57.4651 100.489 57.6611 100.489C57.7637 100.489 57.8617 100.482 57.9551 100.468C58.0484 100.454 58.0951 100.447 58.0951 100.447V101.014C58.0951 101.014 58.0414 101.023 57.9341 101.042C57.8267 101.061 57.6984 101.07 57.5491 101.07ZM59.0522 96.583C58.9262 96.583 58.8212 96.541 58.7372 96.457C58.6579 96.373 58.6182 96.2727 58.6182 96.156C58.6182 96.0347 58.6579 95.932 58.7372 95.848C58.8212 95.764 58.9262 95.722 59.0522 95.722C59.1736 95.722 59.2762 95.764 59.3602 95.848C59.4442 95.932 59.4862 96.0347 59.4862 96.156C59.4862 96.2727 59.4442 96.373 59.3602 96.457C59.2762 96.541 59.1736 96.583 59.0522 96.583ZM58.7232 101V97.29H59.3882V101H58.7232ZM61.8709 101.07C61.4743 101.07 61.1406 100.979 60.8699 100.797C60.5993 100.61 60.3939 100.37 60.2539 100.076C60.1139 99.782 60.0439 99.4717 60.0439 99.145C60.0439 98.8137 60.1139 98.5033 60.2539 98.214C60.3939 97.92 60.5993 97.682 60.8699 97.5C61.1406 97.3133 61.4743 97.22 61.8709 97.22C62.2676 97.22 62.6013 97.3133 62.8719 97.5C63.1426 97.682 63.3479 97.92 63.4879 98.214C63.6279 98.5033 63.6979 98.8137 63.6979 99.145C63.6979 99.4717 63.6279 99.782 63.4879 100.076C63.3479 100.37 63.1426 100.61 62.8719 100.797C62.6013 100.979 62.2676 101.07 61.8709 101.07ZM61.8709 100.489C62.1229 100.489 62.3329 100.426 62.5009 100.3C62.6736 100.169 62.8019 100.001 62.8859 99.796C62.9746 99.5907 63.0189 99.3737 63.0189 99.145C63.0189 98.9117 62.9746 98.6947 62.8859 98.494C62.8019 98.2887 62.6736 98.123 62.5009 97.997C62.3329 97.8663 62.1229 97.801 61.8709 97.801C61.6236 97.801 61.4136 97.8663 61.2409 97.997C61.0683 98.123 60.9376 98.2887 60.8489 98.494C60.7649 98.6947 60.7229 98.9117 60.7229 99.145C60.7229 99.3737 60.7649 99.5907 60.8489 99.796C60.9376 100.001 61.0683 100.169 61.2409 100.3C61.4136 100.426 61.6236 100.489 61.8709 100.489ZM64.2551 101V97.29H64.9201V97.829H64.9621C64.9948 97.773 65.0485 97.696 65.1231 97.598C65.2025 97.5 65.3145 97.4137 65.4591 97.339C65.6038 97.2597 65.7858 97.22 66.0051 97.22C66.2758 97.22 66.5068 97.283 66.6981 97.409C66.8895 97.5303 67.0341 97.696 67.1321 97.906C67.2348 98.116 67.2861 98.3517 67.2861 98.613V101H66.6211V98.655C66.6211 98.4077 66.5511 98.2023 66.4111 98.039C66.2758 97.8757 66.0775 97.794 65.8161 97.794C65.6061 97.794 65.4358 97.8477 65.3051 97.955C65.1745 98.0577 65.0765 98.1953 65.0111 98.368C64.9505 98.536 64.9201 98.7157 64.9201 98.907V101H64.2551ZM69.5278 97.22C69.7612 97.22 69.9572 97.2573 70.1158 97.332C70.2745 97.4067 70.4028 97.4953 70.5008 97.598C70.5988 97.696 70.6735 97.7893 70.7248 97.878H70.7668V97.29H71.4318V101H70.7668V100.412H70.7248C70.6735 100.501 70.5988 100.596 70.5008 100.699C70.4028 100.802 70.2745 100.89 70.1158 100.965C69.9572 101.035 69.7612 101.07 69.5278 101.07C69.2478 101.07 69.0028 101.016 68.7928 100.909C68.5828 100.797 68.4078 100.65 68.2678 100.468C68.1278 100.281 68.0228 100.074 67.9528 99.845C67.8828 99.6163 67.8478 99.383 67.8478 99.145C67.8478 98.907 67.8828 98.6737 67.9528 98.445C68.0228 98.2163 68.1278 98.011 68.2678 97.829C68.4078 97.6423 68.5828 97.4953 68.7928 97.388C69.0028 97.276 69.2478 97.22 69.5278 97.22ZM69.6398 97.787C69.3925 97.787 69.1848 97.8547 69.0168 97.99C68.8488 98.1207 68.7228 98.2887 68.6388 98.494C68.5595 98.6993 68.5198 98.9163 68.5198 99.145C68.5198 99.369 68.5595 99.586 68.6388 99.796C68.7228 100.001 68.8488 100.172 69.0168 100.307C69.1848 100.438 69.3925 100.503 69.6398 100.503C69.8872 100.503 70.0925 100.438 70.2558 100.307C70.4238 100.172 70.5475 100.001 70.6268 99.796C70.7108 99.586 70.7528 99.369 70.7528 99.145C70.7528 98.9163 70.7108 98.6993 70.6268 98.494C70.5475 98.2887 70.4238 98.1207 70.2558 97.99C70.0925 97.8547 69.8872 97.787 69.6398 97.787ZM72.129 101L72.136 95.68H72.794V101H72.129ZM75.1802 101.07C74.8769 101.07 74.6132 101.016 74.3892 100.909C74.1699 100.797 73.9879 100.648 73.8432 100.461C73.7032 100.274 73.5982 100.069 73.5282 99.845C73.4582 99.6163 73.4232 99.383 73.4232 99.145C73.4232 98.9117 73.4559 98.6807 73.5212 98.452C73.5912 98.2233 73.6962 98.0157 73.8362 97.829C73.9809 97.6423 74.1606 97.4953 74.3752 97.388C74.5946 97.276 74.8536 97.22 75.1522 97.22C75.4696 97.22 75.7496 97.2923 75.9922 97.437C76.2349 97.5817 76.4262 97.7963 76.5662 98.081C76.7062 98.3657 76.7762 98.7227 76.7762 99.152V99.348H74.0952C74.1092 99.558 74.1582 99.7517 74.2422 99.929C74.3309 100.102 74.4546 100.242 74.6132 100.349C74.7719 100.452 74.9609 100.503 75.1802 100.503C75.3716 100.503 75.5256 100.473 75.6422 100.412C75.7636 100.347 75.8592 100.272 75.9292 100.188C75.9992 100.104 76.0459 100.032 76.0692 99.971C76.0972 99.9057 76.1112 99.873 76.1112 99.873H76.7342C76.7342 99.873 76.7226 99.915 76.6992 99.999C76.6759 100.078 76.6339 100.176 76.5732 100.293C76.5126 100.41 76.4239 100.529 76.3072 100.65C76.1906 100.767 76.0412 100.867 75.8592 100.951C75.6772 101.03 75.4509 101.07 75.1802 101.07ZM74.1022 98.83H76.1252C76.1159 98.5873 76.0646 98.3913 75.9712 98.242C75.8779 98.088 75.7589 97.9737 75.6142 97.899C75.4696 97.8243 75.3156 97.787 75.1522 97.787C74.8582 97.787 74.6179 97.8827 74.4312 98.074C74.2446 98.2607 74.1349 98.5127 74.1022 98.83ZM78.6669 101V95.82H79.3529V101H78.6669ZM80.0516 101V97.29H80.7166V97.829H80.7586C80.7913 97.773 80.845 97.696 80.9196 97.598C80.999 97.5 81.111 97.4137 81.2556 97.339C81.4003 97.2597 81.5823 97.22 81.8016 97.22C82.0723 97.22 82.3033 97.283 82.4946 97.409C82.686 97.5303 82.8306 97.696 82.9286 97.906C83.0313 98.116 83.0826 98.3517 83.0826 98.613V101H82.4176V98.655C82.4176 98.4077 82.3476 98.2023 82.2076 98.039C82.0723 97.8757 81.874 97.794 81.6126 97.794C81.4026 97.794 81.2323 97.8477 81.1016 97.955C80.971 98.0577 80.873 98.1953 80.8076 98.368C80.747 98.536 80.7166 98.7157 80.7166 98.907V101H80.0516ZM85.1526 101.07C84.7699 101.07 84.4806 100.972 84.2846 100.776C84.0933 100.58 83.9976 100.305 83.9976 99.95V97.836H83.3326V97.29H83.9976V96.359H84.6626V97.29H85.5656V97.836H84.6626V99.95C84.6626 100.137 84.7139 100.274 84.8166 100.363C84.9193 100.447 85.0686 100.489 85.2646 100.489C85.3673 100.489 85.4653 100.482 85.5586 100.468C85.6519 100.454 85.6986 100.447 85.6986 100.447V101.014C85.6986 101.014 85.6449 101.023 85.5376 101.042C85.4303 101.061 85.3019 101.07 85.1526 101.07ZM87.772 101.07C87.4687 101.07 87.205 101.016 86.981 100.909C86.7617 100.797 86.5797 100.648 86.435 100.461C86.295 100.274 86.19 100.069 86.12 99.845C86.05 99.6163 86.015 99.383 86.015 99.145C86.015 98.9117 86.0477 98.6807 86.113 98.452C86.183 98.2233 86.288 98.0157 86.428 97.829C86.5727 97.6423 86.7523 97.4953 86.967 97.388C87.1863 97.276 87.4453 97.22 87.744 97.22C88.0613 97.22 88.3413 97.2923 88.584 97.437C88.8267 97.5817 89.018 97.7963 89.158 98.081C89.298 98.3657 89.368 98.7227 89.368 99.152V99.348H86.687C86.701 99.558 86.75 99.7517 86.834 99.929C86.9227 100.102 87.0463 100.242 87.205 100.349C87.3637 100.452 87.5527 100.503 87.772 100.503C87.9633 100.503 88.1173 100.473 88.234 100.412C88.3553 100.347 88.451 100.272 88.521 100.188C88.591 100.104 88.6377 100.032 88.661 99.971C88.689 99.9057 88.703 99.873 88.703 99.873H89.326C89.326 99.873 89.3144 99.915 89.291 99.999C89.2677 100.078 89.2257 100.176 89.165 100.293C89.1043 100.41 89.0157 100.529 88.899 100.65C88.7824 100.767 88.633 100.867 88.451 100.951C88.269 101.03 88.0427 101.07 87.772 101.07ZM86.694 98.83H88.717C88.7077 98.5873 88.6564 98.3913 88.563 98.242C88.4697 98.088 88.3507 97.9737 88.206 97.899C88.0613 97.8243 87.9073 97.787 87.744 97.787C87.45 97.787 87.2097 97.8827 87.023 98.074C86.8363 98.2607 86.7267 98.5127 86.694 98.83ZM89.9954 101L90.0024 95.68H90.6604V101H89.9954ZM91.4296 101L91.4366 95.68H92.0946V101H91.4296ZM93.2278 96.583C93.1018 96.583 92.9968 96.541 92.9128 96.457C92.8335 96.373 92.7938 96.2727 92.7938 96.156C92.7938 96.0347 92.8335 95.932 92.9128 95.848C92.9968 95.764 93.1018 95.722 93.2278 95.722C93.3491 95.722 93.4518 95.764 93.5358 95.848C93.6198 95.932 93.6618 96.0347 93.6618 96.156C93.6618 96.2727 93.6198 96.373 93.5358 96.457C93.4518 96.541 93.3491 96.583 93.2278 96.583ZM92.8988 101V97.29H93.5638V101H92.8988ZM96.0745 102.47C95.7665 102.47 95.5098 102.428 95.3045 102.344C95.0992 102.265 94.9335 102.162 94.8075 102.036C94.6862 101.915 94.5952 101.793 94.5345 101.672C94.4738 101.551 94.4342 101.448 94.4155 101.364C94.3968 101.285 94.3875 101.245 94.3875 101.245H95.0525C95.0525 101.245 95.0642 101.278 95.0875 101.343C95.1108 101.408 95.1552 101.483 95.2205 101.567C95.2905 101.651 95.3932 101.726 95.5285 101.791C95.6638 101.856 95.8458 101.889 96.0745 101.889C96.3452 101.889 96.5575 101.835 96.7115 101.728C96.8655 101.625 96.9752 101.49 97.0405 101.322C97.1105 101.154 97.1455 100.977 97.1455 100.79V100.363H97.1105C97.0638 100.442 96.9892 100.533 96.8865 100.636C96.7885 100.734 96.6578 100.82 96.4945 100.895C96.3312 100.965 96.1305 101 95.8925 101C95.6125 101 95.3675 100.946 95.1575 100.839C94.9475 100.732 94.7725 100.587 94.6325 100.405C94.4972 100.223 94.3945 100.02 94.3245 99.796C94.2545 99.572 94.2195 99.3433 94.2195 99.11C94.2195 98.8767 94.2545 98.648 94.3245 98.424C94.3945 98.2 94.4972 97.997 94.6325 97.815C94.7725 97.633 94.9475 97.4883 95.1575 97.381C95.3675 97.2737 95.6125 97.22 95.8925 97.22C96.1305 97.22 96.3312 97.2573 96.4945 97.332C96.6578 97.402 96.7885 97.486 96.8865 97.584C96.9892 97.682 97.0638 97.773 97.1105 97.857H97.1455V97.29H97.8105V100.783C97.8105 101.301 97.6588 101.712 97.3555 102.015C97.0568 102.318 96.6298 102.47 96.0745 102.47ZM96.0185 100.433C96.2658 100.433 96.4712 100.37 96.6345 100.244C96.8025 100.113 96.9262 99.9477 97.0055 99.747C97.0895 99.5463 97.1315 99.334 97.1315 99.11C97.1315 98.886 97.0895 98.6737 97.0055 98.473C96.9262 98.2677 96.8025 98.102 96.6345 97.976C96.4712 97.85 96.2658 97.787 96.0185 97.787C95.7712 97.787 95.5635 97.85 95.3955 97.976C95.2275 98.102 95.1015 98.2677 95.0175 98.473C94.9382 98.6737 94.8985 98.886 94.8985 99.11C94.8985 99.334 94.9382 99.5463 95.0175 99.747C95.1015 99.9477 95.2275 100.113 95.3955 100.244C95.5635 100.37 95.7712 100.433 96.0185 100.433ZM99.9878 101.07C99.6845 101.07 99.4208 101.016 99.1968 100.909C98.9775 100.797 98.7955 100.648 98.6508 100.461C98.5108 100.274 98.4058 100.069 98.3358 99.845C98.2658 99.6163 98.2308 99.383 98.2308 99.145C98.2308 98.9117 98.2635 98.6807 98.3288 98.452C98.3988 98.2233 98.5038 98.0157 98.6438 97.829C98.7885 97.6423 98.9682 97.4953 99.1828 97.388C99.4022 97.276 99.6612 97.22 99.9598 97.22C100.277 97.22 100.557 97.2923 100.8 97.437C101.043 97.5817 101.234 97.7963 101.374 98.081C101.514 98.3657 101.584 98.7227 101.584 99.152V99.348H98.9028C98.9168 99.558 98.9658 99.7517 99.0498 99.929C99.1385 100.102 99.2622 100.242 99.4208 100.349C99.5795 100.452 99.7685 100.503 99.9878 100.503C100.179 100.503 100.333 100.473 100.45 100.412C100.571 100.347 100.667 100.272 100.737 100.188C100.807 100.104 100.854 100.032 100.877 99.971C100.905 99.9057 100.919 99.873 100.919 99.873H101.542C101.542 99.873 101.53 99.915 101.507 99.999C101.484 100.078 101.442 100.176 101.381 100.293C101.32 100.41 101.232 100.529 101.115 100.65C100.998 100.767 100.849 100.867 100.667 100.951C100.485 101.03 100.259 101.07 99.9878 101.07ZM98.9098 98.83H100.933C100.924 98.5873 100.872 98.3913 100.779 98.242C100.686 98.088 100.567 97.9737 100.422 97.899C100.277 97.8243 100.123 97.787 99.9598 97.787C99.6658 97.787 99.4255 97.8827 99.2388 98.074C99.0522 98.2607 98.9425 98.5127 98.9098 98.83ZM102.141 101V97.29H102.806V97.829H102.848C102.881 97.773 102.935 97.696 103.009 97.598C103.089 97.5 103.201 97.4137 103.345 97.339C103.49 97.2597 103.672 97.22 103.891 97.22C104.162 97.22 104.393 97.283 104.584 97.409C104.776 97.5303 104.92 97.696 105.018 97.906C105.121 98.116 105.172 98.3517 105.172 98.613V101H104.507V98.655C104.507 98.4077 104.437 98.2023 104.297 98.039C104.162 97.8757 103.964 97.794 103.702 97.794C103.492 97.794 103.322 97.8477 103.191 97.955C103.061 98.0577 102.963 98.1953 102.897 98.368C102.837 98.536 102.806 98.7157 102.806 98.907V101H102.141ZM105.615 101V100.531L107.785 97.836H105.727V97.29H108.604V97.759L106.427 100.454H108.604V101H105.615ZM57.0901 112.07C56.7214 112.07 56.4274 111.956 56.2081 111.727C55.9887 111.498 55.8791 111.181 55.8791 110.775V108.29H56.5441V110.74C56.5441 110.983 56.6094 111.169 56.7401 111.3C56.8754 111.431 57.0527 111.496 57.2721 111.496C57.4961 111.496 57.6757 111.438 57.8111 111.321C57.9464 111.204 58.0444 111.055 58.1051 110.873C58.1657 110.691 58.1961 110.504 58.1961 110.313V108.29H58.8611V112H58.1961V111.468H58.1541C58.1261 111.524 58.0724 111.601 57.9931 111.699C57.9137 111.792 57.8017 111.879 57.6571 111.958C57.5124 112.033 57.3234 112.07 57.0901 112.07ZM59.4939 112V108.29H60.1589V108.829H60.2009C60.2336 108.773 60.2872 108.696 60.3619 108.598C60.4412 108.5 60.5532 108.414 60.6979 108.339C60.8426 108.26 61.0246 108.22 61.2439 108.22C61.5146 108.22 61.7456 108.283 61.9369 108.409C62.1282 108.53 62.2729 108.696 62.3709 108.906C62.4736 109.116 62.5249 109.352 62.5249 109.613V112H61.8599V109.655C61.8599 109.408 61.7899 109.202 61.6499 109.039C61.5146 108.876 61.3162 108.794 61.0549 108.794C60.8449 108.794 60.6746 108.848 60.5439 108.955C60.4132 109.058 60.3152 109.195 60.2499 109.368C60.1892 109.536 60.1589 109.716 60.1589 109.907V112H59.4939ZM64.7666 112.07C64.4866 112.07 64.2416 112.016 64.0316 111.909C63.8216 111.797 63.6466 111.65 63.5066 111.468C63.3666 111.281 63.2616 111.074 63.1916 110.845C63.1216 110.616 63.0866 110.383 63.0866 110.145C63.0866 109.907 63.1216 109.674 63.1916 109.445C63.2616 109.216 63.3666 109.011 63.5066 108.829C63.6466 108.642 63.8216 108.495 64.0316 108.388C64.2416 108.276 64.4866 108.22 64.7666 108.22C64.9999 108.22 65.1959 108.257 65.3546 108.332C65.5133 108.407 65.6416 108.495 65.7396 108.598C65.8376 108.696 65.9123 108.789 65.9636 108.878H66.0056V106.68H66.6706V112H66.0056V111.412H65.9636C65.9123 111.501 65.8376 111.596 65.7396 111.699C65.6416 111.802 65.5133 111.89 65.3546 111.965C65.1959 112.035 64.9999 112.07 64.7666 112.07ZM64.8786 111.503C65.1259 111.503 65.3313 111.438 65.4946 111.307C65.6626 111.172 65.7863 111.001 65.8656 110.796C65.9496 110.586 65.9916 110.369 65.9916 110.145C65.9916 109.916 65.9496 109.699 65.8656 109.494C65.7863 109.289 65.6626 109.121 65.4946 108.99C65.3313 108.855 65.1259 108.787 64.8786 108.787C64.6313 108.787 64.4236 108.855 64.2556 108.99C64.0876 109.121 63.9616 109.289 63.8776 109.494C63.7983 109.699 63.7586 109.916 63.7586 110.145C63.7586 110.369 63.7983 110.586 63.8776 110.796C63.9616 111.001 64.0876 111.172 64.2556 111.307C64.4236 111.438 64.6313 111.503 64.8786 111.503ZM68.7063 112V106.82H70.5403C70.909 106.82 71.2146 106.892 71.4573 107.037C71.7 107.182 71.882 107.368 72.0033 107.597C72.1246 107.826 72.1853 108.066 72.1853 108.318C72.1853 108.528 72.1433 108.731 72.0593 108.927C71.9753 109.123 71.8493 109.296 71.6813 109.445C71.518 109.59 71.3103 109.695 71.0583 109.76L72.3673 112H71.5903L70.3373 109.823H69.3923V112H68.7063ZM70.5333 107.422H69.3923V109.235H70.5333C70.748 109.235 70.9253 109.191 71.0653 109.102C71.2053 109.013 71.3103 108.901 71.3803 108.766C71.4503 108.626 71.4853 108.481 71.4853 108.332C71.4853 108.178 71.4503 108.033 71.3803 107.898C71.3103 107.758 71.2053 107.644 71.0653 107.555C70.9253 107.466 70.748 107.422 70.5333 107.422ZM74.3004 112.07C73.9971 112.07 73.7334 112.016 73.5094 111.909C73.2901 111.797 73.1081 111.648 72.9634 111.461C72.8234 111.274 72.7184 111.069 72.6484 110.845C72.5784 110.616 72.5434 110.383 72.5434 110.145C72.5434 109.912 72.5761 109.681 72.6414 109.452C72.7114 109.223 72.8164 109.016 72.9564 108.829C73.1011 108.642 73.2808 108.495 73.4954 108.388C73.7148 108.276 73.9738 108.22 74.2724 108.22C74.5898 108.22 74.8698 108.292 75.1124 108.437C75.3551 108.582 75.5464 108.796 75.6864 109.081C75.8264 109.366 75.8964 109.723 75.8964 110.152V110.348H73.2154C73.2294 110.558 73.2784 110.752 73.3624 110.929C73.4511 111.102 73.5748 111.242 73.7334 111.349C73.8921 111.452 74.0811 111.503 74.3004 111.503C74.4918 111.503 74.6458 111.473 74.7624 111.412C74.8838 111.347 74.9794 111.272 75.0494 111.188C75.1194 111.104 75.1661 111.032 75.1894 110.971C75.2174 110.906 75.2314 110.873 75.2314 110.873H75.8544C75.8544 110.873 75.8428 110.915 75.8194 110.999C75.7961 111.078 75.7541 111.176 75.6934 111.293C75.6328 111.41 75.5441 111.529 75.4274 111.65C75.3108 111.767 75.1614 111.867 74.9794 111.951C74.7974 112.03 74.5711 112.07 74.3004 112.07ZM73.2224 109.83H75.2454C75.2361 109.587 75.1848 109.391 75.0914 109.242C74.9981 109.088 74.8791 108.974 74.7344 108.899C74.5898 108.824 74.4358 108.787 74.2724 108.787C73.9784 108.787 73.7381 108.883 73.5514 109.074C73.3648 109.261 73.2551 109.513 73.2224 109.83ZM77.8119 112.07C77.5272 112.07 77.2915 112.03 77.1049 111.951C76.9229 111.872 76.7782 111.774 76.6709 111.657C76.5635 111.536 76.4842 111.417 76.4329 111.3C76.3815 111.179 76.3489 111.078 76.3349 110.999C76.3209 110.92 76.3139 110.88 76.3139 110.88H76.9859C76.9859 110.88 76.9929 110.913 77.0069 110.978C77.0255 111.039 77.0605 111.111 77.1119 111.195C77.1679 111.274 77.2519 111.347 77.3639 111.412C77.4805 111.473 77.6345 111.503 77.8259 111.503C78.0452 111.503 78.2155 111.452 78.3369 111.349C78.4582 111.242 78.5189 111.111 78.5189 110.957C78.5189 110.822 78.4699 110.714 78.3719 110.635C78.2785 110.556 78.1432 110.495 77.9659 110.453L77.4619 110.334C77.2752 110.287 77.1002 110.224 76.9369 110.145C76.7735 110.066 76.6405 109.958 76.5379 109.823C76.4399 109.683 76.3909 109.51 76.3909 109.305C76.3909 108.988 76.5099 108.729 76.7479 108.528C76.9859 108.323 77.2962 108.22 77.6789 108.22C77.9355 108.22 78.1479 108.257 78.3159 108.332C78.4839 108.402 78.6169 108.491 78.7149 108.598C78.8175 108.705 78.8922 108.813 78.9389 108.92C78.9902 109.027 79.0229 109.118 79.0369 109.193C79.0509 109.263 79.0579 109.298 79.0579 109.298H78.4139C78.4139 109.298 78.4069 109.272 78.3929 109.221C78.3789 109.165 78.3462 109.104 78.2949 109.039C78.2482 108.969 78.1759 108.908 78.0779 108.857C77.9799 108.801 77.8492 108.773 77.6859 108.773C77.4619 108.773 77.2985 108.824 77.1959 108.927C77.0932 109.03 77.0419 109.142 77.0419 109.263C77.0419 109.38 77.0885 109.475 77.1819 109.55C77.2799 109.62 77.4059 109.674 77.5599 109.711L78.0709 109.83C78.3882 109.905 78.6495 110.028 78.8549 110.201C79.0649 110.369 79.1699 110.612 79.1699 110.929C79.1699 111.134 79.1162 111.326 79.0089 111.503C78.9015 111.676 78.7475 111.813 78.5469 111.916C78.3462 112.019 78.1012 112.07 77.8119 112.07ZM80.0926 107.583C79.9666 107.583 79.8616 107.541 79.7776 107.457C79.6982 107.373 79.6586 107.273 79.6586 107.156C79.6586 107.035 79.6982 106.932 79.7776 106.848C79.8616 106.764 79.9666 106.722 80.0926 106.722C80.2139 106.722 80.3166 106.764 80.4006 106.848C80.4846 106.932 80.5266 107.035 80.5266 107.156C80.5266 107.273 80.4846 107.373 80.4006 107.457C80.3166 107.541 80.2139 107.583 80.0926 107.583ZM79.7636 112V108.29H80.4286V112H79.7636ZM81.2243 112L81.2313 106.68H81.8893V112H81.2243ZM83.0224 107.583C82.8964 107.583 82.7914 107.541 82.7074 107.457C82.6281 107.373 82.5884 107.273 82.5884 107.156C82.5884 107.035 82.6281 106.932 82.7074 106.848C82.7914 106.764 82.8964 106.722 83.0224 106.722C83.1438 106.722 83.2464 106.764 83.3304 106.848C83.4144 106.932 83.4564 107.035 83.4564 107.156C83.4564 107.273 83.4144 107.373 83.3304 107.457C83.2464 107.541 83.1438 107.583 83.0224 107.583ZM82.6934 112V108.29H83.3584V112H82.6934ZM85.7711 112.07C85.4678 112.07 85.2041 112.016 84.9801 111.909C84.7608 111.797 84.5788 111.648 84.4341 111.461C84.2941 111.274 84.1891 111.069 84.1191 110.845C84.0491 110.616 84.0141 110.383 84.0141 110.145C84.0141 109.912 84.0468 109.681 84.1121 109.452C84.1821 109.223 84.2871 109.016 84.4271 108.829C84.5718 108.642 84.7515 108.495 84.9661 108.388C85.1855 108.276 85.4445 108.22 85.7431 108.22C86.0605 108.22 86.3405 108.292 86.5831 108.437C86.8258 108.582 87.0171 108.796 87.1571 109.081C87.2971 109.366 87.3671 109.723 87.3671 110.152V110.348H84.6861C84.7001 110.558 84.7491 110.752 84.8331 110.929C84.9218 111.102 85.0455 111.242 85.2041 111.349C85.3628 111.452 85.5518 111.503 85.7711 111.503C85.9625 111.503 86.1165 111.473 86.2331 111.412C86.3545 111.347 86.4501 111.272 86.5201 111.188C86.5901 111.104 86.6368 111.032 86.6601 110.971C86.6881 110.906 86.7021 110.873 86.7021 110.873H87.3251C87.3251 110.873 87.3135 110.915 87.2901 110.999C87.2668 111.078 87.2248 111.176 87.1641 111.293C87.1035 111.41 87.0148 111.529 86.8981 111.65C86.7815 111.767 86.6321 111.867 86.4501 111.951C86.2681 112.03 86.0418 112.07 85.7711 112.07ZM84.6931 109.83H86.7161C86.7068 109.587 86.6555 109.391 86.5621 109.242C86.4688 109.088 86.3498 108.974 86.2051 108.899C86.0605 108.824 85.9065 108.787 85.7431 108.787C85.4491 108.787 85.2088 108.883 85.0221 109.074C84.8355 109.261 84.7258 109.513 84.6931 109.83ZM87.9246 112V108.29H88.5896V108.829H88.6316C88.6642 108.773 88.7179 108.696 88.7926 108.598C88.8719 108.5 88.9839 108.414 89.1286 108.339C89.2732 108.26 89.4552 108.22 89.6746 108.22C89.9452 108.22 90.1762 108.283 90.3676 108.409C90.5589 108.53 90.7036 108.696 90.8016 108.906C90.9042 109.116 90.9556 109.352 90.9556 109.613V112H90.2906V109.655C90.2906 109.408 90.2206 109.202 90.0806 109.039C89.9452 108.876 89.7469 108.794 89.4856 108.794C89.2756 108.794 89.1052 108.848 88.9746 108.955C88.8439 109.058 88.7459 109.195 88.6806 109.368C88.6199 109.536 88.5896 109.716 88.5896 109.907V112H87.9246ZM91.3983 112V111.531L93.5683 108.836H91.5103V108.29H94.3873V108.759L92.2103 111.454H94.3873V112H91.3983Z" fill="white"/>
<ellipse cx="76.3268" cy="77" rx="70.5" ry="71" transform="rotate(4.91846 76.3268 77)" stroke="#D9D9D9" stroke-width="10"/>
<path d="M78.654 0.818254C75.8939 0.73349 73.5876 2.9023 73.5029 5.66242C73.4181 8.42254 75.5869 10.7288 78.347 10.8135L78.654 0.818254ZM81.987 11.0261C117.995 14.1248 144.715 46.0491 141.587 82.3989L151.55 83.2563C155.146 41.4704 124.421 4.64082 82.8444 1.06291L81.987 11.0261ZM141.587 82.3989C139.731 103.964 127.79 122.208 110.844 132.834L116.157 141.306C135.662 129.075 149.415 108.064 151.55 83.2563L141.587 82.3989ZM78.347 10.8135C79.5543 10.8506 80.768 10.9212 81.987 11.0261L82.8444 1.06291C81.4421 0.942236 80.0449 0.86097 78.654 0.818254L78.347 10.8135Z" fill="#FFE059"/>
</svg>
