<svg width="153" height="151" viewBox="0 0 153 151" fill="none" xmlns="http://www.w3.org/2000/svg">
<ellipse cx="76.8301" cy="75.5" rx="70.5" ry="71" transform="rotate(-90 76.8301 75.5)" stroke="#D9D9D9" stroke-width="10"/>
<path d="M53.1421 58C55.0381 58 56.6821 58.336 58.0741 59.008C59.4661 59.656 60.6181 60.556 61.5301 61.708C62.4661 62.836 63.1501 64.132 63.5821 65.596C64.0381 67.036 64.2661 68.548 64.2661 70.132C64.2661 71.908 63.9781 73.696 63.4021 75.496C62.8261 77.272 61.9381 78.916 60.7381 80.428C59.5381 81.916 57.9901 83.116 56.0941 84.028C54.2221 84.916 51.9781 85.36 49.3621 85.36C48.3301 85.36 47.4301 85.3 46.6621 85.18C45.9181 85.084 45.5461 85.036 45.5461 85.036V79.492C45.5461 79.492 45.7381 79.528 46.1221 79.6C46.5061 79.648 46.9861 79.708 47.5621 79.78C48.1621 79.828 48.7381 79.852 49.2901 79.852C50.9701 79.852 52.4101 79.552 53.6101 78.952C54.8101 78.352 55.7581 77.536 56.4541 76.504C57.1741 75.448 57.6061 74.272 57.7501 72.976C57.5101 73.384 57.1381 73.828 56.6341 74.308C56.1301 74.788 55.4581 75.208 54.6181 75.568C53.7781 75.904 52.7221 76.072 51.4501 76.072C49.5541 76.072 47.9581 75.664 46.6621 74.848C45.3901 74.032 44.4301 72.976 43.7821 71.68C43.1341 70.36 42.8101 68.968 42.8101 67.504C42.8101 66.352 43.0261 65.212 43.4581 64.084C43.8901 62.956 44.5261 61.936 45.3661 61.024C46.2301 60.088 47.3101 59.356 48.6061 58.828C49.9021 58.276 51.4141 58 53.1421 58ZM53.0701 63.112C51.7741 63.112 50.7541 63.52 50.0101 64.336C49.2661 65.152 48.8941 66.136 48.8941 67.288C48.8941 68.44 49.2661 69.424 50.0101 70.24C50.7541 71.056 51.7741 71.464 53.0701 71.464C54.3661 71.464 55.3861 71.056 56.1301 70.24C56.8981 69.424 57.2821 68.44 57.2821 67.288C57.2821 66.136 56.8981 65.152 56.1301 64.336C55.3861 63.52 54.3661 63.112 53.0701 63.112ZM68.3259 85C68.4459 82.288 68.8419 79.792 69.5139 77.512C70.1859 75.232 70.9779 73.192 71.8899 71.392C72.8259 69.568 73.7499 68.02 74.6619 66.748C75.5739 65.452 76.3299 64.456 76.9299 63.76H64.1139V58.36H83.8419V62.788C83.8419 62.788 83.5419 63.112 82.9419 63.76C82.3659 64.408 81.6339 65.368 80.7459 66.64C79.8819 67.888 78.9939 69.424 78.0819 71.248C77.1699 73.048 76.3899 75.1 75.7419 77.404C75.0939 79.708 74.7099 82.24 74.5899 85H68.3259ZM88.6251 69.952C87.2811 69.952 86.1411 69.676 85.2051 69.124C84.2931 68.548 83.5971 67.804 83.1171 66.892C82.6371 65.98 82.3971 65.008 82.3971 63.976C82.3971 62.944 82.6371 61.972 83.1171 61.06C83.5971 60.148 84.2931 59.416 85.2051 58.864C86.1411 58.288 87.2811 58 88.6251 58C89.9451 58 91.0611 58.288 91.9731 58.864C92.9091 59.416 93.6051 60.148 94.0611 61.06C94.5411 61.972 94.7811 62.944 94.7811 63.976C94.7811 65.008 94.5411 65.98 94.0611 66.892C93.6051 67.804 92.9091 68.548 91.9731 69.124C91.0611 69.676 89.9451 69.952 88.6251 69.952ZM86.5011 85L101.729 58.36H106.445L91.2171 85H86.5011ZM88.5891 66.496C89.3331 66.496 89.9091 66.244 90.3171 65.74C90.7491 65.236 90.9651 64.66 90.9651 64.012C90.9651 63.34 90.7491 62.752 90.3171 62.248C89.9091 61.744 89.3331 61.492 88.5891 61.492C87.8211 61.492 87.2331 61.744 86.8251 62.248C86.4171 62.752 86.2131 63.34 86.2131 64.012C86.2131 64.66 86.4171 65.236 86.8251 65.74C87.2331 66.244 87.8211 66.496 88.5891 66.496ZM104.357 85.36C103.013 85.36 101.873 85.084 100.937 84.532C100.025 83.956 99.3291 83.212 98.8491 82.3C98.3691 81.388 98.1291 80.404 98.1291 79.348C98.1291 78.316 98.3691 77.356 98.8491 76.468C99.3291 75.556 100.025 74.824 100.937 74.272C101.873 73.696 103.013 73.408 104.357 73.408C105.701 73.408 106.829 73.696 107.741 74.272C108.653 74.824 109.349 75.556 109.829 76.468C110.309 77.356 110.549 78.316 110.549 79.348C110.549 80.404 110.309 81.388 109.829 82.3C109.349 83.212 108.653 83.956 107.741 84.532C106.829 85.084 105.701 85.36 104.357 85.36ZM104.321 81.904C105.089 81.904 105.677 81.652 106.085 81.148C106.493 80.644 106.697 80.056 106.697 79.384C106.697 78.736 106.493 78.16 106.085 77.656C105.677 77.152 105.089 76.9 104.321 76.9C103.577 76.9 102.989 77.152 102.557 77.656C102.149 78.16 101.945 78.736 101.945 79.384C101.945 80.056 102.149 80.644 102.557 81.148C102.989 81.652 103.577 81.904 104.321 81.904Z" fill="white"/>
<path d="M43.0824 99V93.82H46.3724V94.422H43.7684V96.06H46.0504V96.662H43.7684V98.398H46.4074V99H43.0824ZM47.0032 99V95.29H47.6682V95.829H47.6962C47.7335 95.759 47.7918 95.6773 47.8712 95.584C47.9505 95.486 48.0578 95.402 48.1932 95.332C48.3332 95.2573 48.5082 95.22 48.7182 95.22C48.9935 95.22 49.2245 95.2877 49.4112 95.423C49.6025 95.5537 49.7448 95.731 49.8382 95.955H49.8452C49.9478 95.7497 50.0925 95.577 50.2792 95.437C50.4705 95.2923 50.7178 95.22 51.0212 95.22C51.4225 95.22 51.7305 95.3577 51.9452 95.633C52.1645 95.9037 52.2742 96.2537 52.2742 96.683V99H51.6092V96.718C51.6092 96.4427 51.5438 96.221 51.4132 96.053C51.2825 95.8803 51.0935 95.794 50.8462 95.794C50.6315 95.794 50.4588 95.8523 50.3282 95.969C50.2022 96.0857 50.1112 96.2303 50.0552 96.403C49.9992 96.5757 49.9712 96.7483 49.9712 96.921V99H49.3062V96.718C49.3062 96.4427 49.2408 96.221 49.1102 96.053C48.9842 95.8803 48.7952 95.794 48.5432 95.794C48.3285 95.794 48.1558 95.8523 48.0252 95.969C47.8992 96.0857 47.8082 96.2327 47.7522 96.41C47.6962 96.5827 47.6682 96.753 47.6682 96.921V99H47.0032ZM54.6582 99.07C54.2616 99.07 53.9279 98.979 53.6572 98.797C53.3866 98.6103 53.1812 98.37 53.0412 98.076C52.9012 97.782 52.8312 97.4717 52.8312 97.145C52.8312 96.8137 52.9012 96.5033 53.0412 96.214C53.1812 95.92 53.3866 95.682 53.6572 95.5C53.9279 95.3133 54.2616 95.22 54.6582 95.22C55.0549 95.22 55.3886 95.3133 55.6592 95.5C55.9299 95.682 56.1352 95.92 56.2752 96.214C56.4152 96.5033 56.4852 96.8137 56.4852 97.145C56.4852 97.4717 56.4152 97.782 56.2752 98.076C56.1352 98.37 55.9299 98.6103 55.6592 98.797C55.3886 98.979 55.0549 99.07 54.6582 99.07ZM54.6582 98.489C54.9102 98.489 55.1202 98.426 55.2882 98.3C55.4609 98.1693 55.5892 98.0013 55.6732 97.796C55.7619 97.5907 55.8062 97.3737 55.8062 97.145C55.8062 96.9117 55.7619 96.6947 55.6732 96.494C55.5892 96.2887 55.4609 96.123 55.2882 95.997C55.1202 95.8663 54.9102 95.801 54.6582 95.801C54.4109 95.801 54.2009 95.8663 54.0282 95.997C53.8556 96.123 53.7249 96.2887 53.6362 96.494C53.5522 96.6947 53.5102 96.9117 53.5102 97.145C53.5102 97.3737 53.5522 97.5907 53.6362 97.796C53.7249 98.0013 53.8556 98.1693 54.0282 98.3C54.2009 98.426 54.4109 98.489 54.6582 98.489ZM58.5491 99.07C58.1664 99.07 57.8771 98.972 57.6811 98.776C57.4897 98.58 57.3941 98.3047 57.3941 97.95V95.836H56.7291V95.29H57.3941V94.359H58.0591V95.29H58.9621V95.836H58.0591V97.95C58.0591 98.1367 58.1104 98.2743 58.2131 98.363C58.3157 98.447 58.4651 98.489 58.6611 98.489C58.7637 98.489 58.8617 98.482 58.9551 98.468C59.0484 98.454 59.0951 98.447 59.0951 98.447V99.014C59.0951 99.014 59.0414 99.0233 58.9341 99.042C58.8267 99.0607 58.6984 99.07 58.5491 99.07ZM60.0522 94.583C59.9262 94.583 59.8212 94.541 59.7372 94.457C59.6579 94.373 59.6182 94.2727 59.6182 94.156C59.6182 94.0347 59.6579 93.932 59.7372 93.848C59.8212 93.764 59.9262 93.722 60.0522 93.722C60.1736 93.722 60.2762 93.764 60.3602 93.848C60.4442 93.932 60.4862 94.0347 60.4862 94.156C60.4862 94.2727 60.4442 94.373 60.3602 94.457C60.2762 94.541 60.1736 94.583 60.0522 94.583ZM59.7232 99V95.29H60.3882V99H59.7232ZM62.8709 99.07C62.4743 99.07 62.1406 98.979 61.8699 98.797C61.5993 98.6103 61.3939 98.37 61.2539 98.076C61.1139 97.782 61.0439 97.4717 61.0439 97.145C61.0439 96.8137 61.1139 96.5033 61.2539 96.214C61.3939 95.92 61.5993 95.682 61.8699 95.5C62.1406 95.3133 62.4743 95.22 62.8709 95.22C63.2676 95.22 63.6013 95.3133 63.8719 95.5C64.1426 95.682 64.3479 95.92 64.4879 96.214C64.6279 96.5033 64.6979 96.8137 64.6979 97.145C64.6979 97.4717 64.6279 97.782 64.4879 98.076C64.3479 98.37 64.1426 98.6103 63.8719 98.797C63.6013 98.979 63.2676 99.07 62.8709 99.07ZM62.8709 98.489C63.1229 98.489 63.3329 98.426 63.5009 98.3C63.6736 98.1693 63.8019 98.0013 63.8859 97.796C63.9746 97.5907 64.0189 97.3737 64.0189 97.145C64.0189 96.9117 63.9746 96.6947 63.8859 96.494C63.8019 96.2887 63.6736 96.123 63.5009 95.997C63.3329 95.8663 63.1229 95.801 62.8709 95.801C62.6236 95.801 62.4136 95.8663 62.2409 95.997C62.0683 96.123 61.9376 96.2887 61.8489 96.494C61.7649 96.6947 61.7229 96.9117 61.7229 97.145C61.7229 97.3737 61.7649 97.5907 61.8489 97.796C61.9376 98.0013 62.0683 98.1693 62.2409 98.3C62.4136 98.426 62.6236 98.489 62.8709 98.489ZM65.2551 99V95.29H65.9201V95.829H65.9621C65.9948 95.773 66.0485 95.696 66.1231 95.598C66.2025 95.5 66.3145 95.4137 66.4591 95.339C66.6038 95.2597 66.7858 95.22 67.0051 95.22C67.2758 95.22 67.5068 95.283 67.6981 95.409C67.8895 95.5303 68.0341 95.696 68.1321 95.906C68.2348 96.116 68.2861 96.3517 68.2861 96.613V99H67.6211V96.655C67.6211 96.4077 67.5511 96.2023 67.4111 96.039C67.2758 95.8757 67.0775 95.794 66.8161 95.794C66.6061 95.794 66.4358 95.8477 66.3051 95.955C66.1745 96.0577 66.0765 96.1953 66.0111 96.368C65.9505 96.536 65.9201 96.7157 65.9201 96.907V99H65.2551ZM70.5278 95.22C70.7612 95.22 70.9572 95.2573 71.1158 95.332C71.2745 95.4067 71.4028 95.4953 71.5008 95.598C71.5988 95.696 71.6735 95.7893 71.7248 95.878H71.7668V95.29H72.4318V99H71.7668V98.412H71.7248C71.6735 98.5007 71.5988 98.5963 71.5008 98.699C71.4028 98.8017 71.2745 98.8903 71.1158 98.965C70.9572 99.035 70.7612 99.07 70.5278 99.07C70.2478 99.07 70.0028 99.0163 69.7928 98.909C69.5828 98.797 69.4078 98.65 69.2678 98.468C69.1278 98.2813 69.0228 98.0737 68.9528 97.845C68.8828 97.6163 68.8478 97.383 68.8478 97.145C68.8478 96.907 68.8828 96.6737 68.9528 96.445C69.0228 96.2163 69.1278 96.011 69.2678 95.829C69.4078 95.6423 69.5828 95.4953 69.7928 95.388C70.0028 95.276 70.2478 95.22 70.5278 95.22ZM70.6398 95.787C70.3925 95.787 70.1848 95.8547 70.0168 95.99C69.8488 96.1207 69.7228 96.2887 69.6388 96.494C69.5595 96.6993 69.5198 96.9163 69.5198 97.145C69.5198 97.369 69.5595 97.586 69.6388 97.796C69.7228 98.0013 69.8488 98.1717 70.0168 98.307C70.1848 98.4377 70.3925 98.503 70.6398 98.503C70.8872 98.503 71.0925 98.4377 71.2558 98.307C71.4238 98.1717 71.5475 98.0013 71.6268 97.796C71.7108 97.586 71.7528 97.369 71.7528 97.145C71.7528 96.9163 71.7108 96.6993 71.6268 96.494C71.5475 96.2887 71.4238 96.1207 71.2558 95.99C71.0925 95.8547 70.8872 95.787 70.6398 95.787ZM73.129 99L73.136 93.68H73.794V99H73.129ZM76.1802 99.07C75.8769 99.07 75.6132 99.0163 75.3892 98.909C75.1699 98.797 74.9879 98.6477 74.8432 98.461C74.7032 98.2743 74.5982 98.069 74.5282 97.845C74.4582 97.6163 74.4232 97.383 74.4232 97.145C74.4232 96.9117 74.4559 96.6807 74.5212 96.452C74.5912 96.2233 74.6962 96.0157 74.8362 95.829C74.9809 95.6423 75.1606 95.4953 75.3752 95.388C75.5946 95.276 75.8536 95.22 76.1522 95.22C76.4696 95.22 76.7496 95.2923 76.9922 95.437C77.2349 95.5817 77.4262 95.7963 77.5662 96.081C77.7062 96.3657 77.7762 96.7227 77.7762 97.152V97.348H75.0952C75.1092 97.558 75.1582 97.7517 75.2422 97.929C75.3309 98.1017 75.4546 98.2417 75.6132 98.349C75.7719 98.4517 75.9609 98.503 76.1802 98.503C76.3716 98.503 76.5256 98.4727 76.6422 98.412C76.7636 98.3467 76.8592 98.272 76.9292 98.188C76.9992 98.104 77.0459 98.0317 77.0692 97.971C77.0972 97.9057 77.1112 97.873 77.1112 97.873H77.7342C77.7342 97.873 77.7226 97.915 77.6992 97.999C77.6759 98.0783 77.6339 98.1763 77.5732 98.293C77.5126 98.4097 77.4239 98.5287 77.3072 98.65C77.1906 98.7667 77.0412 98.867 76.8592 98.951C76.6772 99.0303 76.4509 99.07 76.1802 99.07ZM75.1022 96.83H77.1252C77.1159 96.5873 77.0646 96.3913 76.9712 96.242C76.8779 96.088 76.7589 95.9737 76.6142 95.899C76.4696 95.8243 76.3156 95.787 76.1522 95.787C75.8582 95.787 75.6179 95.8827 75.4312 96.074C75.2446 96.2607 75.1349 96.5127 75.1022 96.83ZM79.6669 99V93.82H80.3529V99H79.6669ZM81.0516 99V95.29H81.7166V95.829H81.7586C81.7913 95.773 81.845 95.696 81.9196 95.598C81.999 95.5 82.111 95.4137 82.2556 95.339C82.4003 95.2597 82.5823 95.22 82.8016 95.22C83.0723 95.22 83.3033 95.283 83.4946 95.409C83.686 95.5303 83.8306 95.696 83.9286 95.906C84.0313 96.116 84.0826 96.3517 84.0826 96.613V99H83.4176V96.655C83.4176 96.4077 83.3476 96.2023 83.2076 96.039C83.0723 95.8757 82.874 95.794 82.6126 95.794C82.4026 95.794 82.2323 95.8477 82.1016 95.955C81.971 96.0577 81.873 96.1953 81.8076 96.368C81.747 96.536 81.7166 96.7157 81.7166 96.907V99H81.0516ZM86.1526 99.07C85.7699 99.07 85.4806 98.972 85.2846 98.776C85.0933 98.58 84.9976 98.3047 84.9976 97.95V95.836H84.3326V95.29H84.9976V94.359H85.6626V95.29H86.5656V95.836H85.6626V97.95C85.6626 98.1367 85.7139 98.2743 85.8166 98.363C85.9193 98.447 86.0686 98.489 86.2646 98.489C86.3673 98.489 86.4653 98.482 86.5586 98.468C86.6519 98.454 86.6986 98.447 86.6986 98.447V99.014C86.6986 99.014 86.6449 99.0233 86.5376 99.042C86.4303 99.0607 86.3019 99.07 86.1526 99.07ZM88.772 99.07C88.4687 99.07 88.205 99.0163 87.981 98.909C87.7617 98.797 87.5797 98.6477 87.435 98.461C87.295 98.2743 87.19 98.069 87.12 97.845C87.05 97.6163 87.015 97.383 87.015 97.145C87.015 96.9117 87.0477 96.6807 87.113 96.452C87.183 96.2233 87.288 96.0157 87.428 95.829C87.5727 95.6423 87.7523 95.4953 87.967 95.388C88.1863 95.276 88.4453 95.22 88.744 95.22C89.0613 95.22 89.3413 95.2923 89.584 95.437C89.8267 95.5817 90.018 95.7963 90.158 96.081C90.298 96.3657 90.368 96.7227 90.368 97.152V97.348H87.687C87.701 97.558 87.75 97.7517 87.834 97.929C87.9227 98.1017 88.0463 98.2417 88.205 98.349C88.3637 98.4517 88.5527 98.503 88.772 98.503C88.9633 98.503 89.1173 98.4727 89.234 98.412C89.3553 98.3467 89.451 98.272 89.521 98.188C89.591 98.104 89.6377 98.0317 89.661 97.971C89.689 97.9057 89.703 97.873 89.703 97.873H90.326C90.326 97.873 90.3144 97.915 90.291 97.999C90.2677 98.0783 90.2257 98.1763 90.165 98.293C90.1043 98.4097 90.0157 98.5287 89.899 98.65C89.7824 98.7667 89.633 98.867 89.451 98.951C89.269 99.0303 89.0427 99.07 88.772 99.07ZM87.694 96.83H89.717C89.7077 96.5873 89.6564 96.3913 89.563 96.242C89.4697 96.088 89.3507 95.9737 89.206 95.899C89.0613 95.8243 88.9073 95.787 88.744 95.787C88.45 95.787 88.2097 95.8827 88.023 96.074C87.8363 96.2607 87.7267 96.5127 87.694 96.83ZM90.9954 99L91.0024 93.68H91.6604V99H90.9954ZM92.4296 99L92.4366 93.68H93.0946V99H92.4296ZM94.2278 94.583C94.1018 94.583 93.9968 94.541 93.9128 94.457C93.8335 94.373 93.7938 94.2727 93.7938 94.156C93.7938 94.0347 93.8335 93.932 93.9128 93.848C93.9968 93.764 94.1018 93.722 94.2278 93.722C94.3491 93.722 94.4518 93.764 94.5358 93.848C94.6198 93.932 94.6618 94.0347 94.6618 94.156C94.6618 94.2727 94.6198 94.373 94.5358 94.457C94.4518 94.541 94.3491 94.583 94.2278 94.583ZM93.8988 99V95.29H94.5638V99H93.8988ZM97.0745 100.47C96.7665 100.47 96.5098 100.428 96.3045 100.344C96.0992 100.265 95.9335 100.162 95.8075 100.036C95.6862 99.9147 95.5952 99.7933 95.5345 99.672C95.4738 99.5507 95.4342 99.448 95.4155 99.364C95.3968 99.2847 95.3875 99.245 95.3875 99.245H96.0525C96.0525 99.245 96.0642 99.2777 96.0875 99.343C96.1108 99.4083 96.1552 99.483 96.2205 99.567C96.2905 99.651 96.3932 99.7257 96.5285 99.791C96.6638 99.8563 96.8458 99.889 97.0745 99.889C97.3452 99.889 97.5575 99.8353 97.7115 99.728C97.8655 99.6253 97.9752 99.49 98.0405 99.322C98.1105 99.154 98.1455 98.9767 98.1455 98.79V98.363H98.1105C98.0638 98.4423 97.9892 98.5333 97.8865 98.636C97.7885 98.734 97.6578 98.8203 97.4945 98.895C97.3312 98.965 97.1305 99 96.8925 99C96.6125 99 96.3675 98.9463 96.1575 98.839C95.9475 98.7317 95.7725 98.587 95.6325 98.405C95.4972 98.223 95.3945 98.02 95.3245 97.796C95.2545 97.572 95.2195 97.3433 95.2195 97.11C95.2195 96.8767 95.2545 96.648 95.3245 96.424C95.3945 96.2 95.4972 95.997 95.6325 95.815C95.7725 95.633 95.9475 95.4883 96.1575 95.381C96.3675 95.2737 96.6125 95.22 96.8925 95.22C97.1305 95.22 97.3312 95.2573 97.4945 95.332C97.6578 95.402 97.7885 95.486 97.8865 95.584C97.9892 95.682 98.0638 95.773 98.1105 95.857H98.1455V95.29H98.8105V98.783C98.8105 99.301 98.6588 99.7117 98.3555 100.015C98.0568 100.318 97.6298 100.47 97.0745 100.47ZM97.0185 98.433C97.2658 98.433 97.4712 98.37 97.6345 98.244C97.8025 98.1133 97.9262 97.9477 98.0055 97.747C98.0895 97.5463 98.1315 97.334 98.1315 97.11C98.1315 96.886 98.0895 96.6737 98.0055 96.473C97.9262 96.2677 97.8025 96.102 97.6345 95.976C97.4712 95.85 97.2658 95.787 97.0185 95.787C96.7712 95.787 96.5635 95.85 96.3955 95.976C96.2275 96.102 96.1015 96.2677 96.0175 96.473C95.9382 96.6737 95.8985 96.886 95.8985 97.11C95.8985 97.334 95.9382 97.5463 96.0175 97.747C96.1015 97.9477 96.2275 98.1133 96.3955 98.244C96.5635 98.37 96.7712 98.433 97.0185 98.433ZM100.988 99.07C100.685 99.07 100.421 99.0163 100.197 98.909C99.9775 98.797 99.7955 98.6477 99.6508 98.461C99.5108 98.2743 99.4058 98.069 99.3358 97.845C99.2658 97.6163 99.2308 97.383 99.2308 97.145C99.2308 96.9117 99.2635 96.6807 99.3288 96.452C99.3988 96.2233 99.5038 96.0157 99.6438 95.829C99.7885 95.6423 99.9682 95.4953 100.183 95.388C100.402 95.276 100.661 95.22 100.96 95.22C101.277 95.22 101.557 95.2923 101.8 95.437C102.043 95.5817 102.234 95.7963 102.374 96.081C102.514 96.3657 102.584 96.7227 102.584 97.152V97.348H99.9028C99.9168 97.558 99.9658 97.7517 100.05 97.929C100.139 98.1017 100.262 98.2417 100.421 98.349C100.58 98.4517 100.769 98.503 100.988 98.503C101.179 98.503 101.333 98.4727 101.45 98.412C101.571 98.3467 101.667 98.272 101.737 98.188C101.807 98.104 101.854 98.0317 101.877 97.971C101.905 97.9057 101.919 97.873 101.919 97.873H102.542C102.542 97.873 102.53 97.915 102.507 97.999C102.484 98.0783 102.442 98.1763 102.381 98.293C102.32 98.4097 102.232 98.5287 102.115 98.65C101.998 98.7667 101.849 98.867 101.667 98.951C101.485 99.0303 101.259 99.07 100.988 99.07ZM99.9098 96.83H101.933C101.924 96.5873 101.872 96.3913 101.779 96.242C101.686 96.088 101.567 95.9737 101.422 95.899C101.277 95.8243 101.123 95.787 100.96 95.787C100.666 95.787 100.426 95.8827 100.239 96.074C100.052 96.2607 99.9425 96.5127 99.9098 96.83ZM103.141 99V95.29H103.806V95.829H103.848C103.881 95.773 103.935 95.696 104.009 95.598C104.089 95.5 104.201 95.4137 104.345 95.339C104.49 95.2597 104.672 95.22 104.891 95.22C105.162 95.22 105.393 95.283 105.584 95.409C105.776 95.5303 105.92 95.696 106.018 95.906C106.121 96.116 106.172 96.3517 106.172 96.613V99H105.507V96.655C105.507 96.4077 105.437 96.2023 105.297 96.039C105.162 95.8757 104.964 95.794 104.702 95.794C104.492 95.794 104.322 95.8477 104.191 95.955C104.061 96.0577 103.963 96.1953 103.897 96.368C103.837 96.536 103.806 96.7157 103.806 96.907V99H103.141ZM106.615 99V98.531L108.785 95.836H106.727V95.29H109.604V95.759L107.427 98.454H109.604V99H106.615ZM58.0901 110.07C57.7214 110.07 57.4274 109.956 57.2081 109.727C56.9887 109.498 56.8791 109.181 56.8791 108.775V106.29H57.5441V108.74C57.5441 108.983 57.6094 109.169 57.7401 109.3C57.8754 109.431 58.0527 109.496 58.2721 109.496C58.4961 109.496 58.6757 109.438 58.8111 109.321C58.9464 109.204 59.0444 109.055 59.1051 108.873C59.1657 108.691 59.1961 108.504 59.1961 108.313V106.29H59.8611V110H59.1961V109.468H59.1541C59.1261 109.524 59.0724 109.601 58.9931 109.699C58.9137 109.792 58.8017 109.879 58.6571 109.958C58.5124 110.033 58.3234 110.07 58.0901 110.07ZM60.4939 110V106.29H61.1589V106.829H61.2009C61.2336 106.773 61.2872 106.696 61.3619 106.598C61.4412 106.5 61.5532 106.414 61.6979 106.339C61.8426 106.26 62.0246 106.22 62.2439 106.22C62.5146 106.22 62.7456 106.283 62.9369 106.409C63.1282 106.53 63.2729 106.696 63.3709 106.906C63.4736 107.116 63.5249 107.352 63.5249 107.613V110H62.8599V107.655C62.8599 107.408 62.7899 107.202 62.6499 107.039C62.5146 106.876 62.3162 106.794 62.0549 106.794C61.8449 106.794 61.6746 106.848 61.5439 106.955C61.4132 107.058 61.3152 107.195 61.2499 107.368C61.1892 107.536 61.1589 107.716 61.1589 107.907V110H60.4939ZM65.7666 110.07C65.4866 110.07 65.2416 110.016 65.0316 109.909C64.8216 109.797 64.6466 109.65 64.5066 109.468C64.3666 109.281 64.2616 109.074 64.1916 108.845C64.1216 108.616 64.0866 108.383 64.0866 108.145C64.0866 107.907 64.1216 107.674 64.1916 107.445C64.2616 107.216 64.3666 107.011 64.5066 106.829C64.6466 106.642 64.8216 106.495 65.0316 106.388C65.2416 106.276 65.4866 106.22 65.7666 106.22C65.9999 106.22 66.1959 106.257 66.3546 106.332C66.5133 106.407 66.6416 106.495 66.7396 106.598C66.8376 106.696 66.9123 106.789 66.9636 106.878H67.0056V104.68H67.6706V110H67.0056V109.412H66.9636C66.9123 109.501 66.8376 109.596 66.7396 109.699C66.6416 109.802 66.5133 109.89 66.3546 109.965C66.1959 110.035 65.9999 110.07 65.7666 110.07ZM65.8786 109.503C66.1259 109.503 66.3313 109.438 66.4946 109.307C66.6626 109.172 66.7863 109.001 66.8656 108.796C66.9496 108.586 66.9916 108.369 66.9916 108.145C66.9916 107.916 66.9496 107.699 66.8656 107.494C66.7863 107.289 66.6626 107.121 66.4946 106.99C66.3313 106.855 66.1259 106.787 65.8786 106.787C65.6313 106.787 65.4236 106.855 65.2556 106.99C65.0876 107.121 64.9616 107.289 64.8776 107.494C64.7983 107.699 64.7586 107.916 64.7586 108.145C64.7586 108.369 64.7983 108.586 64.8776 108.796C64.9616 109.001 65.0876 109.172 65.2556 109.307C65.4236 109.438 65.6313 109.503 65.8786 109.503ZM69.7063 110V104.82H71.5403C71.909 104.82 72.2146 104.892 72.4573 105.037C72.7 105.182 72.882 105.368 73.0033 105.597C73.1246 105.826 73.1853 106.066 73.1853 106.318C73.1853 106.528 73.1433 106.731 73.0593 106.927C72.9753 107.123 72.8493 107.296 72.6813 107.445C72.518 107.59 72.3103 107.695 72.0583 107.76L73.3673 110H72.5903L71.3373 107.823H70.3923V110H69.7063ZM71.5333 105.422H70.3923V107.235H71.5333C71.748 107.235 71.9253 107.191 72.0653 107.102C72.2053 107.013 72.3103 106.901 72.3803 106.766C72.4503 106.626 72.4853 106.481 72.4853 106.332C72.4853 106.178 72.4503 106.033 72.3803 105.898C72.3103 105.758 72.2053 105.644 72.0653 105.555C71.9253 105.466 71.748 105.422 71.5333 105.422ZM75.3004 110.07C74.9971 110.07 74.7334 110.016 74.5094 109.909C74.2901 109.797 74.1081 109.648 73.9634 109.461C73.8234 109.274 73.7184 109.069 73.6484 108.845C73.5784 108.616 73.5434 108.383 73.5434 108.145C73.5434 107.912 73.5761 107.681 73.6414 107.452C73.7114 107.223 73.8164 107.016 73.9564 106.829C74.1011 106.642 74.2808 106.495 74.4954 106.388C74.7148 106.276 74.9738 106.22 75.2724 106.22C75.5898 106.22 75.8698 106.292 76.1124 106.437C76.3551 106.582 76.5464 106.796 76.6864 107.081C76.8264 107.366 76.8964 107.723 76.8964 108.152V108.348H74.2154C74.2294 108.558 74.2784 108.752 74.3624 108.929C74.4511 109.102 74.5748 109.242 74.7334 109.349C74.8921 109.452 75.0811 109.503 75.3004 109.503C75.4918 109.503 75.6458 109.473 75.7624 109.412C75.8838 109.347 75.9794 109.272 76.0494 109.188C76.1194 109.104 76.1661 109.032 76.1894 108.971C76.2174 108.906 76.2314 108.873 76.2314 108.873H76.8544C76.8544 108.873 76.8428 108.915 76.8194 108.999C76.7961 109.078 76.7541 109.176 76.6934 109.293C76.6328 109.41 76.5441 109.529 76.4274 109.65C76.3108 109.767 76.1614 109.867 75.9794 109.951C75.7974 110.03 75.5711 110.07 75.3004 110.07ZM74.2224 107.83H76.2454C76.2361 107.587 76.1848 107.391 76.0914 107.242C75.9981 107.088 75.8791 106.974 75.7344 106.899C75.5898 106.824 75.4358 106.787 75.2724 106.787C74.9784 106.787 74.7381 106.883 74.5514 107.074C74.3648 107.261 74.2551 107.513 74.2224 107.83ZM78.8119 110.07C78.5272 110.07 78.2915 110.03 78.1049 109.951C77.9229 109.872 77.7782 109.774 77.6709 109.657C77.5635 109.536 77.4842 109.417 77.4329 109.3C77.3815 109.179 77.3489 109.078 77.3349 108.999C77.3209 108.92 77.3139 108.88 77.3139 108.88H77.9859C77.9859 108.88 77.9929 108.913 78.0069 108.978C78.0255 109.039 78.0605 109.111 78.1119 109.195C78.1679 109.274 78.2519 109.347 78.3639 109.412C78.4805 109.473 78.6345 109.503 78.8259 109.503C79.0452 109.503 79.2155 109.452 79.3369 109.349C79.4582 109.242 79.5189 109.111 79.5189 108.957C79.5189 108.822 79.4699 108.714 79.3719 108.635C79.2785 108.556 79.1432 108.495 78.9659 108.453L78.4619 108.334C78.2752 108.287 78.1002 108.224 77.9369 108.145C77.7735 108.066 77.6405 107.958 77.5379 107.823C77.4399 107.683 77.3909 107.51 77.3909 107.305C77.3909 106.988 77.5099 106.729 77.7479 106.528C77.9859 106.323 78.2962 106.22 78.6789 106.22C78.9355 106.22 79.1479 106.257 79.3159 106.332C79.4839 106.402 79.6169 106.491 79.7149 106.598C79.8175 106.705 79.8922 106.813 79.9389 106.92C79.9902 107.027 80.0229 107.118 80.0369 107.193C80.0509 107.263 80.0579 107.298 80.0579 107.298H79.4139C79.4139 107.298 79.4069 107.272 79.3929 107.221C79.3789 107.165 79.3462 107.104 79.2949 107.039C79.2482 106.969 79.1759 106.908 79.0779 106.857C78.9799 106.801 78.8492 106.773 78.6859 106.773C78.4619 106.773 78.2985 106.824 78.1959 106.927C78.0932 107.03 78.0419 107.142 78.0419 107.263C78.0419 107.38 78.0885 107.475 78.1819 107.55C78.2799 107.62 78.4059 107.674 78.5599 107.711L79.0709 107.83C79.3882 107.905 79.6495 108.028 79.8549 108.201C80.0649 108.369 80.1699 108.612 80.1699 108.929C80.1699 109.134 80.1162 109.326 80.0089 109.503C79.9015 109.676 79.7475 109.813 79.5469 109.916C79.3462 110.019 79.1012 110.07 78.8119 110.07ZM81.0926 105.583C80.9666 105.583 80.8616 105.541 80.7776 105.457C80.6982 105.373 80.6586 105.273 80.6586 105.156C80.6586 105.035 80.6982 104.932 80.7776 104.848C80.8616 104.764 80.9666 104.722 81.0926 104.722C81.2139 104.722 81.3166 104.764 81.4006 104.848C81.4846 104.932 81.5266 105.035 81.5266 105.156C81.5266 105.273 81.4846 105.373 81.4006 105.457C81.3166 105.541 81.2139 105.583 81.0926 105.583ZM80.7636 110V106.29H81.4286V110H80.7636ZM82.2243 110L82.2313 104.68H82.8893V110H82.2243ZM84.0224 105.583C83.8964 105.583 83.7914 105.541 83.7074 105.457C83.6281 105.373 83.5884 105.273 83.5884 105.156C83.5884 105.035 83.6281 104.932 83.7074 104.848C83.7914 104.764 83.8964 104.722 84.0224 104.722C84.1438 104.722 84.2464 104.764 84.3304 104.848C84.4144 104.932 84.4564 105.035 84.4564 105.156C84.4564 105.273 84.4144 105.373 84.3304 105.457C84.2464 105.541 84.1438 105.583 84.0224 105.583ZM83.6934 110V106.29H84.3584V110H83.6934ZM86.7711 110.07C86.4678 110.07 86.2041 110.016 85.9801 109.909C85.7608 109.797 85.5788 109.648 85.4341 109.461C85.2941 109.274 85.1891 109.069 85.1191 108.845C85.0491 108.616 85.0141 108.383 85.0141 108.145C85.0141 107.912 85.0468 107.681 85.1121 107.452C85.1821 107.223 85.2871 107.016 85.4271 106.829C85.5718 106.642 85.7515 106.495 85.9661 106.388C86.1855 106.276 86.4445 106.22 86.7431 106.22C87.0605 106.22 87.3405 106.292 87.5831 106.437C87.8258 106.582 88.0171 106.796 88.1571 107.081C88.2971 107.366 88.3671 107.723 88.3671 108.152V108.348H85.6861C85.7001 108.558 85.7491 108.752 85.8331 108.929C85.9218 109.102 86.0455 109.242 86.2041 109.349C86.3628 109.452 86.5518 109.503 86.7711 109.503C86.9625 109.503 87.1165 109.473 87.2331 109.412C87.3545 109.347 87.4501 109.272 87.5201 109.188C87.5901 109.104 87.6368 109.032 87.6601 108.971C87.6881 108.906 87.7021 108.873 87.7021 108.873H88.3251C88.3251 108.873 88.3135 108.915 88.2901 108.999C88.2668 109.078 88.2248 109.176 88.1641 109.293C88.1035 109.41 88.0148 109.529 87.8981 109.65C87.7815 109.767 87.6321 109.867 87.4501 109.951C87.2681 110.03 87.0418 110.07 86.7711 110.07ZM85.6931 107.83H87.7161C87.7068 107.587 87.6555 107.391 87.5621 107.242C87.4688 107.088 87.3498 106.974 87.2051 106.899C87.0605 106.824 86.9065 106.787 86.7431 106.787C86.4491 106.787 86.2088 106.883 86.0221 107.074C85.8355 107.261 85.7258 107.513 85.6931 107.83ZM88.9246 110V106.29H89.5896V106.829H89.6316C89.6642 106.773 89.7179 106.696 89.7926 106.598C89.8719 106.5 89.9839 106.414 90.1286 106.339C90.2732 106.26 90.4552 106.22 90.6746 106.22C90.9452 106.22 91.1762 106.283 91.3676 106.409C91.5589 106.53 91.7036 106.696 91.8016 106.906C91.9042 107.116 91.9556 107.352 91.9556 107.613V110H91.2906V107.655C91.2906 107.408 91.2206 107.202 91.0806 107.039C90.9452 106.876 90.7469 106.794 90.4856 106.794C90.2756 106.794 90.1052 106.848 89.9746 106.955C89.8439 107.058 89.7459 107.195 89.6806 107.368C89.6199 107.536 89.5896 107.716 89.5896 107.907V110H88.9246ZM92.3983 110V109.531L94.5683 106.836H92.5103V106.29H95.3873V106.759L93.2103 109.454H95.3873V110H92.3983Z" fill="white"/>
<path d="M81 5.11C118.351 7.16971 148 37.8968 148 75.5C148 114.436 116.212 146 77 146C37.7878 146 6 114.436 6 75.5C6 42.2044 29.245 14.2998 60.5 6.91365" stroke="#00BF64" stroke-width="10" stroke-linecap="round"/>
</svg>
