<svg width="151" height="152" viewBox="0 0 151 152" fill="none" xmlns="http://www.w3.org/2000/svg">
<path d="M55.96 60.36V87H49.732V68.46H44.548V64.68L45.34 64.428C46.924 64.02 48.208 63.528 49.192 62.952C50.2 62.352 51.16 61.584 52.072 60.648L52.324 60.36H55.96ZM68.6064 87.36C66.7104 87.36 65.0544 87.036 63.6384 86.388C62.2464 85.716 61.0944 84.816 60.1824 83.688C59.2704 82.536 58.5864 81.24 58.1304 79.8C57.6744 78.336 57.4464 76.812 57.4464 75.228C57.4464 73.452 57.7344 71.676 58.3104 69.9C58.8864 68.1 59.7744 66.456 60.9744 64.968C62.1984 63.456 63.7464 62.256 65.6184 61.368C67.5144 60.456 69.7704 60 72.3864 60C73.4184 60 74.3064 60.06 75.0504 60.18C75.8184 60.276 76.2024 60.324 76.2024 60.324V65.868C76.2024 65.868 75.9984 65.844 75.5904 65.796C75.2064 65.724 74.7264 65.664 74.1504 65.616C73.5744 65.544 72.9984 65.508 72.4224 65.508C70.7664 65.508 69.3264 65.808 68.1024 66.408C66.9024 67.008 65.9424 67.836 65.2224 68.892C64.5264 69.924 64.1064 71.088 63.9624 72.384C64.2024 71.976 64.5744 71.532 65.0784 71.052C65.5824 70.572 66.2544 70.164 67.0944 69.828C67.9584 69.468 69.0144 69.288 70.2624 69.288C72.1584 69.288 73.7424 69.696 75.0144 70.512C76.3104 71.328 77.2824 72.396 77.9304 73.716C78.5784 75.012 78.9024 76.392 78.9024 77.856C78.9024 79.008 78.6864 80.148 78.2544 81.276C77.8464 82.404 77.2104 83.436 76.3464 84.372C75.4824 85.284 74.4024 86.016 73.1064 86.568C71.8344 87.096 70.3344 87.36 68.6064 87.36ZM68.6424 82.248C69.9624 82.248 70.9944 81.84 71.7384 81.024C72.4824 80.208 72.8544 79.224 72.8544 78.072C72.8544 76.92 72.4824 75.936 71.7384 75.12C70.9944 74.304 69.9624 73.896 68.6424 73.896C67.3464 73.896 66.3144 74.304 65.5464 75.12C64.8024 75.936 64.4304 76.92 64.4304 78.072C64.4304 79.224 64.8024 80.208 65.5464 81.024C66.3144 81.84 67.3464 82.248 68.6424 82.248ZM85.2404 71.952C83.8964 71.952 82.7564 71.676 81.8204 71.124C80.9084 70.548 80.2124 69.804 79.7324 68.892C79.2524 67.98 79.0124 67.008 79.0124 65.976C79.0124 64.944 79.2524 63.972 79.7324 63.06C80.2124 62.148 80.9084 61.416 81.8204 60.864C82.7564 60.288 83.8964 60 85.2404 60C86.5604 60 87.6764 60.288 88.5884 60.864C89.5244 61.416 90.2204 62.148 90.6764 63.06C91.1564 63.972 91.3964 64.944 91.3964 65.976C91.3964 67.008 91.1564 67.98 90.6764 68.892C90.2204 69.804 89.5244 70.548 88.5884 71.124C87.6764 71.676 86.5604 71.952 85.2404 71.952ZM83.1164 87L98.3444 60.36H103.06L87.8324 87H83.1164ZM85.2044 68.496C85.9484 68.496 86.5244 68.244 86.9324 67.74C87.3644 67.236 87.5804 66.66 87.5804 66.012C87.5804 65.34 87.3644 64.752 86.9324 64.248C86.5244 63.744 85.9484 63.492 85.2044 63.492C84.4364 63.492 83.8484 63.744 83.4404 64.248C83.0324 64.752 82.8284 65.34 82.8284 66.012C82.8284 66.66 83.0324 67.236 83.4404 67.74C83.8484 68.244 84.4364 68.496 85.2044 68.496ZM100.972 87.36C99.6284 87.36 98.4884 87.084 97.5524 86.532C96.6404 85.956 95.9444 85.212 95.4644 84.3C94.9844 83.388 94.7444 82.404 94.7444 81.348C94.7444 80.316 94.9844 79.356 95.4644 78.468C95.9444 77.556 96.6404 76.824 97.5524 76.272C98.4884 75.696 99.6284 75.408 100.972 75.408C102.316 75.408 103.444 75.696 104.356 76.272C105.268 76.824 105.964 77.556 106.444 78.468C106.924 79.356 107.164 80.316 107.164 81.348C107.164 82.404 106.924 83.388 106.444 84.3C105.964 85.212 105.268 85.956 104.356 86.532C103.444 87.084 102.316 87.36 100.972 87.36ZM100.936 83.904C101.704 83.904 102.292 83.652 102.7 83.148C103.108 82.644 103.312 82.056 103.312 81.384C103.312 80.736 103.108 80.16 102.7 79.656C102.292 79.152 101.704 78.9 100.936 78.9C100.192 78.9 99.6044 79.152 99.1724 79.656C98.7644 80.16 98.5604 80.736 98.5604 81.384C98.5604 82.056 98.7644 82.644 99.1724 83.148C99.6044 83.652 100.192 83.904 100.936 83.904Z" fill="white"/>
<path d="M37.745 101V100.475L40.608 96.422H37.745V95.82H41.455V96.345L38.585 100.398H41.455V101H37.745ZM43.7451 101.07C43.4417 101.07 43.1781 101.016 42.9541 100.909C42.7347 100.797 42.5527 100.648 42.4081 100.461C42.2681 100.274 42.1631 100.069 42.0931 99.845C42.0231 99.6163 41.9881 99.383 41.9881 99.145C41.9881 98.9117 42.0207 98.6807 42.0861 98.452C42.1561 98.2233 42.2611 98.0157 42.4011 97.829C42.5457 97.6423 42.7254 97.4953 42.9401 97.388C43.1594 97.276 43.4184 97.22 43.7171 97.22C44.0344 97.22 44.3144 97.2923 44.5571 97.437C44.7997 97.5817 44.9911 97.7963 45.1311 98.081C45.2711 98.3657 45.3411 98.7227 45.3411 99.152V99.348H42.6601C42.6741 99.558 42.7231 99.7517 42.8071 99.929C42.8957 100.102 43.0194 100.242 43.1781 100.349C43.3367 100.452 43.5257 100.503 43.7451 100.503C43.9364 100.503 44.0904 100.473 44.2071 100.412C44.3284 100.347 44.4241 100.272 44.4941 100.188C44.5641 100.104 44.6107 100.032 44.6341 99.971C44.6621 99.9057 44.6761 99.873 44.6761 99.873H45.2991C45.2991 99.873 45.2874 99.915 45.2641 99.999C45.2407 100.078 45.1987 100.176 45.1381 100.293C45.0774 100.41 44.9887 100.529 44.8721 100.65C44.7554 100.767 44.6061 100.867 44.4241 100.951C44.2421 101.03 44.0157 101.07 43.7451 101.07ZM42.6671 98.83H44.6901C44.6807 98.5873 44.6294 98.3913 44.5361 98.242C44.4427 98.088 44.3237 97.9737 44.1791 97.899C44.0344 97.8243 43.8804 97.787 43.7171 97.787C43.4231 97.787 43.1827 97.8827 42.9961 98.074C42.8094 98.2607 42.6997 98.5127 42.6671 98.83ZM46.3325 96.583C46.2065 96.583 46.1015 96.541 46.0175 96.457C45.9382 96.373 45.8985 96.2727 45.8985 96.156C45.8985 96.0347 45.9382 95.932 46.0175 95.848C46.1015 95.764 46.2065 95.722 46.3325 95.722C46.4538 95.722 46.5565 95.764 46.6405 95.848C46.7245 95.932 46.7665 96.0347 46.7665 96.156C46.7665 96.2727 46.7245 96.373 46.6405 96.457C46.5565 96.541 46.4538 96.583 46.3325 96.583ZM46.0035 101V97.29H46.6685V101H46.0035ZM48.9692 101.07C48.5865 101.07 48.2972 100.972 48.1012 100.776C47.9099 100.58 47.8142 100.305 47.8142 99.95V97.836H47.1492V97.29H47.8142V96.359H48.4792V97.29H49.3822V97.836H48.4792V99.95C48.4792 100.137 48.5305 100.274 48.6332 100.363C48.7359 100.447 48.8852 100.489 49.0812 100.489C49.1839 100.489 49.2819 100.482 49.3752 100.468C49.4685 100.454 49.5152 100.447 49.5152 100.447V101.014C49.5152 101.014 49.4615 101.023 49.3542 101.042C49.2469 101.061 49.1185 101.07 48.9692 101.07ZM51.7356 101V97.836H51.1266V97.29H51.7356V96.835C51.7356 96.639 51.7706 96.4477 51.8406 96.261C51.9106 96.0697 52.0273 95.9133 52.1906 95.792C52.354 95.6707 52.5756 95.61 52.8556 95.61C52.991 95.61 53.0983 95.6217 53.1776 95.645C53.2616 95.6637 53.3036 95.673 53.3036 95.673V96.198C53.3036 96.198 53.2663 96.191 53.1916 96.177C53.1216 96.1583 53.04 96.149 52.9466 96.149C52.732 96.149 52.5873 96.2143 52.5126 96.345C52.438 96.4757 52.4006 96.639 52.4006 96.835V97.29H53.2616V97.836H52.4006V101H51.7356ZM55.8988 96.723C55.7728 96.723 55.6678 96.681 55.5838 96.597C55.5045 96.513 55.4648 96.4127 55.4648 96.296C55.4648 96.1747 55.5045 96.072 55.5838 95.988C55.6678 95.904 55.7728 95.862 55.8988 95.862C56.0202 95.862 56.1228 95.904 56.2068 95.988C56.2908 96.072 56.3328 96.1747 56.3328 96.296C56.3328 96.4127 56.2908 96.513 56.2068 96.597C56.1228 96.681 56.0202 96.723 55.8988 96.723ZM54.5688 96.723C54.4428 96.723 54.3378 96.681 54.2538 96.597C54.1745 96.513 54.1348 96.4127 54.1348 96.296C54.1348 96.1747 54.1745 96.072 54.2538 95.988C54.3378 95.904 54.4428 95.862 54.5688 95.862C54.6902 95.862 54.7928 95.904 54.8768 95.988C54.9608 96.072 55.0028 96.1747 55.0028 96.296C55.0028 96.4127 54.9608 96.513 54.8768 96.597C54.7928 96.681 54.6902 96.723 54.5688 96.723ZM54.9678 101.07C54.5992 101.07 54.3052 100.956 54.0858 100.727C53.8665 100.498 53.7568 100.181 53.7568 99.775V97.29H54.4218V99.74C54.4218 99.9827 54.4872 100.169 54.6178 100.3C54.7532 100.431 54.9305 100.496 55.1498 100.496C55.3738 100.496 55.5535 100.438 55.6888 100.321C55.8242 100.204 55.9222 100.055 55.9828 99.873C56.0435 99.691 56.0738 99.5043 56.0738 99.313V97.29H56.7388V101H56.0738V100.468H56.0318C56.0038 100.524 55.9502 100.601 55.8708 100.699C55.7915 100.792 55.6795 100.879 55.5348 100.958C55.3902 101.033 55.2012 101.07 54.9678 101.07ZM57.4376 101V97.29H58.1026V97.752H58.1306C58.2099 97.612 58.3266 97.4883 58.4806 97.381C58.6346 97.2737 58.8516 97.22 59.1316 97.22C59.2109 97.22 59.2832 97.2247 59.3486 97.234C59.4139 97.2387 59.4466 97.241 59.4466 97.241V97.878C59.4466 97.878 59.4092 97.8757 59.3346 97.871C59.2646 97.8617 59.1899 97.857 59.1106 97.857C58.7886 97.857 58.5389 97.9503 58.3616 98.137C58.1889 98.319 58.1026 98.6177 58.1026 99.033V101H57.4376ZM62.8771 102.47C62.5691 102.47 62.3124 102.428 62.1071 102.344C61.9017 102.265 61.7361 102.162 61.6101 102.036C61.4887 101.915 61.3977 101.793 61.3371 101.672C61.2764 101.551 61.2367 101.448 61.2181 101.364C61.1994 101.285 61.1901 101.245 61.1901 101.245H61.8551C61.8551 101.245 61.8667 101.278 61.8901 101.343C61.9134 101.408 61.9577 101.483 62.0231 101.567C62.0931 101.651 62.1957 101.726 62.3311 101.791C62.4664 101.856 62.6484 101.889 62.8771 101.889C63.1477 101.889 63.3601 101.835 63.5141 101.728C63.6681 101.625 63.7777 101.49 63.8431 101.322C63.9131 101.154 63.9481 100.977 63.9481 100.79V100.363H63.9131C63.8664 100.442 63.7917 100.533 63.6891 100.636C63.5911 100.734 63.4604 100.82 63.2971 100.895C63.1337 100.965 62.9331 101 62.6951 101C62.4151 101 62.1701 100.946 61.9601 100.839C61.7501 100.732 61.5751 100.587 61.4351 100.405C61.2997 100.223 61.1971 100.02 61.1271 99.796C61.0571 99.572 61.0221 99.3433 61.0221 99.11C61.0221 98.8767 61.0571 98.648 61.1271 98.424C61.1971 98.2 61.2997 97.997 61.4351 97.815C61.5751 97.633 61.7501 97.4883 61.9601 97.381C62.1701 97.2737 62.4151 97.22 62.6951 97.22C62.9331 97.22 63.1337 97.2573 63.2971 97.332C63.4604 97.402 63.5911 97.486 63.6891 97.584C63.7917 97.682 63.8664 97.773 63.9131 97.857H63.9481V97.29H64.6131V100.783C64.6131 101.301 64.4614 101.712 64.1581 102.015C63.8594 102.318 63.4324 102.47 62.8771 102.47ZM62.8211 100.433C63.0684 100.433 63.2737 100.37 63.4371 100.244C63.6051 100.113 63.7287 99.9477 63.8081 99.747C63.8921 99.5463 63.9341 99.334 63.9341 99.11C63.9341 98.886 63.8921 98.6737 63.8081 98.473C63.7287 98.2677 63.6051 98.102 63.4371 97.976C63.2737 97.85 63.0684 97.787 62.8211 97.787C62.5737 97.787 62.3661 97.85 62.1981 97.976C62.0301 98.102 61.9041 98.2677 61.8201 98.473C61.7407 98.6737 61.7011 98.886 61.7011 99.11C61.7011 99.334 61.7407 99.5463 61.8201 99.747C61.9041 99.9477 62.0301 100.113 62.1981 100.244C62.3661 100.37 62.5737 100.433 62.8211 100.433ZM66.7904 101.07C66.487 101.07 66.2234 101.016 65.9994 100.909C65.78 100.797 65.598 100.648 65.4534 100.461C65.3134 100.274 65.2084 100.069 65.1384 99.845C65.0684 99.6163 65.0334 99.383 65.0334 99.145C65.0334 98.9117 65.066 98.6807 65.1314 98.452C65.2014 98.2233 65.3064 98.0157 65.4464 97.829C65.591 97.6423 65.7707 97.4953 65.9854 97.388C66.2047 97.276 66.4637 97.22 66.7624 97.22C67.0797 97.22 67.3597 97.2923 67.6024 97.437C67.845 97.5817 68.0364 97.7963 68.1764 98.081C68.3164 98.3657 68.3864 98.7227 68.3864 99.152V99.348H65.7054C65.7194 99.558 65.7684 99.7517 65.8524 99.929C65.941 100.102 66.0647 100.242 66.2234 100.349C66.382 100.452 66.571 100.503 66.7904 100.503C66.9817 100.503 67.1357 100.473 67.2524 100.412C67.3737 100.347 67.4694 100.272 67.5394 100.188C67.6094 100.104 67.656 100.032 67.6794 99.971C67.7074 99.9057 67.7214 99.873 67.7214 99.873H68.3444C68.3444 99.873 68.3327 99.915 68.3094 99.999C68.286 100.078 68.244 100.176 68.1834 100.293C68.1227 100.41 68.034 100.529 67.9174 100.65C67.8007 100.767 67.6514 100.867 67.4694 100.951C67.2874 101.03 67.061 101.07 66.7904 101.07ZM65.7124 98.83H67.7354C67.726 98.5873 67.6747 98.3913 67.5814 98.242C67.488 98.088 67.369 97.9737 67.2244 97.899C67.0797 97.8243 66.9257 97.787 66.7624 97.787C66.4684 97.787 66.228 97.8827 66.0414 98.074C65.8547 98.2607 65.745 98.5127 65.7124 98.83ZM69.7591 101L68.5621 97.29H69.2411L70.1231 100.104L71.0471 97.29H71.6771L72.5941 100.104L73.4831 97.29H74.1621L72.9581 101H72.2441L71.3621 98.263L70.4801 101H69.7591ZM74.9819 96.583C74.8559 96.583 74.7509 96.541 74.6669 96.457C74.5876 96.373 74.5479 96.2727 74.5479 96.156C74.5479 96.0347 74.5876 95.932 74.6669 95.848C74.7509 95.764 74.8559 95.722 74.9819 95.722C75.1032 95.722 75.2059 95.764 75.2899 95.848C75.3739 95.932 75.4159 96.0347 75.4159 96.156C75.4159 96.2727 75.3739 96.373 75.2899 96.457C75.2059 96.541 75.1032 96.583 74.9819 96.583ZM74.6529 101V97.29H75.3179V101H74.6529ZM76.0436 101V97.29H76.7086V97.829H76.7506C76.7833 97.773 76.8369 97.696 76.9116 97.598C76.9909 97.5 77.1029 97.4137 77.2476 97.339C77.3923 97.2597 77.5743 97.22 77.7936 97.22C78.0643 97.22 78.2953 97.283 78.4866 97.409C78.6779 97.5303 78.8226 97.696 78.9206 97.906C79.0233 98.116 79.0746 98.3517 79.0746 98.613V101H78.4096V98.655C78.4096 98.4077 78.3396 98.2023 78.1996 98.039C78.0643 97.8757 77.8659 97.794 77.6046 97.794C77.3946 97.794 77.2243 97.8477 77.0936 97.955C76.9629 98.0577 76.8649 98.1953 76.7996 98.368C76.7389 98.536 76.7086 98.7157 76.7086 98.907V101H76.0436ZM79.7063 101V97.29H80.3713V97.829H80.4133C80.446 97.773 80.4996 97.696 80.5743 97.598C80.6536 97.5 80.7656 97.4137 80.9103 97.339C81.055 97.2597 81.237 97.22 81.4563 97.22C81.727 97.22 81.958 97.283 82.1493 97.409C82.3406 97.5303 82.4853 97.696 82.5833 97.906C82.686 98.116 82.7373 98.3517 82.7373 98.613V101H82.0723V98.655C82.0723 98.4077 82.0023 98.2023 81.8623 98.039C81.727 97.8757 81.5286 97.794 81.2673 97.794C81.0573 97.794 80.887 97.8477 80.7563 97.955C80.6256 98.0577 80.5276 98.1953 80.4623 98.368C80.4016 98.536 80.3713 98.7157 80.3713 98.907V101H79.7063ZM85.343 101.07C85.1097 101.07 84.9137 101.033 84.755 100.958C84.5963 100.883 84.468 100.795 84.37 100.692C84.2767 100.589 84.202 100.496 84.146 100.412H84.104V101H83.439V95.68H84.104V97.878H84.146C84.202 97.7893 84.2767 97.6937 84.37 97.591C84.468 97.4883 84.5963 97.402 84.755 97.332C84.9137 97.2573 85.1097 97.22 85.343 97.22C85.623 97.22 85.868 97.276 86.078 97.388C86.288 97.4953 86.463 97.6423 86.603 97.829C86.743 98.011 86.848 98.2163 86.918 98.445C86.988 98.6737 87.023 98.907 87.023 99.145C87.023 99.383 86.988 99.6163 86.918 99.845C86.848 100.074 86.743 100.281 86.603 100.468C86.463 100.65 86.288 100.797 86.078 100.909C85.868 101.016 85.623 101.07 85.343 101.07ZM85.231 100.503C85.483 100.503 85.6907 100.438 85.854 100.307C86.022 100.172 86.1457 100.001 86.225 99.796C86.309 99.586 86.351 99.369 86.351 99.145C86.351 98.9163 86.309 98.6993 86.225 98.494C86.1457 98.2887 86.022 98.1207 85.854 97.99C85.6907 97.8547 85.483 97.787 85.231 97.787C84.9837 97.787 84.776 97.8547 84.608 97.99C84.4447 98.1207 84.321 98.2887 84.237 98.494C84.1577 98.6993 84.118 98.9163 84.118 99.145C84.118 99.369 84.1577 99.586 84.237 99.796C84.321 100.001 84.4447 100.172 84.608 100.307C84.776 100.438 84.9837 100.503 85.231 100.503ZM87.5854 101V97.29H88.2504V97.752H88.2784C88.3577 97.612 88.4744 97.4883 88.6284 97.381C88.7824 97.2737 88.9994 97.22 89.2794 97.22C89.3587 97.22 89.4311 97.2247 89.4964 97.234C89.5617 97.2387 89.5944 97.241 89.5944 97.241V97.878C89.5944 97.878 89.5571 97.8757 89.4824 97.871C89.4124 97.8617 89.3377 97.857 89.2584 97.857C88.9364 97.857 88.6867 97.9503 88.5094 98.137C88.3367 98.319 88.2504 98.6177 88.2504 99.033V101H87.5854ZM90.5473 96.583C90.4213 96.583 90.3163 96.541 90.2323 96.457C90.153 96.373 90.1133 96.2727 90.1133 96.156C90.1133 96.0347 90.153 95.932 90.2323 95.848C90.3163 95.764 90.4213 95.722 90.5473 95.722C90.6687 95.722 90.7713 95.764 90.8553 95.848C90.9393 95.932 90.9813 96.0347 90.9813 96.156C90.9813 96.2727 90.9393 96.373 90.8553 96.457C90.7713 96.541 90.6687 96.583 90.5473 96.583ZM90.2183 101V97.29H90.8833V101H90.2183ZM91.609 101V97.29H92.274V97.829H92.316C92.3487 97.773 92.4024 97.696 92.477 97.598C92.5564 97.5 92.6684 97.4137 92.813 97.339C92.9577 97.2597 93.1397 97.22 93.359 97.22C93.6297 97.22 93.8607 97.283 94.052 97.409C94.2434 97.5303 94.388 97.696 94.486 97.906C94.5887 98.116 94.64 98.3517 94.64 98.613V101H93.975V98.655C93.975 98.4077 93.905 98.2023 93.765 98.039C93.6297 97.8757 93.4314 97.794 93.17 97.794C92.96 97.794 92.7897 97.8477 92.659 97.955C92.5284 98.0577 92.4304 98.1953 92.365 98.368C92.3044 98.536 92.274 98.7157 92.274 98.907V101H91.609ZM97.0567 102.47C96.7487 102.47 96.4921 102.428 96.2867 102.344C96.0814 102.265 95.9157 102.162 95.7897 102.036C95.6684 101.915 95.5774 101.793 95.5167 101.672C95.4561 101.551 95.4164 101.448 95.3977 101.364C95.3791 101.285 95.3697 101.245 95.3697 101.245H96.0347C96.0347 101.245 96.0464 101.278 96.0697 101.343C96.0931 101.408 96.1374 101.483 96.2027 101.567C96.2727 101.651 96.3754 101.726 96.5107 101.791C96.6461 101.856 96.8281 101.889 97.0567 101.889C97.3274 101.889 97.5397 101.835 97.6937 101.728C97.8477 101.625 97.9574 101.49 98.0227 101.322C98.0927 101.154 98.1277 100.977 98.1277 100.79V100.363H98.0927C98.0461 100.442 97.9714 100.533 97.8687 100.636C97.7707 100.734 97.6401 100.82 97.4767 100.895C97.3134 100.965 97.1127 101 96.8747 101C96.5947 101 96.3497 100.946 96.1397 100.839C95.9297 100.732 95.7547 100.587 95.6147 100.405C95.4794 100.223 95.3767 100.02 95.3067 99.796C95.2367 99.572 95.2017 99.3433 95.2017 99.11C95.2017 98.8767 95.2367 98.648 95.3067 98.424C95.3767 98.2 95.4794 97.997 95.6147 97.815C95.7547 97.633 95.9297 97.4883 96.1397 97.381C96.3497 97.2737 96.5947 97.22 96.8747 97.22C97.1127 97.22 97.3134 97.2573 97.4767 97.332C97.6401 97.402 97.7707 97.486 97.8687 97.584C97.9714 97.682 98.0461 97.773 98.0927 97.857H98.1277V97.29H98.7927V100.783C98.7927 101.301 98.6411 101.712 98.3377 102.015C98.0391 102.318 97.6121 102.47 97.0567 102.47ZM97.0007 100.433C97.2481 100.433 97.4534 100.37 97.6167 100.244C97.7847 100.113 97.9084 99.9477 97.9877 99.747C98.0717 99.5463 98.1137 99.334 98.1137 99.11C98.1137 98.886 98.0717 98.6737 97.9877 98.473C97.9084 98.2677 97.7847 98.102 97.6167 97.976C97.4534 97.85 97.2481 97.787 97.0007 97.787C96.7534 97.787 96.5457 97.85 96.3777 97.976C96.2097 98.102 96.0837 98.2677 95.9997 98.473C95.9204 98.6737 95.8807 98.886 95.8807 99.11C95.8807 99.334 95.9204 99.5463 95.9997 99.747C96.0837 99.9477 96.2097 100.113 96.3777 100.244C96.5457 100.37 96.7534 100.433 97.0007 100.433ZM100.97 101.07C100.667 101.07 100.403 101.016 100.179 100.909C99.9597 100.797 99.7777 100.648 99.6331 100.461C99.4931 100.274 99.3881 100.069 99.3181 99.845C99.2481 99.6163 99.2131 99.383 99.2131 99.145C99.2131 98.9117 99.2457 98.6807 99.3111 98.452C99.3811 98.2233 99.4861 98.0157 99.6261 97.829C99.7707 97.6423 99.9504 97.4953 100.165 97.388C100.384 97.276 100.643 97.22 100.942 97.22C101.259 97.22 101.539 97.2923 101.782 97.437C102.025 97.5817 102.216 97.7963 102.356 98.081C102.496 98.3657 102.566 98.7227 102.566 99.152V99.348H99.8851C99.8991 99.558 99.9481 99.7517 100.032 99.929C100.121 100.102 100.244 100.242 100.403 100.349C100.562 100.452 100.751 100.503 100.97 100.503C101.161 100.503 101.315 100.473 101.432 100.412C101.553 100.347 101.649 100.272 101.719 100.188C101.789 100.104 101.836 100.032 101.859 99.971C101.887 99.9057 101.901 99.873 101.901 99.873H102.524C102.524 99.873 102.512 99.915 102.489 99.999C102.466 100.078 102.424 100.176 102.363 100.293C102.302 100.41 102.214 100.529 102.097 100.65C101.98 100.767 101.831 100.867 101.649 100.951C101.467 101.03 101.241 101.07 100.97 101.07ZM99.8921 98.83H101.915C101.906 98.5873 101.854 98.3913 101.761 98.242C101.668 98.088 101.549 97.9737 101.404 97.899C101.259 97.8243 101.105 97.787 100.942 97.787C100.648 97.787 100.408 97.8827 100.221 98.074C100.034 98.2607 99.9247 98.5127 99.8921 98.83ZM103.123 101V97.29H103.788V97.829H103.83C103.863 97.773 103.917 97.696 103.991 97.598C104.071 97.5 104.183 97.4137 104.327 97.339C104.472 97.2597 104.654 97.22 104.873 97.22C105.144 97.22 105.375 97.283 105.566 97.409C105.758 97.5303 105.902 97.696 106 97.906C106.103 98.116 106.154 98.3517 106.154 98.613V101H105.489V98.655C105.489 98.4077 105.419 98.2023 105.279 98.039C105.144 97.8757 104.946 97.794 104.684 97.794C104.474 97.794 104.304 97.8477 104.173 97.955C104.043 98.0577 103.945 98.1953 103.879 98.368C103.819 98.536 103.788 98.7157 103.788 98.907V101H103.123ZM108.396 101.07C108.116 101.07 107.871 101.016 107.661 100.909C107.451 100.797 107.276 100.65 107.136 100.468C106.996 100.281 106.891 100.074 106.821 99.845C106.751 99.6163 106.716 99.383 106.716 99.145C106.716 98.907 106.751 98.6737 106.821 98.445C106.891 98.2163 106.996 98.011 107.136 97.829C107.276 97.6423 107.451 97.4953 107.661 97.388C107.871 97.276 108.116 97.22 108.396 97.22C108.63 97.22 108.826 97.2573 108.984 97.332C109.143 97.4067 109.271 97.4953 109.369 97.598C109.467 97.696 109.542 97.7893 109.593 97.878H109.635V95.68H110.3V101H109.635V100.412H109.593C109.542 100.501 109.467 100.596 109.369 100.699C109.271 100.802 109.143 100.89 108.984 100.965C108.826 101.035 108.63 101.07 108.396 101.07ZM108.508 100.503C108.756 100.503 108.961 100.438 109.124 100.307C109.292 100.172 109.416 100.001 109.495 99.796C109.579 99.586 109.621 99.369 109.621 99.145C109.621 98.9163 109.579 98.6993 109.495 98.494C109.416 98.2887 109.292 98.1207 109.124 97.99C108.961 97.8547 108.756 97.787 108.508 97.787C108.261 97.787 108.053 97.8547 107.885 97.99C107.717 98.1207 107.591 98.2887 107.507 98.494C107.428 98.6993 107.388 98.9163 107.388 99.145C107.388 99.369 107.428 99.586 107.507 99.796C107.591 100.001 107.717 100.172 107.885 100.307C108.053 100.438 108.261 100.503 108.508 100.503ZM112.69 101.07C112.386 101.07 112.123 101.016 111.899 100.909C111.679 100.797 111.497 100.648 111.353 100.461C111.213 100.274 111.108 100.069 111.038 99.845C110.968 99.6163 110.933 99.383 110.933 99.145C110.933 98.9117 110.965 98.6807 111.031 98.452C111.101 98.2233 111.206 98.0157 111.346 97.829C111.49 97.6423 111.67 97.4953 111.885 97.388C112.104 97.276 112.363 97.22 112.662 97.22C112.979 97.22 113.259 97.2923 113.502 97.437C113.744 97.5817 113.936 97.7963 114.076 98.081C114.216 98.3657 114.286 98.7227 114.286 99.152V99.348H111.605C111.619 99.558 111.668 99.7517 111.752 99.929C111.84 100.102 111.964 100.242 112.123 100.349C112.281 100.452 112.47 100.503 112.69 100.503C112.881 100.503 113.035 100.473 113.152 100.412C113.273 100.347 113.369 100.272 113.439 100.188C113.509 100.104 113.555 100.032 113.579 99.971C113.607 99.9057 113.621 99.873 113.621 99.873H114.244C114.244 99.873 114.232 99.915 114.209 99.999C114.185 100.078 114.143 100.176 114.083 100.293C114.022 100.41 113.933 100.529 113.817 100.65C113.7 100.767 113.551 100.867 113.369 100.951C113.187 101.03 112.96 101.07 112.69 101.07ZM111.612 98.83H113.635C113.625 98.5873 113.574 98.3913 113.481 98.242C113.387 98.088 113.268 97.9737 113.124 97.899C112.979 97.8243 112.825 97.787 112.662 97.787C112.368 97.787 112.127 97.8827 111.941 98.074C111.754 98.2607 111.644 98.5127 111.612 98.83ZM60.5004 112V107.422H58.8834V106.82H62.8034V107.422H61.1864V112H60.5004ZM65.0962 107.723C64.9702 107.723 64.8652 107.681 64.7812 107.597C64.7019 107.513 64.6622 107.413 64.6622 107.296C64.6622 107.175 64.7019 107.072 64.7812 106.988C64.8652 106.904 64.9702 106.862 65.0962 106.862C65.2175 106.862 65.3202 106.904 65.4042 106.988C65.4882 107.072 65.5302 107.175 65.5302 107.296C65.5302 107.413 65.4882 107.513 65.4042 107.597C65.3202 107.681 65.2175 107.723 65.0962 107.723ZM63.7662 107.723C63.6402 107.723 63.5352 107.681 63.4512 107.597C63.3719 107.513 63.3322 107.413 63.3322 107.296C63.3322 107.175 63.3719 107.072 63.4512 106.988C63.5352 106.904 63.6402 106.862 63.7662 106.862C63.8875 106.862 63.9902 106.904 64.0742 106.988C64.1582 107.072 64.2002 107.175 64.2002 107.296C64.2002 107.413 64.1582 107.513 64.0742 107.597C63.9902 107.681 63.8875 107.723 63.7662 107.723ZM64.2772 108.22C64.5105 108.22 64.7065 108.257 64.8652 108.332C65.0239 108.407 65.1522 108.495 65.2502 108.598C65.3482 108.696 65.4229 108.789 65.4742 108.878H65.5162V108.29H66.1812V112H65.5162V111.412H65.4742C65.4229 111.501 65.3482 111.596 65.2502 111.699C65.1522 111.802 65.0239 111.89 64.8652 111.965C64.7065 112.035 64.5105 112.07 64.2772 112.07C63.9972 112.07 63.7522 112.016 63.5422 111.909C63.3322 111.797 63.1572 111.65 63.0172 111.468C62.8772 111.281 62.7722 111.074 62.7022 110.845C62.6322 110.616 62.5972 110.383 62.5972 110.145C62.5972 109.907 62.6322 109.674 62.7022 109.445C62.7722 109.216 62.8772 109.011 63.0172 108.829C63.1572 108.642 63.3322 108.495 63.5422 108.388C63.7522 108.276 63.9972 108.22 64.2772 108.22ZM64.3892 108.787C64.1419 108.787 63.9342 108.855 63.7662 108.99C63.5982 109.121 63.4722 109.289 63.3882 109.494C63.3089 109.699 63.2692 109.916 63.2692 110.145C63.2692 110.369 63.3089 110.586 63.3882 110.796C63.4722 111.001 63.5982 111.172 63.7662 111.307C63.9342 111.438 64.1419 111.503 64.3892 111.503C64.6365 111.503 64.8419 111.438 65.0052 111.307C65.1732 111.172 65.2969 111.001 65.3762 110.796C65.4602 110.586 65.5022 110.369 65.5022 110.145C65.5022 109.916 65.4602 109.699 65.3762 109.494C65.2969 109.289 65.1732 109.121 65.0052 108.99C64.8419 108.855 64.6365 108.787 64.3892 108.787ZM68.2937 112.07C67.911 112.07 67.6217 111.972 67.4257 111.776C67.2344 111.58 67.1387 111.305 67.1387 110.95V108.836H66.4737V108.29H67.1387V107.359H67.8037V108.29H68.7067V108.836H67.8037V110.95C67.8037 111.137 67.855 111.274 67.9577 111.363C68.0604 111.447 68.2097 111.489 68.4057 111.489C68.5084 111.489 68.6064 111.482 68.6997 111.468C68.793 111.454 68.8397 111.447 68.8397 111.447V112.014C68.8397 112.014 68.786 112.023 68.6787 112.042C68.5714 112.061 68.443 112.07 68.2937 112.07ZM69.7969 107.583C69.6709 107.583 69.5659 107.541 69.4819 107.457C69.4025 107.373 69.3629 107.273 69.3629 107.156C69.3629 107.035 69.4025 106.932 69.4819 106.848C69.5659 106.764 69.6709 106.722 69.7969 106.722C69.9182 106.722 70.0209 106.764 70.1049 106.848C70.1889 106.932 70.2309 107.035 70.2309 107.156C70.2309 107.273 70.1889 107.373 70.1049 107.457C70.0209 107.541 69.9182 107.583 69.7969 107.583ZM69.4679 112V108.29H70.1329V112H69.4679ZM72.6436 113.47C72.3356 113.47 72.0789 113.428 71.8736 113.344C71.6682 113.265 71.5026 113.162 71.3766 113.036C71.2552 112.915 71.1642 112.793 71.1036 112.672C71.0429 112.551 71.0032 112.448 70.9846 112.364C70.9659 112.285 70.9566 112.245 70.9566 112.245H71.6216C71.6216 112.245 71.6332 112.278 71.6566 112.343C71.6799 112.408 71.7242 112.483 71.7896 112.567C71.8596 112.651 71.9622 112.726 72.0976 112.791C72.2329 112.856 72.4149 112.889 72.6436 112.889C72.9142 112.889 73.1266 112.835 73.2806 112.728C73.4346 112.625 73.5442 112.49 73.6096 112.322C73.6796 112.154 73.7146 111.977 73.7146 111.79V111.363H73.6796C73.6329 111.442 73.5582 111.533 73.4556 111.636C73.3576 111.734 73.2269 111.82 73.0636 111.895C72.9002 111.965 72.6996 112 72.4616 112C72.1816 112 71.9366 111.946 71.7266 111.839C71.5166 111.732 71.3416 111.587 71.2016 111.405C71.0662 111.223 70.9636 111.02 70.8936 110.796C70.8236 110.572 70.7886 110.343 70.7886 110.11C70.7886 109.877 70.8236 109.648 70.8936 109.424C70.9636 109.2 71.0662 108.997 71.2016 108.815C71.3416 108.633 71.5166 108.488 71.7266 108.381C71.9366 108.274 72.1816 108.22 72.4616 108.22C72.6996 108.22 72.9002 108.257 73.0636 108.332C73.2269 108.402 73.3576 108.486 73.4556 108.584C73.5582 108.682 73.6329 108.773 73.6796 108.857H73.7146V108.29H74.3796V111.783C74.3796 112.301 74.2279 112.712 73.9246 113.015C73.6259 113.318 73.1989 113.47 72.6436 113.47ZM72.5876 111.433C72.8349 111.433 73.0402 111.37 73.2036 111.244C73.3716 111.113 73.4952 110.948 73.5746 110.747C73.6586 110.546 73.7006 110.334 73.7006 110.11C73.7006 109.886 73.6586 109.674 73.5746 109.473C73.4952 109.268 73.3716 109.102 73.2036 108.976C73.0402 108.85 72.8349 108.787 72.5876 108.787C72.3402 108.787 72.1326 108.85 71.9646 108.976C71.7966 109.102 71.6706 109.268 71.5866 109.473C71.5072 109.674 71.4676 109.886 71.4676 110.11C71.4676 110.334 71.5072 110.546 71.5866 110.747C71.6706 110.948 71.7966 111.113 71.9646 111.244C72.1326 111.37 72.3402 111.433 72.5876 111.433ZM75.0766 112V106.68H75.7416V109.774L77.2186 108.29H78.0866L76.3786 109.977L78.1216 112H77.2746L75.7416 110.215V112H75.0766ZM79.912 112.07C79.6086 112.07 79.345 112.016 79.121 111.909C78.9016 111.797 78.7196 111.648 78.575 111.461C78.435 111.274 78.33 111.069 78.26 110.845C78.19 110.616 78.155 110.383 78.155 110.145C78.155 109.912 78.1876 109.681 78.253 109.452C78.323 109.223 78.428 109.016 78.568 108.829C78.7126 108.642 78.8923 108.495 79.107 108.388C79.3263 108.276 79.5853 108.22 79.884 108.22C80.2013 108.22 80.4813 108.292 80.724 108.437C80.9666 108.582 81.158 108.796 81.298 109.081C81.438 109.366 81.508 109.723 81.508 110.152V110.348H78.827C78.841 110.558 78.89 110.752 78.974 110.929C79.0626 111.102 79.1863 111.242 79.345 111.349C79.5036 111.452 79.6926 111.503 79.912 111.503C80.1033 111.503 80.2573 111.473 80.374 111.412C80.4953 111.347 80.591 111.272 80.661 111.188C80.731 111.104 80.7776 111.032 80.801 110.971C80.829 110.906 80.843 110.873 80.843 110.873H81.466C81.466 110.873 81.4543 110.915 81.431 110.999C81.4076 111.078 81.3656 111.176 81.305 111.293C81.2443 111.41 81.1556 111.529 81.039 111.65C80.9223 111.767 80.773 111.867 80.591 111.951C80.409 112.03 80.1826 112.07 79.912 112.07ZM78.834 109.83H80.857C80.8476 109.587 80.7963 109.391 80.703 109.242C80.6096 109.088 80.4906 108.974 80.346 108.899C80.2013 108.824 80.0473 108.787 79.884 108.787C79.59 108.787 79.3496 108.883 79.163 109.074C78.9763 109.261 78.8666 109.513 78.834 109.83ZM82.4994 107.583C82.3734 107.583 82.2684 107.541 82.1844 107.457C82.1051 107.373 82.0654 107.273 82.0654 107.156C82.0654 107.035 82.1051 106.932 82.1844 106.848C82.2684 106.764 82.3734 106.722 82.4994 106.722C82.6207 106.722 82.7234 106.764 82.8074 106.848C82.8914 106.932 82.9334 107.035 82.9334 107.156C82.9334 107.273 82.8914 107.373 82.8074 107.457C82.7234 107.541 82.6207 107.583 82.4994 107.583ZM82.1704 112V108.29H82.8354V112H82.1704ZM85.1361 112.07C84.7534 112.07 84.4641 111.972 84.2681 111.776C84.0768 111.58 83.9811 111.305 83.9811 110.95V108.836H83.3161V108.29H83.9811V107.359H84.6461V108.29H85.5491V108.836H84.6461V110.95C84.6461 111.137 84.6974 111.274 84.8001 111.363C84.9028 111.447 85.0521 111.489 85.2481 111.489C85.3508 111.489 85.4488 111.482 85.5421 111.468C85.6354 111.454 85.6821 111.447 85.6821 111.447V112.014C85.6821 112.014 85.6284 112.023 85.5211 112.042C85.4138 112.061 85.2854 112.07 85.1361 112.07ZM87.7555 112.07C87.4522 112.07 87.1885 112.016 86.9645 111.909C86.7452 111.797 86.5632 111.648 86.4185 111.461C86.2785 111.274 86.1735 111.069 86.1035 110.845C86.0335 110.616 85.9985 110.383 85.9985 110.145C85.9985 109.912 86.0312 109.681 86.0965 109.452C86.1665 109.223 86.2715 109.016 86.4115 108.829C86.5562 108.642 86.7358 108.495 86.9505 108.388C87.1698 108.276 87.4288 108.22 87.7275 108.22C88.0448 108.22 88.3248 108.292 88.5675 108.437C88.8102 108.582 89.0015 108.796 89.1415 109.081C89.2815 109.366 89.3515 109.723 89.3515 110.152V110.348H86.6705C86.6845 110.558 86.7335 110.752 86.8175 110.929C86.9062 111.102 87.0298 111.242 87.1885 111.349C87.3472 111.452 87.5362 111.503 87.7555 111.503C87.9468 111.503 88.1008 111.473 88.2175 111.412C88.3388 111.347 88.4345 111.272 88.5045 111.188C88.5745 111.104 88.6212 111.032 88.6445 110.971C88.6725 110.906 88.6865 110.873 88.6865 110.873H89.3095C89.3095 110.873 89.2978 110.915 89.2745 110.999C89.2512 111.078 89.2092 111.176 89.1485 111.293C89.0878 111.41 88.9992 111.529 88.8825 111.65C88.7658 111.767 88.6165 111.867 88.4345 111.951C88.2525 112.03 88.0262 112.07 87.7555 112.07ZM86.6775 109.83H88.7005C88.6912 109.587 88.6398 109.391 88.5465 109.242C88.4532 109.088 88.3342 108.974 88.1895 108.899C88.0448 108.824 87.8908 108.787 87.7275 108.787C87.4335 108.787 87.1932 108.883 87.0065 109.074C86.8198 109.261 86.7102 109.513 86.6775 109.83ZM89.9089 112V108.29H90.5739V108.829H90.6159C90.6486 108.773 90.7023 108.696 90.7769 108.598C90.8563 108.5 90.9683 108.414 91.1129 108.339C91.2576 108.26 91.4396 108.22 91.6589 108.22C91.9296 108.22 92.1606 108.283 92.3519 108.409C92.5433 108.53 92.6879 108.696 92.7859 108.906C92.8886 109.116 92.9399 109.352 92.9399 109.613V112H92.2749V109.655C92.2749 109.408 92.2049 109.202 92.0649 109.039C91.9296 108.876 91.7313 108.794 91.4699 108.794C91.2599 108.794 91.0896 108.848 90.9589 108.955C90.8283 109.058 90.7303 109.195 90.6649 109.368C90.6043 109.536 90.5739 109.716 90.5739 109.907V112H89.9089Z" fill="white"/>
<ellipse cx="75.5" cy="76" rx="70.5" ry="71" stroke="#D9D9D9" stroke-width="10"/>
<path d="M75.5 5C100.345 5 122.189 17.9434 134.745 37.5" stroke="#FB3131" stroke-width="10" stroke-linecap="round"/>
</svg>
