<svg width="152" height="151" viewBox="0 0 152 151" fill="none" xmlns="http://www.w3.org/2000/svg">
<path d="M45.256 86C45.376 83.288 45.772 80.792 46.444 78.512C47.116 76.232 47.908 74.192 48.82 72.392C49.756 70.568 50.68 69.02 51.592 67.748C52.504 66.452 53.26 65.456 53.86 64.76H41.044V59.36H60.772V63.788C60.772 63.788 60.472 64.112 59.872 64.76C59.296 65.408 58.564 66.368 57.676 67.64C56.812 68.888 55.924 70.424 55.012 72.248C54.1 74.048 53.32 76.1 52.672 78.404C52.024 80.708 51.64 83.24 51.52 86H45.256ZM70.755 59C72.651 59 74.295 59.336 75.687 60.008C77.079 60.656 78.231 61.556 79.143 62.708C80.079 63.836 80.763 65.132 81.195 66.596C81.651 68.036 81.879 69.548 81.879 71.132C81.879 72.908 81.591 74.696 81.015 76.496C80.439 78.272 79.551 79.916 78.351 81.428C77.151 82.916 75.603 84.116 73.707 85.028C71.835 85.916 69.591 86.36 66.975 86.36C65.943 86.36 65.043 86.3 64.275 86.18C63.531 86.084 63.159 86.036 63.159 86.036V80.492C63.159 80.492 63.351 80.528 63.735 80.6C64.119 80.648 64.599 80.708 65.175 80.78C65.775 80.828 66.351 80.852 66.903 80.852C68.583 80.852 70.023 80.552 71.223 79.952C72.423 79.352 73.371 78.536 74.067 77.504C74.787 76.448 75.219 75.272 75.363 73.976C75.123 74.384 74.751 74.828 74.247 75.308C73.743 75.788 73.071 76.208 72.231 76.568C71.391 76.904 70.335 77.072 69.063 77.072C67.167 77.072 65.571 76.664 64.275 75.848C63.003 75.032 62.043 73.976 61.395 72.68C60.747 71.36 60.423 69.968 60.423 68.504C60.423 67.352 60.639 66.212 61.071 65.084C61.503 63.956 62.139 62.936 62.979 62.024C63.843 61.088 64.923 60.356 66.219 59.828C67.515 59.276 69.027 59 70.755 59ZM70.683 64.112C69.387 64.112 68.367 64.52 67.623 65.336C66.879 66.152 66.507 67.136 66.507 68.288C66.507 69.44 66.879 70.424 67.623 71.24C68.367 72.056 69.387 72.464 70.683 72.464C71.979 72.464 72.999 72.056 73.743 71.24C74.511 70.424 74.895 69.44 74.895 68.288C74.895 67.136 74.511 66.152 73.743 65.336C72.999 64.52 71.979 64.112 70.683 64.112ZM88.2169 70.952C86.8729 70.952 85.7329 70.676 84.7969 70.124C83.8849 69.548 83.1889 68.804 82.7089 67.892C82.2289 66.98 81.9889 66.008 81.9889 64.976C81.9889 63.944 82.2289 62.972 82.7089 62.06C83.1889 61.148 83.8849 60.416 84.7969 59.864C85.7329 59.288 86.8729 59 88.2169 59C89.5369 59 90.6529 59.288 91.5649 59.864C92.5009 60.416 93.1969 61.148 93.6529 62.06C94.1329 62.972 94.3729 63.944 94.3729 64.976C94.3729 66.008 94.1329 66.98 93.6529 67.892C93.1969 68.804 92.5009 69.548 91.5649 70.124C90.6529 70.676 89.5369 70.952 88.2169 70.952ZM86.0929 86L101.321 59.36H106.037L90.8089 86H86.0929ZM88.1809 67.496C88.9249 67.496 89.5009 67.244 89.9089 66.74C90.3409 66.236 90.5569 65.66 90.5569 65.012C90.5569 64.34 90.3409 63.752 89.9089 63.248C89.5009 62.744 88.9249 62.492 88.1809 62.492C87.4129 62.492 86.8249 62.744 86.4169 63.248C86.0089 63.752 85.8049 64.34 85.8049 65.012C85.8049 65.66 86.0089 66.236 86.4169 66.74C86.8249 67.244 87.4129 67.496 88.1809 67.496ZM103.949 86.36C102.605 86.36 101.465 86.084 100.529 85.532C99.6169 84.956 98.9209 84.212 98.4409 83.3C97.9609 82.388 97.7209 81.404 97.7209 80.348C97.7209 79.316 97.9609 78.356 98.4409 77.468C98.9209 76.556 99.6169 75.824 100.529 75.272C101.465 74.696 102.605 74.408 103.949 74.408C105.293 74.408 106.421 74.696 107.333 75.272C108.245 75.824 108.941 76.556 109.421 77.468C109.901 78.356 110.141 79.316 110.141 80.348C110.141 81.404 109.901 82.388 109.421 83.3C108.941 84.212 108.245 84.956 107.333 85.532C106.421 86.084 105.293 86.36 103.949 86.36ZM103.913 82.904C104.681 82.904 105.269 82.652 105.677 82.148C106.085 81.644 106.289 81.056 106.289 80.384C106.289 79.736 106.085 79.16 105.677 78.656C105.269 78.152 104.681 77.9 103.913 77.9C103.169 77.9 102.581 78.152 102.149 78.656C101.741 79.16 101.537 79.736 101.537 80.384C101.537 81.056 101.741 81.644 102.149 82.148C102.581 82.652 103.169 82.904 103.913 82.904Z" fill="white"/>
<path d="M36.745 100V99.475L39.608 95.422H36.745V94.82H40.455V95.345L37.585 99.398H40.455V100H36.745ZM42.7451 100.07C42.4417 100.07 42.1781 100.016 41.9541 99.909C41.7347 99.797 41.5527 99.6477 41.4081 99.461C41.2681 99.2743 41.1631 99.069 41.0931 98.845C41.0231 98.6163 40.9881 98.383 40.9881 98.145C40.9881 97.9117 41.0207 97.6807 41.0861 97.452C41.1561 97.2233 41.2611 97.0157 41.4011 96.829C41.5457 96.6423 41.7254 96.4953 41.9401 96.388C42.1594 96.276 42.4184 96.22 42.7171 96.22C43.0344 96.22 43.3144 96.2923 43.5571 96.437C43.7997 96.5817 43.9911 96.7963 44.1311 97.081C44.2711 97.3657 44.3411 97.7227 44.3411 98.152V98.348H41.6601C41.6741 98.558 41.7231 98.7517 41.8071 98.929C41.8957 99.1017 42.0194 99.2417 42.1781 99.349C42.3367 99.4517 42.5257 99.503 42.7451 99.503C42.9364 99.503 43.0904 99.4727 43.2071 99.412C43.3284 99.3467 43.4241 99.272 43.4941 99.188C43.5641 99.104 43.6107 99.0317 43.6341 98.971C43.6621 98.9057 43.6761 98.873 43.6761 98.873H44.2991C44.2991 98.873 44.2874 98.915 44.2641 98.999C44.2407 99.0783 44.1987 99.1763 44.1381 99.293C44.0774 99.4097 43.9887 99.5287 43.8721 99.65C43.7554 99.7667 43.6061 99.867 43.4241 99.951C43.2421 100.03 43.0157 100.07 42.7451 100.07ZM41.6671 97.83H43.6901C43.6807 97.5873 43.6294 97.3913 43.5361 97.242C43.4427 97.088 43.3237 96.9737 43.1791 96.899C43.0344 96.8243 42.8804 96.787 42.7171 96.787C42.4231 96.787 42.1827 96.8827 41.9961 97.074C41.8094 97.2607 41.6997 97.5127 41.6671 97.83ZM45.3325 95.583C45.2065 95.583 45.1015 95.541 45.0175 95.457C44.9382 95.373 44.8985 95.2727 44.8985 95.156C44.8985 95.0347 44.9382 94.932 45.0175 94.848C45.1015 94.764 45.2065 94.722 45.3325 94.722C45.4538 94.722 45.5565 94.764 45.6405 94.848C45.7245 94.932 45.7665 95.0347 45.7665 95.156C45.7665 95.2727 45.7245 95.373 45.6405 95.457C45.5565 95.541 45.4538 95.583 45.3325 95.583ZM45.0035 100V96.29H45.6685V100H45.0035ZM47.9692 100.07C47.5865 100.07 47.2972 99.972 47.1012 99.776C46.9099 99.58 46.8142 99.3047 46.8142 98.95V96.836H46.1492V96.29H46.8142V95.359H47.4792V96.29H48.3822V96.836H47.4792V98.95C47.4792 99.1367 47.5305 99.2743 47.6332 99.363C47.7359 99.447 47.8852 99.489 48.0812 99.489C48.1839 99.489 48.2819 99.482 48.3752 99.468C48.4685 99.454 48.5152 99.447 48.5152 99.447V100.014C48.5152 100.014 48.4615 100.023 48.3542 100.042C48.2469 100.061 48.1185 100.07 47.9692 100.07ZM50.7356 100V96.836H50.1266V96.29H50.7356V95.835C50.7356 95.639 50.7706 95.4477 50.8406 95.261C50.9106 95.0697 51.0273 94.9133 51.1906 94.792C51.354 94.6707 51.5756 94.61 51.8556 94.61C51.991 94.61 52.0983 94.6217 52.1776 94.645C52.2616 94.6637 52.3036 94.673 52.3036 94.673V95.198C52.3036 95.198 52.2663 95.191 52.1916 95.177C52.1216 95.1583 52.04 95.149 51.9466 95.149C51.732 95.149 51.5873 95.2143 51.5126 95.345C51.438 95.4757 51.4006 95.639 51.4006 95.835V96.29H52.2616V96.836H51.4006V100H50.7356ZM54.8988 95.723C54.7728 95.723 54.6678 95.681 54.5838 95.597C54.5045 95.513 54.4648 95.4127 54.4648 95.296C54.4648 95.1747 54.5045 95.072 54.5838 94.988C54.6678 94.904 54.7728 94.862 54.8988 94.862C55.0202 94.862 55.1228 94.904 55.2068 94.988C55.2908 95.072 55.3328 95.1747 55.3328 95.296C55.3328 95.4127 55.2908 95.513 55.2068 95.597C55.1228 95.681 55.0202 95.723 54.8988 95.723ZM53.5688 95.723C53.4428 95.723 53.3378 95.681 53.2538 95.597C53.1745 95.513 53.1348 95.4127 53.1348 95.296C53.1348 95.1747 53.1745 95.072 53.2538 94.988C53.3378 94.904 53.4428 94.862 53.5688 94.862C53.6902 94.862 53.7928 94.904 53.8768 94.988C53.9608 95.072 54.0028 95.1747 54.0028 95.296C54.0028 95.4127 53.9608 95.513 53.8768 95.597C53.7928 95.681 53.6902 95.723 53.5688 95.723ZM53.9678 100.07C53.5992 100.07 53.3052 99.9557 53.0858 99.727C52.8665 99.4983 52.7568 99.181 52.7568 98.775V96.29H53.4218V98.74C53.4218 98.9827 53.4872 99.1693 53.6178 99.3C53.7532 99.4307 53.9305 99.496 54.1498 99.496C54.3738 99.496 54.5535 99.4377 54.6888 99.321C54.8242 99.2043 54.9222 99.055 54.9828 98.873C55.0435 98.691 55.0738 98.5043 55.0738 98.313V96.29H55.7388V100H55.0738V99.468H55.0318C55.0038 99.524 54.9502 99.601 54.8708 99.699C54.7915 99.7923 54.6795 99.8787 54.5348 99.958C54.3902 100.033 54.2012 100.07 53.9678 100.07ZM56.4376 100V96.29H57.1026V96.752H57.1306C57.2099 96.612 57.3266 96.4883 57.4806 96.381C57.6346 96.2737 57.8516 96.22 58.1316 96.22C58.2109 96.22 58.2832 96.2247 58.3486 96.234C58.4139 96.2387 58.4466 96.241 58.4466 96.241V96.878C58.4466 96.878 58.4092 96.8757 58.3346 96.871C58.2646 96.8617 58.1899 96.857 58.1106 96.857C57.7886 96.857 57.5389 96.9503 57.3616 97.137C57.1889 97.319 57.1026 97.6177 57.1026 98.033V100H56.4376ZM61.8771 101.47C61.5691 101.47 61.3124 101.428 61.1071 101.344C60.9017 101.265 60.7361 101.162 60.6101 101.036C60.4887 100.915 60.3977 100.793 60.3371 100.672C60.2764 100.551 60.2367 100.448 60.2181 100.364C60.1994 100.285 60.1901 100.245 60.1901 100.245H60.8551C60.8551 100.245 60.8667 100.278 60.8901 100.343C60.9134 100.408 60.9577 100.483 61.0231 100.567C61.0931 100.651 61.1957 100.726 61.3311 100.791C61.4664 100.856 61.6484 100.889 61.8771 100.889C62.1477 100.889 62.3601 100.835 62.5141 100.728C62.6681 100.625 62.7777 100.49 62.8431 100.322C62.9131 100.154 62.9481 99.9767 62.9481 99.79V99.363H62.9131C62.8664 99.4423 62.7917 99.5333 62.6891 99.636C62.5911 99.734 62.4604 99.8203 62.2971 99.895C62.1337 99.965 61.9331 100 61.6951 100C61.4151 100 61.1701 99.9463 60.9601 99.839C60.7501 99.7317 60.5751 99.587 60.4351 99.405C60.2997 99.223 60.1971 99.02 60.1271 98.796C60.0571 98.572 60.0221 98.3433 60.0221 98.11C60.0221 97.8767 60.0571 97.648 60.1271 97.424C60.1971 97.2 60.2997 96.997 60.4351 96.815C60.5751 96.633 60.7501 96.4883 60.9601 96.381C61.1701 96.2737 61.4151 96.22 61.6951 96.22C61.9331 96.22 62.1337 96.2573 62.2971 96.332C62.4604 96.402 62.5911 96.486 62.6891 96.584C62.7917 96.682 62.8664 96.773 62.9131 96.857H62.9481V96.29H63.6131V99.783C63.6131 100.301 63.4614 100.712 63.1581 101.015C62.8594 101.318 62.4324 101.47 61.8771 101.47ZM61.8211 99.433C62.0684 99.433 62.2737 99.37 62.4371 99.244C62.6051 99.1133 62.7287 98.9477 62.8081 98.747C62.8921 98.5463 62.9341 98.334 62.9341 98.11C62.9341 97.886 62.8921 97.6737 62.8081 97.473C62.7287 97.2677 62.6051 97.102 62.4371 96.976C62.2737 96.85 62.0684 96.787 61.8211 96.787C61.5737 96.787 61.3661 96.85 61.1981 96.976C61.0301 97.102 60.9041 97.2677 60.8201 97.473C60.7407 97.6737 60.7011 97.886 60.7011 98.11C60.7011 98.334 60.7407 98.5463 60.8201 98.747C60.9041 98.9477 61.0301 99.1133 61.1981 99.244C61.3661 99.37 61.5737 99.433 61.8211 99.433ZM65.7904 100.07C65.487 100.07 65.2234 100.016 64.9994 99.909C64.78 99.797 64.598 99.6477 64.4534 99.461C64.3134 99.2743 64.2084 99.069 64.1384 98.845C64.0684 98.6163 64.0334 98.383 64.0334 98.145C64.0334 97.9117 64.066 97.6807 64.1314 97.452C64.2014 97.2233 64.3064 97.0157 64.4464 96.829C64.591 96.6423 64.7707 96.4953 64.9854 96.388C65.2047 96.276 65.4637 96.22 65.7624 96.22C66.0797 96.22 66.3597 96.2923 66.6024 96.437C66.845 96.5817 67.0364 96.7963 67.1764 97.081C67.3164 97.3657 67.3864 97.7227 67.3864 98.152V98.348H64.7054C64.7194 98.558 64.7684 98.7517 64.8524 98.929C64.941 99.1017 65.0647 99.2417 65.2234 99.349C65.382 99.4517 65.571 99.503 65.7904 99.503C65.9817 99.503 66.1357 99.4727 66.2524 99.412C66.3737 99.3467 66.4694 99.272 66.5394 99.188C66.6094 99.104 66.656 99.0317 66.6794 98.971C66.7074 98.9057 66.7214 98.873 66.7214 98.873H67.3444C67.3444 98.873 67.3327 98.915 67.3094 98.999C67.286 99.0783 67.244 99.1763 67.1834 99.293C67.1227 99.4097 67.034 99.5287 66.9174 99.65C66.8007 99.7667 66.6514 99.867 66.4694 99.951C66.2874 100.03 66.061 100.07 65.7904 100.07ZM64.7124 97.83H66.7354C66.726 97.5873 66.6747 97.3913 66.5814 97.242C66.488 97.088 66.369 96.9737 66.2244 96.899C66.0797 96.8243 65.9257 96.787 65.7624 96.787C65.4684 96.787 65.228 96.8827 65.0414 97.074C64.8547 97.2607 64.745 97.5127 64.7124 97.83ZM68.7591 100L67.5621 96.29H68.2411L69.1231 99.104L70.0471 96.29H70.6771L71.5941 99.104L72.4831 96.29H73.1621L71.9581 100H71.2441L70.3621 97.263L69.4801 100H68.7591ZM73.9819 95.583C73.8559 95.583 73.7509 95.541 73.6669 95.457C73.5876 95.373 73.5479 95.2727 73.5479 95.156C73.5479 95.0347 73.5876 94.932 73.6669 94.848C73.7509 94.764 73.8559 94.722 73.9819 94.722C74.1032 94.722 74.2059 94.764 74.2899 94.848C74.3739 94.932 74.4159 95.0347 74.4159 95.156C74.4159 95.2727 74.3739 95.373 74.2899 95.457C74.2059 95.541 74.1032 95.583 73.9819 95.583ZM73.6529 100V96.29H74.3179V100H73.6529ZM75.0436 100V96.29H75.7086V96.829H75.7506C75.7833 96.773 75.8369 96.696 75.9116 96.598C75.9909 96.5 76.1029 96.4137 76.2476 96.339C76.3923 96.2597 76.5743 96.22 76.7936 96.22C77.0643 96.22 77.2953 96.283 77.4866 96.409C77.6779 96.5303 77.8226 96.696 77.9206 96.906C78.0233 97.116 78.0746 97.3517 78.0746 97.613V100H77.4096V97.655C77.4096 97.4077 77.3396 97.2023 77.1996 97.039C77.0643 96.8757 76.8659 96.794 76.6046 96.794C76.3946 96.794 76.2243 96.8477 76.0936 96.955C75.9629 97.0577 75.8649 97.1953 75.7996 97.368C75.7389 97.536 75.7086 97.7157 75.7086 97.907V100H75.0436ZM78.7063 100V96.29H79.3713V96.829H79.4133C79.446 96.773 79.4996 96.696 79.5743 96.598C79.6536 96.5 79.7656 96.4137 79.9103 96.339C80.055 96.2597 80.237 96.22 80.4563 96.22C80.727 96.22 80.958 96.283 81.1493 96.409C81.3406 96.5303 81.4853 96.696 81.5833 96.906C81.686 97.116 81.7373 97.3517 81.7373 97.613V100H81.0723V97.655C81.0723 97.4077 81.0023 97.2023 80.8623 97.039C80.727 96.8757 80.5286 96.794 80.2673 96.794C80.0573 96.794 79.887 96.8477 79.7563 96.955C79.6256 97.0577 79.5276 97.1953 79.4623 97.368C79.4016 97.536 79.3713 97.7157 79.3713 97.907V100H78.7063ZM84.343 100.07C84.1097 100.07 83.9137 100.033 83.755 99.958C83.5963 99.8833 83.468 99.7947 83.37 99.692C83.2767 99.5893 83.202 99.496 83.146 99.412H83.104V100H82.439V94.68H83.104V96.878H83.146C83.202 96.7893 83.2767 96.6937 83.37 96.591C83.468 96.4883 83.5963 96.402 83.755 96.332C83.9137 96.2573 84.1097 96.22 84.343 96.22C84.623 96.22 84.868 96.276 85.078 96.388C85.288 96.4953 85.463 96.6423 85.603 96.829C85.743 97.011 85.848 97.2163 85.918 97.445C85.988 97.6737 86.023 97.907 86.023 98.145C86.023 98.383 85.988 98.6163 85.918 98.845C85.848 99.0737 85.743 99.2813 85.603 99.468C85.463 99.65 85.288 99.797 85.078 99.909C84.868 100.016 84.623 100.07 84.343 100.07ZM84.231 99.503C84.483 99.503 84.6907 99.4377 84.854 99.307C85.022 99.1717 85.1457 99.0013 85.225 98.796C85.309 98.586 85.351 98.369 85.351 98.145C85.351 97.9163 85.309 97.6993 85.225 97.494C85.1457 97.2887 85.022 97.1207 84.854 96.99C84.6907 96.8547 84.483 96.787 84.231 96.787C83.9837 96.787 83.776 96.8547 83.608 96.99C83.4447 97.1207 83.321 97.2887 83.237 97.494C83.1577 97.6993 83.118 97.9163 83.118 98.145C83.118 98.369 83.1577 98.586 83.237 98.796C83.321 99.0013 83.4447 99.1717 83.608 99.307C83.776 99.4377 83.9837 99.503 84.231 99.503ZM86.5854 100V96.29H87.2504V96.752H87.2784C87.3577 96.612 87.4744 96.4883 87.6284 96.381C87.7824 96.2737 87.9994 96.22 88.2794 96.22C88.3587 96.22 88.4311 96.2247 88.4964 96.234C88.5617 96.2387 88.5944 96.241 88.5944 96.241V96.878C88.5944 96.878 88.5571 96.8757 88.4824 96.871C88.4124 96.8617 88.3377 96.857 88.2584 96.857C87.9364 96.857 87.6867 96.9503 87.5094 97.137C87.3367 97.319 87.2504 97.6177 87.2504 98.033V100H86.5854ZM89.5473 95.583C89.4213 95.583 89.3163 95.541 89.2323 95.457C89.153 95.373 89.1133 95.2727 89.1133 95.156C89.1133 95.0347 89.153 94.932 89.2323 94.848C89.3163 94.764 89.4213 94.722 89.5473 94.722C89.6687 94.722 89.7713 94.764 89.8553 94.848C89.9393 94.932 89.9813 95.0347 89.9813 95.156C89.9813 95.2727 89.9393 95.373 89.8553 95.457C89.7713 95.541 89.6687 95.583 89.5473 95.583ZM89.2183 100V96.29H89.8833V100H89.2183ZM90.609 100V96.29H91.274V96.829H91.316C91.3487 96.773 91.4024 96.696 91.477 96.598C91.5564 96.5 91.6684 96.4137 91.813 96.339C91.9577 96.2597 92.1397 96.22 92.359 96.22C92.6297 96.22 92.8607 96.283 93.052 96.409C93.2434 96.5303 93.388 96.696 93.486 96.906C93.5887 97.116 93.64 97.3517 93.64 97.613V100H92.975V97.655C92.975 97.4077 92.905 97.2023 92.765 97.039C92.6297 96.8757 92.4314 96.794 92.17 96.794C91.96 96.794 91.7897 96.8477 91.659 96.955C91.5284 97.0577 91.4304 97.1953 91.365 97.368C91.3044 97.536 91.274 97.7157 91.274 97.907V100H90.609ZM96.0567 101.47C95.7487 101.47 95.4921 101.428 95.2867 101.344C95.0814 101.265 94.9157 101.162 94.7897 101.036C94.6684 100.915 94.5774 100.793 94.5167 100.672C94.4561 100.551 94.4164 100.448 94.3977 100.364C94.3791 100.285 94.3697 100.245 94.3697 100.245H95.0347C95.0347 100.245 95.0464 100.278 95.0697 100.343C95.0931 100.408 95.1374 100.483 95.2027 100.567C95.2727 100.651 95.3754 100.726 95.5107 100.791C95.6461 100.856 95.8281 100.889 96.0567 100.889C96.3274 100.889 96.5397 100.835 96.6937 100.728C96.8477 100.625 96.9574 100.49 97.0227 100.322C97.0927 100.154 97.1277 99.9767 97.1277 99.79V99.363H97.0927C97.0461 99.4423 96.9714 99.5333 96.8687 99.636C96.7707 99.734 96.6401 99.8203 96.4767 99.895C96.3134 99.965 96.1127 100 95.8747 100C95.5947 100 95.3497 99.9463 95.1397 99.839C94.9297 99.7317 94.7547 99.587 94.6147 99.405C94.4794 99.223 94.3767 99.02 94.3067 98.796C94.2367 98.572 94.2017 98.3433 94.2017 98.11C94.2017 97.8767 94.2367 97.648 94.3067 97.424C94.3767 97.2 94.4794 96.997 94.6147 96.815C94.7547 96.633 94.9297 96.4883 95.1397 96.381C95.3497 96.2737 95.5947 96.22 95.8747 96.22C96.1127 96.22 96.3134 96.2573 96.4767 96.332C96.6401 96.402 96.7707 96.486 96.8687 96.584C96.9714 96.682 97.0461 96.773 97.0927 96.857H97.1277V96.29H97.7927V99.783C97.7927 100.301 97.6411 100.712 97.3377 101.015C97.0391 101.318 96.6121 101.47 96.0567 101.47ZM96.0007 99.433C96.2481 99.433 96.4534 99.37 96.6167 99.244C96.7847 99.1133 96.9084 98.9477 96.9877 98.747C97.0717 98.5463 97.1137 98.334 97.1137 98.11C97.1137 97.886 97.0717 97.6737 96.9877 97.473C96.9084 97.2677 96.7847 97.102 96.6167 96.976C96.4534 96.85 96.2481 96.787 96.0007 96.787C95.7534 96.787 95.5457 96.85 95.3777 96.976C95.2097 97.102 95.0837 97.2677 94.9997 97.473C94.9204 97.6737 94.8807 97.886 94.8807 98.11C94.8807 98.334 94.9204 98.5463 94.9997 98.747C95.0837 98.9477 95.2097 99.1133 95.3777 99.244C95.5457 99.37 95.7534 99.433 96.0007 99.433ZM99.9701 100.07C99.6667 100.07 99.4031 100.016 99.1791 99.909C98.9597 99.797 98.7777 99.6477 98.6331 99.461C98.4931 99.2743 98.3881 99.069 98.3181 98.845C98.2481 98.6163 98.2131 98.383 98.2131 98.145C98.2131 97.9117 98.2457 97.6807 98.3111 97.452C98.3811 97.2233 98.4861 97.0157 98.6261 96.829C98.7707 96.6423 98.9504 96.4953 99.1651 96.388C99.3844 96.276 99.6434 96.22 99.9421 96.22C100.259 96.22 100.539 96.2923 100.782 96.437C101.025 96.5817 101.216 96.7963 101.356 97.081C101.496 97.3657 101.566 97.7227 101.566 98.152V98.348H98.8851C98.8991 98.558 98.9481 98.7517 99.0321 98.929C99.1207 99.1017 99.2444 99.2417 99.4031 99.349C99.5617 99.4517 99.7507 99.503 99.9701 99.503C100.161 99.503 100.315 99.4727 100.432 99.412C100.553 99.3467 100.649 99.272 100.719 99.188C100.789 99.104 100.836 99.0317 100.859 98.971C100.887 98.9057 100.901 98.873 100.901 98.873H101.524C101.524 98.873 101.512 98.915 101.489 98.999C101.466 99.0783 101.424 99.1763 101.363 99.293C101.302 99.4097 101.214 99.5287 101.097 99.65C100.98 99.7667 100.831 99.867 100.649 99.951C100.467 100.03 100.241 100.07 99.9701 100.07ZM98.8921 97.83H100.915C100.906 97.5873 100.854 97.3913 100.761 97.242C100.668 97.088 100.549 96.9737 100.404 96.899C100.259 96.8243 100.105 96.787 99.9421 96.787C99.6481 96.787 99.4077 96.8827 99.2211 97.074C99.0344 97.2607 98.9247 97.5127 98.8921 97.83ZM102.123 100V96.29H102.788V96.829H102.83C102.863 96.773 102.917 96.696 102.991 96.598C103.071 96.5 103.183 96.4137 103.327 96.339C103.472 96.2597 103.654 96.22 103.873 96.22C104.144 96.22 104.375 96.283 104.566 96.409C104.758 96.5303 104.902 96.696 105 96.906C105.103 97.116 105.154 97.3517 105.154 97.613V100H104.489V97.655C104.489 97.4077 104.419 97.2023 104.279 97.039C104.144 96.8757 103.946 96.794 103.684 96.794C103.474 96.794 103.304 96.8477 103.173 96.955C103.043 97.0577 102.945 97.1953 102.879 97.368C102.819 97.536 102.788 97.7157 102.788 97.907V100H102.123ZM107.396 100.07C107.116 100.07 106.871 100.016 106.661 99.909C106.451 99.797 106.276 99.65 106.136 99.468C105.996 99.2813 105.891 99.0737 105.821 98.845C105.751 98.6163 105.716 98.383 105.716 98.145C105.716 97.907 105.751 97.6737 105.821 97.445C105.891 97.2163 105.996 97.011 106.136 96.829C106.276 96.6423 106.451 96.4953 106.661 96.388C106.871 96.276 107.116 96.22 107.396 96.22C107.63 96.22 107.826 96.2573 107.984 96.332C108.143 96.4067 108.271 96.4953 108.369 96.598C108.467 96.696 108.542 96.7893 108.593 96.878H108.635V94.68H109.3V100H108.635V99.412H108.593C108.542 99.5007 108.467 99.5963 108.369 99.699C108.271 99.8017 108.143 99.8903 107.984 99.965C107.826 100.035 107.63 100.07 107.396 100.07ZM107.508 99.503C107.756 99.503 107.961 99.4377 108.124 99.307C108.292 99.1717 108.416 99.0013 108.495 98.796C108.579 98.586 108.621 98.369 108.621 98.145C108.621 97.9163 108.579 97.6993 108.495 97.494C108.416 97.2887 108.292 97.1207 108.124 96.99C107.961 96.8547 107.756 96.787 107.508 96.787C107.261 96.787 107.053 96.8547 106.885 96.99C106.717 97.1207 106.591 97.2887 106.507 97.494C106.428 97.6993 106.388 97.9163 106.388 98.145C106.388 98.369 106.428 98.586 106.507 98.796C106.591 99.0013 106.717 99.1717 106.885 99.307C107.053 99.4377 107.261 99.503 107.508 99.503ZM111.69 100.07C111.386 100.07 111.123 100.016 110.899 99.909C110.679 99.797 110.497 99.6477 110.353 99.461C110.213 99.2743 110.108 99.069 110.038 98.845C109.968 98.6163 109.933 98.383 109.933 98.145C109.933 97.9117 109.965 97.6807 110.031 97.452C110.101 97.2233 110.206 97.0157 110.346 96.829C110.49 96.6423 110.67 96.4953 110.885 96.388C111.104 96.276 111.363 96.22 111.662 96.22C111.979 96.22 112.259 96.2923 112.502 96.437C112.744 96.5817 112.936 96.7963 113.076 97.081C113.216 97.3657 113.286 97.7227 113.286 98.152V98.348H110.605C110.619 98.558 110.668 98.7517 110.752 98.929C110.84 99.1017 110.964 99.2417 111.123 99.349C111.281 99.4517 111.47 99.503 111.69 99.503C111.881 99.503 112.035 99.4727 112.152 99.412C112.273 99.3467 112.369 99.272 112.439 99.188C112.509 99.104 112.555 99.0317 112.579 98.971C112.607 98.9057 112.621 98.873 112.621 98.873H113.244C113.244 98.873 113.232 98.915 113.209 98.999C113.185 99.0783 113.143 99.1763 113.083 99.293C113.022 99.4097 112.933 99.5287 112.817 99.65C112.7 99.7667 112.551 99.867 112.369 99.951C112.187 100.03 111.96 100.07 111.69 100.07ZM110.612 97.83H112.635C112.625 97.5873 112.574 97.3913 112.481 97.242C112.387 97.088 112.268 96.9737 112.124 96.899C111.979 96.8243 111.825 96.787 111.662 96.787C111.368 96.787 111.127 96.8827 110.941 97.074C110.754 97.2607 110.644 97.5127 110.612 97.83ZM59.5004 111V106.422H57.8834V105.82H61.8034V106.422H60.1864V111H59.5004ZM64.0962 106.723C63.9702 106.723 63.8652 106.681 63.7812 106.597C63.7019 106.513 63.6622 106.413 63.6622 106.296C63.6622 106.175 63.7019 106.072 63.7812 105.988C63.8652 105.904 63.9702 105.862 64.0962 105.862C64.2175 105.862 64.3202 105.904 64.4042 105.988C64.4882 106.072 64.5302 106.175 64.5302 106.296C64.5302 106.413 64.4882 106.513 64.4042 106.597C64.3202 106.681 64.2175 106.723 64.0962 106.723ZM62.7662 106.723C62.6402 106.723 62.5352 106.681 62.4512 106.597C62.3719 106.513 62.3322 106.413 62.3322 106.296C62.3322 106.175 62.3719 106.072 62.4512 105.988C62.5352 105.904 62.6402 105.862 62.7662 105.862C62.8875 105.862 62.9902 105.904 63.0742 105.988C63.1582 106.072 63.2002 106.175 63.2002 106.296C63.2002 106.413 63.1582 106.513 63.0742 106.597C62.9902 106.681 62.8875 106.723 62.7662 106.723ZM63.2772 107.22C63.5105 107.22 63.7065 107.257 63.8652 107.332C64.0239 107.407 64.1522 107.495 64.2502 107.598C64.3482 107.696 64.4229 107.789 64.4742 107.878H64.5162V107.29H65.1812V111H64.5162V110.412H64.4742C64.4229 110.501 64.3482 110.596 64.2502 110.699C64.1522 110.802 64.0239 110.89 63.8652 110.965C63.7065 111.035 63.5105 111.07 63.2772 111.07C62.9972 111.07 62.7522 111.016 62.5422 110.909C62.3322 110.797 62.1572 110.65 62.0172 110.468C61.8772 110.281 61.7722 110.074 61.7022 109.845C61.6322 109.616 61.5972 109.383 61.5972 109.145C61.5972 108.907 61.6322 108.674 61.7022 108.445C61.7722 108.216 61.8772 108.011 62.0172 107.829C62.1572 107.642 62.3322 107.495 62.5422 107.388C62.7522 107.276 62.9972 107.22 63.2772 107.22ZM63.3892 107.787C63.1419 107.787 62.9342 107.855 62.7662 107.99C62.5982 108.121 62.4722 108.289 62.3882 108.494C62.3089 108.699 62.2692 108.916 62.2692 109.145C62.2692 109.369 62.3089 109.586 62.3882 109.796C62.4722 110.001 62.5982 110.172 62.7662 110.307C62.9342 110.438 63.1419 110.503 63.3892 110.503C63.6365 110.503 63.8419 110.438 64.0052 110.307C64.1732 110.172 64.2969 110.001 64.3762 109.796C64.4602 109.586 64.5022 109.369 64.5022 109.145C64.5022 108.916 64.4602 108.699 64.3762 108.494C64.2969 108.289 64.1732 108.121 64.0052 107.99C63.8419 107.855 63.6365 107.787 63.3892 107.787ZM67.2937 111.07C66.911 111.07 66.6217 110.972 66.4257 110.776C66.2344 110.58 66.1387 110.305 66.1387 109.95V107.836H65.4737V107.29H66.1387V106.359H66.8037V107.29H67.7067V107.836H66.8037V109.95C66.8037 110.137 66.855 110.274 66.9577 110.363C67.0604 110.447 67.2097 110.489 67.4057 110.489C67.5084 110.489 67.6064 110.482 67.6997 110.468C67.793 110.454 67.8397 110.447 67.8397 110.447V111.014C67.8397 111.014 67.786 111.023 67.6787 111.042C67.5714 111.061 67.443 111.07 67.2937 111.07ZM68.7969 106.583C68.6709 106.583 68.5659 106.541 68.4819 106.457C68.4025 106.373 68.3629 106.273 68.3629 106.156C68.3629 106.035 68.4025 105.932 68.4819 105.848C68.5659 105.764 68.6709 105.722 68.7969 105.722C68.9182 105.722 69.0209 105.764 69.1049 105.848C69.1889 105.932 69.2309 106.035 69.2309 106.156C69.2309 106.273 69.1889 106.373 69.1049 106.457C69.0209 106.541 68.9182 106.583 68.7969 106.583ZM68.4679 111V107.29H69.1329V111H68.4679ZM71.6436 112.47C71.3356 112.47 71.0789 112.428 70.8736 112.344C70.6682 112.265 70.5026 112.162 70.3766 112.036C70.2552 111.915 70.1642 111.793 70.1036 111.672C70.0429 111.551 70.0032 111.448 69.9846 111.364C69.9659 111.285 69.9566 111.245 69.9566 111.245H70.6216C70.6216 111.245 70.6332 111.278 70.6566 111.343C70.6799 111.408 70.7242 111.483 70.7896 111.567C70.8596 111.651 70.9622 111.726 71.0976 111.791C71.2329 111.856 71.4149 111.889 71.6436 111.889C71.9142 111.889 72.1266 111.835 72.2806 111.728C72.4346 111.625 72.5442 111.49 72.6096 111.322C72.6796 111.154 72.7146 110.977 72.7146 110.79V110.363H72.6796C72.6329 110.442 72.5582 110.533 72.4556 110.636C72.3576 110.734 72.2269 110.82 72.0636 110.895C71.9002 110.965 71.6996 111 71.4616 111C71.1816 111 70.9366 110.946 70.7266 110.839C70.5166 110.732 70.3416 110.587 70.2016 110.405C70.0662 110.223 69.9636 110.02 69.8936 109.796C69.8236 109.572 69.7886 109.343 69.7886 109.11C69.7886 108.877 69.8236 108.648 69.8936 108.424C69.9636 108.2 70.0662 107.997 70.2016 107.815C70.3416 107.633 70.5166 107.488 70.7266 107.381C70.9366 107.274 71.1816 107.22 71.4616 107.22C71.6996 107.22 71.9002 107.257 72.0636 107.332C72.2269 107.402 72.3576 107.486 72.4556 107.584C72.5582 107.682 72.6329 107.773 72.6796 107.857H72.7146V107.29H73.3796V110.783C73.3796 111.301 73.2279 111.712 72.9246 112.015C72.6259 112.318 72.1989 112.47 71.6436 112.47ZM71.5876 110.433C71.8349 110.433 72.0402 110.37 72.2036 110.244C72.3716 110.113 72.4952 109.948 72.5746 109.747C72.6586 109.546 72.7006 109.334 72.7006 109.11C72.7006 108.886 72.6586 108.674 72.5746 108.473C72.4952 108.268 72.3716 108.102 72.2036 107.976C72.0402 107.85 71.8349 107.787 71.5876 107.787C71.3402 107.787 71.1326 107.85 70.9646 107.976C70.7966 108.102 70.6706 108.268 70.5866 108.473C70.5072 108.674 70.4676 108.886 70.4676 109.11C70.4676 109.334 70.5072 109.546 70.5866 109.747C70.6706 109.948 70.7966 110.113 70.9646 110.244C71.1326 110.37 71.3402 110.433 71.5876 110.433ZM74.0766 111V105.68H74.7416V108.774L76.2186 107.29H77.0866L75.3786 108.977L77.1216 111H76.2746L74.7416 109.215V111H74.0766ZM78.912 111.07C78.6086 111.07 78.345 111.016 78.121 110.909C77.9016 110.797 77.7196 110.648 77.575 110.461C77.435 110.274 77.33 110.069 77.26 109.845C77.19 109.616 77.155 109.383 77.155 109.145C77.155 108.912 77.1876 108.681 77.253 108.452C77.323 108.223 77.428 108.016 77.568 107.829C77.7126 107.642 77.8923 107.495 78.107 107.388C78.3263 107.276 78.5853 107.22 78.884 107.22C79.2013 107.22 79.4813 107.292 79.724 107.437C79.9666 107.582 80.158 107.796 80.298 108.081C80.438 108.366 80.508 108.723 80.508 109.152V109.348H77.827C77.841 109.558 77.89 109.752 77.974 109.929C78.0626 110.102 78.1863 110.242 78.345 110.349C78.5036 110.452 78.6926 110.503 78.912 110.503C79.1033 110.503 79.2573 110.473 79.374 110.412C79.4953 110.347 79.591 110.272 79.661 110.188C79.731 110.104 79.7776 110.032 79.801 109.971C79.829 109.906 79.843 109.873 79.843 109.873H80.466C80.466 109.873 80.4543 109.915 80.431 109.999C80.4076 110.078 80.3656 110.176 80.305 110.293C80.2443 110.41 80.1556 110.529 80.039 110.65C79.9223 110.767 79.773 110.867 79.591 110.951C79.409 111.03 79.1826 111.07 78.912 111.07ZM77.834 108.83H79.857C79.8476 108.587 79.7963 108.391 79.703 108.242C79.6096 108.088 79.4906 107.974 79.346 107.899C79.2013 107.824 79.0473 107.787 78.884 107.787C78.59 107.787 78.3496 107.883 78.163 108.074C77.9763 108.261 77.8666 108.513 77.834 108.83ZM81.4994 106.583C81.3734 106.583 81.2684 106.541 81.1844 106.457C81.1051 106.373 81.0654 106.273 81.0654 106.156C81.0654 106.035 81.1051 105.932 81.1844 105.848C81.2684 105.764 81.3734 105.722 81.4994 105.722C81.6207 105.722 81.7234 105.764 81.8074 105.848C81.8914 105.932 81.9334 106.035 81.9334 106.156C81.9334 106.273 81.8914 106.373 81.8074 106.457C81.7234 106.541 81.6207 106.583 81.4994 106.583ZM81.1704 111V107.29H81.8354V111H81.1704ZM84.1361 111.07C83.7534 111.07 83.4641 110.972 83.2681 110.776C83.0768 110.58 82.9811 110.305 82.9811 109.95V107.836H82.3161V107.29H82.9811V106.359H83.6461V107.29H84.5491V107.836H83.6461V109.95C83.6461 110.137 83.6974 110.274 83.8001 110.363C83.9028 110.447 84.0521 110.489 84.2481 110.489C84.3508 110.489 84.4488 110.482 84.5421 110.468C84.6354 110.454 84.6821 110.447 84.6821 110.447V111.014C84.6821 111.014 84.6284 111.023 84.5211 111.042C84.4138 111.061 84.2854 111.07 84.1361 111.07ZM86.7555 111.07C86.4522 111.07 86.1885 111.016 85.9645 110.909C85.7452 110.797 85.5632 110.648 85.4185 110.461C85.2785 110.274 85.1735 110.069 85.1035 109.845C85.0335 109.616 84.9985 109.383 84.9985 109.145C84.9985 108.912 85.0312 108.681 85.0965 108.452C85.1665 108.223 85.2715 108.016 85.4115 107.829C85.5562 107.642 85.7358 107.495 85.9505 107.388C86.1698 107.276 86.4288 107.22 86.7275 107.22C87.0448 107.22 87.3248 107.292 87.5675 107.437C87.8102 107.582 88.0015 107.796 88.1415 108.081C88.2815 108.366 88.3515 108.723 88.3515 109.152V109.348H85.6705C85.6845 109.558 85.7335 109.752 85.8175 109.929C85.9062 110.102 86.0298 110.242 86.1885 110.349C86.3472 110.452 86.5362 110.503 86.7555 110.503C86.9468 110.503 87.1008 110.473 87.2175 110.412C87.3388 110.347 87.4345 110.272 87.5045 110.188C87.5745 110.104 87.6212 110.032 87.6445 109.971C87.6725 109.906 87.6865 109.873 87.6865 109.873H88.3095C88.3095 109.873 88.2978 109.915 88.2745 109.999C88.2512 110.078 88.2092 110.176 88.1485 110.293C88.0878 110.41 87.9992 110.529 87.8825 110.65C87.7658 110.767 87.6165 110.867 87.4345 110.951C87.2525 111.03 87.0262 111.07 86.7555 111.07ZM85.6775 108.83H87.7005C87.6912 108.587 87.6398 108.391 87.5465 108.242C87.4532 108.088 87.3342 107.974 87.1895 107.899C87.0448 107.824 86.8908 107.787 86.7275 107.787C86.4335 107.787 86.1932 107.883 86.0065 108.074C85.8198 108.261 85.7102 108.513 85.6775 108.83ZM88.9089 111V107.29H89.5739V107.829H89.6159C89.6486 107.773 89.7023 107.696 89.7769 107.598C89.8563 107.5 89.9683 107.414 90.1129 107.339C90.2576 107.26 90.4396 107.22 90.6589 107.22C90.9296 107.22 91.1606 107.283 91.3519 107.409C91.5433 107.53 91.6879 107.696 91.7859 107.906C91.8886 108.116 91.9399 108.352 91.9399 108.613V111H91.2749V108.655C91.2749 108.408 91.2049 108.202 91.0649 108.039C90.9296 107.876 90.7313 107.794 90.4699 107.794C90.2599 107.794 90.0896 107.848 89.9589 107.955C89.8283 108.058 89.7303 108.195 89.6649 108.368C89.6043 108.536 89.5739 108.716 89.5739 108.907V111H88.9089Z" fill="white"/>
<ellipse cx="76" cy="75.5" rx="70.5" ry="71" transform="rotate(-90 76 75.5)" stroke="#00BF64" stroke-width="10"/>
<path d="M5.78125 65C10.8876 31.0439 40.3803 5 75.9991 5C77.1727 5 78.3396 5.02827 79.4991 5.08416" stroke="#D9D9D9" stroke-width="10" stroke-linecap="round"/>
</svg>
