<svg width="153" height="154" viewBox="0 0 153 154" fill="none" xmlns="http://www.w3.org/2000/svg">
<path d="M40.6641 90V85.716L44.8401 82.296C46.8561 80.664 48.5601 79.284 49.9521 78.156C51.3681 77.028 52.4481 75.996 53.1921 75.06C53.9361 74.1 54.3081 73.08 54.3081 72C54.3081 71.208 54.1161 70.548 53.7321 70.02C53.3481 69.468 52.8681 69.06 52.2921 68.796C51.7161 68.532 51.1161 68.4 50.4921 68.4C49.6041 68.4 48.8601 68.604 48.2601 69.012C47.6841 69.42 47.2401 69.948 46.9281 70.596C46.6401 71.244 46.4961 71.916 46.4961 72.612H40.5201C40.5201 70.836 40.9401 69.228 41.7801 67.788C42.6201 66.324 43.7961 65.16 45.3081 64.296C46.8441 63.432 48.6321 63 50.6721 63C52.4961 63 54.1521 63.36 55.6401 64.08C57.1281 64.776 58.3161 65.772 59.2041 67.068C60.0921 68.34 60.5361 69.84 60.5361 71.568C60.5361 73.2 60.1281 74.688 59.3121 76.032C58.5201 77.376 57.3801 78.684 55.8921 79.956C54.4281 81.204 52.7001 82.56 50.7081 84.024L49.9881 84.6H60.8601V90H40.6641ZM72.0542 90.36C70.2302 90.36 68.6102 90 67.1942 89.28C65.7782 88.56 64.5782 87.576 63.5942 86.328C62.6102 85.08 61.8542 83.628 61.3262 81.972C60.8222 80.316 60.5702 78.552 60.5702 76.68C60.5702 74.784 60.8222 73.02 61.3262 71.388C61.8542 69.732 62.6102 68.28 63.5942 67.032C64.5782 65.76 65.7782 64.776 67.1942 64.08C68.6102 63.36 70.2302 63 72.0542 63C73.8782 63 75.4982 63.36 76.9142 64.08C78.3302 64.776 79.5302 65.76 80.5142 67.032C81.4982 68.28 82.2422 69.732 82.7462 71.388C83.2742 73.02 83.5382 74.784 83.5382 76.68C83.5382 78.552 83.2742 80.316 82.7462 81.972C82.2422 83.628 81.4982 85.08 80.5142 86.328C79.5302 87.576 78.3302 88.56 76.9142 89.28C75.4982 90 73.8782 90.36 72.0542 90.36ZM72.0542 84.852C73.5182 84.852 74.7182 84.18 75.6542 82.836C76.6142 81.468 77.0942 79.416 77.0942 76.68C77.0942 73.944 76.6142 71.904 75.6542 70.56C74.7182 69.192 73.5182 68.508 72.0542 68.508C70.5902 68.508 69.3782 69.192 68.4182 70.56C67.4822 71.904 67.0142 73.944 67.0142 76.68C67.0142 79.392 67.4822 81.432 68.4182 82.8C69.3782 84.168 70.5902 84.852 72.0542 84.852ZM89.1544 74.952C87.8104 74.952 86.6704 74.676 85.7344 74.124C84.8224 73.548 84.1264 72.804 83.6464 71.892C83.1664 70.98 82.9264 70.008 82.9264 68.976C82.9264 67.944 83.1664 66.972 83.6464 66.06C84.1264 65.148 84.8224 64.416 85.7344 63.864C86.6704 63.288 87.8104 63 89.1544 63C90.4744 63 91.5904 63.288 92.5024 63.864C93.4384 64.416 94.1344 65.148 94.5904 66.06C95.0704 66.972 95.3104 67.944 95.3104 68.976C95.3104 70.008 95.0704 70.98 94.5904 71.892C94.1344 72.804 93.4384 73.548 92.5024 74.124C91.5904 74.676 90.4744 74.952 89.1544 74.952ZM87.0304 90L102.258 63.36H106.974L91.7464 90H87.0304ZM89.1184 71.496C89.8624 71.496 90.4384 71.244 90.8464 70.74C91.2784 70.236 91.4944 69.66 91.4944 69.012C91.4944 68.34 91.2784 67.752 90.8464 67.248C90.4384 66.744 89.8624 66.492 89.1184 66.492C88.3504 66.492 87.7624 66.744 87.3544 67.248C86.9464 67.752 86.7424 68.34 86.7424 69.012C86.7424 69.66 86.9464 70.236 87.3544 70.74C87.7624 71.244 88.3504 71.496 89.1184 71.496ZM104.886 90.36C103.542 90.36 102.402 90.084 101.466 89.532C100.554 88.956 99.8584 88.212 99.3784 87.3C98.8984 86.388 98.6584 85.404 98.6584 84.348C98.6584 83.316 98.8984 82.356 99.3784 81.468C99.8584 80.556 100.554 79.824 101.466 79.272C102.402 78.696 103.542 78.408 104.886 78.408C106.23 78.408 107.358 78.696 108.27 79.272C109.182 79.824 109.878 80.556 110.358 81.468C110.838 82.356 111.078 83.316 111.078 84.348C111.078 85.404 110.838 86.388 110.358 87.3C109.878 88.212 109.182 88.956 108.27 89.532C107.358 90.084 106.23 90.36 104.886 90.36ZM104.85 86.904C105.618 86.904 106.206 86.652 106.614 86.148C107.022 85.644 107.226 85.056 107.226 84.384C107.226 83.736 107.022 83.16 106.614 82.656C106.206 82.152 105.618 81.9 104.85 81.9C104.106 81.9 103.518 82.152 103.086 82.656C102.678 83.16 102.474 83.736 102.474 84.384C102.474 85.056 102.678 85.644 103.086 86.148C103.518 86.652 104.106 86.904 104.85 86.904Z" fill="white"/>
<path d="M60.6072 102.07C60.3086 102.07 60.0519 102.033 59.8372 101.958C59.6272 101.879 59.4522 101.778 59.3122 101.657C59.1722 101.531 59.0602 101.4 58.9762 101.265C58.8922 101.13 58.8292 101.001 58.7872 100.88C58.7452 100.754 58.7172 100.654 58.7032 100.579C58.6939 100.5 58.6892 100.46 58.6892 100.46H59.3892C59.3892 100.46 59.3962 100.493 59.4102 100.558C59.4242 100.623 59.4522 100.705 59.4942 100.803C59.5409 100.901 59.6086 101.001 59.6972 101.104C59.7859 101.202 59.9049 101.284 60.0542 101.349C60.2036 101.414 60.3926 101.447 60.6212 101.447C60.9666 101.447 61.2396 101.365 61.4402 101.202C61.6409 101.034 61.7412 100.817 61.7412 100.551C61.7412 100.322 61.6642 100.145 61.5102 100.019C61.3609 99.893 61.1462 99.795 60.8662 99.725L60.1802 99.557C59.9376 99.4963 59.7112 99.4123 59.5012 99.305C59.2959 99.193 59.1302 99.0483 59.0042 98.871C58.8829 98.689 58.8222 98.4627 58.8222 98.192C58.8222 97.8887 58.8969 97.6297 59.0462 97.415C59.1956 97.2003 59.3986 97.037 59.6552 96.925C59.9119 96.8083 60.2036 96.75 60.5302 96.75C60.8476 96.75 61.1112 96.799 61.3212 96.897C61.5312 96.995 61.6992 97.1163 61.8252 97.261C61.9512 97.401 62.0446 97.5433 62.1052 97.688C62.1659 97.828 62.2056 97.947 62.2242 98.045C62.2429 98.143 62.2522 98.192 62.2522 98.192H61.5802C61.5802 98.192 61.5709 98.15 61.5522 98.066C61.5336 97.982 61.4892 97.8863 61.4192 97.779C61.3492 97.667 61.2419 97.569 61.0972 97.485C60.9526 97.401 60.7566 97.359 60.5092 97.359C60.1732 97.359 59.9189 97.4383 59.7462 97.597C59.5782 97.7557 59.4942 97.9377 59.4942 98.143C59.4942 98.3297 59.5619 98.4813 59.6972 98.598C59.8326 98.71 60.0192 98.7963 60.2572 98.857L60.9992 99.039C61.2652 99.1043 61.5056 99.2 61.7202 99.326C61.9349 99.4473 62.1052 99.606 62.2312 99.802C62.3572 99.9933 62.4202 100.229 62.4202 100.509C62.4202 100.789 62.3502 101.048 62.2102 101.286C62.0749 101.524 61.8719 101.715 61.6012 101.86C61.3352 102 61.0039 102.07 60.6072 102.07ZM63.3286 97.583C63.2026 97.583 63.0976 97.541 63.0136 97.457C62.9343 97.373 62.8946 97.2727 62.8946 97.156C62.8946 97.0347 62.9343 96.932 63.0136 96.848C63.0976 96.764 63.2026 96.722 63.3286 96.722C63.4499 96.722 63.5526 96.764 63.6366 96.848C63.7206 96.932 63.7626 97.0347 63.7626 97.156C63.7626 97.2727 63.7206 97.373 63.6366 97.457C63.5526 97.541 63.4499 97.583 63.3286 97.583ZM62.9996 102V98.29H63.6646V102H62.9996ZM66.1473 102.07C65.844 102.07 65.578 102.016 65.3493 101.909C65.1206 101.797 64.9293 101.65 64.7753 101.468C64.626 101.281 64.5116 101.074 64.4323 100.845C64.3576 100.616 64.3203 100.383 64.3203 100.145C64.3203 99.907 64.3576 99.676 64.4323 99.452C64.507 99.2233 64.619 99.0157 64.7683 98.829C64.9223 98.6423 65.1136 98.4953 65.3423 98.388C65.571 98.276 65.8393 98.22 66.1473 98.22C66.446 98.22 66.6933 98.2643 66.8893 98.353C67.0853 98.4417 67.2416 98.5537 67.3583 98.689C67.4796 98.8197 67.5683 98.9527 67.6243 99.088C67.685 99.2187 67.7246 99.3283 67.7433 99.417C67.762 99.5057 67.7713 99.55 67.7713 99.55H67.1273C67.1273 99.55 67.1156 99.5127 67.0923 99.438C67.069 99.3587 67.0246 99.27 66.9593 99.172C66.894 99.074 66.796 98.9877 66.6653 98.913C66.5346 98.8337 66.362 98.794 66.1473 98.794C65.8906 98.794 65.6736 98.8593 65.4963 98.99C65.3236 99.116 65.193 99.2817 65.1043 99.487C65.0203 99.6923 64.9783 99.9117 64.9783 100.145C64.9783 100.378 65.0203 100.598 65.1043 100.803C65.193 101.008 65.3236 101.176 65.4963 101.307C65.6736 101.433 65.8906 101.496 66.1473 101.496C66.362 101.496 66.5346 101.459 66.6653 101.384C66.796 101.305 66.894 101.216 66.9593 101.118C67.0246 101.02 67.069 100.934 67.0923 100.859C67.1156 100.78 67.1273 100.74 67.1273 100.74H67.7713C67.7713 100.74 67.762 100.784 67.7433 100.873C67.7246 100.962 67.685 101.074 67.6243 101.209C67.5683 101.34 67.4796 101.473 67.3583 101.608C67.2416 101.739 67.0853 101.848 66.8893 101.937C66.6933 102.026 66.446 102.07 66.1473 102.07ZM68.4033 102V96.68H69.0683V98.829H69.1103C69.1429 98.773 69.1966 98.696 69.2713 98.598C69.3506 98.5 69.4626 98.4137 69.6073 98.339C69.7519 98.2597 69.9339 98.22 70.1533 98.22C70.4239 98.22 70.6549 98.283 70.8463 98.409C71.0376 98.5303 71.1823 98.696 71.2803 98.906C71.3829 99.116 71.4343 99.3517 71.4343 99.613V102H70.7693V99.655C70.7693 99.4077 70.6993 99.2023 70.5593 99.039C70.4239 98.8757 70.2256 98.794 69.9643 98.794C69.7543 98.794 69.5839 98.8477 69.4533 98.955C69.3226 99.0577 69.2246 99.1953 69.1593 99.368C69.0986 99.536 69.0683 99.7157 69.0683 99.907V102H68.4033ZM73.5026 102.07C73.1199 102.07 72.8306 101.972 72.6346 101.776C72.4433 101.58 72.3476 101.305 72.3476 100.95V98.836H71.6826V98.29H72.3476V97.359H73.0126V98.29H73.9156V98.836H73.0126V100.95C73.0126 101.137 73.0639 101.274 73.1666 101.363C73.2693 101.447 73.4186 101.489 73.6146 101.489C73.7173 101.489 73.8153 101.482 73.9086 101.468C74.0019 101.454 74.0486 101.447 74.0486 101.447V102.014C74.0486 102.014 73.9949 102.023 73.8876 102.042C73.7803 102.061 73.6519 102.07 73.5026 102.07ZM76.5457 102.07C76.3124 102.07 76.1164 102.033 75.9577 101.958C75.7991 101.883 75.6707 101.795 75.5727 101.692C75.4794 101.589 75.4047 101.496 75.3487 101.412H75.3067V102H74.6417V96.68H75.3067V98.878H75.3487C75.4047 98.7893 75.4794 98.6937 75.5727 98.591C75.6707 98.4883 75.7991 98.402 75.9577 98.332C76.1164 98.2573 76.3124 98.22 76.5457 98.22C76.8257 98.22 77.0707 98.276 77.2807 98.388C77.4907 98.4953 77.6657 98.6423 77.8057 98.829C77.9457 99.011 78.0507 99.2163 78.1207 99.445C78.1907 99.6737 78.2257 99.907 78.2257 100.145C78.2257 100.383 78.1907 100.616 78.1207 100.845C78.0507 101.074 77.9457 101.281 77.8057 101.468C77.6657 101.65 77.4907 101.797 77.2807 101.909C77.0707 102.016 76.8257 102.07 76.5457 102.07ZM76.4337 101.503C76.6857 101.503 76.8934 101.438 77.0567 101.307C77.2247 101.172 77.3484 101.001 77.4277 100.796C77.5117 100.586 77.5537 100.369 77.5537 100.145C77.5537 99.9163 77.5117 99.6993 77.4277 99.494C77.3484 99.2887 77.2247 99.1207 77.0567 98.99C76.8934 98.8547 76.6857 98.787 76.4337 98.787C76.1864 98.787 75.9787 98.8547 75.8107 98.99C75.6474 99.1207 75.5237 99.2887 75.4397 99.494C75.3604 99.6993 75.3207 99.9163 75.3207 100.145C75.3207 100.369 75.3604 100.586 75.4397 100.796C75.5237 101.001 75.6474 101.172 75.8107 101.307C75.9787 101.438 76.1864 101.503 76.4337 101.503ZM80.364 98.22C80.5973 98.22 80.7933 98.2573 80.952 98.332C81.1106 98.4067 81.239 98.4953 81.337 98.598C81.435 98.696 81.5096 98.7893 81.561 98.878H81.603V98.29H82.268V102H81.603V101.412H81.561C81.5096 101.501 81.435 101.596 81.337 101.699C81.239 101.802 81.1106 101.89 80.952 101.965C80.7933 102.035 80.5973 102.07 80.364 102.07C80.084 102.07 79.839 102.016 79.629 101.909C79.419 101.797 79.244 101.65 79.104 101.468C78.964 101.281 78.859 101.074 78.789 100.845C78.719 100.616 78.684 100.383 78.684 100.145C78.684 99.907 78.719 99.6737 78.789 99.445C78.859 99.2163 78.964 99.011 79.104 98.829C79.244 98.6423 79.419 98.4953 79.629 98.388C79.839 98.276 80.084 98.22 80.364 98.22ZM80.476 98.787C80.2286 98.787 80.021 98.8547 79.853 98.99C79.685 99.1207 79.559 99.2887 79.475 99.494C79.3956 99.6993 79.356 99.9163 79.356 100.145C79.356 100.369 79.3956 100.586 79.475 100.796C79.559 101.001 79.685 101.172 79.853 101.307C80.021 101.438 80.2286 101.503 80.476 101.503C80.7233 101.503 80.9286 101.438 81.092 101.307C81.26 101.172 81.3836 101.001 81.463 100.796C81.547 100.586 81.589 100.369 81.589 100.145C81.589 99.9163 81.547 99.6993 81.463 99.494C81.3836 99.2887 81.26 99.1207 81.092 98.99C80.9286 98.8547 80.7233 98.787 80.476 98.787ZM82.8952 102V98.29H83.5602V98.752H83.5882C83.6675 98.612 83.7842 98.4883 83.9382 98.381C84.0922 98.2737 84.3092 98.22 84.5892 98.22C84.6685 98.22 84.7408 98.2247 84.8062 98.234C84.8715 98.2387 84.9042 98.241 84.9042 98.241V98.878C84.9042 98.878 84.8668 98.8757 84.7922 98.871C84.7222 98.8617 84.6475 98.857 84.5682 98.857C84.2462 98.857 83.9965 98.9503 83.8192 99.137C83.6465 99.319 83.5602 99.6177 83.5602 100.033V102H82.8952ZM85.3564 102V96.68H86.0214V99.774L87.4984 98.29H88.3664L86.6584 99.977L88.4014 102H87.5544L86.0214 100.215V102H85.3564ZM90.1917 102.07C89.8884 102.07 89.6247 102.016 89.4007 101.909C89.1814 101.797 88.9994 101.648 88.8547 101.461C88.7147 101.274 88.6097 101.069 88.5397 100.845C88.4697 100.616 88.4347 100.383 88.4347 100.145C88.4347 99.9117 88.4674 99.6807 88.5327 99.452C88.6027 99.2233 88.7077 99.0157 88.8477 98.829C88.9924 98.6423 89.1721 98.4953 89.3867 98.388C89.6061 98.276 89.8651 98.22 90.1637 98.22C90.4811 98.22 90.7611 98.2923 91.0037 98.437C91.2464 98.5817 91.4377 98.7963 91.5777 99.081C91.7177 99.3657 91.7877 99.7227 91.7877 100.152V100.348H89.1067C89.1207 100.558 89.1697 100.752 89.2537 100.929C89.3424 101.102 89.4661 101.242 89.6247 101.349C89.7834 101.452 89.9724 101.503 90.1917 101.503C90.3831 101.503 90.5371 101.473 90.6537 101.412C90.7751 101.347 90.8707 101.272 90.9407 101.188C91.0107 101.104 91.0574 101.032 91.0807 100.971C91.1087 100.906 91.1227 100.873 91.1227 100.873H91.7457C91.7457 100.873 91.7341 100.915 91.7107 100.999C91.6874 101.078 91.6454 101.176 91.5847 101.293C91.5241 101.41 91.4354 101.529 91.3187 101.65C91.2021 101.767 91.0527 101.867 90.8707 101.951C90.6887 102.03 90.4624 102.07 90.1917 102.07ZM89.1137 99.83H91.1367C91.1274 99.5873 91.0761 99.3913 90.9827 99.242C90.8894 99.088 90.7704 98.9737 90.6257 98.899C90.4811 98.8243 90.3271 98.787 90.1637 98.787C89.8697 98.787 89.6294 98.8827 89.4427 99.074C89.2561 99.2607 89.1464 99.5127 89.1137 99.83ZM92.7792 97.583C92.6532 97.583 92.5482 97.541 92.4642 97.457C92.3848 97.373 92.3452 97.2727 92.3452 97.156C92.3452 97.0347 92.3848 96.932 92.4642 96.848C92.5482 96.764 92.6532 96.722 92.7792 96.722C92.9005 96.722 93.0032 96.764 93.0872 96.848C93.1712 96.932 93.2132 97.0347 93.2132 97.156C93.2132 97.2727 93.1712 97.373 93.0872 97.457C93.0032 97.541 92.9005 97.583 92.7792 97.583ZM92.4502 102V98.29H93.1152V102H92.4502ZM95.4159 102.07C95.0332 102.07 94.7439 101.972 94.5479 101.776C94.3565 101.58 94.2609 101.305 94.2609 100.95V98.836H93.5959V98.29H94.2609V97.359H94.9259V98.29H95.8289V98.836H94.9259V100.95C94.9259 101.137 94.9772 101.274 95.0799 101.363C95.1825 101.447 95.3319 101.489 95.5279 101.489C95.6305 101.489 95.7285 101.482 95.8219 101.468C95.9152 101.454 95.9619 101.447 95.9619 101.447V102.014C95.9619 102.014 95.9082 102.023 95.8009 102.042C95.6935 102.061 95.5652 102.07 95.4159 102.07Z" fill="white"/>
<ellipse cx="76.3268" cy="77" rx="70.5" ry="71" transform="rotate(4.91846 76.3268 77)" stroke="#D9D9D9" stroke-width="10"/>
<path d="M82.416 6.26147C107.17 8.39167 127.823 23.1602 138.657 43.7214" stroke="#FB3131" stroke-width="10" stroke-linecap="round"/>
</svg>
