<svg width="153" height="151" viewBox="0 0 153 151" fill="none" xmlns="http://www.w3.org/2000/svg">
<path d="M52.1421 61C54.0381 61 55.6821 61.336 57.0741 62.008C58.4661 62.656 59.6181 63.556 60.5301 64.708C61.4661 65.836 62.1501 67.132 62.5821 68.596C63.0381 70.036 63.2661 71.548 63.2661 73.132C63.2661 74.908 62.9781 76.696 62.4021 78.496C61.8261 80.272 60.9381 81.916 59.7381 83.428C58.5381 84.916 56.9901 86.116 55.0941 87.028C53.2221 87.916 50.9781 88.36 48.3621 88.36C47.3301 88.36 46.4301 88.3 45.6621 88.18C44.9181 88.084 44.5461 88.036 44.5461 88.036V82.492C44.5461 82.492 44.7381 82.528 45.1221 82.6C45.5061 82.648 45.9861 82.708 46.5621 82.78C47.1621 82.828 47.7381 82.852 48.2901 82.852C49.9701 82.852 51.4101 82.552 52.6101 81.952C53.8101 81.352 54.7581 80.536 55.4541 79.504C56.1741 78.448 56.6061 77.272 56.7501 75.976C56.5101 76.384 56.1381 76.828 55.6341 77.308C55.1301 77.788 54.4581 78.208 53.6181 78.568C52.7781 78.904 51.7221 79.072 50.4501 79.072C48.5541 79.072 46.9581 78.664 45.6621 77.848C44.3901 77.032 43.4301 75.976 42.7821 74.68C42.1341 73.36 41.8101 71.968 41.8101 70.504C41.8101 69.352 42.0261 68.212 42.4581 67.084C42.8901 65.956 43.5261 64.936 44.3661 64.024C45.2301 63.088 46.3101 62.356 47.6061 61.828C48.9021 61.276 50.4141 61 52.1421 61ZM52.0701 66.112C50.7741 66.112 49.7541 66.52 49.0101 67.336C48.2661 68.152 47.8941 69.136 47.8941 70.288C47.8941 71.44 48.2661 72.424 49.0101 73.24C49.7541 74.056 50.7741 74.464 52.0701 74.464C53.3661 74.464 54.3861 74.056 55.1301 73.24C55.8981 72.424 56.2821 71.44 56.2821 70.288C56.2821 69.136 55.8981 68.152 55.1301 67.336C54.3861 66.52 53.3661 66.112 52.0701 66.112ZM75.868 88V82.816L63.016 82.78V77.416L74.356 61.36H82.096V77.596H86.056V82.816H82.096V88H75.868ZM69.1 77.596H75.868V67.948L69.1 77.596ZM92.0197 72.952C90.6757 72.952 89.5357 72.676 88.5997 72.124C87.6877 71.548 86.9917 70.804 86.5117 69.892C86.0317 68.98 85.7917 68.008 85.7917 66.976C85.7917 65.944 86.0317 64.972 86.5117 64.06C86.9917 63.148 87.6877 62.416 88.5997 61.864C89.5357 61.288 90.6757 61 92.0197 61C93.3397 61 94.4557 61.288 95.3677 61.864C96.3037 62.416 96.9997 63.148 97.4557 64.06C97.9357 64.972 98.1757 65.944 98.1757 66.976C98.1757 68.008 97.9357 68.98 97.4557 69.892C96.9997 70.804 96.3037 71.548 95.3677 72.124C94.4557 72.676 93.3397 72.952 92.0197 72.952ZM89.8957 88L105.124 61.36H109.84L94.6117 88H89.8957ZM91.9837 69.496C92.7277 69.496 93.3037 69.244 93.7117 68.74C94.1437 68.236 94.3597 67.66 94.3597 67.012C94.3597 66.34 94.1437 65.752 93.7117 65.248C93.3037 64.744 92.7277 64.492 91.9837 64.492C91.2157 64.492 90.6277 64.744 90.2197 65.248C89.8117 65.752 89.6077 66.34 89.6077 67.012C89.6077 67.66 89.8117 68.236 90.2197 68.74C90.6277 69.244 91.2157 69.496 91.9837 69.496ZM107.752 88.36C106.408 88.36 105.268 88.084 104.332 87.532C103.42 86.956 102.724 86.212 102.244 85.3C101.764 84.388 101.524 83.404 101.524 82.348C101.524 81.316 101.764 80.356 102.244 79.468C102.724 78.556 103.42 77.824 104.332 77.272C105.268 76.696 106.408 76.408 107.752 76.408C109.096 76.408 110.224 76.696 111.136 77.272C112.048 77.824 112.744 78.556 113.224 79.468C113.704 80.356 113.944 81.316 113.944 82.348C113.944 83.404 113.704 84.388 113.224 85.3C112.744 86.212 112.048 86.956 111.136 87.532C110.224 88.084 109.096 88.36 107.752 88.36ZM107.716 84.904C108.484 84.904 109.072 84.652 109.48 84.148C109.888 83.644 110.092 83.056 110.092 82.384C110.092 81.736 109.888 81.16 109.48 80.656C109.072 80.152 108.484 79.9 107.716 79.9C106.972 79.9 106.384 80.152 105.952 80.656C105.544 81.16 105.34 81.736 105.34 82.384C105.34 83.056 105.544 83.644 105.952 84.148C106.384 84.652 106.972 84.904 107.716 84.904Z" fill="white"/>
<path d="M59.6092 100.07C59.3105 100.07 59.0538 100.033 58.8392 99.958C58.6292 99.8787 58.4542 99.7783 58.3142 99.657C58.1742 99.531 58.0622 99.4003 57.9782 99.265C57.8942 99.1297 57.8312 99.0013 57.7892 98.88C57.7472 98.754 57.7192 98.6537 57.7052 98.579C57.6958 98.4997 57.6912 98.46 57.6912 98.46H58.3912C58.3912 98.46 58.3982 98.4927 58.4122 98.558C58.4262 98.6233 58.4542 98.705 58.4962 98.803C58.5428 98.901 58.6105 99.0013 58.6992 99.104C58.7878 99.202 58.9068 99.2837 59.0562 99.349C59.2055 99.4143 59.3945 99.447 59.6232 99.447C59.9685 99.447 60.2415 99.3653 60.4422 99.202C60.6428 99.034 60.7432 98.817 60.7432 98.551C60.7432 98.3223 60.6662 98.145 60.5122 98.019C60.3628 97.893 60.1482 97.795 59.8682 97.725L59.1822 97.557C58.9395 97.4963 58.7132 97.4123 58.5032 97.305C58.2978 97.193 58.1322 97.0483 58.0062 96.871C57.8848 96.689 57.8242 96.4627 57.8242 96.192C57.8242 95.8887 57.8988 95.6297 58.0482 95.415C58.1975 95.2003 58.4005 95.037 58.6572 94.925C58.9138 94.8083 59.2055 94.75 59.5322 94.75C59.8495 94.75 60.1132 94.799 60.3232 94.897C60.5332 94.995 60.7012 95.1163 60.8272 95.261C60.9532 95.401 61.0465 95.5433 61.1072 95.688C61.1678 95.828 61.2075 95.947 61.2262 96.045C61.2448 96.143 61.2542 96.192 61.2542 96.192H60.5822C60.5822 96.192 60.5728 96.15 60.5542 96.066C60.5355 95.982 60.4912 95.8863 60.4212 95.779C60.3512 95.667 60.2438 95.569 60.0992 95.485C59.9545 95.401 59.7585 95.359 59.5112 95.359C59.1752 95.359 58.9208 95.4383 58.7482 95.597C58.5802 95.7557 58.4962 95.9377 58.4962 96.143C58.4962 96.3297 58.5638 96.4813 58.6992 96.598C58.8345 96.71 59.0212 96.7963 59.2592 96.857L60.0012 97.039C60.2672 97.1043 60.5075 97.2 60.7222 97.326C60.9368 97.4473 61.1072 97.606 61.2332 97.802C61.3592 97.9933 61.4222 98.229 61.4222 98.509C61.4222 98.789 61.3522 99.048 61.2122 99.286C61.0768 99.524 60.8738 99.7153 60.6032 99.86C60.3372 100 60.0058 100.07 59.6092 100.07ZM62.3305 95.583C62.2045 95.583 62.0995 95.541 62.0155 95.457C61.9362 95.373 61.8965 95.2727 61.8965 95.156C61.8965 95.0347 61.9362 94.932 62.0155 94.848C62.0995 94.764 62.2045 94.722 62.3305 94.722C62.4519 94.722 62.5545 94.764 62.6385 94.848C62.7225 94.932 62.7645 95.0347 62.7645 95.156C62.7645 95.2727 62.7225 95.373 62.6385 95.457C62.5545 95.541 62.4519 95.583 62.3305 95.583ZM62.0015 100V96.29H62.6665V100H62.0015ZM65.1492 100.07C64.8459 100.07 64.5799 100.016 64.3512 99.909C64.1226 99.797 63.9312 99.65 63.7772 99.468C63.6279 99.2813 63.5136 99.0737 63.4342 98.845C63.3596 98.6163 63.3222 98.383 63.3222 98.145C63.3222 97.907 63.3596 97.676 63.4342 97.452C63.5089 97.2233 63.6209 97.0157 63.7702 96.829C63.9242 96.6423 64.1156 96.4953 64.3442 96.388C64.5729 96.276 64.8412 96.22 65.1492 96.22C65.4479 96.22 65.6952 96.2643 65.8912 96.353C66.0872 96.4417 66.2436 96.5537 66.3602 96.689C66.4816 96.8197 66.5702 96.9527 66.6262 97.088C66.6869 97.2187 66.7266 97.3283 66.7452 97.417C66.7639 97.5057 66.7732 97.55 66.7732 97.55H66.1292C66.1292 97.55 66.1176 97.5127 66.0942 97.438C66.0709 97.3587 66.0266 97.27 65.9612 97.172C65.8959 97.074 65.7979 96.9877 65.6672 96.913C65.5366 96.8337 65.3639 96.794 65.1492 96.794C64.8926 96.794 64.6756 96.8593 64.4982 96.99C64.3256 97.116 64.1949 97.2817 64.1062 97.487C64.0222 97.6923 63.9802 97.9117 63.9802 98.145C63.9802 98.3783 64.0222 98.5977 64.1062 98.803C64.1949 99.0083 64.3256 99.1763 64.4982 99.307C64.6756 99.433 64.8926 99.496 65.1492 99.496C65.3639 99.496 65.5366 99.4587 65.6672 99.384C65.7979 99.3047 65.8959 99.216 65.9612 99.118C66.0266 99.02 66.0709 98.9337 66.0942 98.859C66.1176 98.7797 66.1292 98.74 66.1292 98.74H66.7732C66.7732 98.74 66.7639 98.7843 66.7452 98.873C66.7266 98.9617 66.6869 99.0737 66.6262 99.209C66.5702 99.3397 66.4816 99.4727 66.3602 99.608C66.2436 99.7387 66.0872 99.8483 65.8912 99.937C65.6952 100.026 65.4479 100.07 65.1492 100.07ZM67.4052 100V94.68H68.0702V96.829H68.1122C68.1449 96.773 68.1985 96.696 68.2732 96.598C68.3525 96.5 68.4645 96.4137 68.6092 96.339C68.7539 96.2597 68.9359 96.22 69.1552 96.22C69.4259 96.22 69.6569 96.283 69.8482 96.409C70.0395 96.5303 70.1842 96.696 70.2822 96.906C70.3849 97.116 70.4362 97.3517 70.4362 97.613V100H69.7712V97.655C69.7712 97.4077 69.7012 97.2023 69.5612 97.039C69.4259 96.8757 69.2275 96.794 68.9662 96.794C68.7562 96.794 68.5859 96.8477 68.4552 96.955C68.3245 97.0577 68.2265 97.1953 68.1612 97.368C68.1005 97.536 68.0702 97.7157 68.0702 97.907V100H67.4052ZM72.5046 100.07C72.1219 100.07 71.8326 99.972 71.6366 99.776C71.4452 99.58 71.3496 99.3047 71.3496 98.95V96.836H70.6846V96.29H71.3496V95.359H72.0146V96.29H72.9176V96.836H72.0146V98.95C72.0146 99.1367 72.0659 99.2743 72.1686 99.363C72.2712 99.447 72.4206 99.489 72.6166 99.489C72.7192 99.489 72.8172 99.482 72.9106 99.468C73.0039 99.454 73.0506 99.447 73.0506 99.447V100.014C73.0506 100.014 72.9969 100.023 72.8896 100.042C72.7822 100.061 72.6539 100.07 72.5046 100.07ZM75.5477 100.07C75.3144 100.07 75.1184 100.033 74.9597 99.958C74.801 99.8833 74.6727 99.7947 74.5747 99.692C74.4814 99.5893 74.4067 99.496 74.3507 99.412H74.3087V100H73.6437V94.68H74.3087V96.878H74.3507C74.4067 96.7893 74.4814 96.6937 74.5747 96.591C74.6727 96.4883 74.801 96.402 74.9597 96.332C75.1184 96.2573 75.3144 96.22 75.5477 96.22C75.8277 96.22 76.0727 96.276 76.2827 96.388C76.4927 96.4953 76.6677 96.6423 76.8077 96.829C76.9477 97.011 77.0527 97.2163 77.1227 97.445C77.1927 97.6737 77.2277 97.907 77.2277 98.145C77.2277 98.383 77.1927 98.6163 77.1227 98.845C77.0527 99.0737 76.9477 99.2813 76.8077 99.468C76.6677 99.65 76.4927 99.797 76.2827 99.909C76.0727 100.016 75.8277 100.07 75.5477 100.07ZM75.4357 99.503C75.6877 99.503 75.8954 99.4377 76.0587 99.307C76.2267 99.1717 76.3504 99.0013 76.4297 98.796C76.5137 98.586 76.5557 98.369 76.5557 98.145C76.5557 97.9163 76.5137 97.6993 76.4297 97.494C76.3504 97.2887 76.2267 97.1207 76.0587 96.99C75.8954 96.8547 75.6877 96.787 75.4357 96.787C75.1884 96.787 74.9807 96.8547 74.8127 96.99C74.6494 97.1207 74.5257 97.2887 74.4417 97.494C74.3624 97.6993 74.3227 97.9163 74.3227 98.145C74.3227 98.369 74.3624 98.586 74.4417 98.796C74.5257 99.0013 74.6494 99.1717 74.8127 99.307C74.9807 99.4377 75.1884 99.503 75.4357 99.503ZM79.3659 96.22C79.5993 96.22 79.7953 96.2573 79.9539 96.332C80.1126 96.4067 80.2409 96.4953 80.3389 96.598C80.4369 96.696 80.5116 96.7893 80.5629 96.878H80.6049V96.29H81.2699V100H80.6049V99.412H80.5629C80.5116 99.5007 80.4369 99.5963 80.3389 99.699C80.2409 99.8017 80.1126 99.8903 79.9539 99.965C79.7953 100.035 79.5993 100.07 79.3659 100.07C79.0859 100.07 78.8409 100.016 78.6309 99.909C78.4209 99.797 78.2459 99.65 78.1059 99.468C77.9659 99.2813 77.8609 99.0737 77.7909 98.845C77.7209 98.6163 77.6859 98.383 77.6859 98.145C77.6859 97.907 77.7209 97.6737 77.7909 97.445C77.8609 97.2163 77.9659 97.011 78.1059 96.829C78.2459 96.6423 78.4209 96.4953 78.6309 96.388C78.8409 96.276 79.0859 96.22 79.3659 96.22ZM79.4779 96.787C79.2306 96.787 79.0229 96.8547 78.8549 96.99C78.6869 97.1207 78.5609 97.2887 78.4769 97.494C78.3976 97.6993 78.3579 97.9163 78.3579 98.145C78.3579 98.369 78.3976 98.586 78.4769 98.796C78.5609 99.0013 78.6869 99.1717 78.8549 99.307C79.0229 99.4377 79.2306 99.503 79.4779 99.503C79.7253 99.503 79.9306 99.4377 80.0939 99.307C80.2619 99.1717 80.3856 99.0013 80.4649 98.796C80.5489 98.586 80.5909 98.369 80.5909 98.145C80.5909 97.9163 80.5489 97.6993 80.4649 97.494C80.3856 97.2887 80.2619 97.1207 80.0939 96.99C79.9306 96.8547 79.7253 96.787 79.4779 96.787ZM81.8971 100V96.29H82.5621V96.752H82.5901C82.6695 96.612 82.7861 96.4883 82.9401 96.381C83.0941 96.2737 83.3111 96.22 83.5911 96.22C83.6705 96.22 83.7428 96.2247 83.8081 96.234C83.8735 96.2387 83.9061 96.241 83.9061 96.241V96.878C83.9061 96.878 83.8688 96.8757 83.7941 96.871C83.7241 96.8617 83.6495 96.857 83.5701 96.857C83.2481 96.857 82.9985 96.9503 82.8211 97.137C82.6485 97.319 82.5621 97.6177 82.5621 98.033V100H81.8971ZM84.3583 100V94.68H85.0233V97.774L86.5003 96.29H87.3683L85.6603 97.977L87.4033 100H86.5563L85.0233 98.215V100H84.3583ZM89.1937 100.07C88.8904 100.07 88.6267 100.016 88.4027 99.909C88.1834 99.797 88.0014 99.6477 87.8567 99.461C87.7167 99.2743 87.6117 99.069 87.5417 98.845C87.4717 98.6163 87.4367 98.383 87.4367 98.145C87.4367 97.9117 87.4694 97.6807 87.5347 97.452C87.6047 97.2233 87.7097 97.0157 87.8497 96.829C87.9944 96.6423 88.174 96.4953 88.3887 96.388C88.608 96.276 88.867 96.22 89.1657 96.22C89.483 96.22 89.763 96.2923 90.0057 96.437C90.2484 96.5817 90.4397 96.7963 90.5797 97.081C90.7197 97.3657 90.7897 97.7227 90.7897 98.152V98.348H88.1087C88.1227 98.558 88.1717 98.7517 88.2557 98.929C88.3444 99.1017 88.468 99.2417 88.6267 99.349C88.7854 99.4517 88.9744 99.503 89.1937 99.503C89.385 99.503 89.539 99.4727 89.6557 99.412C89.777 99.3467 89.8727 99.272 89.9427 99.188C90.0127 99.104 90.0594 99.0317 90.0827 98.971C90.1107 98.9057 90.1247 98.873 90.1247 98.873H90.7477C90.7477 98.873 90.736 98.915 90.7127 98.999C90.6894 99.0783 90.6474 99.1763 90.5867 99.293C90.526 99.4097 90.4374 99.5287 90.3207 99.65C90.204 99.7667 90.0547 99.867 89.8727 99.951C89.6907 100.03 89.4644 100.07 89.1937 100.07ZM88.1157 97.83H90.1387C90.1294 97.5873 90.078 97.3913 89.9847 97.242C89.8914 97.088 89.7724 96.9737 89.6277 96.899C89.483 96.8243 89.329 96.787 89.1657 96.787C88.8717 96.787 88.6314 96.8827 88.4447 97.074C88.258 97.2607 88.1484 97.5127 88.1157 97.83ZM91.7811 95.583C91.6551 95.583 91.5501 95.541 91.4661 95.457C91.3868 95.373 91.3471 95.2727 91.3471 95.156C91.3471 95.0347 91.3868 94.932 91.4661 94.848C91.5501 94.764 91.6551 94.722 91.7811 94.722C91.9025 94.722 92.0051 94.764 92.0891 94.848C92.1731 94.932 92.2151 95.0347 92.2151 95.156C92.2151 95.2727 92.1731 95.373 92.0891 95.457C92.0051 95.541 91.9025 95.583 91.7811 95.583ZM91.4521 100V96.29H92.1171V100H91.4521ZM94.4178 100.07C94.0352 100.07 93.7458 99.972 93.5498 99.776C93.3585 99.58 93.2628 99.3047 93.2628 98.95V96.836H92.5978V96.29H93.2628V95.359H93.9278V96.29H94.8308V96.836H93.9278V98.95C93.9278 99.1367 93.9792 99.2743 94.0818 99.363C94.1845 99.447 94.3338 99.489 94.5298 99.489C94.6325 99.489 94.7305 99.482 94.8238 99.468C94.9172 99.454 94.9638 99.447 94.9638 99.447V100.014C94.9638 100.014 94.9102 100.023 94.8028 100.042C94.6955 100.061 94.5672 100.07 94.4178 100.07Z" fill="white"/>
<ellipse cx="76.8301" cy="75.5" rx="70.5" ry="71" transform="rotate(-90 76.8301 75.5)" stroke="#00BF64" stroke-width="10"/>
<path d="M6.61133 65C11.7177 31.0439 41.2104 5 76.8292 5C78.0027 5 79.1696 5.02827 80.3292 5.08416" stroke="#D9D9D9" stroke-width="10" stroke-linecap="round"/>
</svg>
