<svg width="153" height="154" viewBox="0 0 153 154" fill="none" xmlns="http://www.w3.org/2000/svg">
<path d="M52.2841 86.36C50.3161 86.36 48.6841 86.108 47.3881 85.604C46.1161 85.1 45.1081 84.464 44.3641 83.696C43.6201 82.904 43.0681 82.1 42.7081 81.284C42.3481 80.468 42.1201 79.736 42.0241 79.088C41.9281 78.44 41.8801 78.008 41.8801 77.792H47.7841C47.7841 77.96 47.8321 78.236 47.9281 78.62C48.0241 79.004 48.2161 79.4 48.5041 79.808C48.7921 80.192 49.2241 80.528 49.8001 80.816C50.4001 81.104 51.1921 81.248 52.1761 81.248C53.4241 81.248 54.4201 80.948 55.1641 80.348C55.9321 79.748 56.3161 78.98 56.3161 78.044C56.3161 77.18 55.9801 76.436 55.3081 75.812C54.6601 75.188 53.6881 74.876 52.3921 74.876H48.7921V70.088H52.4641C53.5681 70.088 54.4201 69.8 55.0201 69.224C55.6441 68.624 55.9561 67.928 55.9561 67.136C55.9561 66.272 55.6081 65.552 54.9121 64.976C54.2161 64.376 53.3041 64.076 52.1761 64.076C51.3121 64.076 50.6041 64.232 50.0521 64.544C49.5241 64.856 49.1161 65.228 48.8281 65.66C48.5641 66.092 48.3841 66.512 48.2881 66.92C48.1921 67.304 48.1441 67.58 48.1441 67.748H42.3841C42.3841 67.532 42.4321 67.1 42.5281 66.452C42.6481 65.78 42.8761 65.024 43.2121 64.184C43.5481 63.344 44.0761 62.528 44.7961 61.736C45.5161 60.944 46.4761 60.296 47.6761 59.792C48.8761 59.264 50.4001 59 52.2481 59C53.5201 59 54.7321 59.168 55.8841 59.504C57.0601 59.84 58.1161 60.332 59.0521 60.98C59.9881 61.628 60.7201 62.42 61.2481 63.356C61.8001 64.292 62.0761 65.348 62.0761 66.524C62.0761 67.652 61.8481 68.612 61.3921 69.404C60.9361 70.196 60.3721 70.844 59.7001 71.348C59.0521 71.828 58.4401 72.152 57.8641 72.32V72.572C58.6561 72.86 59.4121 73.256 60.1321 73.76C60.8521 74.264 61.4281 74.9 61.8601 75.668C62.3161 76.436 62.5441 77.36 62.5441 78.44C62.5441 80.12 62.0641 81.548 61.1041 82.724C60.1681 83.9 58.9201 84.8 57.3601 85.424C55.8001 86.048 54.1081 86.36 52.2841 86.36ZM66.199 86C66.319 83.288 66.715 80.792 67.387 78.512C68.059 76.232 68.851 74.192 69.763 72.392C70.699 70.568 71.623 69.02 72.535 67.748C73.447 66.452 74.203 65.456 74.803 64.76H61.987V59.36H81.715V63.788C81.715 63.788 81.415 64.112 80.815 64.76C80.239 65.408 79.507 66.368 78.619 67.64C77.755 68.888 76.867 70.424 75.955 72.248C75.043 74.048 74.263 76.1 73.615 78.404C72.967 80.708 72.583 83.24 72.463 86H66.199ZM86.4982 70.952C85.1542 70.952 84.0142 70.676 83.0782 70.124C82.1662 69.548 81.4702 68.804 80.9902 67.892C80.5102 66.98 80.2702 66.008 80.2702 64.976C80.2702 63.944 80.5102 62.972 80.9902 62.06C81.4702 61.148 82.1662 60.416 83.0782 59.864C84.0142 59.288 85.1542 59 86.4982 59C87.8182 59 88.9342 59.288 89.8462 59.864C90.7822 60.416 91.4782 61.148 91.9342 62.06C92.4142 62.972 92.6542 63.944 92.6542 64.976C92.6542 66.008 92.4142 66.98 91.9342 67.892C91.4782 68.804 90.7822 69.548 89.8462 70.124C88.9342 70.676 87.8182 70.952 86.4982 70.952ZM84.3742 86L99.6022 59.36H104.318L89.0902 86H84.3742ZM86.4622 67.496C87.2062 67.496 87.7822 67.244 88.1902 66.74C88.6222 66.236 88.8382 65.66 88.8382 65.012C88.8382 64.34 88.6222 63.752 88.1902 63.248C87.7822 62.744 87.2062 62.492 86.4622 62.492C85.6942 62.492 85.1062 62.744 84.6982 63.248C84.2902 63.752 84.0862 64.34 84.0862 65.012C84.0862 65.66 84.2902 66.236 84.6982 66.74C85.1062 67.244 85.6942 67.496 86.4622 67.496ZM102.23 86.36C100.886 86.36 99.7462 86.084 98.8102 85.532C97.8982 84.956 97.2022 84.212 96.7222 83.3C96.2422 82.388 96.0022 81.404 96.0022 80.348C96.0022 79.316 96.2422 78.356 96.7222 77.468C97.2022 76.556 97.8982 75.824 98.8102 75.272C99.7462 74.696 100.886 74.408 102.23 74.408C103.574 74.408 104.702 74.696 105.614 75.272C106.526 75.824 107.222 76.556 107.702 77.468C108.182 78.356 108.422 79.316 108.422 80.348C108.422 81.404 108.182 82.388 107.702 83.3C107.222 84.212 106.526 84.956 105.614 85.532C104.702 86.084 103.574 86.36 102.23 86.36ZM102.194 82.904C102.962 82.904 103.55 82.652 103.958 82.148C104.366 81.644 104.57 81.056 104.57 80.384C104.57 79.736 104.366 79.16 103.958 78.656C103.55 78.152 102.962 77.9 102.194 77.9C101.45 77.9 100.862 78.152 100.43 78.656C100.022 79.16 99.8182 79.736 99.8182 80.384C99.8182 81.056 100.022 81.644 100.43 82.148C100.862 82.652 101.45 82.904 102.194 82.904Z" fill="white"/>
<path d="M37.7834 99V93.82H41.0734V94.422H38.4694V96.06H40.7514V96.662H38.4694V98.398H41.1084V99H37.7834ZM41.7043 99V95.29H42.3693V95.752H42.3973C42.4766 95.612 42.5933 95.4883 42.7473 95.381C42.9013 95.2737 43.1183 95.22 43.3983 95.22C43.4776 95.22 43.5499 95.2247 43.6153 95.234C43.6806 95.2387 43.7133 95.241 43.7133 95.241V95.878C43.7133 95.878 43.6759 95.8757 43.6013 95.871C43.5313 95.8617 43.4566 95.857 43.3773 95.857C43.0553 95.857 42.8056 95.9503 42.6283 96.137C42.4556 96.319 42.3693 96.6177 42.3693 97.033V99H41.7043ZM44.5978 99V95.836H43.9888V95.29H44.5978V94.835C44.5978 94.639 44.6328 94.4477 44.7028 94.261C44.7728 94.0697 44.8895 93.9133 45.0528 93.792C45.2162 93.6707 45.4378 93.61 45.7178 93.61C45.8532 93.61 45.9605 93.6217 46.0398 93.645C46.1238 93.6637 46.1658 93.673 46.1658 93.673V94.198C46.1658 94.198 46.1285 94.191 46.0538 94.177C45.9838 94.1583 45.9022 94.149 45.8088 94.149C45.5942 94.149 45.4495 94.2143 45.3748 94.345C45.3002 94.4757 45.2628 94.639 45.2628 94.835V95.29H46.1238V95.836H45.2628V99H44.5978ZM48.0591 99.07C47.6624 99.07 47.3288 98.979 47.0581 98.797C46.7874 98.6103 46.5821 98.37 46.4421 98.076C46.3021 97.782 46.2321 97.4717 46.2321 97.145C46.2321 96.8137 46.3021 96.5033 46.4421 96.214C46.5821 95.92 46.7874 95.682 47.0581 95.5C47.3288 95.3133 47.6624 95.22 48.0591 95.22C48.4558 95.22 48.7894 95.3133 49.0601 95.5C49.3308 95.682 49.5361 95.92 49.6761 96.214C49.8161 96.5033 49.8861 96.8137 49.8861 97.145C49.8861 97.4717 49.8161 97.782 49.6761 98.076C49.5361 98.37 49.3308 98.6103 49.0601 98.797C48.7894 98.979 48.4558 99.07 48.0591 99.07ZM48.0591 98.489C48.3111 98.489 48.5211 98.426 48.6891 98.3C48.8618 98.1693 48.9901 98.0013 49.0741 97.796C49.1628 97.5907 49.2071 97.3737 49.2071 97.145C49.2071 96.9117 49.1628 96.6947 49.0741 96.494C48.9901 96.2887 48.8618 96.123 48.6891 95.997C48.5211 95.8663 48.3111 95.801 48.0591 95.801C47.8118 95.801 47.6018 95.8663 47.4291 95.997C47.2564 96.123 47.1258 96.2887 47.0371 96.494C46.9531 96.6947 46.9111 96.9117 46.9111 97.145C46.9111 97.3737 46.9531 97.5907 47.0371 97.796C47.1258 98.0013 47.2564 98.1693 47.4291 98.3C47.6018 98.426 47.8118 98.489 48.0591 98.489ZM50.5133 99L50.5203 93.68H51.1783V99H50.5133ZM53.6625 100.47C53.3545 100.47 53.0978 100.428 52.8925 100.344C52.6872 100.265 52.5215 100.162 52.3955 100.036C52.2742 99.9147 52.1832 99.7933 52.1225 99.672C52.0618 99.5507 52.0222 99.448 52.0035 99.364C51.9848 99.2847 51.9755 99.245 51.9755 99.245H52.6405C52.6405 99.245 52.6522 99.2777 52.6755 99.343C52.6988 99.4083 52.7432 99.483 52.8085 99.567C52.8785 99.651 52.9812 99.7257 53.1165 99.791C53.2518 99.8563 53.4338 99.889 53.6625 99.889C53.9332 99.889 54.1455 99.8353 54.2995 99.728C54.4535 99.6253 54.5632 99.49 54.6285 99.322C54.6985 99.154 54.7335 98.9767 54.7335 98.79V98.363H54.6985C54.6518 98.4423 54.5772 98.5333 54.4745 98.636C54.3765 98.734 54.2458 98.8203 54.0825 98.895C53.9192 98.965 53.7185 99 53.4805 99C53.2005 99 52.9555 98.9463 52.7455 98.839C52.5355 98.7317 52.3605 98.587 52.2205 98.405C52.0852 98.223 51.9825 98.02 51.9125 97.796C51.8425 97.572 51.8075 97.3433 51.8075 97.11C51.8075 96.8767 51.8425 96.648 51.9125 96.424C51.9825 96.2 52.0852 95.997 52.2205 95.815C52.3605 95.633 52.5355 95.4883 52.7455 95.381C52.9555 95.2737 53.2005 95.22 53.4805 95.22C53.7185 95.22 53.9192 95.2573 54.0825 95.332C54.2458 95.402 54.3765 95.486 54.4745 95.584C54.5772 95.682 54.6518 95.773 54.6985 95.857H54.7335V95.29H55.3985V98.783C55.3985 99.301 55.2468 99.7117 54.9435 100.015C54.6448 100.318 54.2178 100.47 53.6625 100.47ZM53.6065 98.433C53.8538 98.433 54.0592 98.37 54.2225 98.244C54.3905 98.1133 54.5142 97.9477 54.5935 97.747C54.6775 97.5463 54.7195 97.334 54.7195 97.11C54.7195 96.886 54.6775 96.6737 54.5935 96.473C54.5142 96.2677 54.3905 96.102 54.2225 95.976C54.0592 95.85 53.8538 95.787 53.6065 95.787C53.3592 95.787 53.1515 95.85 52.9835 95.976C52.8155 96.102 52.6895 96.2677 52.6055 96.473C52.5262 96.6737 52.4865 96.886 52.4865 97.11C52.4865 97.334 52.5262 97.5463 52.6055 97.747C52.6895 97.9477 52.8155 98.1133 52.9835 98.244C53.1515 98.37 53.3592 98.433 53.6065 98.433ZM57.3835 99.07C57.0989 99.07 56.8632 99.0303 56.6765 98.951C56.4945 98.8717 56.3499 98.7737 56.2425 98.657C56.1352 98.5357 56.0559 98.4167 56.0045 98.3C55.9532 98.1787 55.9205 98.0783 55.9065 97.999C55.8925 97.9197 55.8855 97.88 55.8855 97.88H56.5575C56.5575 97.88 56.5645 97.9127 56.5785 97.978C56.5972 98.0387 56.6322 98.111 56.6835 98.195C56.7395 98.2743 56.8235 98.3467 56.9355 98.412C57.0522 98.4727 57.2062 98.503 57.3975 98.503C57.6169 98.503 57.7872 98.4517 57.9085 98.349C58.0299 98.2417 58.0905 98.111 58.0905 97.957C58.0905 97.8217 58.0415 97.7143 57.9435 97.635C57.8502 97.5557 57.7149 97.495 57.5375 97.453L57.0335 97.334C56.8469 97.2873 56.6719 97.2243 56.5085 97.145C56.3452 97.0657 56.2122 96.9583 56.1095 96.823C56.0115 96.683 55.9625 96.5103 55.9625 96.305C55.9625 95.9877 56.0815 95.7287 56.3195 95.528C56.5575 95.3227 56.8679 95.22 57.2505 95.22C57.5072 95.22 57.7195 95.2573 57.8875 95.332C58.0555 95.402 58.1885 95.4907 58.2865 95.598C58.3892 95.7053 58.4639 95.8127 58.5105 95.92C58.5619 96.0273 58.5945 96.1183 58.6085 96.193C58.6225 96.263 58.6295 96.298 58.6295 96.298H57.9855C57.9855 96.298 57.9785 96.2723 57.9645 96.221C57.9505 96.165 57.9179 96.1043 57.8665 96.039C57.8199 95.969 57.7475 95.9083 57.6495 95.857C57.5515 95.801 57.4209 95.773 57.2575 95.773C57.0335 95.773 56.8702 95.8243 56.7675 95.927C56.6649 96.0297 56.6135 96.1417 56.6135 96.263C56.6135 96.3797 56.6602 96.4753 56.7535 96.55C56.8515 96.62 56.9775 96.6737 57.1315 96.711L57.6425 96.83C57.9599 96.9047 58.2212 97.0283 58.4265 97.201C58.6365 97.369 58.7415 97.6117 58.7415 97.929C58.7415 98.1343 58.6879 98.3257 58.5805 98.503C58.4732 98.6757 58.3192 98.8133 58.1185 98.916C57.9179 99.0187 57.6729 99.07 57.3835 99.07ZM60.0455 99L58.8485 95.29H59.5275L60.4095 98.104L61.3335 95.29H61.9635L62.8805 98.104L63.7695 95.29H64.4485L63.2445 99H62.5305L61.6485 96.263L60.7665 99H60.0455ZM66.3076 95.22C66.541 95.22 66.737 95.2573 66.8956 95.332C67.0543 95.4067 67.1826 95.4953 67.2806 95.598C67.3786 95.696 67.4533 95.7893 67.5046 95.878H67.5466V95.29H68.2116V99H67.5466V98.412H67.5046C67.4533 98.5007 67.3786 98.5963 67.2806 98.699C67.1826 98.8017 67.0543 98.8903 66.8956 98.965C66.737 99.035 66.541 99.07 66.3076 99.07C66.0276 99.07 65.7826 99.0163 65.5726 98.909C65.3626 98.797 65.1876 98.65 65.0476 98.468C64.9076 98.2813 64.8026 98.0737 64.7326 97.845C64.6626 97.6163 64.6276 97.383 64.6276 97.145C64.6276 96.907 64.6626 96.6737 64.7326 96.445C64.8026 96.2163 64.9076 96.011 65.0476 95.829C65.1876 95.6423 65.3626 95.4953 65.5726 95.388C65.7826 95.276 66.0276 95.22 66.3076 95.22ZM66.4196 95.787C66.1723 95.787 65.9646 95.8547 65.7966 95.99C65.6286 96.1207 65.5026 96.2887 65.4186 96.494C65.3393 96.6993 65.2996 96.9163 65.2996 97.145C65.2996 97.369 65.3393 97.586 65.4186 97.796C65.5026 98.0013 65.6286 98.1717 65.7966 98.307C65.9646 98.4377 66.1723 98.503 66.4196 98.503C66.667 98.503 66.8723 98.4377 67.0356 98.307C67.2036 98.1717 67.3273 98.0013 67.4066 97.796C67.4906 97.586 67.5326 97.369 67.5326 97.145C67.5326 96.9163 67.4906 96.6993 67.4066 96.494C67.3273 96.2887 67.2036 96.1207 67.0356 95.99C66.8723 95.8547 66.667 95.787 66.4196 95.787ZM68.9088 99V93.68H69.5738V95.829H69.6158C69.6485 95.773 69.7022 95.696 69.7768 95.598C69.8562 95.5 69.9682 95.4137 70.1128 95.339C70.2575 95.2597 70.4395 95.22 70.6588 95.22C70.9295 95.22 71.1605 95.283 71.3518 95.409C71.5432 95.5303 71.6878 95.696 71.7858 95.906C71.8885 96.116 71.9398 96.3517 71.9398 96.613V99H71.2748V96.655C71.2748 96.4077 71.2048 96.2023 71.0648 96.039C70.9295 95.8757 70.7312 95.794 70.4698 95.794C70.2598 95.794 70.0895 95.8477 69.9588 95.955C69.8282 96.0577 69.7302 96.1953 69.6648 96.368C69.6042 96.536 69.5738 96.7157 69.5738 96.907V99H68.9088ZM72.5699 99V95.29H73.2349V95.752H73.2629C73.3422 95.612 73.4589 95.4883 73.6129 95.381C73.7669 95.2737 73.9839 95.22 74.2639 95.22C74.3432 95.22 74.4156 95.2247 74.4809 95.234C74.5462 95.2387 74.5789 95.241 74.5789 95.241V95.878C74.5789 95.878 74.5416 95.8757 74.4669 95.871C74.3969 95.8617 74.3222 95.857 74.2429 95.857C73.9209 95.857 73.6712 95.9503 73.4939 96.137C73.3212 96.319 73.2349 96.6177 73.2349 97.033V99H72.5699ZM76.3191 99.07C76.0344 99.07 75.7988 99.0303 75.6121 98.951C75.4301 98.8717 75.2854 98.7737 75.1781 98.657C75.0708 98.5357 74.9914 98.4167 74.9401 98.3C74.8888 98.1787 74.8561 98.0783 74.8421 97.999C74.8281 97.9197 74.8211 97.88 74.8211 97.88H75.4931C75.4931 97.88 75.5001 97.9127 75.5141 97.978C75.5328 98.0387 75.5678 98.111 75.6191 98.195C75.6751 98.2743 75.7591 98.3467 75.8711 98.412C75.9878 98.4727 76.1418 98.503 76.3331 98.503C76.5524 98.503 76.7228 98.4517 76.8441 98.349C76.9654 98.2417 77.0261 98.111 77.0261 97.957C77.0261 97.8217 76.9771 97.7143 76.8791 97.635C76.7858 97.5557 76.6504 97.495 76.4731 97.453L75.9691 97.334C75.7824 97.2873 75.6074 97.2243 75.4441 97.145C75.2808 97.0657 75.1478 96.9583 75.0451 96.823C74.9471 96.683 74.8981 96.5103 74.8981 96.305C74.8981 95.9877 75.0171 95.7287 75.2551 95.528C75.4931 95.3227 75.8034 95.22 76.1861 95.22C76.4428 95.22 76.6551 95.2573 76.8231 95.332C76.9911 95.402 77.1241 95.4907 77.2221 95.598C77.3248 95.7053 77.3994 95.8127 77.4461 95.92C77.4974 96.0273 77.5301 96.1183 77.5441 96.193C77.5581 96.263 77.5651 96.298 77.5651 96.298H76.9211C76.9211 96.298 76.9141 96.2723 76.9001 96.221C76.8861 96.165 76.8534 96.1043 76.8021 96.039C76.7554 95.969 76.6831 95.9083 76.5851 95.857C76.4871 95.801 76.3564 95.773 76.1931 95.773C75.9691 95.773 75.8058 95.8243 75.7031 95.927C75.6004 96.0297 75.5491 96.1417 75.5491 96.263C75.5491 96.3797 75.5958 96.4753 75.6891 96.55C75.7871 96.62 75.9131 96.6737 76.0671 96.711L76.5781 96.83C76.8954 96.9047 77.1568 97.0283 77.3621 97.201C77.5721 97.369 77.6771 97.6117 77.6771 97.929C77.6771 98.1343 77.6234 98.3257 77.5161 98.503C77.4088 98.6757 77.2548 98.8133 77.0541 98.916C76.8534 99.0187 76.6084 99.07 76.3191 99.07ZM79.8544 99.07C79.5511 99.07 79.2851 99.0163 79.0564 98.909C78.8278 98.797 78.6364 98.65 78.4824 98.468C78.3331 98.2813 78.2188 98.0737 78.1394 97.845C78.0648 97.6163 78.0274 97.383 78.0274 97.145C78.0274 96.907 78.0648 96.676 78.1394 96.452C78.2141 96.2233 78.3261 96.0157 78.4754 95.829C78.6294 95.6423 78.8208 95.4953 79.0494 95.388C79.2781 95.276 79.5464 95.22 79.8544 95.22C80.1531 95.22 80.4004 95.2643 80.5964 95.353C80.7924 95.4417 80.9488 95.5537 81.0654 95.689C81.1868 95.8197 81.2754 95.9527 81.3314 96.088C81.3921 96.2187 81.4318 96.3283 81.4504 96.417C81.4691 96.5057 81.4784 96.55 81.4784 96.55H80.8344C80.8344 96.55 80.8228 96.5127 80.7994 96.438C80.7761 96.3587 80.7318 96.27 80.6664 96.172C80.6011 96.074 80.5031 95.9877 80.3724 95.913C80.2418 95.8337 80.0691 95.794 79.8544 95.794C79.5978 95.794 79.3808 95.8593 79.2034 95.99C79.0308 96.116 78.9001 96.2817 78.8114 96.487C78.7274 96.6923 78.6854 96.9117 78.6854 97.145C78.6854 97.3783 78.7274 97.5977 78.8114 97.803C78.9001 98.0083 79.0308 98.1763 79.2034 98.307C79.3808 98.433 79.5978 98.496 79.8544 98.496C80.0691 98.496 80.2418 98.4587 80.3724 98.384C80.5031 98.3047 80.6011 98.216 80.6664 98.118C80.7318 98.02 80.7761 97.9337 80.7994 97.859C80.8228 97.7797 80.8344 97.74 80.8344 97.74H81.4784C81.4784 97.74 81.4691 97.7843 81.4504 97.873C81.4318 97.9617 81.3921 98.0737 81.3314 98.209C81.2754 98.3397 81.1868 98.4727 81.0654 98.608C80.9488 98.7387 80.7924 98.8483 80.5964 98.937C80.4004 99.0257 80.1531 99.07 79.8544 99.07ZM82.1104 99V93.68H82.7754V95.829H82.8174C82.8501 95.773 82.9037 95.696 82.9784 95.598C83.0577 95.5 83.1697 95.4137 83.3144 95.339C83.4591 95.2597 83.6411 95.22 83.8604 95.22C84.1311 95.22 84.3621 95.283 84.5534 95.409C84.7447 95.5303 84.8894 95.696 84.9874 95.906C85.0901 96.116 85.1414 96.3517 85.1414 96.613V99H84.4764V96.655C84.4764 96.4077 84.4064 96.2023 84.2664 96.039C84.1311 95.8757 83.9327 95.794 83.6714 95.794C83.4614 95.794 83.2911 95.8477 83.1604 95.955C83.0297 96.0577 82.9317 96.1953 82.8664 96.368C82.8057 96.536 82.7754 96.7157 82.7754 96.907V99H82.1104ZM87.4584 99.07C87.1551 99.07 86.8914 99.0163 86.6674 98.909C86.4481 98.797 86.2661 98.6477 86.1214 98.461C85.9814 98.2743 85.8764 98.069 85.8064 97.845C85.7364 97.6163 85.7014 97.383 85.7014 97.145C85.7014 96.9117 85.7341 96.6807 85.7994 96.452C85.8694 96.2233 85.9744 96.0157 86.1144 95.829C86.2591 95.6423 86.4388 95.4953 86.6534 95.388C86.8728 95.276 87.1318 95.22 87.4304 95.22C87.7478 95.22 88.0278 95.2923 88.2704 95.437C88.5131 95.5817 88.7044 95.7963 88.8444 96.081C88.9844 96.3657 89.0544 96.7227 89.0544 97.152V97.348H86.3734C86.3874 97.558 86.4364 97.7517 86.5204 97.929C86.6091 98.1017 86.7328 98.2417 86.8914 98.349C87.0501 98.4517 87.2391 98.503 87.4584 98.503C87.6498 98.503 87.8038 98.4727 87.9204 98.412C88.0418 98.3467 88.1374 98.272 88.2074 98.188C88.2774 98.104 88.3241 98.0317 88.3474 97.971C88.3754 97.9057 88.3894 97.873 88.3894 97.873H89.0124C89.0124 97.873 89.0008 97.915 88.9774 97.999C88.9541 98.0783 88.9121 98.1763 88.8514 98.293C88.7908 98.4097 88.7021 98.5287 88.5854 98.65C88.4688 98.7667 88.3194 98.867 88.1374 98.951C87.9554 99.0303 87.7291 99.07 87.4584 99.07ZM86.3804 96.83H88.4034C88.3941 96.5873 88.3428 96.3913 88.2494 96.242C88.1561 96.088 88.0371 95.9737 87.8924 95.899C87.7478 95.8243 87.5938 95.787 87.4304 95.787C87.1364 95.787 86.8961 95.8827 86.7094 96.074C86.5228 96.2607 86.4131 96.5127 86.3804 96.83ZM90.0459 94.583C89.9199 94.583 89.8149 94.541 89.7309 94.457C89.6515 94.373 89.6119 94.2727 89.6119 94.156C89.6119 94.0347 89.6515 93.932 89.7309 93.848C89.8149 93.764 89.9199 93.722 90.0459 93.722C90.1672 93.722 90.2699 93.764 90.3539 93.848C90.4379 93.932 90.4799 94.0347 90.4799 94.156C90.4799 94.2727 90.4379 94.373 90.3539 94.457C90.2699 94.541 90.1672 94.583 90.0459 94.583ZM89.7169 99V95.29H90.3819V99H89.7169ZM91.1076 99V95.29H91.7726V95.829H91.8146C91.8472 95.773 91.9009 95.696 91.9756 95.598C92.0549 95.5 92.1669 95.4137 92.3116 95.339C92.4562 95.2597 92.6382 95.22 92.8576 95.22C93.1282 95.22 93.3592 95.283 93.5506 95.409C93.7419 95.5303 93.8866 95.696 93.9846 95.906C94.0872 96.116 94.1386 96.3517 94.1386 96.613V99H93.4736V96.655C93.4736 96.4077 93.4036 96.2023 93.2636 96.039C93.1282 95.8757 92.9299 95.794 92.6686 95.794C92.4586 95.794 92.2882 95.8477 92.1576 95.955C92.0269 96.0577 91.9289 96.1953 91.8636 96.368C91.8029 96.536 91.7726 96.7157 91.7726 96.907V99H91.1076ZM94.8403 99L94.8473 93.68H95.5053V99H94.8403ZM96.6385 94.583C96.5125 94.583 96.4075 94.541 96.3235 94.457C96.2441 94.373 96.2045 94.2727 96.2045 94.156C96.2045 94.0347 96.2441 93.932 96.3235 93.848C96.4075 93.764 96.5125 93.722 96.6385 93.722C96.7598 93.722 96.8625 93.764 96.9465 93.848C97.0305 93.932 97.0725 94.0347 97.0725 94.156C97.0725 94.2727 97.0305 94.373 96.9465 94.457C96.8625 94.541 96.7598 94.583 96.6385 94.583ZM96.3095 99V95.29H96.9745V99H96.3095ZM99.4572 99.07C99.1538 99.07 98.8878 99.0163 98.6592 98.909C98.4305 98.797 98.2392 98.65 98.0852 98.468C97.9358 98.2813 97.8215 98.0737 97.7422 97.845C97.6675 97.6163 97.6302 97.383 97.6302 97.145C97.6302 96.907 97.6675 96.676 97.7422 96.452C97.8168 96.2233 97.9288 96.0157 98.0782 95.829C98.2322 95.6423 98.4235 95.4953 98.6522 95.388C98.8808 95.276 99.1492 95.22 99.4572 95.22C99.7558 95.22 100.003 95.2643 100.199 95.353C100.395 95.4417 100.551 95.5537 100.668 95.689C100.789 95.8197 100.878 95.9527 100.934 96.088C100.995 96.2187 101.034 96.3283 101.053 96.417C101.072 96.5057 101.081 96.55 101.081 96.55H100.437C100.437 96.55 100.425 96.5127 100.402 96.438C100.379 96.3587 100.334 96.27 100.269 96.172C100.204 96.074 100.106 95.9877 99.9752 95.913C99.8445 95.8337 99.6718 95.794 99.4572 95.794C99.2005 95.794 98.9835 95.8593 98.8062 95.99C98.6335 96.116 98.5028 96.2817 98.4142 96.487C98.3302 96.6923 98.2882 96.9117 98.2882 97.145C98.2882 97.3783 98.3302 97.5977 98.4142 97.803C98.5028 98.0083 98.6335 98.1763 98.8062 98.307C98.9835 98.433 99.2005 98.496 99.4572 98.496C99.6718 98.496 99.8445 98.4587 99.9752 98.384C100.106 98.3047 100.204 98.216 100.269 98.118C100.334 98.02 100.379 97.9337 100.402 97.859C100.425 97.7797 100.437 97.74 100.437 97.74H101.081C101.081 97.74 101.072 97.7843 101.053 97.873C101.034 97.9617 100.995 98.0737 100.934 98.209C100.878 98.3397 100.789 98.4727 100.668 98.608C100.551 98.7387 100.395 98.8483 100.199 98.937C100.003 99.0257 99.7558 99.07 99.4572 99.07ZM101.713 99V93.68H102.378V95.829H102.42C102.453 95.773 102.506 95.696 102.581 95.598C102.66 95.5 102.772 95.4137 102.917 95.339C103.062 95.2597 103.244 95.22 103.463 95.22C103.734 95.22 103.965 95.283 104.156 95.409C104.347 95.5303 104.492 95.696 104.59 95.906C104.693 96.116 104.744 96.3517 104.744 96.613V99H104.079V96.655C104.079 96.4077 104.009 96.2023 103.869 96.039C103.734 95.8757 103.535 95.794 103.274 95.794C103.064 95.794 102.894 95.8477 102.763 95.955C102.632 96.0577 102.534 96.1953 102.469 96.368C102.408 96.536 102.378 96.7157 102.378 96.907V99H101.713ZM105.444 99V93.68H106.109V96.774L107.586 95.29H108.454L106.746 96.977L108.489 99H107.642L106.109 97.215V99H105.444ZM110.28 99.07C109.976 99.07 109.713 99.0163 109.489 98.909C109.269 98.797 109.087 98.6477 108.943 98.461C108.803 98.2743 108.698 98.069 108.628 97.845C108.558 97.6163 108.523 97.383 108.523 97.145C108.523 96.9117 108.555 96.6807 108.621 96.452C108.691 96.2233 108.796 96.0157 108.936 95.829C109.08 95.6423 109.26 95.4953 109.475 95.388C109.694 95.276 109.953 95.22 110.252 95.22C110.569 95.22 110.849 95.2923 111.092 95.437C111.334 95.5817 111.526 95.7963 111.666 96.081C111.806 96.3657 111.876 96.7227 111.876 97.152V97.348H109.195C109.209 97.558 109.258 97.7517 109.342 97.929C109.43 98.1017 109.554 98.2417 109.713 98.349C109.871 98.4517 110.06 98.503 110.28 98.503C110.471 98.503 110.625 98.4727 110.742 98.412C110.863 98.3467 110.959 98.272 111.029 98.188C111.099 98.104 111.145 98.0317 111.169 97.971C111.197 97.9057 111.211 97.873 111.211 97.873H111.834C111.834 97.873 111.822 97.915 111.799 97.999C111.775 98.0783 111.733 98.1763 111.673 98.293C111.612 98.4097 111.523 98.5287 111.407 98.65C111.29 98.7667 111.141 98.867 110.959 98.951C110.777 99.0303 110.55 99.07 110.28 99.07ZM109.202 96.83H111.225C111.215 96.5873 111.164 96.3913 111.071 96.242C110.977 96.088 110.858 95.9737 110.714 95.899C110.569 95.8243 110.415 95.787 110.252 95.787C109.958 95.787 109.717 95.8827 109.531 96.074C109.344 96.2607 109.234 96.5127 109.202 96.83ZM112.867 94.583C112.741 94.583 112.636 94.541 112.552 94.457C112.473 94.373 112.433 94.2727 112.433 94.156C112.433 94.0347 112.473 93.932 112.552 93.848C112.636 93.764 112.741 93.722 112.867 93.722C112.988 93.722 113.091 93.764 113.175 93.848C113.259 93.932 113.301 94.0347 113.301 94.156C113.301 94.2727 113.259 94.373 113.175 94.457C113.091 94.541 112.988 94.583 112.867 94.583ZM112.538 99V95.29H113.203V99H112.538ZM115.504 99.07C115.121 99.07 114.832 98.972 114.636 98.776C114.444 98.58 114.349 98.3047 114.349 97.95V95.836H113.684V95.29H114.349V94.359H115.014V95.29H115.917V95.836H115.014V97.95C115.014 98.1367 115.065 98.2743 115.168 98.363C115.27 98.447 115.42 98.489 115.616 98.489C115.718 98.489 115.816 98.482 115.91 98.468C116.003 98.454 116.05 98.447 116.05 98.447V99.014C116.05 99.014 115.996 99.0233 115.889 99.042C115.781 99.0607 115.653 99.07 115.504 99.07ZM41.9907 110V106.29H42.6557V106.829H42.6977C42.7303 106.773 42.784 106.696 42.8587 106.598C42.938 106.5 43.05 106.414 43.1947 106.339C43.3393 106.26 43.5213 106.22 43.7407 106.22C44.0113 106.22 44.2423 106.283 44.4337 106.409C44.625 106.53 44.7697 106.696 44.8677 106.906C44.9703 107.116 45.0217 107.352 45.0217 107.613V110H44.3567V107.655C44.3567 107.408 44.2867 107.202 44.1467 107.039C44.0113 106.876 43.813 106.794 43.5517 106.794C43.3417 106.794 43.1713 106.848 43.0407 106.955C42.91 107.058 42.812 107.195 42.7467 107.368C42.686 107.536 42.6557 107.716 42.6557 107.907V110H41.9907ZM47.3404 110.07C47.037 110.07 46.7734 110.016 46.5494 109.909C46.33 109.797 46.148 109.648 46.0034 109.461C45.8634 109.274 45.7584 109.069 45.6884 108.845C45.6184 108.616 45.5834 108.383 45.5834 108.145C45.5834 107.912 45.616 107.681 45.6814 107.452C45.7514 107.223 45.8564 107.016 45.9964 106.829C46.141 106.642 46.3207 106.495 46.5354 106.388C46.7547 106.276 47.0137 106.22 47.3124 106.22C47.6297 106.22 47.9097 106.292 48.1524 106.437C48.395 106.582 48.5864 106.796 48.7264 107.081C48.8664 107.366 48.9364 107.723 48.9364 108.152V108.348H46.2554C46.2694 108.558 46.3184 108.752 46.4024 108.929C46.491 109.102 46.6147 109.242 46.7734 109.349C46.932 109.452 47.121 109.503 47.3404 109.503C47.5317 109.503 47.6857 109.473 47.8024 109.412C47.9237 109.347 48.0194 109.272 48.0894 109.188C48.1594 109.104 48.206 109.032 48.2294 108.971C48.2574 108.906 48.2714 108.873 48.2714 108.873H48.8944C48.8944 108.873 48.8827 108.915 48.8594 108.999C48.836 109.078 48.794 109.176 48.7334 109.293C48.6727 109.41 48.584 109.529 48.4674 109.65C48.3507 109.767 48.2014 109.867 48.0194 109.951C47.8374 110.03 47.611 110.07 47.3404 110.07ZM46.2624 107.83H48.2854C48.276 107.587 48.2247 107.391 48.1314 107.242C48.038 107.088 47.919 106.974 47.7744 106.899C47.6297 106.824 47.4757 106.787 47.3124 106.787C47.0184 106.787 46.778 106.883 46.5914 107.074C46.4047 107.261 46.295 107.513 46.2624 107.83ZM50.7048 110.07C50.3361 110.07 50.0421 109.956 49.8228 109.727C49.6035 109.498 49.4938 109.181 49.4938 108.775V106.29H50.1588V108.74C50.1588 108.983 50.2241 109.169 50.3548 109.3C50.4901 109.431 50.6675 109.496 50.8868 109.496C51.1108 109.496 51.2905 109.438 51.4258 109.321C51.5611 109.204 51.6591 109.055 51.7198 108.873C51.7805 108.691 51.8108 108.504 51.8108 108.313V106.29H52.4758V110H51.8108V109.468H51.7688C51.7408 109.524 51.6871 109.601 51.6078 109.699C51.5285 109.792 51.4165 109.879 51.2718 109.958C51.1271 110.033 50.9381 110.07 50.7048 110.07ZM54.7957 110.07C54.4923 110.07 54.2287 110.016 54.0047 109.909C53.7853 109.797 53.6033 109.648 53.4587 109.461C53.3187 109.274 53.2137 109.069 53.1437 108.845C53.0737 108.616 53.0387 108.383 53.0387 108.145C53.0387 107.912 53.0713 107.681 53.1367 107.452C53.2067 107.223 53.3117 107.016 53.4517 106.829C53.5963 106.642 53.776 106.495 53.9907 106.388C54.21 106.276 54.469 106.22 54.7677 106.22C55.085 106.22 55.365 106.292 55.6077 106.437C55.8503 106.582 56.0417 106.796 56.1817 107.081C56.3217 107.366 56.3917 107.723 56.3917 108.152V108.348H53.7107C53.7247 108.558 53.7737 108.752 53.8577 108.929C53.9463 109.102 54.07 109.242 54.2287 109.349C54.3873 109.452 54.5763 109.503 54.7957 109.503C54.987 109.503 55.141 109.473 55.2577 109.412C55.379 109.347 55.4747 109.272 55.5447 109.188C55.6147 109.104 55.6613 109.032 55.6847 108.971C55.7127 108.906 55.7267 108.873 55.7267 108.873H56.3497C56.3497 108.873 56.338 108.915 56.3147 108.999C56.2913 109.078 56.2493 109.176 56.1887 109.293C56.128 109.41 56.0393 109.529 55.9227 109.65C55.806 109.767 55.6567 109.867 55.4747 109.951C55.2927 110.03 55.0663 110.07 54.7957 110.07ZM53.7177 107.83H55.7407C55.7313 107.587 55.68 107.391 55.5867 107.242C55.4933 107.088 55.3743 106.974 55.2297 106.899C55.085 106.824 54.931 106.787 54.7677 106.787C54.4737 106.787 54.2333 106.883 54.0467 107.074C53.86 107.261 53.7503 107.513 53.7177 107.83ZM56.9491 110V106.29H57.6141V106.752H57.6421C57.7214 106.612 57.8381 106.488 57.9921 106.381C58.1461 106.274 58.3631 106.22 58.6431 106.22C58.7224 106.22 58.7947 106.225 58.8601 106.234C58.9254 106.239 58.9581 106.241 58.9581 106.241V106.878C58.9581 106.878 58.9207 106.876 58.8461 106.871C58.7761 106.862 58.7014 106.857 58.6221 106.857C58.3001 106.857 58.0504 106.95 57.8731 107.137C57.7004 107.319 57.6141 107.618 57.6141 108.033V110H56.9491ZM62.1506 110L60.3236 104.82H61.0516L62.5846 109.216L64.1176 104.82H64.8456L63.0116 110H62.1506ZM66.5685 110.07C66.2652 110.07 66.0015 110.016 65.7775 109.909C65.5582 109.797 65.3762 109.648 65.2315 109.461C65.0915 109.274 64.9865 109.069 64.9165 108.845C64.8465 108.616 64.8115 108.383 64.8115 108.145C64.8115 107.912 64.8442 107.681 64.9095 107.452C64.9795 107.223 65.0845 107.016 65.2245 106.829C65.3692 106.642 65.5488 106.495 65.7635 106.388C65.9828 106.276 66.2418 106.22 66.5405 106.22C66.8578 106.22 67.1378 106.292 67.3805 106.437C67.6232 106.582 67.8145 106.796 67.9545 107.081C68.0945 107.366 68.1645 107.723 68.1645 108.152V108.348H65.4835C65.4975 108.558 65.5465 108.752 65.6305 108.929C65.7192 109.102 65.8428 109.242 66.0015 109.349C66.1602 109.452 66.3492 109.503 66.5685 109.503C66.7598 109.503 66.9138 109.473 67.0305 109.412C67.1518 109.347 67.2475 109.272 67.3175 109.188C67.3875 109.104 67.4342 109.032 67.4575 108.971C67.4855 108.906 67.4995 108.873 67.4995 108.873H68.1225C68.1225 108.873 68.1108 108.915 68.0875 108.999C68.0642 109.078 68.0222 109.176 67.9615 109.293C67.9008 109.41 67.8122 109.529 67.6955 109.65C67.5788 109.767 67.4295 109.867 67.2475 109.951C67.0655 110.03 66.8392 110.07 66.5685 110.07ZM65.4905 107.83H67.5135C67.5042 107.587 67.4528 107.391 67.3595 107.242C67.2662 107.088 67.1472 106.974 67.0025 106.899C66.8578 106.824 66.7038 106.787 66.5405 106.787C66.2465 106.787 66.0062 106.883 65.8195 107.074C65.6328 107.261 65.5232 107.513 65.4905 107.83ZM68.7219 110V106.29H69.3869V106.752H69.4149C69.4943 106.612 69.6109 106.488 69.7649 106.381C69.9189 106.274 70.1359 106.22 70.4159 106.22C70.4953 106.22 70.5676 106.225 70.6329 106.234C70.6983 106.239 70.7309 106.241 70.7309 106.241V106.878C70.7309 106.878 70.6936 106.876 70.6189 106.871C70.5489 106.862 70.4743 106.857 70.3949 106.857C70.0729 106.857 69.8233 106.95 69.6459 107.137C69.4733 107.319 69.3869 107.618 69.3869 108.033V110H68.7219ZM72.6881 110.07C72.3055 110.07 72.0161 109.972 71.8201 109.776C71.6288 109.58 71.5331 109.305 71.5331 108.95V106.836H70.8681V106.29H71.5331V105.359H72.1981V106.29H73.1011V106.836H72.1981V108.95C72.1981 109.137 72.2495 109.274 72.3521 109.363C72.4548 109.447 72.6041 109.489 72.8001 109.489C72.9028 109.489 73.0008 109.482 73.0941 109.468C73.1875 109.454 73.2341 109.447 73.2341 109.447V110.014C73.2341 110.014 73.1805 110.023 73.0731 110.042C72.9658 110.061 72.8375 110.07 72.6881 110.07ZM73.7573 110V106.29H74.4223V106.752H74.4503C74.5296 106.612 74.6463 106.488 74.8003 106.381C74.9543 106.274 75.1713 106.22 75.4513 106.22C75.5306 106.22 75.603 106.225 75.6683 106.234C75.7336 106.239 75.7663 106.241 75.7663 106.241V106.878C75.7663 106.878 75.729 106.876 75.6543 106.871C75.5843 106.862 75.5096 106.857 75.4303 106.857C75.1083 106.857 74.8586 106.95 74.6813 107.137C74.5086 107.319 74.4223 107.618 74.4223 108.033V110H73.7573ZM76.7192 105.583C76.5932 105.583 76.4882 105.541 76.4042 105.457C76.3249 105.373 76.2852 105.273 76.2852 105.156C76.2852 105.035 76.3249 104.932 76.4042 104.848C76.4882 104.764 76.5932 104.722 76.7192 104.722C76.8405 104.722 76.9432 104.764 77.0272 104.848C77.1112 104.932 77.1532 105.035 77.1532 105.156C77.1532 105.273 77.1112 105.373 77.0272 105.457C76.9432 105.541 76.8405 105.583 76.7192 105.583ZM76.3902 110V106.29H77.0552V110H76.3902ZM79.4679 110.07C79.1646 110.07 78.9009 110.016 78.6769 109.909C78.4576 109.797 78.2756 109.648 78.1309 109.461C77.9909 109.274 77.8859 109.069 77.8159 108.845C77.7459 108.616 77.7109 108.383 77.7109 108.145C77.7109 107.912 77.7436 107.681 77.8089 107.452C77.8789 107.223 77.9839 107.016 78.1239 106.829C78.2686 106.642 78.4482 106.495 78.6629 106.388C78.8822 106.276 79.1412 106.22 79.4399 106.22C79.7572 106.22 80.0372 106.292 80.2799 106.437C80.5226 106.582 80.7139 106.796 80.8539 107.081C80.9939 107.366 81.0639 107.723 81.0639 108.152V108.348H78.3829C78.3969 108.558 78.4459 108.752 78.5299 108.929C78.6186 109.102 78.7422 109.242 78.9009 109.349C79.0596 109.452 79.2486 109.503 79.4679 109.503C79.6592 109.503 79.8132 109.473 79.9299 109.412C80.0512 109.347 80.1469 109.272 80.2169 109.188C80.2869 109.104 80.3336 109.032 80.3569 108.971C80.3849 108.906 80.3989 108.873 80.3989 108.873H81.0219C81.0219 108.873 81.0103 108.915 80.9869 108.999C80.9636 109.078 80.9216 109.176 80.8609 109.293C80.8002 109.41 80.7116 109.529 80.5949 109.65C80.4782 109.767 80.3289 109.867 80.1469 109.951C79.9649 110.03 79.7386 110.07 79.4679 110.07ZM78.3899 107.83H80.4129C80.4036 107.587 80.3522 107.391 80.2589 107.242C80.1656 107.088 80.0466 106.974 79.9019 106.899C79.7572 106.824 79.6032 106.787 79.4399 106.787C79.1459 106.787 78.9056 106.883 78.7189 107.074C78.5322 107.261 78.4226 107.513 78.3899 107.83ZM83.5953 110.07C83.362 110.07 83.166 110.033 83.0073 109.958C82.8487 109.883 82.7203 109.795 82.6223 109.692C82.529 109.589 82.4543 109.496 82.3983 109.412H82.3563V110H81.6913V104.68H82.3563V106.878H82.3983C82.4543 106.789 82.529 106.694 82.6223 106.591C82.7203 106.488 82.8487 106.402 83.0073 106.332C83.166 106.257 83.362 106.22 83.5953 106.22C83.8753 106.22 84.1203 106.276 84.3303 106.388C84.5403 106.495 84.7153 106.642 84.8553 106.829C84.9953 107.011 85.1003 107.216 85.1703 107.445C85.2403 107.674 85.2753 107.907 85.2753 108.145C85.2753 108.383 85.2403 108.616 85.1703 108.845C85.1003 109.074 84.9953 109.281 84.8553 109.468C84.7153 109.65 84.5403 109.797 84.3303 109.909C84.1203 110.016 83.8753 110.07 83.5953 110.07ZM83.4833 109.503C83.7353 109.503 83.943 109.438 84.1063 109.307C84.2743 109.172 84.398 109.001 84.4773 108.796C84.5613 108.586 84.6033 108.369 84.6033 108.145C84.6033 107.916 84.5613 107.699 84.4773 107.494C84.398 107.289 84.2743 107.121 84.1063 106.99C83.943 106.855 83.7353 106.787 83.4833 106.787C83.236 106.787 83.0283 106.855 82.8603 106.99C82.697 107.121 82.5733 107.289 82.4893 107.494C82.41 107.699 82.3703 107.916 82.3703 108.145C82.3703 108.369 82.41 108.586 82.4893 108.796C82.5733 109.001 82.697 109.172 82.8603 109.307C83.0283 109.438 83.236 109.503 83.4833 109.503ZM87.1958 110.07C86.9111 110.07 86.6754 110.03 86.4888 109.951C86.3068 109.872 86.1621 109.774 86.0548 109.657C85.9474 109.536 85.8681 109.417 85.8168 109.3C85.7654 109.179 85.7328 109.078 85.7188 108.999C85.7048 108.92 85.6978 108.88 85.6978 108.88H86.3698C86.3698 108.88 86.3768 108.913 86.3908 108.978C86.4094 109.039 86.4444 109.111 86.4958 109.195C86.5518 109.274 86.6358 109.347 86.7478 109.412C86.8644 109.473 87.0184 109.503 87.2098 109.503C87.4291 109.503 87.5994 109.452 87.7208 109.349C87.8421 109.242 87.9028 109.111 87.9028 108.957C87.9028 108.822 87.8538 108.714 87.7558 108.635C87.6624 108.556 87.5271 108.495 87.3498 108.453L86.8458 108.334C86.6591 108.287 86.4841 108.224 86.3208 108.145C86.1574 108.066 86.0244 107.958 85.9218 107.823C85.8238 107.683 85.7748 107.51 85.7748 107.305C85.7748 106.988 85.8938 106.729 86.1318 106.528C86.3698 106.323 86.6801 106.22 87.0628 106.22C87.3194 106.22 87.5318 106.257 87.6998 106.332C87.8678 106.402 88.0008 106.491 88.0988 106.598C88.2014 106.705 88.2761 106.813 88.3228 106.92C88.3741 107.027 88.4068 107.118 88.4208 107.193C88.4348 107.263 88.4418 107.298 88.4418 107.298H87.7978C87.7978 107.298 87.7908 107.272 87.7768 107.221C87.7628 107.165 87.7301 107.104 87.6788 107.039C87.6321 106.969 87.5598 106.908 87.4618 106.857C87.3638 106.801 87.2331 106.773 87.0698 106.773C86.8458 106.773 86.6824 106.824 86.5798 106.927C86.4771 107.03 86.4258 107.142 86.4258 107.263C86.4258 107.38 86.4724 107.475 86.5658 107.55C86.6638 107.62 86.7898 107.674 86.9438 107.711L87.4548 107.83C87.7721 107.905 88.0334 108.028 88.2388 108.201C88.4488 108.369 88.5538 108.612 88.5538 108.929C88.5538 109.134 88.5001 109.326 88.3928 109.503C88.2854 109.676 88.1314 109.813 87.9308 109.916C87.7301 110.019 87.4851 110.07 87.1958 110.07ZM89.1124 111.372V106.29H89.7774V106.878H89.8194C89.8754 106.789 89.9501 106.694 90.0434 106.591C90.1414 106.488 90.2698 106.402 90.4284 106.332C90.5871 106.257 90.7831 106.22 91.0164 106.22C91.2964 106.22 91.5414 106.276 91.7514 106.388C91.9614 106.495 92.1364 106.642 92.2764 106.829C92.4164 107.011 92.5214 107.216 92.5914 107.445C92.6614 107.674 92.6964 107.907 92.6964 108.145C92.6964 108.383 92.6614 108.616 92.5914 108.845C92.5214 109.074 92.4164 109.281 92.2764 109.468C92.1364 109.65 91.9614 109.797 91.7514 109.909C91.5414 110.016 91.2964 110.07 91.0164 110.07C90.7831 110.07 90.5871 110.033 90.4284 109.958C90.2698 109.883 90.1414 109.795 90.0434 109.692C89.9501 109.589 89.8754 109.496 89.8194 109.412H89.7774V111.372H89.1124ZM89.7914 108.145C89.7914 108.369 89.8311 108.586 89.9104 108.796C89.9944 109.001 90.1181 109.172 90.2814 109.307C90.4494 109.438 90.6571 109.503 90.9044 109.503C91.1564 109.503 91.3641 109.438 91.5274 109.307C91.6954 109.172 91.8191 109.001 91.8984 108.796C91.9824 108.586 92.0244 108.369 92.0244 108.145C92.0244 107.916 91.9824 107.699 91.8984 107.494C91.8191 107.289 91.6954 107.121 91.5274 106.99C91.3641 106.855 91.1564 106.787 90.9044 106.787C90.6571 106.787 90.4494 106.855 90.2814 106.99C90.1181 107.121 89.9944 107.289 89.9104 107.494C89.8311 107.699 89.7914 107.916 89.7914 108.145ZM94.8347 106.22C95.068 106.22 95.264 106.257 95.4227 106.332C95.5813 106.407 95.7097 106.495 95.8077 106.598C95.9057 106.696 95.9803 106.789 96.0317 106.878H96.0737V106.29H96.7387V110H96.0737V109.412H96.0317C95.9803 109.501 95.9057 109.596 95.8077 109.699C95.7097 109.802 95.5813 109.89 95.4227 109.965C95.264 110.035 95.068 110.07 94.8347 110.07C94.5547 110.07 94.3097 110.016 94.0997 109.909C93.8897 109.797 93.7147 109.65 93.5747 109.468C93.4347 109.281 93.3297 109.074 93.2597 108.845C93.1897 108.616 93.1547 108.383 93.1547 108.145C93.1547 107.907 93.1897 107.674 93.2597 107.445C93.3297 107.216 93.4347 107.011 93.5747 106.829C93.7147 106.642 93.8897 106.495 94.0997 106.388C94.3097 106.276 94.5547 106.22 94.8347 106.22ZM94.9467 106.787C94.6993 106.787 94.4917 106.855 94.3237 106.99C94.1557 107.121 94.0297 107.289 93.9457 107.494C93.8663 107.699 93.8267 107.916 93.8267 108.145C93.8267 108.369 93.8663 108.586 93.9457 108.796C94.0297 109.001 94.1557 109.172 94.3237 109.307C94.4917 109.438 94.6993 109.503 94.9467 109.503C95.194 109.503 95.3993 109.438 95.5627 109.307C95.7307 109.172 95.8543 109.001 95.9337 108.796C96.0177 108.586 96.0597 108.369 96.0597 108.145C96.0597 107.916 96.0177 107.699 95.9337 107.494C95.8543 107.289 95.7307 107.121 95.5627 106.99C95.3993 106.855 95.194 106.787 94.9467 106.787ZM97.3659 110V106.29H98.0309V106.752H98.0589C98.1382 106.612 98.2549 106.488 98.4089 106.381C98.5629 106.274 98.7799 106.22 99.0599 106.22C99.1392 106.22 99.2115 106.225 99.2769 106.234C99.3422 106.239 99.3749 106.241 99.3749 106.241V106.878C99.3749 106.878 99.3375 106.876 99.2629 106.871C99.1929 106.862 99.1182 106.857 99.0389 106.857C98.7169 106.857 98.4672 106.95 98.2899 107.137C98.1172 107.319 98.0309 107.618 98.0309 108.033V110H97.3659ZM101.332 110.07C100.949 110.07 100.66 109.972 100.464 109.776C100.273 109.58 100.177 109.305 100.177 108.95V106.836H99.5121V106.29H100.177V105.359H100.842V106.29H101.745V106.836H100.842V108.95C100.842 109.137 100.893 109.274 100.996 109.363C101.099 109.447 101.248 109.489 101.444 109.489C101.547 109.489 101.645 109.482 101.738 109.468C101.831 109.454 101.878 109.447 101.878 109.447V110.014C101.878 110.014 101.824 110.023 101.717 110.042C101.61 110.061 101.481 110.07 101.332 110.07ZM102.401 110V106.29H103.066V106.829H103.108C103.141 106.773 103.195 106.696 103.269 106.598C103.349 106.5 103.461 106.414 103.605 106.339C103.75 106.26 103.932 106.22 104.151 106.22C104.422 106.22 104.653 106.283 104.844 106.409C105.036 106.53 105.18 106.696 105.278 106.906C105.381 107.116 105.432 107.352 105.432 107.613V110H104.767V107.655C104.767 107.408 104.697 107.202 104.557 107.039C104.422 106.876 104.224 106.794 103.962 106.794C103.752 106.794 103.582 106.848 103.451 106.955C103.321 107.058 103.223 107.195 103.157 107.368C103.097 107.536 103.066 107.716 103.066 107.907V110H102.401ZM107.751 110.07C107.448 110.07 107.184 110.016 106.96 109.909C106.741 109.797 106.559 109.648 106.414 109.461C106.274 109.274 106.169 109.069 106.099 108.845C106.029 108.616 105.994 108.383 105.994 108.145C105.994 107.912 106.027 107.681 106.092 107.452C106.162 107.223 106.267 107.016 106.407 106.829C106.552 106.642 106.731 106.495 106.946 106.388C107.165 106.276 107.424 106.22 107.723 106.22C108.04 106.22 108.32 106.292 108.563 106.437C108.806 106.582 108.997 106.796 109.137 107.081C109.277 107.366 109.347 107.723 109.347 108.152V108.348H106.666C106.68 108.558 106.729 108.752 106.813 108.929C106.902 109.102 107.025 109.242 107.184 109.349C107.343 109.452 107.532 109.503 107.751 109.503C107.942 109.503 108.096 109.473 108.213 109.412C108.334 109.347 108.43 109.272 108.5 109.188C108.57 109.104 108.617 109.032 108.64 108.971C108.668 108.906 108.682 108.873 108.682 108.873H109.305C109.305 108.873 109.293 108.915 109.27 108.999C109.247 109.078 109.205 109.176 109.144 109.293C109.083 109.41 108.995 109.529 108.878 109.65C108.761 109.767 108.612 109.867 108.43 109.951C108.248 110.03 108.022 110.07 107.751 110.07ZM106.673 107.83H108.696C108.687 107.587 108.635 107.391 108.542 107.242C108.449 107.088 108.33 106.974 108.185 106.899C108.04 106.824 107.886 106.787 107.723 106.787C107.429 106.787 107.189 106.883 107.002 107.074C106.815 107.261 106.706 107.513 106.673 107.83ZM109.904 110V106.29H110.569V106.752H110.597C110.677 106.612 110.793 106.488 110.947 106.381C111.101 106.274 111.318 106.22 111.598 106.22C111.678 106.22 111.75 106.225 111.815 106.234C111.881 106.239 111.913 106.241 111.913 106.241V106.878C111.913 106.878 111.876 106.876 111.801 106.871C111.731 106.862 111.657 106.857 111.577 106.857C111.255 106.857 111.006 106.95 110.828 107.137C110.656 107.319 110.569 107.618 110.569 108.033V110H109.904Z" fill="white"/>
<ellipse cx="76.3268" cy="77" rx="70.5" ry="71" transform="rotate(4.91846 76.3268 77)" stroke="#D9D9D9" stroke-width="10"/>
<path d="M126.912 126C137.746 114.685 144.944 99.6984 146.395 82.8276C149.757 43.7598 121.035 9.38282 82.2424 6.04452C80.595 5.90276 78.9559 5.81925 77.3272 5.79229" stroke="#FFDD5E" stroke-width="10" stroke-linecap="round"/>
</svg>
