<svg width="152" height="151" viewBox="0 0 152 151" fill="none" xmlns="http://www.w3.org/2000/svg">
<path d="M48.836 86V81.716L53.012 78.296C55.028 76.664 56.732 75.284 58.124 74.156C59.54 73.028 60.62 71.996 61.364 71.06C62.108 70.1 62.48 69.08 62.48 68C62.48 67.208 62.288 66.548 61.904 66.02C61.52 65.468 61.04 65.06 60.464 64.796C59.888 64.532 59.288 64.4 58.664 64.4C57.776 64.4 57.032 64.604 56.432 65.012C55.856 65.42 55.412 65.948 55.1 66.596C54.812 67.244 54.668 67.916 54.668 68.612H48.692C48.692 66.836 49.112 65.228 49.952 63.788C50.792 62.324 51.968 61.16 53.48 60.296C55.016 59.432 56.804 59 58.844 59C60.668 59 62.324 59.36 63.812 60.08C65.3 60.776 66.488 61.772 67.376 63.068C68.264 64.34 68.708 65.84 68.708 67.568C68.708 69.2 68.3 70.688 67.484 72.032C66.692 73.376 65.552 74.684 64.064 75.956C62.6 77.204 60.872 78.56 58.88 80.024L58.16 80.6H69.032V86H48.836ZM71.658 77.18V72.356H85.158V77.18H71.658ZM98.1701 86.36C96.2021 86.36 94.5701 86.108 93.2741 85.604C92.0021 85.1 90.9941 84.464 90.2501 83.696C89.5061 82.904 88.9541 82.1 88.5941 81.284C88.2341 80.468 88.0061 79.736 87.9101 79.088C87.8141 78.44 87.7661 78.008 87.7661 77.792H93.6701C93.6701 77.96 93.7181 78.236 93.8141 78.62C93.9101 79.004 94.1021 79.4 94.3901 79.808C94.6781 80.192 95.1101 80.528 95.6861 80.816C96.2861 81.104 97.0781 81.248 98.0621 81.248C99.3101 81.248 100.306 80.948 101.05 80.348C101.818 79.748 102.202 78.98 102.202 78.044C102.202 77.18 101.866 76.436 101.194 75.812C100.546 75.188 99.5741 74.876 98.2781 74.876H94.6781V70.088H98.3501C99.4541 70.088 100.306 69.8 100.906 69.224C101.53 68.624 101.842 67.928 101.842 67.136C101.842 66.272 101.494 65.552 100.798 64.976C100.102 64.376 99.1901 64.076 98.0621 64.076C97.1981 64.076 96.4901 64.232 95.9381 64.544C95.4101 64.856 95.0021 65.228 94.7141 65.66C94.4501 66.092 94.2701 66.512 94.1741 66.92C94.0781 67.304 94.0301 67.58 94.0301 67.748H88.2701C88.2701 67.532 88.3181 67.1 88.4141 66.452C88.5341 65.78 88.7621 65.024 89.0981 64.184C89.4341 63.344 89.9621 62.528 90.6821 61.736C91.4021 60.944 92.3621 60.296 93.5621 59.792C94.7621 59.264 96.2861 59 98.1341 59C99.4061 59 100.618 59.168 101.77 59.504C102.946 59.84 104.002 60.332 104.938 60.98C105.874 61.628 106.606 62.42 107.134 63.356C107.686 64.292 107.962 65.348 107.962 66.524C107.962 67.652 107.734 68.612 107.278 69.404C106.822 70.196 106.258 70.844 105.586 71.348C104.938 71.828 104.326 72.152 103.75 72.32V72.572C104.542 72.86 105.298 73.256 106.018 73.76C106.738 74.264 107.314 74.9 107.746 75.668C108.202 76.436 108.43 77.36 108.43 78.44C108.43 80.12 107.95 81.548 106.99 82.724C106.054 83.9 104.806 84.8 103.246 85.424C101.686 86.048 99.9941 86.36 98.1701 86.36Z" fill="white"/>
<path d="M36.56 99V93.82H39.85V94.422H37.246V96.06H39.528V96.662H37.246V98.398H39.885V99H36.56ZM40.6208 99V95.29H41.2858V95.829H41.3138C41.3512 95.759 41.4095 95.6773 41.4888 95.584C41.5682 95.486 41.6755 95.402 41.8108 95.332C41.9508 95.2573 42.1258 95.22 42.3358 95.22C42.6112 95.22 42.8422 95.2877 43.0288 95.423C43.2202 95.5537 43.3625 95.731 43.4558 95.955H43.4628C43.5655 95.7497 43.7102 95.577 43.8968 95.437C44.0882 95.2923 44.3355 95.22 44.6388 95.22C45.0402 95.22 45.3482 95.3577 45.5628 95.633C45.7822 95.9037 45.8918 96.2537 45.8918 96.683V99H45.2268V96.718C45.2268 96.4427 45.1615 96.221 45.0308 96.053C44.9002 95.8803 44.7112 95.794 44.4638 95.794C44.2492 95.794 44.0765 95.8523 43.9458 95.969C43.8198 96.0857 43.7288 96.2303 43.6728 96.403C43.6168 96.5757 43.5888 96.7483 43.5888 96.921V99H42.9238V96.718C42.9238 96.4427 42.8585 96.221 42.7278 96.053C42.6018 95.8803 42.4128 95.794 42.1608 95.794C41.9462 95.794 41.7735 95.8523 41.6428 95.969C41.5168 96.0857 41.4258 96.2327 41.3698 96.41C41.3138 96.5827 41.2858 96.753 41.2858 96.921V99H40.6208ZM46.7289 100.372V95.29H47.3939V95.878H47.4359C47.4919 95.7893 47.5665 95.6937 47.6599 95.591C47.7579 95.4883 47.8862 95.402 48.0449 95.332C48.2035 95.2573 48.3995 95.22 48.6329 95.22C48.9129 95.22 49.1579 95.276 49.3679 95.388C49.5779 95.4953 49.7529 95.6423 49.8929 95.829C50.0329 96.011 50.1379 96.2163 50.2079 96.445C50.2779 96.6737 50.3129 96.907 50.3129 97.145C50.3129 97.383 50.2779 97.6163 50.2079 97.845C50.1379 98.0737 50.0329 98.2813 49.8929 98.468C49.7529 98.65 49.5779 98.797 49.3679 98.909C49.1579 99.0163 48.9129 99.07 48.6329 99.07C48.3995 99.07 48.2035 99.0327 48.0449 98.958C47.8862 98.8833 47.7579 98.7947 47.6599 98.692C47.5665 98.5893 47.4919 98.496 47.4359 98.412H47.3939V100.372H46.7289ZM47.4079 97.145C47.4079 97.369 47.4475 97.586 47.5269 97.796C47.6109 98.0013 47.7345 98.1717 47.8979 98.307C48.0659 98.4377 48.2735 98.503 48.5209 98.503C48.7729 98.503 48.9805 98.4377 49.1439 98.307C49.3119 98.1717 49.4355 98.0013 49.5149 97.796C49.5989 97.586 49.6409 97.369 49.6409 97.145C49.6409 96.9163 49.5989 96.6993 49.5149 96.494C49.4355 96.2887 49.3119 96.1207 49.1439 95.99C48.9805 95.8547 48.7729 95.787 48.5209 95.787C48.2735 95.787 48.0659 95.8547 47.8979 95.99C47.7345 96.1207 47.6109 96.2887 47.5269 96.494C47.4475 96.6993 47.4079 96.9163 47.4079 97.145ZM51.4493 99V95.836H50.8403V95.29H51.4493V94.835C51.4493 94.639 51.4843 94.4477 51.5543 94.261C51.6243 94.0697 51.7409 93.9133 51.9043 93.792C52.0676 93.6707 52.2893 93.61 52.5693 93.61C52.7046 93.61 52.8119 93.6217 52.8913 93.645C52.9753 93.6637 53.0173 93.673 53.0173 93.673V94.198C53.0173 94.198 52.9799 94.191 52.9053 94.177C52.8353 94.1583 52.7536 94.149 52.6603 94.149C52.4456 94.149 52.3009 94.2143 52.2263 94.345C52.1516 94.4757 52.1143 94.639 52.1143 94.835V95.29H52.9753V95.836H52.1143V99H51.4493ZM54.9806 99.07C54.6772 99.07 54.4136 99.0163 54.1896 98.909C53.9702 98.797 53.7882 98.6477 53.6436 98.461C53.5036 98.2743 53.3986 98.069 53.3286 97.845C53.2586 97.6163 53.2236 97.383 53.2236 97.145C53.2236 96.9117 53.2562 96.6807 53.3216 96.452C53.3916 96.2233 53.4966 96.0157 53.6366 95.829C53.7812 95.6423 53.9609 95.4953 54.1756 95.388C54.3949 95.276 54.6539 95.22 54.9526 95.22C55.2699 95.22 55.5499 95.2923 55.7926 95.437C56.0352 95.5817 56.2266 95.7963 56.3666 96.081C56.5066 96.3657 56.5766 96.7227 56.5766 97.152V97.348H53.8956C53.9096 97.558 53.9586 97.7517 54.0426 97.929C54.1312 98.1017 54.2549 98.2417 54.4136 98.349C54.5722 98.4517 54.7612 98.503 54.9806 98.503C55.1719 98.503 55.3259 98.4727 55.4426 98.412C55.5639 98.3467 55.6596 98.272 55.7296 98.188C55.7996 98.104 55.8462 98.0317 55.8696 97.971C55.8976 97.9057 55.9116 97.873 55.9116 97.873H56.5346C56.5346 97.873 56.5229 97.915 56.4996 97.999C56.4762 98.0783 56.4342 98.1763 56.3736 98.293C56.3129 98.4097 56.2242 98.5287 56.1076 98.65C55.9909 98.7667 55.8416 98.867 55.6596 98.951C55.4776 99.0303 55.2512 99.07 54.9806 99.07ZM53.9026 96.83H55.9256C55.9162 96.5873 55.8649 96.3913 55.7716 96.242C55.6782 96.088 55.5592 95.9737 55.4146 95.899C55.2699 95.8243 55.1159 95.787 54.9526 95.787C54.6586 95.787 54.4182 95.8827 54.2316 96.074C54.0449 96.2607 53.9352 96.5127 53.9026 96.83ZM57.344 99V93.68H58.009V95.829H58.051C58.0837 95.773 58.1373 95.696 58.212 95.598C58.2913 95.5 58.4033 95.4137 58.548 95.339C58.6927 95.2597 58.8747 95.22 59.094 95.22C59.3647 95.22 59.5957 95.283 59.787 95.409C59.9783 95.5303 60.123 95.696 60.221 95.906C60.3237 96.116 60.375 96.3517 60.375 96.613V99H59.71V96.655C59.71 96.4077 59.64 96.2023 59.5 96.039C59.3647 95.8757 59.1663 95.794 58.905 95.794C58.695 95.794 58.5247 95.8477 58.394 95.955C58.2633 96.0577 58.1653 96.1953 58.1 96.368C58.0393 96.536 58.009 96.7157 58.009 96.907V99H57.344ZM61.215 99L61.222 93.68H61.88V99H61.215ZM63.9302 99.07C63.5616 99.07 63.2676 98.9557 63.0482 98.727C62.8289 98.4983 62.7192 98.181 62.7192 97.775V95.29H63.3842V97.74C63.3842 97.9827 63.4496 98.1693 63.5802 98.3C63.7156 98.4307 63.8929 98.496 64.1122 98.496C64.3362 98.496 64.5159 98.4377 64.6512 98.321C64.7866 98.2043 64.8846 98.055 64.9452 97.873C65.0059 97.691 65.0362 97.5043 65.0362 97.313V95.29H65.7012V99H65.0362V98.468H64.9942C64.9662 98.524 64.9126 98.601 64.8332 98.699C64.7539 98.7923 64.6419 98.8787 64.4972 98.958C64.3526 99.0327 64.1636 99.07 63.9302 99.07ZM66.4741 99V95.29H67.1391V95.829H67.1811C67.2137 95.773 67.2674 95.696 67.3421 95.598C67.4214 95.5 67.5334 95.4137 67.6781 95.339C67.8227 95.2597 68.0047 95.22 68.2241 95.22C68.4947 95.22 68.7257 95.283 68.9171 95.409C69.1084 95.5303 69.2531 95.696 69.3511 95.906C69.4537 96.116 69.5051 96.3517 69.5051 96.613V99H68.8401V96.655C68.8401 96.4077 68.7701 96.2023 68.6301 96.039C68.4947 95.8757 68.2964 95.794 68.0351 95.794C67.8251 95.794 67.6547 95.8477 67.5241 95.955C67.3934 96.0577 67.2954 96.1953 67.2301 96.368C67.1694 96.536 67.1391 96.7157 67.1391 96.907V99H66.4741ZM72.0618 100.47C71.7538 100.47 71.4971 100.428 71.2918 100.344C71.0864 100.265 70.9208 100.162 70.7948 100.036C70.6734 99.9147 70.5824 99.7933 70.5218 99.672C70.4611 99.5507 70.4214 99.448 70.4028 99.364C70.3841 99.2847 70.3748 99.245 70.3748 99.245H71.0398C71.0398 99.245 71.0514 99.2777 71.0748 99.343C71.0981 99.4083 71.1424 99.483 71.2078 99.567C71.2778 99.651 71.3804 99.7257 71.5158 99.791C71.6511 99.8563 71.8331 99.889 72.0618 99.889C72.3324 99.889 72.5448 99.8353 72.6988 99.728C72.8528 99.6253 72.9624 99.49 73.0278 99.322C73.0978 99.154 73.1328 98.9767 73.1328 98.79V98.363H73.0978C73.0511 98.4423 72.9764 98.5333 72.8738 98.636C72.7758 98.734 72.6451 98.8203 72.4818 98.895C72.3184 98.965 72.1178 99 71.8798 99C71.5998 99 71.3548 98.9463 71.1448 98.839C70.9348 98.7317 70.7598 98.587 70.6198 98.405C70.4844 98.223 70.3818 98.02 70.3118 97.796C70.2418 97.572 70.2068 97.3433 70.2068 97.11C70.2068 96.8767 70.2418 96.648 70.3118 96.424C70.3818 96.2 70.4844 95.997 70.6198 95.815C70.7598 95.633 70.9348 95.4883 71.1448 95.381C71.3548 95.2737 71.5998 95.22 71.8798 95.22C72.1178 95.22 72.3184 95.2573 72.4818 95.332C72.6451 95.402 72.7758 95.486 72.8738 95.584C72.9764 95.682 73.0511 95.773 73.0978 95.857H73.1328V95.29H73.7978V98.783C73.7978 99.301 73.6461 99.7117 73.3428 100.015C73.0441 100.318 72.6171 100.47 72.0618 100.47ZM72.0058 98.433C72.2531 98.433 72.4584 98.37 72.6218 98.244C72.7898 98.1133 72.9134 97.9477 72.9928 97.747C73.0768 97.5463 73.1188 97.334 73.1188 97.11C73.1188 96.886 73.0768 96.6737 72.9928 96.473C72.9134 96.2677 72.7898 96.102 72.6218 95.976C72.4584 95.85 72.2531 95.787 72.0058 95.787C71.7584 95.787 71.5508 95.85 71.3828 95.976C71.2148 96.102 71.0888 96.2677 71.0048 96.473C70.9254 96.6737 70.8858 96.886 70.8858 97.11C70.8858 97.334 70.9254 97.5463 71.0048 97.747C71.0888 97.9477 71.2148 98.1133 71.3828 98.244C71.5508 98.37 71.7584 98.433 72.0058 98.433ZM76.1151 99.07C75.8118 99.07 75.5481 99.0163 75.3241 98.909C75.1048 98.797 74.9228 98.6477 74.7781 98.461C74.6381 98.2743 74.5331 98.069 74.4631 97.845C74.3931 97.6163 74.3581 97.383 74.3581 97.145C74.3581 96.9117 74.3908 96.6807 74.4561 96.452C74.5261 96.2233 74.6311 96.0157 74.7711 95.829C74.9158 95.6423 75.0954 95.4953 75.3101 95.388C75.5294 95.276 75.7884 95.22 76.0871 95.22C76.4044 95.22 76.6844 95.2923 76.9271 95.437C77.1698 95.5817 77.3611 95.7963 77.5011 96.081C77.6411 96.3657 77.7111 96.7227 77.7111 97.152V97.348H75.0301C75.0441 97.558 75.0931 97.7517 75.1771 97.929C75.2658 98.1017 75.3894 98.2417 75.5481 98.349C75.7068 98.4517 75.8958 98.503 76.1151 98.503C76.3064 98.503 76.4604 98.4727 76.5771 98.412C76.6984 98.3467 76.7941 98.272 76.8641 98.188C76.9341 98.104 76.9808 98.0317 77.0041 97.971C77.0321 97.9057 77.0461 97.873 77.0461 97.873H77.6691C77.6691 97.873 77.6574 97.915 77.6341 97.999C77.6108 98.0783 77.5688 98.1763 77.5081 98.293C77.4474 98.4097 77.3588 98.5287 77.2421 98.65C77.1254 98.7667 76.9761 98.867 76.7941 98.951C76.6121 99.0303 76.3858 99.07 76.1151 99.07ZM75.0371 96.83H77.0601C77.0508 96.5873 76.9994 96.3913 76.9061 96.242C76.8128 96.088 76.6938 95.9737 76.5491 95.899C76.4044 95.8243 76.2504 95.787 76.0871 95.787C75.7931 95.787 75.5528 95.8827 75.3661 96.074C75.1794 96.2607 75.0698 96.5127 75.0371 96.83ZM78.4085 99V95.29H79.0735V95.829H79.1155C79.1482 95.773 79.2018 95.696 79.2765 95.598C79.3558 95.5 79.4678 95.4137 79.6125 95.339C79.7572 95.2597 79.9392 95.22 80.1585 95.22C80.4292 95.22 80.6602 95.283 80.8515 95.409C81.0428 95.5303 81.1875 95.696 81.2855 95.906C81.3882 96.116 81.4395 96.3517 81.4395 96.613V99H80.7745V96.655C80.7745 96.4077 80.7045 96.2023 80.5645 96.039C80.4292 95.8757 80.2308 95.794 79.9695 95.794C79.7595 95.794 79.5892 95.8477 79.4585 95.955C79.3278 96.0577 79.2298 96.1953 79.1645 96.368C79.1038 96.536 79.0735 96.7157 79.0735 96.907V99H78.4085ZM83.6845 100.372V95.29H84.3495V95.878H84.3915C84.4475 95.7893 84.5222 95.6937 84.6155 95.591C84.7135 95.4883 84.8418 95.402 85.0005 95.332C85.1592 95.2573 85.3552 95.22 85.5885 95.22C85.8685 95.22 86.1135 95.276 86.3235 95.388C86.5335 95.4953 86.7085 95.6423 86.8485 95.829C86.9885 96.011 87.0935 96.2163 87.1635 96.445C87.2335 96.6737 87.2685 96.907 87.2685 97.145C87.2685 97.383 87.2335 97.6163 87.1635 97.845C87.0935 98.0737 86.9885 98.2813 86.8485 98.468C86.7085 98.65 86.5335 98.797 86.3235 98.909C86.1135 99.0163 85.8685 99.07 85.5885 99.07C85.3552 99.07 85.1592 99.0327 85.0005 98.958C84.8418 98.8833 84.7135 98.7947 84.6155 98.692C84.5222 98.5893 84.4475 98.496 84.3915 98.412H84.3495V100.372H83.6845ZM84.3635 97.145C84.3635 97.369 84.4032 97.586 84.4825 97.796C84.5665 98.0013 84.6902 98.1717 84.8535 98.307C85.0215 98.4377 85.2292 98.503 85.4765 98.503C85.7285 98.503 85.9362 98.4377 86.0995 98.307C86.2675 98.1717 86.3912 98.0013 86.4705 97.796C86.5545 97.586 86.5965 97.369 86.5965 97.145C86.5965 96.9163 86.5545 96.6993 86.4705 96.494C86.3912 96.2887 86.2675 96.1207 86.0995 95.99C85.9362 95.8547 85.7285 95.787 85.4765 95.787C85.2292 95.787 85.0215 95.8547 84.8535 95.99C84.6902 96.1207 84.5665 96.2887 84.4825 96.494C84.4032 96.6993 84.3635 96.9163 84.3635 97.145ZM87.9709 99V95.29H88.6359V95.752H88.6639C88.7432 95.612 88.8599 95.4883 89.0139 95.381C89.1679 95.2737 89.3849 95.22 89.6649 95.22C89.7442 95.22 89.8166 95.2247 89.8819 95.234C89.9472 95.2387 89.9799 95.241 89.9799 95.241V95.878C89.9799 95.878 89.9426 95.8757 89.8679 95.871C89.7979 95.8617 89.7232 95.857 89.6439 95.857C89.3219 95.857 89.0722 95.9503 88.8949 96.137C88.7222 96.319 88.6359 96.6177 88.6359 97.033V99H87.9709ZM91.9788 99.07C91.5822 99.07 91.2485 98.979 90.9778 98.797C90.7072 98.6103 90.5018 98.37 90.3618 98.076C90.2218 97.782 90.1518 97.4717 90.1518 97.145C90.1518 96.8137 90.2218 96.5033 90.3618 96.214C90.5018 95.92 90.7072 95.682 90.9778 95.5C91.2485 95.3133 91.5822 95.22 91.9788 95.22C92.3755 95.22 92.7092 95.3133 92.9798 95.5C93.2505 95.682 93.4558 95.92 93.5958 96.214C93.7358 96.5033 93.8058 96.8137 93.8058 97.145C93.8058 97.4717 93.7358 97.782 93.5958 98.076C93.4558 98.37 93.2505 98.6103 92.9798 98.797C92.7092 98.979 92.3755 99.07 91.9788 99.07ZM91.9788 98.489C92.2308 98.489 92.4408 98.426 92.6088 98.3C92.7815 98.1693 92.9098 98.0013 92.9938 97.796C93.0825 97.5907 93.1268 97.3737 93.1268 97.145C93.1268 96.9117 93.0825 96.6947 92.9938 96.494C92.9098 96.2887 92.7815 96.123 92.6088 95.997C92.4408 95.8663 92.2308 95.801 91.9788 95.801C91.7315 95.801 91.5215 95.8663 91.3488 95.997C91.1762 96.123 91.0455 96.2887 90.9568 96.494C90.8728 96.6947 90.8308 96.9117 90.8308 97.145C90.8308 97.3737 90.8728 97.5907 90.9568 97.796C91.0455 98.0013 91.1762 98.1693 91.3488 98.3C91.5215 98.426 91.7315 98.489 91.9788 98.489ZM95.9763 99V93.82H96.6623V96.158L98.9023 93.827H99.7983L97.3763 96.312L99.9033 99H98.9793L96.6623 96.529V99H95.9763ZM101.31 99.07C100.941 99.07 100.647 98.9557 100.428 98.727C100.208 98.4983 100.099 98.181 100.099 97.775V95.29H100.764V97.74C100.764 97.9827 100.829 98.1693 100.96 98.3C101.095 98.4307 101.272 98.496 101.492 98.496C101.716 98.496 101.895 98.4377 102.031 98.321C102.166 98.2043 102.264 98.055 102.325 97.873C102.385 97.691 102.416 97.5043 102.416 97.313V95.29H103.081V99H102.416V98.468H102.374C102.346 98.524 102.292 98.601 102.213 98.699C102.133 98.7923 102.021 98.8787 101.877 98.958C101.732 99.0327 101.543 99.07 101.31 99.07ZM103.854 99V95.29H104.519V95.829H104.561C104.593 95.773 104.647 95.696 104.722 95.598C104.801 95.5 104.913 95.4137 105.058 95.339C105.202 95.2597 105.384 95.22 105.604 95.22C105.874 95.22 106.105 95.283 106.297 95.409C106.488 95.5303 106.633 95.696 106.731 95.906C106.833 96.116 106.885 96.3517 106.885 96.613V99H106.22V96.655C106.22 96.4077 106.15 96.2023 106.01 96.039C105.874 95.8757 105.676 95.794 105.415 95.794C105.205 95.794 105.034 95.8477 104.904 95.955C104.773 96.0577 104.675 96.1953 104.61 96.368C104.549 96.536 104.519 96.7157 104.519 96.907V99H103.854ZM109.266 99.07C108.986 99.07 108.741 99.0163 108.531 98.909C108.321 98.797 108.146 98.65 108.006 98.468C107.866 98.2813 107.761 98.0737 107.691 97.845C107.621 97.6163 107.586 97.383 107.586 97.145C107.586 96.907 107.621 96.6737 107.691 96.445C107.761 96.2163 107.866 96.011 108.006 95.829C108.146 95.6423 108.321 95.4953 108.531 95.388C108.741 95.276 108.986 95.22 109.266 95.22C109.5 95.22 109.696 95.2573 109.854 95.332C110.013 95.4067 110.141 95.4953 110.239 95.598C110.337 95.696 110.412 95.7893 110.463 95.878H110.505V93.68H111.17V99H110.505V98.412H110.463C110.412 98.5007 110.337 98.5963 110.239 98.699C110.141 98.8017 110.013 98.8903 109.854 98.965C109.696 99.035 109.5 99.07 109.266 99.07ZM109.378 98.503C109.626 98.503 109.831 98.4377 109.994 98.307C110.162 98.1717 110.286 98.0013 110.365 97.796C110.449 97.586 110.491 97.369 110.491 97.145C110.491 96.9163 110.449 96.6993 110.365 96.494C110.286 96.2887 110.162 96.1207 109.994 95.99C109.831 95.8547 109.626 95.787 109.378 95.787C109.131 95.787 108.923 95.8547 108.755 95.99C108.587 96.1207 108.461 96.2887 108.377 96.494C108.298 96.6993 108.258 96.9163 108.258 97.145C108.258 97.369 108.298 97.586 108.377 97.796C108.461 98.0013 108.587 98.1717 108.755 98.307C108.923 98.4377 109.131 98.503 109.378 98.503ZM113.7 99.07C113.396 99.07 113.133 99.0163 112.909 98.909C112.689 98.797 112.507 98.6477 112.363 98.461C112.223 98.2743 112.118 98.069 112.048 97.845C111.978 97.6163 111.943 97.383 111.943 97.145C111.943 96.9117 111.975 96.6807 112.041 96.452C112.111 96.2233 112.216 96.0157 112.356 95.829C112.5 95.6423 112.68 95.4953 112.895 95.388C113.114 95.276 113.373 95.22 113.672 95.22C113.989 95.22 114.269 95.2923 114.512 95.437C114.754 95.5817 114.946 95.7963 115.086 96.081C115.226 96.3657 115.296 96.7227 115.296 97.152V97.348H112.615C112.629 97.558 112.678 97.7517 112.762 97.929C112.85 98.1017 112.974 98.2417 113.133 98.349C113.291 98.4517 113.48 98.503 113.7 98.503C113.891 98.503 114.045 98.4727 114.162 98.412C114.283 98.3467 114.379 98.272 114.449 98.188C114.519 98.104 114.565 98.0317 114.589 97.971C114.617 97.9057 114.631 97.873 114.631 97.873H115.254C115.254 97.873 115.242 97.915 115.219 97.999C115.195 98.0783 115.153 98.1763 115.093 98.293C115.032 98.4097 114.943 98.5287 114.827 98.65C114.71 98.7667 114.561 98.867 114.379 98.951C114.197 99.0303 113.97 99.07 113.7 99.07ZM112.622 96.83H114.645C114.635 96.5873 114.584 96.3913 114.491 96.242C114.397 96.088 114.278 95.9737 114.134 95.899C113.989 95.8243 113.835 95.787 113.672 95.787C113.378 95.787 113.137 95.8827 112.951 96.074C112.764 96.2607 112.654 96.5127 112.622 96.83Z" fill="white"/>
<ellipse cx="76" cy="75.5" rx="70.5" ry="71" transform="rotate(-90 76 75.5)" stroke="#D9D9D9" stroke-width="10"/>
<path d="M5.78223 65C10.8886 31.0439 40.3813 5 76.0001 5C77.1736 5 78.3405 5.02827 79.5001 5.08416" stroke="#00BF64" stroke-width="10" stroke-linecap="round"/>
</svg>
