<svg width="151" height="152" viewBox="0 0 151 152" fill="none" xmlns="http://www.w3.org/2000/svg">
<path d="M60.744 87.36C58.92 87.36 57.3 87 55.884 86.28C54.468 85.56 53.268 84.576 52.284 83.328C51.3 82.08 50.544 80.628 50.016 78.972C49.512 77.316 49.26 75.552 49.26 73.68C49.26 71.784 49.512 70.02 50.016 68.388C50.544 66.732 51.3 65.28 52.284 64.032C53.268 62.76 54.468 61.776 55.884 61.08C57.3 60.36 58.92 60 60.744 60C62.568 60 64.188 60.36 65.604 61.08C67.02 61.776 68.22 62.76 69.204 64.032C70.188 65.28 70.932 66.732 71.436 68.388C71.964 70.02 72.228 71.784 72.228 73.68C72.228 75.552 71.964 77.316 71.436 78.972C70.932 80.628 70.188 82.08 69.204 83.328C68.22 84.576 67.02 85.56 65.604 86.28C64.188 87 62.568 87.36 60.744 87.36ZM60.744 81.852C62.208 81.852 63.408 81.18 64.344 79.836C65.304 78.468 65.784 76.416 65.784 73.68C65.784 70.944 65.304 68.904 64.344 67.56C63.408 66.192 62.208 65.508 60.744 65.508C59.28 65.508 58.068 66.192 57.108 67.56C56.172 68.904 55.704 70.944 55.704 73.68C55.704 76.392 56.172 78.432 57.108 79.8C58.068 81.168 59.28 81.852 60.744 81.852ZM74.0643 78.18V73.356H87.5643V78.18H74.0643ZM101.08 60.36V87H94.8523V68.46H89.6683V64.68L90.4603 64.428C92.0443 64.02 93.3283 63.528 94.3123 62.952C95.3203 62.352 96.2803 61.584 97.1923 60.648L97.4443 60.36H101.08Z" fill="white"/>
<path d="M36.56 100V94.82H39.85V95.422H37.246V97.06H39.528V97.662H37.246V99.398H39.885V100H36.56ZM40.6208 100V96.29H41.2858V96.829H41.3138C41.3512 96.759 41.4095 96.6773 41.4888 96.584C41.5682 96.486 41.6755 96.402 41.8108 96.332C41.9508 96.2573 42.1258 96.22 42.3358 96.22C42.6112 96.22 42.8422 96.2877 43.0288 96.423C43.2202 96.5537 43.3625 96.731 43.4558 96.955H43.4628C43.5655 96.7497 43.7102 96.577 43.8968 96.437C44.0882 96.2923 44.3355 96.22 44.6388 96.22C45.0402 96.22 45.3482 96.3577 45.5628 96.633C45.7822 96.9037 45.8918 97.2537 45.8918 97.683V100H45.2268V97.718C45.2268 97.4427 45.1615 97.221 45.0308 97.053C44.9002 96.8803 44.7112 96.794 44.4638 96.794C44.2492 96.794 44.0765 96.8523 43.9458 96.969C43.8198 97.0857 43.7288 97.2303 43.6728 97.403C43.6168 97.5757 43.5888 97.7483 43.5888 97.921V100H42.9238V97.718C42.9238 97.4427 42.8585 97.221 42.7278 97.053C42.6018 96.8803 42.4128 96.794 42.1608 96.794C41.9462 96.794 41.7735 96.8523 41.6428 96.969C41.5168 97.0857 41.4258 97.2327 41.3698 97.41C41.3138 97.5827 41.2858 97.753 41.2858 97.921V100H40.6208ZM46.7289 101.372V96.29H47.3939V96.878H47.4359C47.4919 96.7893 47.5665 96.6937 47.6599 96.591C47.7579 96.4883 47.8862 96.402 48.0449 96.332C48.2035 96.2573 48.3995 96.22 48.6329 96.22C48.9129 96.22 49.1579 96.276 49.3679 96.388C49.5779 96.4953 49.7529 96.6423 49.8929 96.829C50.0329 97.011 50.1379 97.2163 50.2079 97.445C50.2779 97.6737 50.3129 97.907 50.3129 98.145C50.3129 98.383 50.2779 98.6163 50.2079 98.845C50.1379 99.0737 50.0329 99.2813 49.8929 99.468C49.7529 99.65 49.5779 99.797 49.3679 99.909C49.1579 100.016 48.9129 100.07 48.6329 100.07C48.3995 100.07 48.2035 100.033 48.0449 99.958C47.8862 99.8833 47.7579 99.7947 47.6599 99.692C47.5665 99.5893 47.4919 99.496 47.4359 99.412H47.3939V101.372H46.7289ZM47.4079 98.145C47.4079 98.369 47.4475 98.586 47.5269 98.796C47.6109 99.0013 47.7345 99.1717 47.8979 99.307C48.0659 99.4377 48.2735 99.503 48.5209 99.503C48.7729 99.503 48.9805 99.4377 49.1439 99.307C49.3119 99.1717 49.4355 99.0013 49.5149 98.796C49.5989 98.586 49.6409 98.369 49.6409 98.145C49.6409 97.9163 49.5989 97.6993 49.5149 97.494C49.4355 97.2887 49.3119 97.1207 49.1439 96.99C48.9805 96.8547 48.7729 96.787 48.5209 96.787C48.2735 96.787 48.0659 96.8547 47.8979 96.99C47.7345 97.1207 47.6109 97.2887 47.5269 97.494C47.4475 97.6993 47.4079 97.9163 47.4079 98.145ZM51.4493 100V96.836H50.8403V96.29H51.4493V95.835C51.4493 95.639 51.4843 95.4477 51.5543 95.261C51.6243 95.0697 51.7409 94.9133 51.9043 94.792C52.0676 94.6707 52.2893 94.61 52.5693 94.61C52.7046 94.61 52.8119 94.6217 52.8913 94.645C52.9753 94.6637 53.0173 94.673 53.0173 94.673V95.198C53.0173 95.198 52.9799 95.191 52.9053 95.177C52.8353 95.1583 52.7536 95.149 52.6603 95.149C52.4456 95.149 52.3009 95.2143 52.2263 95.345C52.1516 95.4757 52.1143 95.639 52.1143 95.835V96.29H52.9753V96.836H52.1143V100H51.4493ZM54.9806 100.07C54.6772 100.07 54.4136 100.016 54.1896 99.909C53.9702 99.797 53.7882 99.6477 53.6436 99.461C53.5036 99.2743 53.3986 99.069 53.3286 98.845C53.2586 98.6163 53.2236 98.383 53.2236 98.145C53.2236 97.9117 53.2562 97.6807 53.3216 97.452C53.3916 97.2233 53.4966 97.0157 53.6366 96.829C53.7812 96.6423 53.9609 96.4953 54.1756 96.388C54.3949 96.276 54.6539 96.22 54.9526 96.22C55.2699 96.22 55.5499 96.2923 55.7926 96.437C56.0352 96.5817 56.2266 96.7963 56.3666 97.081C56.5066 97.3657 56.5766 97.7227 56.5766 98.152V98.348H53.8956C53.9096 98.558 53.9586 98.7517 54.0426 98.929C54.1312 99.1017 54.2549 99.2417 54.4136 99.349C54.5722 99.4517 54.7612 99.503 54.9806 99.503C55.1719 99.503 55.3259 99.4727 55.4426 99.412C55.5639 99.3467 55.6596 99.272 55.7296 99.188C55.7996 99.104 55.8462 99.0317 55.8696 98.971C55.8976 98.9057 55.9116 98.873 55.9116 98.873H56.5346C56.5346 98.873 56.5229 98.915 56.4996 98.999C56.4762 99.0783 56.4342 99.1763 56.3736 99.293C56.3129 99.4097 56.2242 99.5287 56.1076 99.65C55.9909 99.7667 55.8416 99.867 55.6596 99.951C55.4776 100.03 55.2512 100.07 54.9806 100.07ZM53.9026 97.83H55.9256C55.9162 97.5873 55.8649 97.3913 55.7716 97.242C55.6782 97.088 55.5592 96.9737 55.4146 96.899C55.2699 96.8243 55.1159 96.787 54.9526 96.787C54.6586 96.787 54.4182 96.8827 54.2316 97.074C54.0449 97.2607 53.9352 97.5127 53.9026 97.83ZM57.344 100V94.68H58.009V96.829H58.051C58.0837 96.773 58.1373 96.696 58.212 96.598C58.2913 96.5 58.4033 96.4137 58.548 96.339C58.6927 96.2597 58.8747 96.22 59.094 96.22C59.3647 96.22 59.5957 96.283 59.787 96.409C59.9783 96.5303 60.123 96.696 60.221 96.906C60.3237 97.116 60.375 97.3517 60.375 97.613V100H59.71V97.655C59.71 97.4077 59.64 97.2023 59.5 97.039C59.3647 96.8757 59.1663 96.794 58.905 96.794C58.695 96.794 58.5247 96.8477 58.394 96.955C58.2633 97.0577 58.1653 97.1953 58.1 97.368C58.0393 97.536 58.009 97.7157 58.009 97.907V100H57.344ZM61.215 100L61.222 94.68H61.88V100H61.215ZM63.9302 100.07C63.5616 100.07 63.2676 99.9557 63.0482 99.727C62.8289 99.4983 62.7192 99.181 62.7192 98.775V96.29H63.3842V98.74C63.3842 98.9827 63.4496 99.1693 63.5802 99.3C63.7156 99.4307 63.8929 99.496 64.1122 99.496C64.3362 99.496 64.5159 99.4377 64.6512 99.321C64.7866 99.2043 64.8846 99.055 64.9452 98.873C65.0059 98.691 65.0362 98.5043 65.0362 98.313V96.29H65.7012V100H65.0362V99.468H64.9942C64.9662 99.524 64.9126 99.601 64.8332 99.699C64.7539 99.7923 64.6419 99.8787 64.4972 99.958C64.3526 100.033 64.1636 100.07 63.9302 100.07ZM66.4741 100V96.29H67.1391V96.829H67.1811C67.2137 96.773 67.2674 96.696 67.3421 96.598C67.4214 96.5 67.5334 96.4137 67.6781 96.339C67.8227 96.2597 68.0047 96.22 68.2241 96.22C68.4947 96.22 68.7257 96.283 68.9171 96.409C69.1084 96.5303 69.2531 96.696 69.3511 96.906C69.4537 97.116 69.5051 97.3517 69.5051 97.613V100H68.8401V97.655C68.8401 97.4077 68.7701 97.2023 68.6301 97.039C68.4947 96.8757 68.2964 96.794 68.0351 96.794C67.8251 96.794 67.6547 96.8477 67.5241 96.955C67.3934 97.0577 67.2954 97.1953 67.2301 97.368C67.1694 97.536 67.1391 97.7157 67.1391 97.907V100H66.4741ZM72.0618 101.47C71.7538 101.47 71.4971 101.428 71.2918 101.344C71.0864 101.265 70.9208 101.162 70.7948 101.036C70.6734 100.915 70.5824 100.793 70.5218 100.672C70.4611 100.551 70.4214 100.448 70.4028 100.364C70.3841 100.285 70.3748 100.245 70.3748 100.245H71.0398C71.0398 100.245 71.0514 100.278 71.0748 100.343C71.0981 100.408 71.1424 100.483 71.2078 100.567C71.2778 100.651 71.3804 100.726 71.5158 100.791C71.6511 100.856 71.8331 100.889 72.0618 100.889C72.3324 100.889 72.5448 100.835 72.6988 100.728C72.8528 100.625 72.9624 100.49 73.0278 100.322C73.0978 100.154 73.1328 99.9767 73.1328 99.79V99.363H73.0978C73.0511 99.4423 72.9764 99.5333 72.8738 99.636C72.7758 99.734 72.6451 99.8203 72.4818 99.895C72.3184 99.965 72.1178 100 71.8798 100C71.5998 100 71.3548 99.9463 71.1448 99.839C70.9348 99.7317 70.7598 99.587 70.6198 99.405C70.4844 99.223 70.3818 99.02 70.3118 98.796C70.2418 98.572 70.2068 98.3433 70.2068 98.11C70.2068 97.8767 70.2418 97.648 70.3118 97.424C70.3818 97.2 70.4844 96.997 70.6198 96.815C70.7598 96.633 70.9348 96.4883 71.1448 96.381C71.3548 96.2737 71.5998 96.22 71.8798 96.22C72.1178 96.22 72.3184 96.2573 72.4818 96.332C72.6451 96.402 72.7758 96.486 72.8738 96.584C72.9764 96.682 73.0511 96.773 73.0978 96.857H73.1328V96.29H73.7978V99.783C73.7978 100.301 73.6461 100.712 73.3428 101.015C73.0441 101.318 72.6171 101.47 72.0618 101.47ZM72.0058 99.433C72.2531 99.433 72.4584 99.37 72.6218 99.244C72.7898 99.1133 72.9134 98.9477 72.9928 98.747C73.0768 98.5463 73.1188 98.334 73.1188 98.11C73.1188 97.886 73.0768 97.6737 72.9928 97.473C72.9134 97.2677 72.7898 97.102 72.6218 96.976C72.4584 96.85 72.2531 96.787 72.0058 96.787C71.7584 96.787 71.5508 96.85 71.3828 96.976C71.2148 97.102 71.0888 97.2677 71.0048 97.473C70.9254 97.6737 70.8858 97.886 70.8858 98.11C70.8858 98.334 70.9254 98.5463 71.0048 98.747C71.0888 98.9477 71.2148 99.1133 71.3828 99.244C71.5508 99.37 71.7584 99.433 72.0058 99.433ZM76.1151 100.07C75.8118 100.07 75.5481 100.016 75.3241 99.909C75.1048 99.797 74.9228 99.6477 74.7781 99.461C74.6381 99.2743 74.5331 99.069 74.4631 98.845C74.3931 98.6163 74.3581 98.383 74.3581 98.145C74.3581 97.9117 74.3908 97.6807 74.4561 97.452C74.5261 97.2233 74.6311 97.0157 74.7711 96.829C74.9158 96.6423 75.0954 96.4953 75.3101 96.388C75.5294 96.276 75.7884 96.22 76.0871 96.22C76.4044 96.22 76.6844 96.2923 76.9271 96.437C77.1698 96.5817 77.3611 96.7963 77.5011 97.081C77.6411 97.3657 77.7111 97.7227 77.7111 98.152V98.348H75.0301C75.0441 98.558 75.0931 98.7517 75.1771 98.929C75.2658 99.1017 75.3894 99.2417 75.5481 99.349C75.7068 99.4517 75.8958 99.503 76.1151 99.503C76.3064 99.503 76.4604 99.4727 76.5771 99.412C76.6984 99.3467 76.7941 99.272 76.8641 99.188C76.9341 99.104 76.9808 99.0317 77.0041 98.971C77.0321 98.9057 77.0461 98.873 77.0461 98.873H77.6691C77.6691 98.873 77.6574 98.915 77.6341 98.999C77.6108 99.0783 77.5688 99.1763 77.5081 99.293C77.4474 99.4097 77.3588 99.5287 77.2421 99.65C77.1254 99.7667 76.9761 99.867 76.7941 99.951C76.6121 100.03 76.3858 100.07 76.1151 100.07ZM75.0371 97.83H77.0601C77.0508 97.5873 76.9994 97.3913 76.9061 97.242C76.8128 97.088 76.6938 96.9737 76.5491 96.899C76.4044 96.8243 76.2504 96.787 76.0871 96.787C75.7931 96.787 75.5528 96.8827 75.3661 97.074C75.1794 97.2607 75.0698 97.5127 75.0371 97.83ZM78.4085 100V96.29H79.0735V96.829H79.1155C79.1482 96.773 79.2018 96.696 79.2765 96.598C79.3558 96.5 79.4678 96.4137 79.6125 96.339C79.7572 96.2597 79.9392 96.22 80.1585 96.22C80.4292 96.22 80.6602 96.283 80.8515 96.409C81.0428 96.5303 81.1875 96.696 81.2855 96.906C81.3882 97.116 81.4395 97.3517 81.4395 97.613V100H80.7745V97.655C80.7745 97.4077 80.7045 97.2023 80.5645 97.039C80.4292 96.8757 80.2308 96.794 79.9695 96.794C79.7595 96.794 79.5892 96.8477 79.4585 96.955C79.3278 97.0577 79.2298 97.1953 79.1645 97.368C79.1038 97.536 79.0735 97.7157 79.0735 97.907V100H78.4085ZM83.6845 101.372V96.29H84.3495V96.878H84.3915C84.4475 96.7893 84.5222 96.6937 84.6155 96.591C84.7135 96.4883 84.8418 96.402 85.0005 96.332C85.1592 96.2573 85.3552 96.22 85.5885 96.22C85.8685 96.22 86.1135 96.276 86.3235 96.388C86.5335 96.4953 86.7085 96.6423 86.8485 96.829C86.9885 97.011 87.0935 97.2163 87.1635 97.445C87.2335 97.6737 87.2685 97.907 87.2685 98.145C87.2685 98.383 87.2335 98.6163 87.1635 98.845C87.0935 99.0737 86.9885 99.2813 86.8485 99.468C86.7085 99.65 86.5335 99.797 86.3235 99.909C86.1135 100.016 85.8685 100.07 85.5885 100.07C85.3552 100.07 85.1592 100.033 85.0005 99.958C84.8418 99.8833 84.7135 99.7947 84.6155 99.692C84.5222 99.5893 84.4475 99.496 84.3915 99.412H84.3495V101.372H83.6845ZM84.3635 98.145C84.3635 98.369 84.4032 98.586 84.4825 98.796C84.5665 99.0013 84.6902 99.1717 84.8535 99.307C85.0215 99.4377 85.2292 99.503 85.4765 99.503C85.7285 99.503 85.9362 99.4377 86.0995 99.307C86.2675 99.1717 86.3912 99.0013 86.4705 98.796C86.5545 98.586 86.5965 98.369 86.5965 98.145C86.5965 97.9163 86.5545 97.6993 86.4705 97.494C86.3912 97.2887 86.2675 97.1207 86.0995 96.99C85.9362 96.8547 85.7285 96.787 85.4765 96.787C85.2292 96.787 85.0215 96.8547 84.8535 96.99C84.6902 97.1207 84.5665 97.2887 84.4825 97.494C84.4032 97.6993 84.3635 97.9163 84.3635 98.145ZM87.9709 100V96.29H88.6359V96.752H88.6639C88.7432 96.612 88.8599 96.4883 89.0139 96.381C89.1679 96.2737 89.3849 96.22 89.6649 96.22C89.7442 96.22 89.8166 96.2247 89.8819 96.234C89.9472 96.2387 89.9799 96.241 89.9799 96.241V96.878C89.9799 96.878 89.9426 96.8757 89.8679 96.871C89.7979 96.8617 89.7232 96.857 89.6439 96.857C89.3219 96.857 89.0722 96.9503 88.8949 97.137C88.7222 97.319 88.6359 97.6177 88.6359 98.033V100H87.9709ZM91.9788 100.07C91.5822 100.07 91.2485 99.979 90.9778 99.797C90.7072 99.6103 90.5018 99.37 90.3618 99.076C90.2218 98.782 90.1518 98.4717 90.1518 98.145C90.1518 97.8137 90.2218 97.5033 90.3618 97.214C90.5018 96.92 90.7072 96.682 90.9778 96.5C91.2485 96.3133 91.5822 96.22 91.9788 96.22C92.3755 96.22 92.7092 96.3133 92.9798 96.5C93.2505 96.682 93.4558 96.92 93.5958 97.214C93.7358 97.5033 93.8058 97.8137 93.8058 98.145C93.8058 98.4717 93.7358 98.782 93.5958 99.076C93.4558 99.37 93.2505 99.6103 92.9798 99.797C92.7092 99.979 92.3755 100.07 91.9788 100.07ZM91.9788 99.489C92.2308 99.489 92.4408 99.426 92.6088 99.3C92.7815 99.1693 92.9098 99.0013 92.9938 98.796C93.0825 98.5907 93.1268 98.3737 93.1268 98.145C93.1268 97.9117 93.0825 97.6947 92.9938 97.494C92.9098 97.2887 92.7815 97.123 92.6088 96.997C92.4408 96.8663 92.2308 96.801 91.9788 96.801C91.7315 96.801 91.5215 96.8663 91.3488 96.997C91.1762 97.123 91.0455 97.2887 90.9568 97.494C90.8728 97.6947 90.8308 97.9117 90.8308 98.145C90.8308 98.3737 90.8728 98.5907 90.9568 98.796C91.0455 99.0013 91.1762 99.1693 91.3488 99.3C91.5215 99.426 91.7315 99.489 91.9788 99.489ZM95.9763 100V94.82H96.6623V97.158L98.9023 94.827H99.7983L97.3763 97.312L99.9033 100H98.9793L96.6623 97.529V100H95.9763ZM101.31 100.07C100.941 100.07 100.647 99.9557 100.428 99.727C100.208 99.4983 100.099 99.181 100.099 98.775V96.29H100.764V98.74C100.764 98.9827 100.829 99.1693 100.96 99.3C101.095 99.4307 101.272 99.496 101.492 99.496C101.716 99.496 101.895 99.4377 102.031 99.321C102.166 99.2043 102.264 99.055 102.325 98.873C102.385 98.691 102.416 98.5043 102.416 98.313V96.29H103.081V100H102.416V99.468H102.374C102.346 99.524 102.292 99.601 102.213 99.699C102.133 99.7923 102.021 99.8787 101.877 99.958C101.732 100.033 101.543 100.07 101.31 100.07ZM103.854 100V96.29H104.519V96.829H104.561C104.593 96.773 104.647 96.696 104.722 96.598C104.801 96.5 104.913 96.4137 105.058 96.339C105.202 96.2597 105.384 96.22 105.604 96.22C105.874 96.22 106.105 96.283 106.297 96.409C106.488 96.5303 106.633 96.696 106.731 96.906C106.833 97.116 106.885 97.3517 106.885 97.613V100H106.22V97.655C106.22 97.4077 106.15 97.2023 106.01 97.039C105.874 96.8757 105.676 96.794 105.415 96.794C105.205 96.794 105.034 96.8477 104.904 96.955C104.773 97.0577 104.675 97.1953 104.61 97.368C104.549 97.536 104.519 97.7157 104.519 97.907V100H103.854ZM109.266 100.07C108.986 100.07 108.741 100.016 108.531 99.909C108.321 99.797 108.146 99.65 108.006 99.468C107.866 99.2813 107.761 99.0737 107.691 98.845C107.621 98.6163 107.586 98.383 107.586 98.145C107.586 97.907 107.621 97.6737 107.691 97.445C107.761 97.2163 107.866 97.011 108.006 96.829C108.146 96.6423 108.321 96.4953 108.531 96.388C108.741 96.276 108.986 96.22 109.266 96.22C109.5 96.22 109.696 96.2573 109.854 96.332C110.013 96.4067 110.141 96.4953 110.239 96.598C110.337 96.696 110.412 96.7893 110.463 96.878H110.505V94.68H111.17V100H110.505V99.412H110.463C110.412 99.5007 110.337 99.5963 110.239 99.699C110.141 99.8017 110.013 99.8903 109.854 99.965C109.696 100.035 109.5 100.07 109.266 100.07ZM109.378 99.503C109.626 99.503 109.831 99.4377 109.994 99.307C110.162 99.1717 110.286 99.0013 110.365 98.796C110.449 98.586 110.491 98.369 110.491 98.145C110.491 97.9163 110.449 97.6993 110.365 97.494C110.286 97.2887 110.162 97.1207 109.994 96.99C109.831 96.8547 109.626 96.787 109.378 96.787C109.131 96.787 108.923 96.8547 108.755 96.99C108.587 97.1207 108.461 97.2887 108.377 97.494C108.298 97.6993 108.258 97.9163 108.258 98.145C108.258 98.369 108.298 98.586 108.377 98.796C108.461 99.0013 108.587 99.1717 108.755 99.307C108.923 99.4377 109.131 99.503 109.378 99.503ZM113.7 100.07C113.396 100.07 113.133 100.016 112.909 99.909C112.689 99.797 112.507 99.6477 112.363 99.461C112.223 99.2743 112.118 99.069 112.048 98.845C111.978 98.6163 111.943 98.383 111.943 98.145C111.943 97.9117 111.975 97.6807 112.041 97.452C112.111 97.2233 112.216 97.0157 112.356 96.829C112.5 96.6423 112.68 96.4953 112.895 96.388C113.114 96.276 113.373 96.22 113.672 96.22C113.989 96.22 114.269 96.2923 114.512 96.437C114.754 96.5817 114.946 96.7963 115.086 97.081C115.226 97.3657 115.296 97.7227 115.296 98.152V98.348H112.615C112.629 98.558 112.678 98.7517 112.762 98.929C112.85 99.1017 112.974 99.2417 113.133 99.349C113.291 99.4517 113.48 99.503 113.7 99.503C113.891 99.503 114.045 99.4727 114.162 99.412C114.283 99.3467 114.379 99.272 114.449 99.188C114.519 99.104 114.565 99.0317 114.589 98.971C114.617 98.9057 114.631 98.873 114.631 98.873H115.254C115.254 98.873 115.242 98.915 115.219 98.999C115.195 99.0783 115.153 99.1763 115.093 99.293C115.032 99.4097 114.943 99.5287 114.827 99.65C114.71 99.7667 114.561 99.867 114.379 99.951C114.197 100.03 113.97 100.07 113.7 100.07ZM112.622 97.83H114.645C114.635 97.5873 114.584 97.3913 114.491 97.242C114.397 97.088 114.278 96.9737 114.134 96.899C113.989 96.8243 113.835 96.787 113.672 96.787C113.378 96.787 113.137 96.8827 112.951 97.074C112.764 97.2607 112.654 97.5127 112.622 97.83Z" fill="white"/>
<ellipse cx="75.5" cy="76" rx="70.5" ry="71" stroke="#D9D9D9" stroke-width="10"/>
<path d="M146 76C146 36.7878 114.436 5 75.5 5" stroke="#F53632" stroke-width="10" stroke-linecap="round"/>
</svg>
