<svg width="123" height="123" viewBox="0 0 123 123" fill="none" xmlns="http://www.w3.org/2000/svg">
<path d="M123 61.5C123 95.4655 95.4655 123 61.5 123C27.5345 123 0 95.4655 0 61.5C0 27.5345 27.5345 0 61.5 0C95.4655 0 123 27.5345 123 61.5ZM7.98102 61.5C7.98102 91.0577 31.9423 115.019 61.5 115.019C91.0577 115.019 115.019 91.0577 115.019 61.5C115.019 31.9423 91.0577 7.98102 61.5 7.98102C31.9423 7.98102 7.98102 31.9423 7.98102 61.5Z" fill="#D9D9D9"/>
<path d="M92.2498 8.23938C78.1242 0.0839702 61.3375 -2.12605 45.5825 2.09549C29.8274 6.31704 16.3947 16.6243 8.23927 30.7499L15.1305 34.7286C22.2307 22.4306 33.9254 13.457 47.6419 9.78163C61.3585 6.10629 75.9733 8.03036 88.2712 15.1306L92.2498 8.23938Z" fill="#F53632"/>
<circle cx="89.8166" cy="11.4535" r="4" transform="rotate(-60 89.8166 11.4535)" fill="#F53632"/>
<path d="M61.5 0C53.3292 -9.74362e-08 45.2402 1.6282 37.7057 4.78948C30.1712 7.95077 23.3422 12.5818 17.6176 18.4119C11.8929 24.2421 7.38743 31.1546 4.36431 38.7456C1.34118 46.3366 -0.138992 54.4539 0.0102611 62.6234C0.159514 70.7929 1.9352 78.8507 5.23358 86.3262C8.53197 93.8017 13.2869 100.545 19.2207 106.162C25.1545 111.779 32.1481 116.158 39.7931 119.042C47.438 121.926 55.581 123.257 63.7464 122.959L63.4553 114.994C56.3481 115.254 49.2604 114.095 42.6061 111.585C35.9519 109.075 29.8646 105.264 24.6998 100.374C19.535 95.4851 15.3962 89.6156 12.5253 83.1089C9.65437 76.6022 8.1088 69.5886 7.97889 62.4778C7.84898 55.367 9.13733 48.3017 11.7687 41.6944C14.4 35.0872 18.3216 29.0705 23.3044 23.9958C28.2872 18.9212 34.2312 14.8904 40.7893 12.1388C47.3474 9.38715 54.388 7.96996 61.5 7.96996V0Z" fill="#D9D9D9"/>
<circle cx="62" cy="4" r="4" fill="#F53632"/>
<path d="M82.1471 44.2914V65.8221H77.1136V50.8379H72.9238V47.7829L73.5639 47.5792C74.8441 47.2494 75.8819 46.8518 76.6772 46.3863C77.4918 45.9013 78.2677 45.2806 79.0048 44.5241L79.2085 44.2914H82.1471Z" fill="white"/>
<path d="M60.3135 58.6937V54.7949H71.2243V58.6937H60.3135Z" fill="white"/>
<path d="M49.5471 66.1131C48.0729 66.1131 46.7636 65.8222 45.6192 65.2403C44.4748 64.6584 43.5049 63.8631 42.7097 62.8544C41.9144 61.8458 41.3034 60.6723 40.8766 59.3339C40.4693 57.9955 40.2656 56.5698 40.2656 55.0568C40.2656 53.5244 40.4693 52.0988 40.8766 50.7798C41.3034 49.4414 41.9144 48.2678 42.7097 47.2592C43.5049 46.2312 44.4748 45.4359 45.6192 44.8734C46.7636 44.2914 48.0729 44.0005 49.5471 44.0005C51.0213 44.0005 52.3306 44.2914 53.475 44.8734C54.6195 45.4359 55.5893 46.2312 56.3846 47.2592C57.1799 48.2678 57.7812 49.4414 58.1885 50.7798C58.6153 52.0988 58.8286 53.5244 58.8286 55.0568C58.8286 56.5698 58.6153 57.9955 58.1885 59.3339C57.7812 60.6723 57.1799 61.8458 56.3846 62.8544C55.5893 63.8631 54.6195 64.6584 53.475 65.2403C52.3306 65.8222 51.0213 66.1131 49.5471 66.1131ZM49.5471 61.6615C50.7303 61.6615 51.7002 61.1184 52.4567 60.0322C53.2326 58.9265 53.6205 57.2681 53.6205 55.0568C53.6205 52.8456 53.2326 51.1968 52.4567 50.1106C51.7002 49.0049 50.7303 48.4521 49.5471 48.4521C48.3639 48.4521 47.3843 49.0049 46.6085 50.1106C45.852 51.1968 45.4737 52.8456 45.4737 55.0568C45.4737 57.2487 45.852 58.8974 46.6085 60.0031C47.3843 61.1087 48.3639 61.6615 49.5471 61.6615Z" fill="white"/>
<path d="M92.3458 76.3854C92.1007 76.3854 91.8876 76.342 91.7065 76.2553C91.5292 76.1648 91.3821 76.0441 91.2652 75.8932C91.1521 75.7424 91.0672 75.5764 91.0106 75.3954C90.9541 75.2105 90.9258 75.022 90.9258 74.8296C90.9258 74.641 90.9522 74.4543 91.005 74.2695C91.0616 74.0847 91.1464 73.9169 91.2596 73.766C91.3765 73.6151 91.5217 73.4963 91.6952 73.4096C91.8725 73.3191 92.0818 73.2738 92.3232 73.2738C92.5797 73.2738 92.806 73.3323 93.0021 73.4492C93.1982 73.5661 93.3528 73.7396 93.466 73.9697C93.5791 74.1997 93.6357 74.4883 93.6357 74.8353V74.9937H91.4689C91.4802 75.1634 91.5198 75.3199 91.5877 75.4632C91.6594 75.6028 91.7593 75.7159 91.8876 75.8027C92.0158 75.8857 92.1685 75.9272 92.3458 75.9272C92.5004 75.9272 92.6249 75.9026 92.7192 75.8536C92.8173 75.8008 92.8946 75.7405 92.9512 75.6726C93.0077 75.6047 93.0455 75.5462 93.0643 75.4972C93.0869 75.4444 93.0983 75.418 93.0983 75.418H93.6018C93.6018 75.418 93.5923 75.4519 93.5735 75.5198C93.5546 75.5839 93.5207 75.6631 93.4716 75.7574C93.4226 75.8517 93.351 75.9479 93.2567 76.046C93.1624 76.1403 93.0417 76.2214 92.8946 76.2892C92.7475 76.3534 92.5646 76.3854 92.3458 76.3854ZM91.4746 74.575H93.1096C93.102 74.3789 93.0605 74.2205 92.9851 74.0998C92.9097 73.9753 92.8135 73.8829 92.6966 73.8226C92.5797 73.7622 92.4552 73.7321 92.3232 73.7321C92.0856 73.7321 91.8913 73.8094 91.7405 73.964C91.5896 74.1149 91.501 74.3186 91.4746 74.575Z" fill="white"/>
<path d="M88.7631 76.3856C88.5368 76.3856 88.3388 76.3422 88.169 76.2554C87.9993 76.1649 87.8579 76.0461 87.7447 75.899C87.6316 75.7481 87.5467 75.5803 87.4901 75.3955C87.4336 75.2107 87.4053 75.0221 87.4053 74.8297C87.4053 74.6374 87.4336 74.4488 87.4901 74.264C87.5467 74.0792 87.6316 73.9132 87.7447 73.7661C87.8579 73.6153 87.9993 73.4965 88.169 73.4097C88.3388 73.3192 88.5368 73.2739 88.7631 73.2739C88.9517 73.2739 89.1101 73.3041 89.2383 73.3645C89.3665 73.4248 89.4703 73.4965 89.5495 73.5794C89.6287 73.6587 89.689 73.7341 89.7305 73.8057H89.7644V72.0293H90.3019V76.329H89.7644V75.8538H89.7305C89.689 75.9254 89.6287 76.0027 89.5495 76.0857C89.4703 76.1687 89.3665 76.2403 89.2383 76.3007C89.1101 76.3573 88.9517 76.3856 88.7631 76.3856ZM88.8536 75.9273C89.0535 75.9273 89.2194 75.8745 89.3514 75.7689C89.4872 75.6595 89.5872 75.5218 89.6513 75.3559C89.7192 75.1862 89.7531 75.0108 89.7531 74.8297C89.7531 74.6449 89.7192 74.4696 89.6513 74.3036C89.5872 74.1377 89.4872 74.0019 89.3514 73.8963C89.2194 73.7869 89.0535 73.7322 88.8536 73.7322C88.6537 73.7322 88.4859 73.7869 88.3501 73.8963C88.2143 74.0019 88.1125 74.1377 88.0446 74.3036C87.9805 74.4696 87.9484 74.6449 87.9484 74.8297C87.9484 75.0108 87.9805 75.1862 88.0446 75.3559C88.1125 75.5218 88.2143 75.6595 88.3501 75.7689C88.4859 75.8745 88.6537 75.9273 88.8536 75.9273Z" fill="white"/>
<path d="M84.3887 76.3288V73.3304H84.9261V73.766H84.9601C84.9865 73.7207 85.0299 73.6585 85.0902 73.5793C85.1543 73.5001 85.2448 73.4303 85.3618 73.37C85.4787 73.3059 85.6258 73.2738 85.803 73.2738C86.0218 73.2738 86.2085 73.3247 86.3631 73.4266C86.5178 73.5246 86.6347 73.6585 86.7139 73.8282C86.7969 73.998 86.8384 74.1884 86.8384 74.3996V76.3288H86.3009V74.4336C86.3009 74.2337 86.2443 74.0677 86.1312 73.9357C86.0218 73.8037 85.8615 73.7377 85.6503 73.7377C85.4806 73.7377 85.3429 73.7811 85.2373 73.8678C85.1317 73.9508 85.0525 74.0621 84.9997 74.2016C84.9507 74.3374 84.9261 74.4826 84.9261 74.6373V76.3288H84.3887Z" fill="white"/>
<path d="M82.3323 76.3855C82.0343 76.3855 81.7967 76.2931 81.6194 76.1083C81.4422 75.9235 81.3535 75.667 81.3535 75.3388V73.3304H81.891V75.3106C81.891 75.5067 81.9438 75.6576 82.0494 75.7632C82.1588 75.8688 82.3021 75.9216 82.4794 75.9216C82.6604 75.9216 82.8056 75.8744 82.915 75.7801C83.0244 75.6858 83.1036 75.5651 83.1526 75.4181C83.2016 75.271 83.2261 75.1201 83.2261 74.9655V73.3304H83.7636V76.3289H83.2261V75.8989H83.1922C83.1696 75.9442 83.1262 76.0064 83.0621 76.0856C82.998 76.1611 82.9074 76.2308 82.7905 76.295C82.6736 76.3553 82.5208 76.3855 82.3323 76.3855Z" fill="white"/>
<path d="M78.0215 76.3289V72.1423H78.5759V74.0319L80.3863 72.148H81.1105L79.153 74.1564L81.1953 76.3289H80.4485L78.5759 74.3318V76.3289H78.0215Z" fill="white"/>
<path d="M74.7911 76.3854C74.4705 76.3854 74.2008 76.3119 73.982 76.1648C73.7633 76.0139 73.5973 75.8197 73.4842 75.5821C73.371 75.3444 73.3145 75.0936 73.3145 74.8296C73.3145 74.5618 73.371 74.311 73.4842 74.0772C73.5973 73.8396 73.7633 73.6472 73.982 73.5001C74.2008 73.3492 74.4705 73.2738 74.7911 73.2738C75.1116 73.2738 75.3813 73.3492 75.6001 73.5001C75.8188 73.6472 75.9848 73.8396 76.0979 74.0772C76.2111 74.311 76.2677 74.5618 76.2677 74.8296C76.2677 75.0936 76.2111 75.3444 76.0979 75.5821C75.9848 75.8197 75.8188 76.0139 75.6001 76.1648C75.3813 76.3119 75.1116 76.3854 74.7911 76.3854ZM74.7911 75.9158C74.9947 75.9158 75.1644 75.8649 75.3002 75.7631C75.4398 75.6575 75.5435 75.5217 75.6114 75.3558C75.6831 75.1898 75.7189 75.0144 75.7189 74.8296C75.7189 74.641 75.6831 74.4656 75.6114 74.3035C75.5435 74.1375 75.4398 74.0036 75.3002 73.9018C75.1644 73.7962 74.9947 73.7434 74.7911 73.7434C74.5912 73.7434 74.4214 73.7962 74.2819 73.9018C74.1423 74.0036 74.0367 74.1375 73.9651 74.3035C73.8972 74.4656 73.8632 74.641 73.8632 74.8296C73.8632 75.0144 73.8972 75.1898 73.9651 75.3558C74.0367 75.5217 74.1423 75.6575 74.2819 75.7631C74.4214 75.8649 74.5912 75.9158 74.7911 75.9158Z" fill="white"/>
<path d="M71.5518 76.3288V73.3304H72.0892V73.7038H72.1118C72.176 73.5906 72.2703 73.4907 72.3947 73.4039C72.5192 73.3172 72.6946 73.2738 72.9209 73.2738C72.985 73.2738 73.0434 73.2776 73.0962 73.2851C73.1491 73.2889 73.1755 73.2908 73.1755 73.2908V73.8056C73.1755 73.8056 73.1453 73.8037 73.0849 73.7999C73.0284 73.7924 72.968 73.7886 72.9039 73.7886C72.6436 73.7886 72.4419 73.8641 72.2985 74.0149C72.159 74.162 72.0892 74.4034 72.0892 74.7391V76.3288H71.5518Z" fill="white"/>
<path d="M68.0869 77.4377V73.3304H68.6244V73.8056H68.6583C68.7036 73.7339 68.7639 73.6566 68.8394 73.5737C68.9186 73.4907 69.0223 73.4209 69.1505 73.3643C69.2788 73.304 69.4372 73.2738 69.6257 73.2738C69.852 73.2738 70.0501 73.3191 70.2198 73.4096C70.3895 73.4963 70.5309 73.6151 70.6441 73.766C70.7572 73.9131 70.8421 74.0791 70.8987 74.2639C70.9553 74.4487 70.9835 74.6373 70.9835 74.8296C70.9835 75.022 70.9553 75.2105 70.8987 75.3954C70.8421 75.5802 70.7572 75.748 70.6441 75.8989C70.5309 76.046 70.3895 76.1648 70.2198 76.2553C70.0501 76.342 69.852 76.3854 69.6257 76.3854C69.4372 76.3854 69.2788 76.3552 69.1505 76.2949C69.0223 76.2346 68.9186 76.1629 68.8394 76.0799C68.7639 75.9969 68.7036 75.9215 68.6583 75.8536H68.6244V77.4377H68.0869ZM68.6357 74.8296C68.6357 75.0106 68.6677 75.186 68.7319 75.3558C68.7998 75.5217 68.8997 75.6594 69.0317 75.7688C69.1675 75.8744 69.3353 75.9272 69.5352 75.9272C69.7389 75.9272 69.9067 75.8744 70.0387 75.7688C70.1745 75.6594 70.2745 75.5217 70.3386 75.3558C70.4065 75.186 70.4404 75.0106 70.4404 74.8296C70.4404 74.6448 70.4065 74.4694 70.3386 74.3035C70.2745 74.1375 70.1745 74.0017 70.0387 73.8961C69.9067 73.7867 69.7389 73.7321 69.5352 73.7321C69.3353 73.7321 69.1675 73.7867 69.0317 73.8961C68.8997 74.0017 68.7998 74.1375 68.7319 74.3035C68.6677 74.4694 68.6357 74.6448 68.6357 74.8296Z" fill="white"/>
<path d="M63.8232 76.3288V73.3304H64.3607V73.766H64.3946C64.421 73.7207 64.4644 73.6585 64.5248 73.5793C64.5889 73.5001 64.6794 73.4303 64.7963 73.37C64.9132 73.3059 65.0603 73.2738 65.2376 73.2738C65.4564 73.2738 65.6431 73.3247 65.7977 73.4266C65.9523 73.5246 66.0693 73.6585 66.1485 73.8282C66.2314 73.998 66.2729 74.1884 66.2729 74.3996V76.3288H65.7355V74.4336C65.7355 74.2337 65.6789 74.0677 65.5657 73.9357C65.4564 73.8037 65.2961 73.7377 65.0849 73.7377C64.9151 73.7377 64.7775 73.7811 64.6719 73.8678C64.5663 73.9508 64.4871 74.0621 64.4342 74.2016C64.3852 74.3374 64.3607 74.4826 64.3607 74.6373V76.3288H63.8232Z" fill="white"/>
<path d="M61.9698 76.3854C61.7247 76.3854 61.5116 76.342 61.3305 76.2553C61.1533 76.1648 61.0062 76.0441 60.8893 75.8932C60.7761 75.7424 60.6912 75.5764 60.6347 75.3954C60.5781 75.2105 60.5498 75.022 60.5498 74.8296C60.5498 74.641 60.5762 74.4543 60.629 74.2695C60.6856 74.0847 60.7704 73.9169 60.8836 73.766C61.0005 73.6151 61.1457 73.4963 61.3192 73.4096C61.4965 73.3191 61.7058 73.2738 61.9472 73.2738C62.2037 73.2738 62.43 73.3323 62.6261 73.4492C62.8222 73.5661 62.9769 73.7396 63.09 73.9697C63.2032 74.1997 63.2597 74.4883 63.2597 74.8353V74.9937H61.0929C61.1042 75.1634 61.1438 75.3199 61.2117 75.4632C61.2834 75.6028 61.3833 75.7159 61.5116 75.8027C61.6398 75.8857 61.7926 75.9272 61.9698 75.9272C62.1245 75.9272 62.2489 75.9026 62.3432 75.8536C62.4413 75.8008 62.5186 75.7405 62.5752 75.6726C62.6318 75.6047 62.6695 75.5462 62.6883 75.4972C62.711 75.4444 62.7223 75.418 62.7223 75.418H63.2258C63.2258 75.418 63.2164 75.4519 63.1975 75.5198C63.1786 75.5839 63.1447 75.6631 63.0957 75.7574C63.0466 75.8517 62.975 75.9479 62.8807 76.046C62.7864 76.1403 62.6657 76.2214 62.5186 76.2892C62.3715 76.3534 62.1886 76.3854 61.9698 76.3854ZM61.0986 74.575H62.7336C62.7261 74.3789 62.6846 74.2205 62.6091 74.0998C62.5337 73.9753 62.4375 73.8829 62.3206 73.8226C62.2037 73.7622 62.0792 73.7321 61.9472 73.7321C61.7096 73.7321 61.5154 73.8094 61.3645 73.964C61.2136 74.1149 61.125 74.3186 61.0986 74.575Z" fill="white"/>
<path d="M58.6936 77.5169C58.4446 77.5169 58.2372 77.483 58.0712 77.4151C57.9053 77.351 57.7714 77.268 57.6696 77.1661C57.5715 77.0681 57.498 76.97 57.4489 76.872C57.3999 76.7739 57.3678 76.6909 57.3527 76.623C57.3377 76.5589 57.3301 76.5269 57.3301 76.5269H57.8676C57.8676 76.5269 57.877 76.5533 57.8959 76.6061C57.9147 76.6589 57.9506 76.7192 58.0034 76.7871C58.0599 76.855 58.1429 76.9153 58.2523 76.9681C58.3617 77.0209 58.5088 77.0473 58.6936 77.0473C58.9123 77.0473 59.0839 77.004 59.2084 76.9172C59.3329 76.8342 59.4215 76.7249 59.4743 76.5891C59.5309 76.4533 59.5592 76.31 59.5592 76.1591V75.814H59.5309C59.4932 75.8781 59.4328 75.9517 59.3498 76.0347C59.2706 76.1139 59.165 76.1836 59.033 76.244C58.901 76.3006 58.7388 76.3288 58.5465 76.3288C58.3202 76.3288 58.1222 76.2855 57.9524 76.1987C57.7827 76.112 57.6413 75.9951 57.5281 75.848C57.4188 75.7009 57.3358 75.5368 57.2792 75.3558C57.2226 75.1747 57.1943 74.9899 57.1943 74.8013C57.1943 74.6127 57.2226 74.4279 57.2792 74.2469C57.3358 74.0659 57.4188 73.9018 57.5281 73.7547C57.6413 73.6076 57.7827 73.4907 57.9524 73.4039C58.1222 73.3172 58.3202 73.2738 58.5465 73.2738C58.7388 73.2738 58.901 73.304 59.033 73.3643C59.165 73.4209 59.2706 73.4888 59.3498 73.568C59.4328 73.6472 59.4932 73.7207 59.5309 73.7886H59.5592V73.3304H60.0966V76.1535C60.0966 76.5721 59.974 76.904 59.7289 77.1492C59.4875 77.3943 59.1424 77.5169 58.6936 77.5169ZM58.6483 75.8706C58.8482 75.8706 59.0142 75.8197 59.1462 75.7178C59.2819 75.6122 59.3819 75.4783 59.446 75.3162C59.5139 75.154 59.5478 74.9824 59.5478 74.8013C59.5478 74.6203 59.5139 74.4487 59.446 74.2865C59.3819 74.1205 59.2819 73.9866 59.1462 73.8848C59.0142 73.783 58.8482 73.7321 58.6483 73.7321C58.4484 73.7321 58.2806 73.783 58.1448 73.8848C58.009 73.9866 57.9072 74.1205 57.8393 74.2865C57.7752 74.4487 57.7431 74.6203 57.7431 74.8013C57.7431 74.9824 57.7752 75.154 57.8393 75.3162C57.9072 75.4783 58.009 75.6122 58.1448 75.7178C58.2806 75.8197 58.4484 75.8706 58.6483 75.8706Z" fill="white"/>
<path d="M54.1777 76.3288V73.3304H54.7152V73.766H54.7491C54.7755 73.7207 54.8189 73.6585 54.8793 73.5793C54.9434 73.5001 55.0339 73.4303 55.1508 73.37C55.2677 73.3059 55.4148 73.2738 55.5921 73.2738C55.8109 73.2738 55.9976 73.3247 56.1522 73.4266C56.3068 73.5246 56.4238 73.6585 56.503 73.8282C56.5859 73.998 56.6274 74.1884 56.6274 74.3996V76.3288H56.09V74.4336C56.09 74.2337 56.0334 74.0677 55.9202 73.9357C55.8109 73.8037 55.6506 73.7377 55.4394 73.7377C55.2696 73.7377 55.132 73.7811 55.0264 73.8678C54.9208 73.9508 54.8415 74.0621 54.7887 74.2016C54.7397 74.3374 54.7152 74.4826 54.7152 74.6373V76.3288H54.1777Z" fill="white"/>
<path d="M52.1223 76.3855C51.8243 76.3855 51.5867 76.2931 51.4095 76.1083C51.2322 75.9235 51.1436 75.667 51.1436 75.3388V73.3304H51.681V75.3106C51.681 75.5067 51.7338 75.6576 51.8394 75.7632C51.9488 75.8688 52.0921 75.9216 52.2694 75.9216C52.4504 75.9216 52.5956 75.8744 52.705 75.7801C52.8144 75.6858 52.8936 75.5651 52.9426 75.4181C52.9917 75.271 53.0162 75.1201 53.0162 74.9655V73.3304H53.5536V76.3289H53.0162V75.8989H52.9822C52.9596 75.9442 52.9162 76.0064 52.8521 76.0856C52.788 76.1611 52.6975 76.2308 52.5806 76.295C52.4636 76.3553 52.3109 76.3855 52.1223 76.3855Z" fill="white"/>
<path d="M49.9277 76.329L49.9334 72.0293H50.4652V76.329H49.9277Z" fill="white"/>
<path d="M46.7988 76.329V72.0293H47.3363V73.7661H47.3702C47.3966 73.7209 47.44 73.6587 47.5004 73.5794C47.5645 73.5002 47.655 73.4305 47.7719 73.3701C47.8888 73.306 48.0359 73.2739 48.2132 73.2739C48.432 73.2739 48.6187 73.3249 48.7733 73.4267C48.9279 73.5248 49.0448 73.6587 49.1241 73.8284C49.207 73.9981 49.2485 74.1886 49.2485 74.3998V76.329H48.7111V74.4337C48.7111 74.2338 48.6545 74.0679 48.5413 73.9359C48.432 73.8039 48.2717 73.7379 48.0604 73.7379C47.8907 73.7379 47.7531 73.7812 47.6475 73.868C47.5418 73.951 47.4626 74.0622 47.4098 74.2018C47.3608 74.3375 47.3363 74.4828 47.3363 74.6374V76.329H46.7988Z" fill="white"/>
<path d="M44.8888 76.3854C44.6436 76.3854 44.4305 76.342 44.2495 76.2553C44.0722 76.1648 43.9251 76.0441 43.8082 75.8932C43.695 75.7424 43.6102 75.5764 43.5536 75.3954C43.497 75.2105 43.4688 75.022 43.4688 74.8296C43.4688 74.641 43.4952 74.4543 43.548 74.2695C43.6045 74.0847 43.6894 73.9169 43.8025 73.766C43.9195 73.6151 44.0647 73.4963 44.2382 73.4096C44.4154 73.3191 44.6248 73.2738 44.8661 73.2738C45.1226 73.2738 45.3489 73.3323 45.545 73.4492C45.7412 73.5661 45.8958 73.7396 46.009 73.9697C46.1221 74.1997 46.1787 74.4883 46.1787 74.8353V74.9937H44.0119C44.0232 75.1634 44.0628 75.3199 44.1307 75.4632C44.2023 75.6028 44.3023 75.7159 44.4305 75.8027C44.5588 75.8857 44.7115 75.9272 44.8888 75.9272C45.0434 75.9272 45.1679 75.9026 45.2622 75.8536C45.3602 75.8008 45.4376 75.7405 45.4941 75.6726C45.5507 75.6047 45.5884 75.5462 45.6073 75.4972C45.6299 75.4444 45.6412 75.418 45.6412 75.418H46.1447C46.1447 75.418 46.1353 75.4519 46.1164 75.5198C46.0976 75.5839 46.0636 75.6631 46.0146 75.7574C45.9656 75.8517 45.8939 75.9479 45.7996 76.046C45.7053 76.1403 45.5846 76.2214 45.4376 76.2892C45.2905 76.3534 45.1075 76.3854 44.8888 76.3854ZM44.0175 74.575H45.6525C45.645 74.3789 45.6035 74.2205 45.5281 74.0998C45.4526 73.9753 45.3565 73.8829 45.2395 73.8226C45.1226 73.7622 44.9982 73.7321 44.8661 73.7321C44.6285 73.7321 44.4343 73.8094 44.2834 73.964C44.1326 74.1149 44.0439 74.3186 44.0175 74.575Z" fill="white"/>
<path d="M42.0342 76.3289V73.7717H41.542V73.3305H42.0342V72.9627C42.0342 72.8043 42.0625 72.6497 42.1191 72.4988C42.1756 72.3442 42.2699 72.2178 42.4019 72.1198C42.5339 72.0217 42.7131 71.9727 42.9394 71.9727C43.0488 71.9727 43.1355 71.9821 43.1996 72.0009C43.2675 72.016 43.3015 72.0236 43.3015 72.0236V72.4479C43.3015 72.4479 43.2713 72.4422 43.2109 72.4309C43.1544 72.4158 43.0884 72.4083 43.0129 72.4083C42.8394 72.4083 42.7225 72.4611 42.6622 72.5667C42.6018 72.6723 42.5717 72.8043 42.5717 72.9627V73.3305H43.2675V73.7717H42.5717V76.3289H42.0342Z" fill="white"/>
<path d="M38.2197 77.4377V73.3304H38.7572V73.8056H38.7911C38.8364 73.7339 38.8967 73.6566 38.9722 73.5737C39.0514 73.4907 39.1551 73.4209 39.2833 73.3643C39.4116 73.304 39.57 73.2738 39.7586 73.2738C39.9849 73.2738 40.1829 73.3191 40.3526 73.4096C40.5223 73.4963 40.6638 73.6151 40.7769 73.766C40.8901 73.9131 40.9749 74.0791 41.0315 74.2639C41.0881 74.4487 41.1164 74.6373 41.1164 74.8296C41.1164 75.022 41.0881 75.2105 41.0315 75.3954C40.9749 75.5802 40.8901 75.748 40.7769 75.8989C40.6638 76.046 40.5223 76.1648 40.3526 76.2553C40.1829 76.342 39.9849 76.3854 39.7586 76.3854C39.57 76.3854 39.4116 76.3552 39.2833 76.2949C39.1551 76.2346 39.0514 76.1629 38.9722 76.0799C38.8967 75.9969 38.8364 75.9215 38.7911 75.8536H38.7572V77.4377H38.2197ZM38.7685 74.8296C38.7685 75.0106 38.8006 75.186 38.8647 75.3558C38.9326 75.5217 39.0325 75.6594 39.1645 75.7688C39.3003 75.8744 39.4681 75.9272 39.668 75.9272C39.8717 75.9272 40.0395 75.8744 40.1716 75.7688C40.3073 75.6594 40.4073 75.5217 40.4714 75.3558C40.5393 75.186 40.5732 75.0106 40.5732 74.8296C40.5732 74.6448 40.5393 74.4694 40.4714 74.3035C40.4073 74.1375 40.3073 74.0017 40.1716 73.8961C40.0395 73.7867 39.8717 73.7321 39.668 73.7321C39.4681 73.7321 39.3003 73.7867 39.1645 73.8961C39.0325 74.0017 38.9326 74.1375 38.8647 74.3035C38.8006 74.4694 38.7685 74.6448 38.7685 74.8296Z" fill="white"/>
<path d="M33.2832 76.3288V73.3304H33.8207V73.766H33.8433C33.8735 73.7094 33.9206 73.6434 33.9847 73.568C34.0488 73.4888 34.1356 73.4209 34.245 73.3643C34.3581 73.304 34.4996 73.2738 34.6693 73.2738C34.8918 73.2738 35.0785 73.3285 35.2294 73.4379C35.384 73.5435 35.499 73.6868 35.5745 73.8678H35.5801C35.6631 73.7019 35.78 73.5623 35.9309 73.4492C36.0855 73.3323 36.2854 73.2738 36.5306 73.2738C36.855 73.2738 37.1039 73.3851 37.2774 73.6076C37.4547 73.8264 37.5433 74.1092 37.5433 74.4562V76.3288H37.0058V74.4845C37.0058 74.262 36.953 74.0828 36.8474 73.947C36.7418 73.8075 36.5891 73.7377 36.3892 73.7377C36.2157 73.7377 36.0761 73.7849 35.9705 73.8792C35.8687 73.9734 35.7951 74.0904 35.7499 74.2299C35.7046 74.3695 35.682 74.509 35.682 74.6486V76.3288H35.1445V74.4845C35.1445 74.262 35.0917 74.0828 34.9861 73.947C34.8843 73.8075 34.7315 73.7377 34.5278 73.7377C34.3544 73.7377 34.2148 73.7849 34.1092 73.8792C34.0074 73.9734 33.9338 74.0923 33.8886 74.2356C33.8433 74.3751 33.8207 74.5128 33.8207 74.6486V76.3288H33.2832Z" fill="white"/>
<path d="M30.001 76.3289V72.1423H32.66V72.6289H30.5554V73.9527H32.3997V74.4393H30.5554V75.8423H32.6883V76.3289H30.001Z" fill="white"/>
</svg>
