<svg width="27" height="27" viewBox="0 0 27 27" fill="none" xmlns="http://www.w3.org/2000/svg">
<path d="M5.60778 14.8892C5.64696 14.85 5.69349 14.8188 5.7447 14.7976C5.79592 14.7764 5.85082 14.7654 5.90626 14.7654C5.9617 14.7654 6.0166 14.7764 6.06781 14.7976C6.11903 14.8188 6.16555 14.85 6.20474 14.8892L13.0781 21.7626L13.0781 4.2189C13.0781 4.10702 13.1226 3.99971 13.2017 3.92059C13.2808 3.84148 13.3881 3.79703 13.5 3.79703C13.6119 3.79703 13.7192 3.84148 13.7983 3.92059C13.8774 3.99971 13.9219 4.10702 13.9219 4.2189L13.9219 21.7626L20.7953 14.8892C20.8345 14.85 20.881 14.8189 20.9322 14.7977C20.9834 14.7765 21.0383 14.7655 21.0938 14.7655C21.1492 14.7655 21.2041 14.7765 21.2553 14.7977C21.3065 14.8189 21.353 14.85 21.3922 14.8892C21.4314 14.9284 21.4625 14.9749 21.4837 15.0261C21.505 15.0773 21.5159 15.1322 21.5159 15.1877C21.5159 15.2431 21.505 15.298 21.4837 15.3492C21.4625 15.4004 21.4314 15.4469 21.3922 15.4861L13.7985 23.0799C13.7593 23.1191 13.7128 23.1502 13.6616 23.1715C13.6103 23.1927 13.5555 23.2036 13.5 23.2036C13.4446 23.2036 13.3897 23.1927 13.3385 23.1715C13.2872 23.1502 13.2407 23.1191 13.2015 23.0799L5.60778 15.4861C5.56856 15.447 5.53744 15.4004 5.51621 15.3492C5.49498 15.298 5.48405 15.2431 5.48405 15.1877C5.48405 15.1322 5.49498 15.0773 5.51621 15.0261C5.53744 14.9749 5.56856 14.9284 5.60778 14.8892Z" fill="white" fill-opacity="0.8"/>
</svg>
