<svg width="151" height="152" viewBox="0 0 151 152" fill="none" xmlns="http://www.w3.org/2000/svg">
<path d="M49.4182 100L51.2452 94.82H52.1062L53.9402 100H53.2122L52.7782 98.761H50.5802L50.1462 100H49.4182ZM50.7902 98.145H52.5682L51.6792 95.604L50.7902 98.145ZM56.3715 100.07C56.1382 100.07 55.9422 100.033 55.7835 99.958C55.6249 99.8833 55.4965 99.7947 55.3985 99.692C55.3052 99.5893 55.2305 99.496 55.1745 99.412H55.1325V100H54.4675V94.68H55.1325V96.878H55.1745C55.2305 96.7893 55.3052 96.6937 55.3985 96.591C55.4965 96.4883 55.6249 96.402 55.7835 96.332C55.9422 96.2573 56.1382 96.22 56.3715 96.22C56.6515 96.22 56.8965 96.276 57.1065 96.388C57.3165 96.4953 57.4915 96.6423 57.6315 96.829C57.7715 97.011 57.8765 97.2163 57.9465 97.445C58.0165 97.6737 58.0515 97.907 58.0515 98.145C58.0515 98.383 58.0165 98.6163 57.9465 98.845C57.8765 99.0737 57.7715 99.2813 57.6315 99.468C57.4915 99.65 57.3165 99.797 57.1065 99.909C56.8965 100.016 56.6515 100.07 56.3715 100.07ZM56.2595 99.503C56.5115 99.503 56.7192 99.4377 56.8825 99.307C57.0505 99.1717 57.1742 99.0013 57.2535 98.796C57.3375 98.586 57.3795 98.369 57.3795 98.145C57.3795 97.9163 57.3375 97.6993 57.2535 97.494C57.1742 97.2887 57.0505 97.1207 56.8825 96.99C56.7192 96.8547 56.5115 96.787 56.2595 96.787C56.0122 96.787 55.8045 96.8547 55.6365 96.99C55.4732 97.1207 55.3495 97.2887 55.2655 97.494C55.1862 97.6993 55.1465 97.9163 55.1465 98.145C55.1465 98.369 55.1862 98.586 55.2655 98.796C55.3495 99.0013 55.4732 99.1717 55.6365 99.307C55.8045 99.4377 56.0122 99.503 56.2595 99.503ZM59.9719 100.07C59.6873 100.07 59.4516 100.03 59.2649 99.951C59.0829 99.8717 58.9383 99.7737 58.8309 99.657C58.7236 99.5357 58.6443 99.4167 58.5929 99.3C58.5416 99.1787 58.5089 99.0783 58.4949 98.999C58.4809 98.9197 58.4739 98.88 58.4739 98.88H59.1459C59.1459 98.88 59.1529 98.9127 59.1669 98.978C59.1856 99.0387 59.2206 99.111 59.2719 99.195C59.3279 99.2743 59.4119 99.3467 59.5239 99.412C59.6406 99.4727 59.7946 99.503 59.9859 99.503C60.2053 99.503 60.3756 99.4517 60.4969 99.349C60.6183 99.2417 60.6789 99.111 60.6789 98.957C60.6789 98.8217 60.6299 98.7143 60.5319 98.635C60.4386 98.5557 60.3033 98.495 60.1259 98.453L59.6219 98.334C59.4353 98.2873 59.2603 98.2243 59.0969 98.145C58.9336 98.0657 58.8006 97.9583 58.6979 97.823C58.5999 97.683 58.5509 97.5103 58.5509 97.305C58.5509 96.9877 58.6699 96.7287 58.9079 96.528C59.1459 96.3227 59.4563 96.22 59.8389 96.22C60.0956 96.22 60.3079 96.2573 60.4759 96.332C60.6439 96.402 60.7769 96.4907 60.8749 96.598C60.9776 96.7053 61.0523 96.8127 61.0989 96.92C61.1503 97.0273 61.1829 97.1183 61.1969 97.193C61.2109 97.263 61.2179 97.298 61.2179 97.298H60.5739C60.5739 97.298 60.5669 97.2723 60.5529 97.221C60.5389 97.165 60.5063 97.1043 60.4549 97.039C60.4083 96.969 60.3359 96.9083 60.2379 96.857C60.1399 96.801 60.0093 96.773 59.8459 96.773C59.6219 96.773 59.4586 96.8243 59.3559 96.927C59.2533 97.0297 59.2019 97.1417 59.2019 97.263C59.2019 97.3797 59.2486 97.4753 59.3419 97.55C59.4399 97.62 59.5659 97.6737 59.7199 97.711L60.2309 97.83C60.5483 97.9047 60.8096 98.0283 61.0149 98.201C61.2249 98.369 61.3299 98.6117 61.3299 98.929C61.3299 99.1343 61.2763 99.3257 61.1689 99.503C61.0616 99.6757 60.9076 99.8133 60.7069 99.916C60.5063 100.019 60.2613 100.07 59.9719 100.07ZM63.5073 100.07C63.2039 100.07 62.9379 100.016 62.7093 99.909C62.4806 99.797 62.2893 99.65 62.1353 99.468C61.9859 99.2813 61.8716 99.0737 61.7923 98.845C61.7176 98.6163 61.6803 98.383 61.6803 98.145C61.6803 97.907 61.7176 97.676 61.7923 97.452C61.8669 97.2233 61.9789 97.0157 62.1283 96.829C62.2823 96.6423 62.4736 96.4953 62.7023 96.388C62.9309 96.276 63.1993 96.22 63.5073 96.22C63.8059 96.22 64.0533 96.2643 64.2493 96.353C64.4453 96.4417 64.6016 96.5537 64.7183 96.689C64.8396 96.8197 64.9283 96.9527 64.9843 97.088C65.0449 97.2187 65.0846 97.3283 65.1033 97.417C65.1219 97.5057 65.1313 97.55 65.1313 97.55H64.4873C64.4873 97.55 64.4756 97.5127 64.4523 97.438C64.4289 97.3587 64.3846 97.27 64.3193 97.172C64.2539 97.074 64.1559 96.9877 64.0253 96.913C63.8946 96.8337 63.7219 96.794 63.5073 96.794C63.2506 96.794 63.0336 96.8593 62.8563 96.99C62.6836 97.116 62.5529 97.2817 62.4643 97.487C62.3803 97.6923 62.3383 97.9117 62.3383 98.145C62.3383 98.3783 62.3803 98.5977 62.4643 98.803C62.5529 99.0083 62.6836 99.1763 62.8563 99.307C63.0336 99.433 63.2506 99.496 63.5073 99.496C63.7219 99.496 63.8946 99.4587 64.0253 99.384C64.1559 99.3047 64.2539 99.216 64.3193 99.118C64.3846 99.02 64.4289 98.9337 64.4523 98.859C64.4756 98.7797 64.4873 98.74 64.4873 98.74H65.1313C65.1313 98.74 65.1219 98.7843 65.1033 98.873C65.0846 98.9617 65.0449 99.0737 64.9843 99.209C64.9283 99.3397 64.8396 99.4727 64.7183 99.608C64.6016 99.7387 64.4453 99.8483 64.2493 99.937C64.0533 100.026 63.8059 100.07 63.5073 100.07ZM65.7632 100V94.68H66.4282V96.829H66.4702C66.5029 96.773 66.5566 96.696 66.6312 96.598C66.7106 96.5 66.8226 96.4137 66.9672 96.339C67.1119 96.2597 67.2939 96.22 67.5132 96.22C67.7839 96.22 68.0149 96.283 68.2062 96.409C68.3976 96.5303 68.5422 96.696 68.6402 96.906C68.7429 97.116 68.7942 97.3517 68.7942 97.613V100H68.1292V97.655C68.1292 97.4077 68.0592 97.2023 67.9192 97.039C67.7839 96.8757 67.5856 96.794 67.3242 96.794C67.1142 96.794 66.9439 96.8477 66.8132 96.955C66.6826 97.0577 66.5846 97.1953 66.5192 97.368C66.4586 97.536 66.4282 97.7157 66.4282 97.907V100H65.7632ZM69.4943 100L69.5013 94.68H70.1593V100H69.4943ZM73.1055 95.723C72.9795 95.723 72.8745 95.681 72.7905 95.597C72.7111 95.513 72.6715 95.4127 72.6715 95.296C72.6715 95.1747 72.7111 95.072 72.7905 94.988C72.8745 94.904 72.9795 94.862 73.1055 94.862C73.2268 94.862 73.3295 94.904 73.4135 94.988C73.4975 95.072 73.5395 95.1747 73.5395 95.296C73.5395 95.4127 73.4975 95.513 73.4135 95.597C73.3295 95.681 73.2268 95.723 73.1055 95.723ZM71.7755 95.723C71.6495 95.723 71.5445 95.681 71.4605 95.597C71.3811 95.513 71.3415 95.4127 71.3415 95.296C71.3415 95.1747 71.3811 95.072 71.4605 94.988C71.5445 94.904 71.6495 94.862 71.7755 94.862C71.8968 94.862 71.9995 94.904 72.0835 94.988C72.1675 95.072 72.2095 95.1747 72.2095 95.296C72.2095 95.4127 72.1675 95.513 72.0835 95.597C71.9995 95.681 71.8968 95.723 71.7755 95.723ZM72.1745 100.07C71.8058 100.07 71.5118 99.9557 71.2925 99.727C71.0731 99.4983 70.9635 99.181 70.9635 98.775V96.29H71.6285V98.74C71.6285 98.9827 71.6938 99.1693 71.8245 99.3C71.9598 99.4307 72.1371 99.496 72.3565 99.496C72.5805 99.496 72.7601 99.4377 72.8955 99.321C73.0308 99.2043 73.1288 99.055 73.1895 98.873C73.2501 98.691 73.2805 98.5043 73.2805 98.313V96.29H73.9455V100H73.2805V99.468H73.2385C73.2105 99.524 73.1568 99.601 73.0775 99.699C72.9981 99.7923 72.8861 99.8787 72.7415 99.958C72.5968 100.033 72.4078 100.07 72.1745 100.07ZM76.0022 100.07C75.7175 100.07 75.4819 100.03 75.2952 99.951C75.1132 99.8717 74.9685 99.7737 74.8612 99.657C74.7539 99.5357 74.6745 99.4167 74.6232 99.3C74.5719 99.1787 74.5392 99.0783 74.5252 98.999C74.5112 98.9197 74.5042 98.88 74.5042 98.88H75.1762C75.1762 98.88 75.1832 98.9127 75.1972 98.978C75.2159 99.0387 75.2509 99.111 75.3022 99.195C75.3582 99.2743 75.4422 99.3467 75.5542 99.412C75.6709 99.4727 75.8249 99.503 76.0162 99.503C76.2355 99.503 76.4059 99.4517 76.5272 99.349C76.6485 99.2417 76.7092 99.111 76.7092 98.957C76.7092 98.8217 76.6602 98.7143 76.5622 98.635C76.4689 98.5557 76.3335 98.495 76.1562 98.453L75.6522 98.334C75.4655 98.2873 75.2905 98.2243 75.1272 98.145C74.9639 98.0657 74.8309 97.9583 74.7282 97.823C74.6302 97.683 74.5812 97.5103 74.5812 97.305C74.5812 96.9877 74.7002 96.7287 74.9382 96.528C75.1762 96.3227 75.4865 96.22 75.8692 96.22C76.1259 96.22 76.3382 96.2573 76.5062 96.332C76.6742 96.402 76.8072 96.4907 76.9052 96.598C77.0079 96.7053 77.0825 96.8127 77.1292 96.92C77.1805 97.0273 77.2132 97.1183 77.2272 97.193C77.2412 97.263 77.2482 97.298 77.2482 97.298H76.6042C76.6042 97.298 76.5972 97.2723 76.5832 97.221C76.5692 97.165 76.5365 97.1043 76.4852 97.039C76.4385 96.969 76.3662 96.9083 76.2682 96.857C76.1702 96.801 76.0395 96.773 75.8762 96.773C75.6522 96.773 75.4889 96.8243 75.3862 96.927C75.2835 97.0297 75.2322 97.1417 75.2322 97.263C75.2322 97.3797 75.2789 97.4753 75.3722 97.55C75.4702 97.62 75.5962 97.6737 75.7502 97.711L76.2612 97.83C76.5785 97.9047 76.8399 98.0283 77.0452 98.201C77.2552 98.369 77.3602 98.6117 77.3602 98.929C77.3602 99.1343 77.3065 99.3257 77.1992 99.503C77.0919 99.6757 76.9379 99.8133 76.7372 99.916C76.5365 100.019 76.2915 100.07 76.0022 100.07ZM79.2069 100.07C78.9222 100.07 78.6866 100.03 78.4999 99.951C78.3179 99.8717 78.1732 99.7737 78.0659 99.657C77.9586 99.5357 77.8792 99.4167 77.8279 99.3C77.7766 99.1787 77.7439 99.0783 77.7299 98.999C77.7159 98.9197 77.7089 98.88 77.7089 98.88H78.3809C78.3809 98.88 78.3879 98.9127 78.4019 98.978C78.4206 99.0387 78.4556 99.111 78.5069 99.195C78.5629 99.2743 78.6469 99.3467 78.7589 99.412C78.8756 99.4727 79.0296 99.503 79.2209 99.503C79.4402 99.503 79.6106 99.4517 79.7319 99.349C79.8532 99.2417 79.9139 99.111 79.9139 98.957C79.9139 98.8217 79.8649 98.7143 79.7669 98.635C79.6736 98.5557 79.5382 98.495 79.3609 98.453L78.8569 98.334C78.6702 98.2873 78.4952 98.2243 78.3319 98.145C78.1686 98.0657 78.0356 97.9583 77.9329 97.823C77.8349 97.683 77.7859 97.5103 77.7859 97.305C77.7859 96.9877 77.9049 96.7287 78.1429 96.528C78.3809 96.3227 78.6912 96.22 79.0739 96.22C79.3306 96.22 79.5429 96.2573 79.7109 96.332C79.8789 96.402 80.0119 96.4907 80.1099 96.598C80.2126 96.7053 80.2872 96.8127 80.3339 96.92C80.3852 97.0273 80.4179 97.1183 80.4319 97.193C80.4459 97.263 80.4529 97.298 80.4529 97.298H79.8089C79.8089 97.298 79.8019 97.2723 79.7879 97.221C79.7739 97.165 79.7412 97.1043 79.6899 97.039C79.6432 96.969 79.5709 96.9083 79.4729 96.857C79.3749 96.801 79.2442 96.773 79.0809 96.773C78.8569 96.773 78.6936 96.8243 78.5909 96.927C78.4882 97.0297 78.4369 97.1417 78.4369 97.263C78.4369 97.3797 78.4836 97.4753 78.5769 97.55C78.6749 97.62 78.8009 97.6737 78.9549 97.711L79.4659 97.83C79.7832 97.9047 80.0446 98.0283 80.2499 98.201C80.4599 98.369 80.5649 98.6117 80.5649 98.929C80.5649 99.1343 80.5112 99.3257 80.4039 99.503C80.2966 99.6757 80.1426 99.8133 79.9419 99.916C79.7412 100.019 79.4962 100.07 79.2069 100.07ZM82.6722 100.07C82.3689 100.07 82.1052 100.016 81.8812 99.909C81.6619 99.797 81.4799 99.6477 81.3352 99.461C81.1952 99.2743 81.0902 99.069 81.0202 98.845C80.9502 98.6163 80.9152 98.383 80.9152 98.145C80.9152 97.9117 80.9479 97.6807 81.0132 97.452C81.0832 97.2233 81.1882 97.0157 81.3282 96.829C81.4729 96.6423 81.6525 96.4953 81.8672 96.388C82.0865 96.276 82.3455 96.22 82.6442 96.22C82.9615 96.22 83.2415 96.2923 83.4842 96.437C83.7269 96.5817 83.9182 96.7963 84.0582 97.081C84.1982 97.3657 84.2682 97.7227 84.2682 98.152V98.348H81.5872C81.6012 98.558 81.6502 98.7517 81.7342 98.929C81.8229 99.1017 81.9465 99.2417 82.1052 99.349C82.2639 99.4517 82.4529 99.503 82.6722 99.503C82.8635 99.503 83.0175 99.4727 83.1342 99.412C83.2555 99.3467 83.3512 99.272 83.4212 99.188C83.4912 99.104 83.5379 99.0317 83.5612 98.971C83.5892 98.9057 83.6032 98.873 83.6032 98.873H84.2262C84.2262 98.873 84.2145 98.915 84.1912 98.999C84.1679 99.0783 84.1259 99.1763 84.0652 99.293C84.0045 99.4097 83.9159 99.5287 83.7992 99.65C83.6825 99.7667 83.5332 99.867 83.3512 99.951C83.1692 100.03 82.9429 100.07 82.6722 100.07ZM81.5942 97.83H83.6172C83.6079 97.5873 83.5565 97.3913 83.4632 97.242C83.3699 97.088 83.2509 96.9737 83.1062 96.899C82.9615 96.8243 82.8075 96.787 82.6442 96.787C82.3502 96.787 82.1099 96.8827 81.9232 97.074C81.7365 97.2607 81.6269 97.5127 81.5942 97.83ZM87.6989 96.22C87.9323 96.22 88.1283 96.2573 88.2869 96.332C88.4456 96.4067 88.5739 96.4953 88.6719 96.598C88.7699 96.696 88.8446 96.7893 88.8959 96.878H88.9379V96.29H89.6029V100H88.9379V99.412H88.8959C88.8446 99.5007 88.7699 99.5963 88.6719 99.699C88.5739 99.8017 88.4456 99.8903 88.2869 99.965C88.1283 100.035 87.9323 100.07 87.6989 100.07C87.4189 100.07 87.1739 100.016 86.9639 99.909C86.7539 99.797 86.5789 99.65 86.4389 99.468C86.2989 99.2813 86.1939 99.0737 86.1239 98.845C86.0539 98.6163 86.0189 98.383 86.0189 98.145C86.0189 97.907 86.0539 97.6737 86.1239 97.445C86.1939 97.2163 86.2989 97.011 86.4389 96.829C86.5789 96.6423 86.7539 96.4953 86.9639 96.388C87.1739 96.276 87.4189 96.22 87.6989 96.22ZM87.8109 96.787C87.5636 96.787 87.3559 96.8547 87.1879 96.99C87.0199 97.1207 86.8939 97.2887 86.8099 97.494C86.7306 97.6993 86.6909 97.9163 86.6909 98.145C86.6909 98.369 86.7306 98.586 86.8099 98.796C86.8939 99.0013 87.0199 99.1717 87.1879 99.307C87.3559 99.4377 87.5636 99.503 87.8109 99.503C88.0583 99.503 88.2636 99.4377 88.4269 99.307C88.5949 99.1717 88.7186 99.0013 88.7979 98.796C88.8819 98.586 88.9239 98.369 88.9239 98.145C88.9239 97.9163 88.8819 97.6993 88.7979 97.494C88.7186 97.2887 88.5949 97.1207 88.4269 96.99C88.2636 96.8547 88.0583 96.787 87.8109 96.787ZM91.4411 100.07C91.0725 100.07 90.7785 99.9557 90.5591 99.727C90.3398 99.4983 90.2301 99.181 90.2301 98.775V96.29H90.8951V98.74C90.8951 98.9827 90.9605 99.1693 91.0911 99.3C91.2265 99.4307 91.4038 99.496 91.6231 99.496C91.8471 99.496 92.0268 99.4377 92.1621 99.321C92.2975 99.2043 92.3955 99.055 92.4561 98.873C92.5168 98.691 92.5471 98.5043 92.5471 98.313V96.29H93.2121V100H92.5471V99.468H92.5051C92.4771 99.524 92.4235 99.601 92.3441 99.699C92.2648 99.7923 92.1528 99.8787 92.0081 99.958C91.8635 100.033 91.6745 100.07 91.4411 100.07ZM95.203 100.07C94.9183 100.07 94.6826 100.03 94.496 99.951C94.314 99.8717 94.1693 99.7737 94.062 99.657C93.9546 99.5357 93.8753 99.4167 93.824 99.3C93.7726 99.1787 93.74 99.0783 93.726 98.999C93.712 98.9197 93.705 98.88 93.705 98.88H94.377C94.377 98.88 94.384 98.9127 94.398 98.978C94.4166 99.0387 94.4516 99.111 94.503 99.195C94.559 99.2743 94.643 99.3467 94.755 99.412C94.8716 99.4727 95.0256 99.503 95.217 99.503C95.4363 99.503 95.6066 99.4517 95.728 99.349C95.8493 99.2417 95.91 99.111 95.91 98.957C95.91 98.8217 95.861 98.7143 95.763 98.635C95.6696 98.5557 95.5343 98.495 95.357 98.453L94.853 98.334C94.6663 98.2873 94.4913 98.2243 94.328 98.145C94.1646 98.0657 94.0316 97.9583 93.929 97.823C93.831 97.683 93.782 97.5103 93.782 97.305C93.782 96.9877 93.901 96.7287 94.139 96.528C94.377 96.3227 94.6873 96.22 95.07 96.22C95.3266 96.22 95.539 96.2573 95.707 96.332C95.875 96.402 96.008 96.4907 96.106 96.598C96.2086 96.7053 96.2833 96.8127 96.33 96.92C96.3813 97.0273 96.414 97.1183 96.428 97.193C96.442 97.263 96.449 97.298 96.449 97.298H95.805C95.805 97.298 95.798 97.2723 95.784 97.221C95.77 97.165 95.7373 97.1043 95.686 97.039C95.6393 96.969 95.567 96.9083 95.469 96.857C95.371 96.801 95.2403 96.773 95.077 96.773C94.853 96.773 94.6896 96.8243 94.587 96.927C94.4843 97.0297 94.433 97.1417 94.433 97.263C94.433 97.3797 94.4796 97.4753 94.573 97.55C94.671 97.62 94.797 97.6737 94.951 97.711L95.462 97.83C95.7793 97.9047 96.0406 98.0283 96.246 98.201C96.456 98.369 96.561 98.6117 96.561 98.929C96.561 99.1343 96.5073 99.3257 96.4 99.503C96.2926 99.6757 96.1386 99.8133 95.938 99.916C95.7373 100.019 95.4923 100.07 95.203 100.07ZM99.7479 94.82V100H99.0759V95.982L98.1029 95.989V95.597L98.2779 95.541C98.5253 95.4617 98.7236 95.3753 98.8729 95.282C99.0269 95.1887 99.1693 95.0603 99.2999 94.897L99.3629 94.82H99.7479ZM102.532 100.063C102.21 100.063 101.926 99.993 101.678 99.853C101.431 99.7083 101.223 99.5147 101.055 99.272C100.892 99.0247 100.766 98.74 100.677 98.418C100.593 98.096 100.551 97.7577 100.551 97.403C100.551 97.0437 100.593 96.7053 100.677 96.388C100.766 96.066 100.892 95.7813 101.055 95.534C101.223 95.2867 101.431 95.093 101.678 94.953C101.926 94.813 102.21 94.743 102.532 94.743C102.854 94.743 103.139 94.813 103.386 94.953C103.634 95.093 103.839 95.2867 104.002 95.534C104.17 95.7813 104.296 96.066 104.38 96.388C104.469 96.7053 104.513 97.0437 104.513 97.403C104.513 97.7577 104.469 98.096 104.38 98.418C104.296 98.74 104.17 99.0247 104.002 99.272C103.839 99.5147 103.634 99.7083 103.386 99.853C103.139 99.993 102.854 100.063 102.532 100.063ZM102.532 99.433C102.901 99.433 103.204 99.2627 103.442 98.922C103.685 98.5767 103.806 98.0703 103.806 97.403C103.806 96.7357 103.685 96.2317 103.442 95.891C103.204 95.5503 102.901 95.38 102.532 95.38C102.164 95.38 101.858 95.5503 101.615 95.891C101.377 96.2317 101.258 96.7357 101.258 97.403C101.258 98.0657 101.377 98.5697 101.615 98.915C101.858 99.2603 102.164 99.433 102.532 99.433ZM64.5745 111V106.422H62.9575V105.82H66.8775V106.422H65.2605V111H64.5745ZM68.3933 111.07C68.09 111.07 67.8263 111.016 67.6023 110.909C67.383 110.797 67.201 110.648 67.0563 110.461C66.9163 110.274 66.8113 110.069 66.7413 109.845C66.6713 109.616 66.6363 109.383 66.6363 109.145C66.6363 108.912 66.669 108.681 66.7343 108.452C66.8043 108.223 66.9093 108.016 67.0493 107.829C67.194 107.642 67.3736 107.495 67.5883 107.388C67.8076 107.276 68.0666 107.22 68.3653 107.22C68.6826 107.22 68.9626 107.292 69.2053 107.437C69.448 107.582 69.6393 107.796 69.7793 108.081C69.9193 108.366 69.9893 108.723 69.9893 109.152V109.348H67.3083C67.3223 109.558 67.3713 109.752 67.4553 109.929C67.544 110.102 67.6676 110.242 67.8263 110.349C67.985 110.452 68.174 110.503 68.3933 110.503C68.5846 110.503 68.7386 110.473 68.8553 110.412C68.9766 110.347 69.0723 110.272 69.1423 110.188C69.2123 110.104 69.259 110.032 69.2823 109.971C69.3103 109.906 69.3243 109.873 69.3243 109.873H69.9473C69.9473 109.873 69.9356 109.915 69.9123 109.999C69.889 110.078 69.847 110.176 69.7863 110.293C69.7256 110.41 69.637 110.529 69.5203 110.65C69.4036 110.767 69.2543 110.867 69.0723 110.951C68.8903 111.03 68.664 111.07 68.3933 111.07ZM67.3153 108.83H69.3383C69.329 108.587 69.2776 108.391 69.1843 108.242C69.091 108.088 68.972 107.974 68.8273 107.899C68.6826 107.824 68.5286 107.787 68.3653 107.787C68.0713 107.787 67.831 107.883 67.6443 108.074C67.4576 108.261 67.348 108.513 67.3153 108.83ZM70.5467 111V107.29H71.2117V107.752H71.2397C71.3191 107.612 71.4357 107.488 71.5897 107.381C71.7437 107.274 71.9607 107.22 72.2407 107.22C72.3201 107.22 72.3924 107.225 72.4577 107.234C72.5231 107.239 72.5557 107.241 72.5557 107.241V107.878C72.5557 107.878 72.5184 107.876 72.4437 107.871C72.3737 107.862 72.2991 107.857 72.2197 107.857C71.8977 107.857 71.6481 107.95 71.4707 108.137C71.2981 108.319 71.2117 108.618 71.2117 109.033V111H70.5467ZM72.9379 111V107.29H73.6029V107.829H73.6309C73.6683 107.759 73.7266 107.677 73.8059 107.584C73.8853 107.486 73.9926 107.402 74.1279 107.332C74.2679 107.257 74.4429 107.22 74.6529 107.22C74.9283 107.22 75.1593 107.288 75.3459 107.423C75.5373 107.554 75.6796 107.731 75.7729 107.955H75.7799C75.8826 107.75 76.0273 107.577 76.2139 107.437C76.4053 107.292 76.6526 107.22 76.9559 107.22C77.3573 107.22 77.6653 107.358 77.8799 107.633C78.0993 107.904 78.2089 108.254 78.2089 108.683V111H77.5439V108.718C77.5439 108.443 77.4786 108.221 77.3479 108.053C77.2173 107.88 77.0283 107.794 76.7809 107.794C76.5663 107.794 76.3936 107.852 76.2629 107.969C76.1369 108.086 76.0459 108.23 75.9899 108.403C75.9339 108.576 75.9059 108.748 75.9059 108.921V111H75.2409V108.718C75.2409 108.443 75.1756 108.221 75.0449 108.053C74.9189 107.88 74.7299 107.794 74.4779 107.794C74.2633 107.794 74.0906 107.852 73.9599 107.969C73.8339 108.086 73.7429 108.233 73.6869 108.41C73.6309 108.583 73.6029 108.753 73.6029 108.921V111H72.9379ZM79.27 106.583C79.144 106.583 79.039 106.541 78.955 106.457C78.8757 106.373 78.836 106.273 78.836 106.156C78.836 106.035 78.8757 105.932 78.955 105.848C79.039 105.764 79.144 105.722 79.27 105.722C79.3913 105.722 79.494 105.764 79.578 105.848C79.662 105.932 79.704 106.035 79.704 106.156C79.704 106.273 79.662 106.373 79.578 106.457C79.494 106.541 79.3913 106.583 79.27 106.583ZM78.941 111V107.29H79.606V111H78.941ZM80.3317 111V107.29H80.9967V107.829H81.0387C81.0714 107.773 81.125 107.696 81.1997 107.598C81.279 107.5 81.391 107.414 81.5357 107.339C81.6804 107.26 81.8624 107.22 82.0817 107.22C82.3524 107.22 82.5834 107.283 82.7747 107.409C82.966 107.53 83.1107 107.696 83.2087 107.906C83.3114 108.116 83.3627 108.352 83.3627 108.613V111H82.6977V108.655C82.6977 108.408 82.6277 108.202 82.4877 108.039C82.3524 107.876 82.154 107.794 81.8927 107.794C81.6827 107.794 81.5124 107.848 81.3817 107.955C81.251 108.058 81.153 108.195 81.0877 108.368C81.027 108.536 80.9967 108.716 80.9967 108.907V111H80.3317ZM85.6814 111.07C85.3781 111.07 85.1144 111.016 84.8904 110.909C84.6711 110.797 84.4891 110.648 84.3444 110.461C84.2044 110.274 84.0994 110.069 84.0294 109.845C83.9594 109.616 83.9244 109.383 83.9244 109.145C83.9244 108.912 83.9571 108.681 84.0224 108.452C84.0924 108.223 84.1974 108.016 84.3374 107.829C84.4821 107.642 84.6617 107.495 84.8764 107.388C85.0957 107.276 85.3547 107.22 85.6534 107.22C85.9707 107.22 86.2507 107.292 86.4934 107.437C86.7361 107.582 86.9274 107.796 87.0674 108.081C87.2074 108.366 87.2774 108.723 87.2774 109.152V109.348H84.5964C84.6104 109.558 84.6594 109.752 84.7434 109.929C84.8321 110.102 84.9557 110.242 85.1144 110.349C85.2731 110.452 85.4621 110.503 85.6814 110.503C85.8727 110.503 86.0267 110.473 86.1434 110.412C86.2647 110.347 86.3604 110.272 86.4304 110.188C86.5004 110.104 86.5471 110.032 86.5704 109.971C86.5984 109.906 86.6124 109.873 86.6124 109.873H87.2354C87.2354 109.873 87.2237 109.915 87.2004 109.999C87.1771 110.078 87.1351 110.176 87.0744 110.293C87.0137 110.41 86.9251 110.529 86.8084 110.65C86.6917 110.767 86.5424 110.867 86.3604 110.951C86.1784 111.03 85.9521 111.07 85.6814 111.07ZM84.6034 108.83H86.6264C86.6171 108.587 86.5657 108.391 86.4724 108.242C86.3791 108.088 86.2601 107.974 86.1154 107.899C85.9707 107.824 85.8167 107.787 85.6534 107.787C85.3594 107.787 85.1191 107.883 84.9324 108.074C84.7457 108.261 84.6361 108.513 84.6034 108.83ZM87.8348 111V107.29H88.4998V107.829H88.5418C88.5745 107.773 88.6282 107.696 88.7028 107.598C88.7822 107.5 88.8942 107.414 89.0388 107.339C89.1835 107.26 89.3655 107.22 89.5848 107.22C89.8555 107.22 90.0865 107.283 90.2778 107.409C90.4692 107.53 90.6138 107.696 90.7118 107.906C90.8145 108.116 90.8658 108.352 90.8658 108.613V111H90.2008V108.655C90.2008 108.408 90.1308 108.202 89.9908 108.039C89.8555 107.876 89.6572 107.794 89.3958 107.794C89.1858 107.794 89.0155 107.848 88.8848 107.955C88.7542 108.058 88.6562 108.195 88.5908 108.368C88.5302 108.536 88.4998 108.716 88.4998 108.907V111H87.8348Z" fill="white"/>
<path d="M62.22 87V81.816L49.368 81.78V76.416L60.708 60.36H68.448V76.596H72.408V81.816H68.448V87H62.22ZM55.452 76.596H62.22V66.948L55.452 76.596ZM74.5916 78.18V73.356H88.0916V78.18H74.5916ZM101.788 87.36C99.8917 87.36 98.2357 87.036 96.8197 86.388C95.4277 85.716 94.2757 84.816 93.3637 83.688C92.4517 82.536 91.7677 81.24 91.3117 79.8C90.8557 78.336 90.6277 76.812 90.6277 75.228C90.6277 73.452 90.9157 71.676 91.4917 69.9C92.0677 68.1 92.9557 66.456 94.1557 64.968C95.3797 63.456 96.9277 62.256 98.7997 61.368C100.696 60.456 102.952 60 105.568 60C106.6 60 107.488 60.06 108.232 60.18C109 60.276 109.384 60.324 109.384 60.324V65.868C109.384 65.868 109.18 65.844 108.772 65.796C108.388 65.724 107.908 65.664 107.332 65.616C106.756 65.544 106.18 65.508 105.604 65.508C103.948 65.508 102.508 65.808 101.284 66.408C100.084 67.008 99.1237 67.836 98.4037 68.892C97.7077 69.924 97.2877 71.088 97.1437 72.384C97.3837 71.976 97.7557 71.532 98.2597 71.052C98.7637 70.572 99.4357 70.164 100.276 69.828C101.14 69.468 102.196 69.288 103.444 69.288C105.34 69.288 106.924 69.696 108.196 70.512C109.492 71.328 110.464 72.396 111.112 73.716C111.76 75.012 112.084 76.392 112.084 77.856C112.084 79.008 111.868 80.148 111.436 81.276C111.028 82.404 110.392 83.436 109.528 84.372C108.664 85.284 107.584 86.016 106.288 86.568C105.016 87.096 103.516 87.36 101.788 87.36ZM101.824 82.248C103.144 82.248 104.176 81.84 104.92 81.024C105.664 80.208 106.036 79.224 106.036 78.072C106.036 76.92 105.664 75.936 104.92 75.12C104.176 74.304 103.144 73.896 101.824 73.896C100.528 73.896 99.4957 74.304 98.7277 75.12C97.9837 75.936 97.6117 76.92 97.6117 78.072C97.6117 79.224 97.9837 80.208 98.7277 81.024C99.4957 81.84 100.528 82.248 101.824 82.248Z" fill="white"/>
<ellipse cx="75.5" cy="76" rx="70.5" ry="71" stroke="#D9D9D9" stroke-width="10"/>
<path d="M40.6767 131.91C38.3443 130.432 35.2551 131.125 33.7768 133.457C32.2985 135.789 32.9909 138.879 35.3233 140.357L40.6767 131.91ZM141 76C141 112.484 111.641 142 75.5 142V152C117.231 152 151 117.94 151 76H141ZM75.5 10C111.641 10 141 39.5158 141 76H151C151 34.0597 117.231 0 75.5 0V10ZM75.5 142C62.6962 142 50.7628 138.303 40.6767 131.91L35.3233 140.357C46.9599 147.732 60.7416 152 75.5 152V142Z" fill="#FFDB56"/>
</svg>
