<svg width="152" height="151" viewBox="0 0 152 151" fill="none" xmlns="http://www.w3.org/2000/svg">
<path d="M49.4182 99L51.2452 93.82H52.1062L53.9402 99H53.2122L52.7782 97.761H50.5802L50.1462 99H49.4182ZM50.7902 97.145H52.5682L51.6792 94.604L50.7902 97.145ZM56.3715 99.07C56.1382 99.07 55.9422 99.0327 55.7835 98.958C55.6249 98.8833 55.4965 98.7947 55.3985 98.692C55.3052 98.5893 55.2305 98.496 55.1745 98.412H55.1325V99H54.4675V93.68H55.1325V95.878H55.1745C55.2305 95.7893 55.3052 95.6937 55.3985 95.591C55.4965 95.4883 55.6249 95.402 55.7835 95.332C55.9422 95.2573 56.1382 95.22 56.3715 95.22C56.6515 95.22 56.8965 95.276 57.1065 95.388C57.3165 95.4953 57.4915 95.6423 57.6315 95.829C57.7715 96.011 57.8765 96.2163 57.9465 96.445C58.0165 96.6737 58.0515 96.907 58.0515 97.145C58.0515 97.383 58.0165 97.6163 57.9465 97.845C57.8765 98.0737 57.7715 98.2813 57.6315 98.468C57.4915 98.65 57.3165 98.797 57.1065 98.909C56.8965 99.0163 56.6515 99.07 56.3715 99.07ZM56.2595 98.503C56.5115 98.503 56.7192 98.4377 56.8825 98.307C57.0505 98.1717 57.1742 98.0013 57.2535 97.796C57.3375 97.586 57.3795 97.369 57.3795 97.145C57.3795 96.9163 57.3375 96.6993 57.2535 96.494C57.1742 96.2887 57.0505 96.1207 56.8825 95.99C56.7192 95.8547 56.5115 95.787 56.2595 95.787C56.0122 95.787 55.8045 95.8547 55.6365 95.99C55.4732 96.1207 55.3495 96.2887 55.2655 96.494C55.1862 96.6993 55.1465 96.9163 55.1465 97.145C55.1465 97.369 55.1862 97.586 55.2655 97.796C55.3495 98.0013 55.4732 98.1717 55.6365 98.307C55.8045 98.4377 56.0122 98.503 56.2595 98.503ZM59.9719 99.07C59.6873 99.07 59.4516 99.0303 59.2649 98.951C59.0829 98.8717 58.9383 98.7737 58.8309 98.657C58.7236 98.5357 58.6443 98.4167 58.5929 98.3C58.5416 98.1787 58.5089 98.0783 58.4949 97.999C58.4809 97.9197 58.4739 97.88 58.4739 97.88H59.1459C59.1459 97.88 59.1529 97.9127 59.1669 97.978C59.1856 98.0387 59.2206 98.111 59.2719 98.195C59.3279 98.2743 59.4119 98.3467 59.5239 98.412C59.6406 98.4727 59.7946 98.503 59.9859 98.503C60.2053 98.503 60.3756 98.4517 60.4969 98.349C60.6183 98.2417 60.6789 98.111 60.6789 97.957C60.6789 97.8217 60.6299 97.7143 60.5319 97.635C60.4386 97.5557 60.3033 97.495 60.1259 97.453L59.6219 97.334C59.4353 97.2873 59.2603 97.2243 59.0969 97.145C58.9336 97.0657 58.8006 96.9583 58.6979 96.823C58.5999 96.683 58.5509 96.5103 58.5509 96.305C58.5509 95.9877 58.6699 95.7287 58.9079 95.528C59.1459 95.3227 59.4563 95.22 59.8389 95.22C60.0956 95.22 60.3079 95.2573 60.4759 95.332C60.6439 95.402 60.7769 95.4907 60.8749 95.598C60.9776 95.7053 61.0523 95.8127 61.0989 95.92C61.1503 96.0273 61.1829 96.1183 61.1969 96.193C61.2109 96.263 61.2179 96.298 61.2179 96.298H60.5739C60.5739 96.298 60.5669 96.2723 60.5529 96.221C60.5389 96.165 60.5063 96.1043 60.4549 96.039C60.4083 95.969 60.3359 95.9083 60.2379 95.857C60.1399 95.801 60.0093 95.773 59.8459 95.773C59.6219 95.773 59.4586 95.8243 59.3559 95.927C59.2533 96.0297 59.2019 96.1417 59.2019 96.263C59.2019 96.3797 59.2486 96.4753 59.3419 96.55C59.4399 96.62 59.5659 96.6737 59.7199 96.711L60.2309 96.83C60.5483 96.9047 60.8096 97.0283 61.0149 97.201C61.2249 97.369 61.3299 97.6117 61.3299 97.929C61.3299 98.1343 61.2763 98.3257 61.1689 98.503C61.0616 98.6757 60.9076 98.8133 60.7069 98.916C60.5063 99.0187 60.2613 99.07 59.9719 99.07ZM63.5073 99.07C63.2039 99.07 62.9379 99.0163 62.7093 98.909C62.4806 98.797 62.2893 98.65 62.1353 98.468C61.9859 98.2813 61.8716 98.0737 61.7923 97.845C61.7176 97.6163 61.6803 97.383 61.6803 97.145C61.6803 96.907 61.7176 96.676 61.7923 96.452C61.8669 96.2233 61.9789 96.0157 62.1283 95.829C62.2823 95.6423 62.4736 95.4953 62.7023 95.388C62.9309 95.276 63.1993 95.22 63.5073 95.22C63.8059 95.22 64.0533 95.2643 64.2493 95.353C64.4453 95.4417 64.6016 95.5537 64.7183 95.689C64.8396 95.8197 64.9283 95.9527 64.9843 96.088C65.0449 96.2187 65.0846 96.3283 65.1033 96.417C65.1219 96.5057 65.1313 96.55 65.1313 96.55H64.4873C64.4873 96.55 64.4756 96.5127 64.4523 96.438C64.4289 96.3587 64.3846 96.27 64.3193 96.172C64.2539 96.074 64.1559 95.9877 64.0253 95.913C63.8946 95.8337 63.7219 95.794 63.5073 95.794C63.2506 95.794 63.0336 95.8593 62.8563 95.99C62.6836 96.116 62.5529 96.2817 62.4643 96.487C62.3803 96.6923 62.3383 96.9117 62.3383 97.145C62.3383 97.3783 62.3803 97.5977 62.4643 97.803C62.5529 98.0083 62.6836 98.1763 62.8563 98.307C63.0336 98.433 63.2506 98.496 63.5073 98.496C63.7219 98.496 63.8946 98.4587 64.0253 98.384C64.1559 98.3047 64.2539 98.216 64.3193 98.118C64.3846 98.02 64.4289 97.9337 64.4523 97.859C64.4756 97.7797 64.4873 97.74 64.4873 97.74H65.1313C65.1313 97.74 65.1219 97.7843 65.1033 97.873C65.0846 97.9617 65.0449 98.0737 64.9843 98.209C64.9283 98.3397 64.8396 98.4727 64.7183 98.608C64.6016 98.7387 64.4453 98.8483 64.2493 98.937C64.0533 99.0257 63.8059 99.07 63.5073 99.07ZM65.7632 99V93.68H66.4282V95.829H66.4702C66.5029 95.773 66.5566 95.696 66.6312 95.598C66.7106 95.5 66.8226 95.4137 66.9672 95.339C67.1119 95.2597 67.2939 95.22 67.5132 95.22C67.7839 95.22 68.0149 95.283 68.2062 95.409C68.3976 95.5303 68.5422 95.696 68.6402 95.906C68.7429 96.116 68.7942 96.3517 68.7942 96.613V99H68.1292V96.655C68.1292 96.4077 68.0592 96.2023 67.9192 96.039C67.7839 95.8757 67.5856 95.794 67.3242 95.794C67.1142 95.794 66.9439 95.8477 66.8132 95.955C66.6826 96.0577 66.5846 96.1953 66.5192 96.368C66.4586 96.536 66.4282 96.7157 66.4282 96.907V99H65.7632ZM69.4943 99L69.5013 93.68H70.1593V99H69.4943ZM73.1055 94.723C72.9795 94.723 72.8745 94.681 72.7905 94.597C72.7111 94.513 72.6715 94.4127 72.6715 94.296C72.6715 94.1747 72.7111 94.072 72.7905 93.988C72.8745 93.904 72.9795 93.862 73.1055 93.862C73.2268 93.862 73.3295 93.904 73.4135 93.988C73.4975 94.072 73.5395 94.1747 73.5395 94.296C73.5395 94.4127 73.4975 94.513 73.4135 94.597C73.3295 94.681 73.2268 94.723 73.1055 94.723ZM71.7755 94.723C71.6495 94.723 71.5445 94.681 71.4605 94.597C71.3811 94.513 71.3415 94.4127 71.3415 94.296C71.3415 94.1747 71.3811 94.072 71.4605 93.988C71.5445 93.904 71.6495 93.862 71.7755 93.862C71.8968 93.862 71.9995 93.904 72.0835 93.988C72.1675 94.072 72.2095 94.1747 72.2095 94.296C72.2095 94.4127 72.1675 94.513 72.0835 94.597C71.9995 94.681 71.8968 94.723 71.7755 94.723ZM72.1745 99.07C71.8058 99.07 71.5118 98.9557 71.2925 98.727C71.0731 98.4983 70.9635 98.181 70.9635 97.775V95.29H71.6285V97.74C71.6285 97.9827 71.6938 98.1693 71.8245 98.3C71.9598 98.4307 72.1371 98.496 72.3565 98.496C72.5805 98.496 72.7601 98.4377 72.8955 98.321C73.0308 98.2043 73.1288 98.055 73.1895 97.873C73.2501 97.691 73.2805 97.5043 73.2805 97.313V95.29H73.9455V99H73.2805V98.468H73.2385C73.2105 98.524 73.1568 98.601 73.0775 98.699C72.9981 98.7923 72.8861 98.8787 72.7415 98.958C72.5968 99.0327 72.4078 99.07 72.1745 99.07ZM76.0022 99.07C75.7175 99.07 75.4819 99.0303 75.2952 98.951C75.1132 98.8717 74.9685 98.7737 74.8612 98.657C74.7539 98.5357 74.6745 98.4167 74.6232 98.3C74.5719 98.1787 74.5392 98.0783 74.5252 97.999C74.5112 97.9197 74.5042 97.88 74.5042 97.88H75.1762C75.1762 97.88 75.1832 97.9127 75.1972 97.978C75.2159 98.0387 75.2509 98.111 75.3022 98.195C75.3582 98.2743 75.4422 98.3467 75.5542 98.412C75.6709 98.4727 75.8249 98.503 76.0162 98.503C76.2355 98.503 76.4059 98.4517 76.5272 98.349C76.6485 98.2417 76.7092 98.111 76.7092 97.957C76.7092 97.8217 76.6602 97.7143 76.5622 97.635C76.4689 97.5557 76.3335 97.495 76.1562 97.453L75.6522 97.334C75.4655 97.2873 75.2905 97.2243 75.1272 97.145C74.9639 97.0657 74.8309 96.9583 74.7282 96.823C74.6302 96.683 74.5812 96.5103 74.5812 96.305C74.5812 95.9877 74.7002 95.7287 74.9382 95.528C75.1762 95.3227 75.4865 95.22 75.8692 95.22C76.1259 95.22 76.3382 95.2573 76.5062 95.332C76.6742 95.402 76.8072 95.4907 76.9052 95.598C77.0079 95.7053 77.0825 95.8127 77.1292 95.92C77.1805 96.0273 77.2132 96.1183 77.2272 96.193C77.2412 96.263 77.2482 96.298 77.2482 96.298H76.6042C76.6042 96.298 76.5972 96.2723 76.5832 96.221C76.5692 96.165 76.5365 96.1043 76.4852 96.039C76.4385 95.969 76.3662 95.9083 76.2682 95.857C76.1702 95.801 76.0395 95.773 75.8762 95.773C75.6522 95.773 75.4889 95.8243 75.3862 95.927C75.2835 96.0297 75.2322 96.1417 75.2322 96.263C75.2322 96.3797 75.2789 96.4753 75.3722 96.55C75.4702 96.62 75.5962 96.6737 75.7502 96.711L76.2612 96.83C76.5785 96.9047 76.8399 97.0283 77.0452 97.201C77.2552 97.369 77.3602 97.6117 77.3602 97.929C77.3602 98.1343 77.3065 98.3257 77.1992 98.503C77.0919 98.6757 76.9379 98.8133 76.7372 98.916C76.5365 99.0187 76.2915 99.07 76.0022 99.07ZM79.2069 99.07C78.9222 99.07 78.6866 99.0303 78.4999 98.951C78.3179 98.8717 78.1732 98.7737 78.0659 98.657C77.9586 98.5357 77.8792 98.4167 77.8279 98.3C77.7766 98.1787 77.7439 98.0783 77.7299 97.999C77.7159 97.9197 77.7089 97.88 77.7089 97.88H78.3809C78.3809 97.88 78.3879 97.9127 78.4019 97.978C78.4206 98.0387 78.4556 98.111 78.5069 98.195C78.5629 98.2743 78.6469 98.3467 78.7589 98.412C78.8756 98.4727 79.0296 98.503 79.2209 98.503C79.4402 98.503 79.6106 98.4517 79.7319 98.349C79.8532 98.2417 79.9139 98.111 79.9139 97.957C79.9139 97.8217 79.8649 97.7143 79.7669 97.635C79.6736 97.5557 79.5382 97.495 79.3609 97.453L78.8569 97.334C78.6702 97.2873 78.4952 97.2243 78.3319 97.145C78.1686 97.0657 78.0356 96.9583 77.9329 96.823C77.8349 96.683 77.7859 96.5103 77.7859 96.305C77.7859 95.9877 77.9049 95.7287 78.1429 95.528C78.3809 95.3227 78.6912 95.22 79.0739 95.22C79.3306 95.22 79.5429 95.2573 79.7109 95.332C79.8789 95.402 80.0119 95.4907 80.1099 95.598C80.2126 95.7053 80.2872 95.8127 80.3339 95.92C80.3852 96.0273 80.4179 96.1183 80.4319 96.193C80.4459 96.263 80.4529 96.298 80.4529 96.298H79.8089C79.8089 96.298 79.8019 96.2723 79.7879 96.221C79.7739 96.165 79.7412 96.1043 79.6899 96.039C79.6432 95.969 79.5709 95.9083 79.4729 95.857C79.3749 95.801 79.2442 95.773 79.0809 95.773C78.8569 95.773 78.6936 95.8243 78.5909 95.927C78.4882 96.0297 78.4369 96.1417 78.4369 96.263C78.4369 96.3797 78.4836 96.4753 78.5769 96.55C78.6749 96.62 78.8009 96.6737 78.9549 96.711L79.4659 96.83C79.7832 96.9047 80.0446 97.0283 80.2499 97.201C80.4599 97.369 80.5649 97.6117 80.5649 97.929C80.5649 98.1343 80.5112 98.3257 80.4039 98.503C80.2966 98.6757 80.1426 98.8133 79.9419 98.916C79.7412 99.0187 79.4962 99.07 79.2069 99.07ZM82.6722 99.07C82.3689 99.07 82.1052 99.0163 81.8812 98.909C81.6619 98.797 81.4799 98.6477 81.3352 98.461C81.1952 98.2743 81.0902 98.069 81.0202 97.845C80.9502 97.6163 80.9152 97.383 80.9152 97.145C80.9152 96.9117 80.9479 96.6807 81.0132 96.452C81.0832 96.2233 81.1882 96.0157 81.3282 95.829C81.4729 95.6423 81.6525 95.4953 81.8672 95.388C82.0865 95.276 82.3455 95.22 82.6442 95.22C82.9615 95.22 83.2415 95.2923 83.4842 95.437C83.7269 95.5817 83.9182 95.7963 84.0582 96.081C84.1982 96.3657 84.2682 96.7227 84.2682 97.152V97.348H81.5872C81.6012 97.558 81.6502 97.7517 81.7342 97.929C81.8229 98.1017 81.9465 98.2417 82.1052 98.349C82.2639 98.4517 82.4529 98.503 82.6722 98.503C82.8635 98.503 83.0175 98.4727 83.1342 98.412C83.2555 98.3467 83.3512 98.272 83.4212 98.188C83.4912 98.104 83.5379 98.0317 83.5612 97.971C83.5892 97.9057 83.6032 97.873 83.6032 97.873H84.2262C84.2262 97.873 84.2145 97.915 84.1912 97.999C84.1679 98.0783 84.1259 98.1763 84.0652 98.293C84.0045 98.4097 83.9159 98.5287 83.7992 98.65C83.6825 98.7667 83.5332 98.867 83.3512 98.951C83.1692 99.0303 82.9429 99.07 82.6722 99.07ZM81.5942 96.83H83.6172C83.6079 96.5873 83.5565 96.3913 83.4632 96.242C83.3699 96.088 83.2509 95.9737 83.1062 95.899C82.9615 95.8243 82.8075 95.787 82.6442 95.787C82.3502 95.787 82.1099 95.8827 81.9232 96.074C81.7365 96.2607 81.6269 96.5127 81.5942 96.83ZM87.6989 95.22C87.9323 95.22 88.1283 95.2573 88.2869 95.332C88.4456 95.4067 88.5739 95.4953 88.6719 95.598C88.7699 95.696 88.8446 95.7893 88.8959 95.878H88.9379V95.29H89.6029V99H88.9379V98.412H88.8959C88.8446 98.5007 88.7699 98.5963 88.6719 98.699C88.5739 98.8017 88.4456 98.8903 88.2869 98.965C88.1283 99.035 87.9323 99.07 87.6989 99.07C87.4189 99.07 87.1739 99.0163 86.9639 98.909C86.7539 98.797 86.5789 98.65 86.4389 98.468C86.2989 98.2813 86.1939 98.0737 86.1239 97.845C86.0539 97.6163 86.0189 97.383 86.0189 97.145C86.0189 96.907 86.0539 96.6737 86.1239 96.445C86.1939 96.2163 86.2989 96.011 86.4389 95.829C86.5789 95.6423 86.7539 95.4953 86.9639 95.388C87.1739 95.276 87.4189 95.22 87.6989 95.22ZM87.8109 95.787C87.5636 95.787 87.3559 95.8547 87.1879 95.99C87.0199 96.1207 86.8939 96.2887 86.8099 96.494C86.7306 96.6993 86.6909 96.9163 86.6909 97.145C86.6909 97.369 86.7306 97.586 86.8099 97.796C86.8939 98.0013 87.0199 98.1717 87.1879 98.307C87.3559 98.4377 87.5636 98.503 87.8109 98.503C88.0583 98.503 88.2636 98.4377 88.4269 98.307C88.5949 98.1717 88.7186 98.0013 88.7979 97.796C88.8819 97.586 88.9239 97.369 88.9239 97.145C88.9239 96.9163 88.8819 96.6993 88.7979 96.494C88.7186 96.2887 88.5949 96.1207 88.4269 95.99C88.2636 95.8547 88.0583 95.787 87.8109 95.787ZM91.4411 99.07C91.0725 99.07 90.7785 98.9557 90.5591 98.727C90.3398 98.4983 90.2301 98.181 90.2301 97.775V95.29H90.8951V97.74C90.8951 97.9827 90.9605 98.1693 91.0911 98.3C91.2265 98.4307 91.4038 98.496 91.6231 98.496C91.8471 98.496 92.0268 98.4377 92.1621 98.321C92.2975 98.2043 92.3955 98.055 92.4561 97.873C92.5168 97.691 92.5471 97.5043 92.5471 97.313V95.29H93.2121V99H92.5471V98.468H92.5051C92.4771 98.524 92.4235 98.601 92.3441 98.699C92.2648 98.7923 92.1528 98.8787 92.0081 98.958C91.8635 99.0327 91.6745 99.07 91.4411 99.07ZM95.203 99.07C94.9183 99.07 94.6826 99.0303 94.496 98.951C94.314 98.8717 94.1693 98.7737 94.062 98.657C93.9546 98.5357 93.8753 98.4167 93.824 98.3C93.7726 98.1787 93.74 98.0783 93.726 97.999C93.712 97.9197 93.705 97.88 93.705 97.88H94.377C94.377 97.88 94.384 97.9127 94.398 97.978C94.4166 98.0387 94.4516 98.111 94.503 98.195C94.559 98.2743 94.643 98.3467 94.755 98.412C94.8716 98.4727 95.0256 98.503 95.217 98.503C95.4363 98.503 95.6066 98.4517 95.728 98.349C95.8493 98.2417 95.91 98.111 95.91 97.957C95.91 97.8217 95.861 97.7143 95.763 97.635C95.6696 97.5557 95.5343 97.495 95.357 97.453L94.853 97.334C94.6663 97.2873 94.4913 97.2243 94.328 97.145C94.1646 97.0657 94.0316 96.9583 93.929 96.823C93.831 96.683 93.782 96.5103 93.782 96.305C93.782 95.9877 93.901 95.7287 94.139 95.528C94.377 95.3227 94.6873 95.22 95.07 95.22C95.3266 95.22 95.539 95.2573 95.707 95.332C95.875 95.402 96.008 95.4907 96.106 95.598C96.2086 95.7053 96.2833 95.8127 96.33 95.92C96.3813 96.0273 96.414 96.1183 96.428 96.193C96.442 96.263 96.449 96.298 96.449 96.298H95.805C95.805 96.298 95.798 96.2723 95.784 96.221C95.77 96.165 95.7373 96.1043 95.686 96.039C95.6393 95.969 95.567 95.9083 95.469 95.857C95.371 95.801 95.2403 95.773 95.077 95.773C94.853 95.773 94.6896 95.8243 94.587 95.927C94.4843 96.0297 94.433 96.1417 94.433 96.263C94.433 96.3797 94.4796 96.4753 94.573 96.55C94.671 96.62 94.797 96.6737 94.951 96.711L95.462 96.83C95.7793 96.9047 96.0406 97.0283 96.246 97.201C96.456 97.369 96.561 97.6117 96.561 97.929C96.561 98.1343 96.5073 98.3257 96.4 98.503C96.2926 98.6757 96.1386 98.8133 95.938 98.916C95.7373 99.0187 95.4923 99.07 95.203 99.07ZM99.7479 93.82V99H99.0759V94.982L98.1029 94.989V94.597L98.2779 94.541C98.5253 94.4617 98.7236 94.3753 98.8729 94.282C99.0269 94.1887 99.1693 94.0603 99.2999 93.897L99.3629 93.82H99.7479ZM102.532 99.063C102.21 99.063 101.926 98.993 101.678 98.853C101.431 98.7083 101.223 98.5147 101.055 98.272C100.892 98.0247 100.766 97.74 100.677 97.418C100.593 97.096 100.551 96.7577 100.551 96.403C100.551 96.0437 100.593 95.7053 100.677 95.388C100.766 95.066 100.892 94.7813 101.055 94.534C101.223 94.2867 101.431 94.093 101.678 93.953C101.926 93.813 102.21 93.743 102.532 93.743C102.854 93.743 103.139 93.813 103.386 93.953C103.634 94.093 103.839 94.2867 104.002 94.534C104.17 94.7813 104.296 95.066 104.38 95.388C104.469 95.7053 104.513 96.0437 104.513 96.403C104.513 96.7577 104.469 97.096 104.38 97.418C104.296 97.74 104.17 98.0247 104.002 98.272C103.839 98.5147 103.634 98.7083 103.386 98.853C103.139 98.993 102.854 99.063 102.532 99.063ZM102.532 98.433C102.901 98.433 103.204 98.2627 103.442 97.922C103.685 97.5767 103.806 97.0703 103.806 96.403C103.806 95.7357 103.685 95.2317 103.442 94.891C103.204 94.5503 102.901 94.38 102.532 94.38C102.164 94.38 101.858 94.5503 101.615 94.891C101.377 95.2317 101.258 95.7357 101.258 96.403C101.258 97.0657 101.377 97.5697 101.615 97.915C101.858 98.2603 102.164 98.433 102.532 98.433ZM64.5745 110V105.422H62.9575V104.82H66.8775V105.422H65.2605V110H64.5745ZM68.3933 110.07C68.09 110.07 67.8263 110.016 67.6023 109.909C67.383 109.797 67.201 109.648 67.0563 109.461C66.9163 109.274 66.8113 109.069 66.7413 108.845C66.6713 108.616 66.6363 108.383 66.6363 108.145C66.6363 107.912 66.669 107.681 66.7343 107.452C66.8043 107.223 66.9093 107.016 67.0493 106.829C67.194 106.642 67.3736 106.495 67.5883 106.388C67.8076 106.276 68.0666 106.22 68.3653 106.22C68.6826 106.22 68.9626 106.292 69.2053 106.437C69.448 106.582 69.6393 106.796 69.7793 107.081C69.9193 107.366 69.9893 107.723 69.9893 108.152V108.348H67.3083C67.3223 108.558 67.3713 108.752 67.4553 108.929C67.544 109.102 67.6676 109.242 67.8263 109.349C67.985 109.452 68.174 109.503 68.3933 109.503C68.5846 109.503 68.7386 109.473 68.8553 109.412C68.9766 109.347 69.0723 109.272 69.1423 109.188C69.2123 109.104 69.259 109.032 69.2823 108.971C69.3103 108.906 69.3243 108.873 69.3243 108.873H69.9473C69.9473 108.873 69.9356 108.915 69.9123 108.999C69.889 109.078 69.847 109.176 69.7863 109.293C69.7256 109.41 69.637 109.529 69.5203 109.65C69.4036 109.767 69.2543 109.867 69.0723 109.951C68.8903 110.03 68.664 110.07 68.3933 110.07ZM67.3153 107.83H69.3383C69.329 107.587 69.2776 107.391 69.1843 107.242C69.091 107.088 68.972 106.974 68.8273 106.899C68.6826 106.824 68.5286 106.787 68.3653 106.787C68.0713 106.787 67.831 106.883 67.6443 107.074C67.4576 107.261 67.348 107.513 67.3153 107.83ZM70.5467 110V106.29H71.2117V106.752H71.2397C71.3191 106.612 71.4357 106.488 71.5897 106.381C71.7437 106.274 71.9607 106.22 72.2407 106.22C72.3201 106.22 72.3924 106.225 72.4577 106.234C72.5231 106.239 72.5557 106.241 72.5557 106.241V106.878C72.5557 106.878 72.5184 106.876 72.4437 106.871C72.3737 106.862 72.2991 106.857 72.2197 106.857C71.8977 106.857 71.6481 106.95 71.4707 107.137C71.2981 107.319 71.2117 107.618 71.2117 108.033V110H70.5467ZM72.9379 110V106.29H73.6029V106.829H73.6309C73.6683 106.759 73.7266 106.677 73.8059 106.584C73.8853 106.486 73.9926 106.402 74.1279 106.332C74.2679 106.257 74.4429 106.22 74.6529 106.22C74.9283 106.22 75.1593 106.288 75.3459 106.423C75.5373 106.554 75.6796 106.731 75.7729 106.955H75.7799C75.8826 106.75 76.0273 106.577 76.2139 106.437C76.4053 106.292 76.6526 106.22 76.9559 106.22C77.3573 106.22 77.6653 106.358 77.8799 106.633C78.0993 106.904 78.2089 107.254 78.2089 107.683V110H77.5439V107.718C77.5439 107.443 77.4786 107.221 77.3479 107.053C77.2173 106.88 77.0283 106.794 76.7809 106.794C76.5663 106.794 76.3936 106.852 76.2629 106.969C76.1369 107.086 76.0459 107.23 75.9899 107.403C75.9339 107.576 75.9059 107.748 75.9059 107.921V110H75.2409V107.718C75.2409 107.443 75.1756 107.221 75.0449 107.053C74.9189 106.88 74.7299 106.794 74.4779 106.794C74.2633 106.794 74.0906 106.852 73.9599 106.969C73.8339 107.086 73.7429 107.233 73.6869 107.41C73.6309 107.583 73.6029 107.753 73.6029 107.921V110H72.9379ZM79.27 105.583C79.144 105.583 79.039 105.541 78.955 105.457C78.8757 105.373 78.836 105.273 78.836 105.156C78.836 105.035 78.8757 104.932 78.955 104.848C79.039 104.764 79.144 104.722 79.27 104.722C79.3913 104.722 79.494 104.764 79.578 104.848C79.662 104.932 79.704 105.035 79.704 105.156C79.704 105.273 79.662 105.373 79.578 105.457C79.494 105.541 79.3913 105.583 79.27 105.583ZM78.941 110V106.29H79.606V110H78.941ZM80.3317 110V106.29H80.9967V106.829H81.0387C81.0714 106.773 81.125 106.696 81.1997 106.598C81.279 106.5 81.391 106.414 81.5357 106.339C81.6804 106.26 81.8624 106.22 82.0817 106.22C82.3524 106.22 82.5834 106.283 82.7747 106.409C82.966 106.53 83.1107 106.696 83.2087 106.906C83.3114 107.116 83.3627 107.352 83.3627 107.613V110H82.6977V107.655C82.6977 107.408 82.6277 107.202 82.4877 107.039C82.3524 106.876 82.154 106.794 81.8927 106.794C81.6827 106.794 81.5124 106.848 81.3817 106.955C81.251 107.058 81.153 107.195 81.0877 107.368C81.027 107.536 80.9967 107.716 80.9967 107.907V110H80.3317ZM85.6814 110.07C85.3781 110.07 85.1144 110.016 84.8904 109.909C84.6711 109.797 84.4891 109.648 84.3444 109.461C84.2044 109.274 84.0994 109.069 84.0294 108.845C83.9594 108.616 83.9244 108.383 83.9244 108.145C83.9244 107.912 83.9571 107.681 84.0224 107.452C84.0924 107.223 84.1974 107.016 84.3374 106.829C84.4821 106.642 84.6617 106.495 84.8764 106.388C85.0957 106.276 85.3547 106.22 85.6534 106.22C85.9707 106.22 86.2507 106.292 86.4934 106.437C86.7361 106.582 86.9274 106.796 87.0674 107.081C87.2074 107.366 87.2774 107.723 87.2774 108.152V108.348H84.5964C84.6104 108.558 84.6594 108.752 84.7434 108.929C84.8321 109.102 84.9557 109.242 85.1144 109.349C85.2731 109.452 85.4621 109.503 85.6814 109.503C85.8727 109.503 86.0267 109.473 86.1434 109.412C86.2647 109.347 86.3604 109.272 86.4304 109.188C86.5004 109.104 86.5471 109.032 86.5704 108.971C86.5984 108.906 86.6124 108.873 86.6124 108.873H87.2354C87.2354 108.873 87.2237 108.915 87.2004 108.999C87.1771 109.078 87.1351 109.176 87.0744 109.293C87.0137 109.41 86.9251 109.529 86.8084 109.65C86.6917 109.767 86.5424 109.867 86.3604 109.951C86.1784 110.03 85.9521 110.07 85.6814 110.07ZM84.6034 107.83H86.6264C86.6171 107.587 86.5657 107.391 86.4724 107.242C86.3791 107.088 86.2601 106.974 86.1154 106.899C85.9707 106.824 85.8167 106.787 85.6534 106.787C85.3594 106.787 85.1191 106.883 84.9324 107.074C84.7457 107.261 84.6361 107.513 84.6034 107.83ZM87.8348 110V106.29H88.4998V106.829H88.5418C88.5745 106.773 88.6282 106.696 88.7028 106.598C88.7822 106.5 88.8942 106.414 89.0388 106.339C89.1835 106.26 89.3655 106.22 89.5848 106.22C89.8555 106.22 90.0865 106.283 90.2778 106.409C90.4692 106.53 90.6138 106.696 90.7118 106.906C90.8145 107.116 90.8658 107.352 90.8658 107.613V110H90.2008V107.655C90.2008 107.408 90.1308 107.202 89.9908 107.039C89.8555 106.876 89.6572 106.794 89.3958 106.794C89.1858 106.794 89.0155 106.848 88.8848 106.955C88.7542 107.058 88.6562 107.195 88.5908 107.368C88.5302 107.536 88.4998 107.716 88.4998 107.907V110H87.8348Z" fill="white"/>
<path d="M52.256 86C52.376 83.288 52.772 80.792 53.444 78.512C54.116 76.232 54.908 74.192 55.82 72.392C56.756 70.568 57.68 69.02 58.592 67.748C59.504 66.452 60.26 65.456 60.86 64.76H48.044V59.36H67.772V63.788C67.772 63.788 67.472 64.112 66.872 64.76C66.296 65.408 65.564 66.368 64.676 67.64C63.812 68.888 62.924 70.424 62.012 72.248C61.1 74.048 60.32 76.1 59.672 78.404C59.024 80.708 58.64 83.24 58.52 86H52.256ZM69.1268 77.18V72.356H82.6268V77.18H69.1268ZM95.3868 86.36C93.5628 86.36 91.8588 86.072 90.2748 85.496C88.7148 84.92 87.4428 84.068 86.4588 82.94C85.4988 81.788 85.0188 80.372 85.0188 78.692C85.0188 77.468 85.2588 76.448 85.7388 75.632C86.2188 74.792 86.7708 74.132 87.3948 73.652C88.0428 73.172 88.6068 72.824 89.0868 72.608C89.5908 72.392 89.8548 72.284 89.8788 72.284V72.068C89.8788 72.068 89.6628 71.972 89.2308 71.78C88.7988 71.588 88.3068 71.276 87.7548 70.844C87.2028 70.412 86.7108 69.836 86.2788 69.116C85.8708 68.372 85.6668 67.46 85.6668 66.38C85.6668 64.868 86.0988 63.56 86.9628 62.456C87.8508 61.352 89.0268 60.5 90.4908 59.9C91.9788 59.3 93.6108 59 95.3868 59C97.1628 59 98.7828 59.3 100.247 59.9C101.735 60.5 102.911 61.352 103.775 62.456C104.639 63.56 105.071 64.856 105.071 66.344C105.071 67.424 104.855 68.336 104.423 69.08C104.015 69.824 103.535 70.412 102.983 70.844C102.431 71.276 101.939 71.588 101.507 71.78C101.099 71.972 100.883 72.068 100.859 72.068V72.284C100.883 72.284 101.135 72.392 101.615 72.608C102.119 72.824 102.683 73.172 103.307 73.652C103.955 74.132 104.519 74.792 104.999 75.632C105.479 76.448 105.719 77.468 105.719 78.692C105.719 80.372 105.239 81.788 104.279 82.94C103.319 84.068 102.047 84.92 100.463 85.496C98.9028 86.072 97.2108 86.36 95.3868 86.36ZM95.3868 70.052C96.4188 70.052 97.3188 69.764 98.0868 69.188C98.8548 68.612 99.2388 67.832 99.2388 66.848C99.2388 65.888 98.8548 65.132 98.0868 64.58C97.3188 64.004 96.4188 63.716 95.3868 63.716C94.3548 63.716 93.4548 64.004 92.6868 64.58C91.9188 65.132 91.5348 65.9 91.5348 66.884C91.5348 67.868 91.9188 68.648 92.6868 69.224C93.4548 69.776 94.3548 70.052 95.3868 70.052ZM95.3868 81.536C96.8268 81.536 97.9068 81.164 98.6268 80.42C99.3708 79.676 99.7428 78.86 99.7428 77.972C99.7428 77.132 99.3708 76.352 98.6268 75.632C97.9068 74.888 96.8268 74.516 95.3868 74.516C93.9228 74.516 92.8188 74.888 92.0748 75.632C91.3548 76.352 90.9948 77.132 90.9948 77.972C90.9948 78.86 91.3668 79.676 92.1108 80.42C92.8548 81.164 93.9468 81.536 95.3868 81.536Z" fill="white"/>
<ellipse cx="76" cy="75.5" rx="70.5" ry="71" transform="rotate(-90 76 75.5)" stroke="#00BF64" stroke-width="10"/>
<path d="M5.78125 65C10.8876 31.0439 40.3803 5 75.9991 5C77.1727 5 78.3396 5.02827 79.4991 5.08416" stroke="#D9D9D9" stroke-width="10" stroke-linecap="round"/>
</svg>
