<svg width="40" height="41" viewBox="0 0 40 41" fill="none" xmlns="http://www.w3.org/2000/svg">
<rect y="0.5" width="40" height="40" fill="white"/>
<path d="M20 17.5C19.2044 17.5 18.4413 17.8161 17.8787 18.3787C17.3161 18.9413 17 19.7044 17 20.5C17 21.2956 17.3161 22.0587 17.8787 22.6213C18.4413 23.1839 19.2044 23.5 20 23.5C20.7956 23.5 21.5587 23.1839 22.1213 22.6213C22.6839 22.0587 23 21.2956 23 20.5C23 19.7044 22.6839 18.9413 22.1213 18.3787C21.5587 17.8161 20.7956 17.5 20 17.5ZM20 15.5C21.3261 15.5 22.5979 16.0268 23.5355 16.9645C24.4732 17.9021 25 19.1739 25 20.5C25 21.8261 24.4732 23.0979 23.5355 24.0355C22.5979 24.9732 21.3261 25.5 20 25.5C18.6739 25.5 17.4021 24.9732 16.4645 24.0355C15.5268 23.0979 15 21.8261 15 20.5C15 19.1739 15.5268 17.9021 16.4645 16.9645C17.4021 16.0268 18.6739 15.5 20 15.5ZM26.5 15.25C26.5 15.5815 26.3683 15.8995 26.1339 16.1339C25.8995 16.3683 25.5815 16.5 25.25 16.5C24.9185 16.5 24.6005 16.3683 24.3661 16.1339C24.1317 15.8995 24 15.5815 24 15.25C24 14.9185 24.1317 14.6005 24.3661 14.3661C24.6005 14.1317 24.9185 14 25.25 14C25.5815 14 25.8995 14.1317 26.1339 14.3661C26.3683 14.6005 26.5 14.9185 26.5 15.25ZM20 12.5C17.526 12.5 17.122 12.507 15.971 12.558C15.187 12.595 14.661 12.7 14.173 12.89C13.7646 13.0399 13.3954 13.2803 13.093 13.593C12.78 13.8954 12.5394 14.2646 12.389 14.673C12.199 15.163 12.094 15.688 12.058 16.471C12.006 17.575 11.999 17.961 11.999 20.5C11.999 22.975 12.006 23.378 12.057 24.529C12.094 25.312 12.199 25.839 12.388 26.326C12.558 26.761 12.758 27.074 13.09 27.406C13.427 27.742 13.74 27.943 14.17 28.109C14.664 28.3 15.19 28.406 15.97 28.442C17.074 28.494 17.46 28.5 19.999 28.5C22.474 28.5 22.877 28.493 24.028 28.442C24.81 28.405 25.336 28.3 25.825 28.111C26.233 27.9603 26.6021 27.7201 26.905 27.408C27.242 27.072 27.443 26.759 27.609 26.328C27.799 25.836 27.905 25.31 27.941 24.528C27.993 23.425 27.999 23.038 27.999 20.5C27.999 18.026 27.992 17.622 27.941 16.471C27.904 15.689 27.798 15.161 27.609 14.673C27.4583 14.265 27.218 13.896 26.906 13.593C26.6037 13.2798 26.2345 13.0392 25.826 12.889C25.336 12.699 24.81 12.594 24.028 12.558C22.925 12.506 22.54 12.5 20 12.5ZM20 10.5C22.717 10.5 23.056 10.51 24.123 10.56C25.187 10.61 25.913 10.777 26.55 11.025C27.21 11.279 27.766 11.623 28.322 12.178C28.8305 12.6779 29.224 13.2826 29.475 13.95C29.722 14.587 29.89 15.313 29.94 16.378C29.987 17.444 30 17.783 30 20.5C30 23.217 29.99 23.556 29.94 24.622C29.89 25.687 29.722 26.412 29.475 27.05C29.2246 27.7178 28.8311 28.3226 28.322 28.822C27.822 29.3303 27.2173 29.7238 26.55 29.975C25.913 30.222 25.187 30.39 24.123 30.44C23.056 30.487 22.717 30.5 20 30.5C17.283 30.5 16.944 30.49 15.877 30.44C14.813 30.39 14.088 30.222 13.45 29.975C12.7823 29.7245 12.1775 29.3309 11.678 28.822C11.1694 28.3222 10.776 27.7175 10.525 27.05C10.277 26.413 10.11 25.687 10.06 24.622C10.012 23.556 10 23.217 10 20.5C10 17.783 10.01 17.444 10.06 16.378C10.11 15.312 10.277 14.588 10.525 13.95C10.7752 13.2822 11.1688 12.6773 11.678 12.178C12.1777 11.6692 12.7824 11.2757 13.45 11.025C14.087 10.777 14.812 10.61 15.877 10.56C16.944 10.513 17.283 10.5 20 10.5Z" fill="#4d8fdb"/>
</svg>
