<svg width="40" height="41" viewBox="0 0 40 41" fill="none" xmlns="http://www.w3.org/2000/svg">
<rect y="0.5" width="40" height="40" fill="white"/>
<path d="M28.41 10.5001H11.47C11.2796 10.4975 11.0905 10.5324 10.9136 10.6028C10.7366 10.6733 10.5753 10.7779 10.4388 10.9107C10.3023 11.0434 10.1933 11.2018 10.118 11.3767C10.0427 11.5517 10.0026 11.7397 10 11.9301V29.0701C10.0026 29.2606 10.0427 29.4486 10.118 29.6235C10.1933 29.7985 10.3023 29.9568 10.4388 30.0896C10.5753 30.2224 10.7366 30.327 10.9136 30.3975C11.0905 30.4679 11.2796 30.5028 11.47 30.5001H28.41C28.6004 30.5028 28.7895 30.4679 28.9664 30.3975C29.1434 30.327 29.3047 30.2224 29.4412 30.0896C29.5777 29.9568 29.6867 29.7985 29.762 29.6235C29.8373 29.4486 29.8774 29.2606 29.88 29.0701V11.9301C29.8774 11.7397 29.8373 11.5517 29.762 11.3767C29.6867 11.2018 29.5777 11.0434 29.4412 10.9107C29.3047 10.7779 29.1434 10.6733 28.9664 10.6028C28.7895 10.5324 28.6004 10.4975 28.41 10.5001ZM16.03 27.2401H13.03V18.2401H16.03V27.2401ZM14.53 16.9801C14.1163 16.9801 13.7195 16.8158 13.4269 16.5232C13.1344 16.2307 12.97 15.8339 12.97 15.4201C12.97 15.0064 13.1344 14.6096 13.4269 14.3171C13.7195 14.0245 14.1163 13.8601 14.53 13.8601C14.7497 13.8352 14.9722 13.857 15.1829 13.924C15.3936 13.9911 15.5877 14.1018 15.7527 14.2491C15.9176 14.3964 16.0495 14.5768 16.1399 14.7786C16.2302 14.9804 16.2769 15.199 16.2769 15.4201C16.2769 15.6412 16.2302 15.8599 16.1399 16.0617C16.0495 16.2635 15.9176 16.4439 15.7527 16.5912C15.5877 16.7385 15.3936 16.8492 15.1829 16.9163C14.9722 16.9833 14.7497 17.0051 14.53 16.9801ZM26.85 27.2401H23.85V22.4101C23.85 21.2001 23.42 20.4101 22.33 20.4101C21.9927 20.4126 21.6642 20.5184 21.3888 20.7133C21.1135 20.9082 20.9045 21.1828 20.79 21.5001C20.7117 21.7352 20.6778 21.9827 20.69 22.2301V27.2301H17.69V18.2301H20.69V19.5001C20.9625 19.0272 21.3589 18.6377 21.8364 18.3733C22.314 18.109 22.8546 17.98 23.4 18.0001C25.4 18.0001 26.85 19.2901 26.85 22.0601V27.2401Z" fill="#034C43"/>
</svg>
