<svg width="40" height="41" viewBox="0 0 40 41" fill="none" xmlns="http://www.w3.org/2000/svg">
<rect y="0.5" width="40" height="40" fill="white"/>
<path d="M31.0088 17.9517C31.0583 16.5203 30.7452 15.0997 30.0988 13.8217C29.6602 13.2973 29.0515 12.9434 28.3788 12.8217C25.5963 12.5692 22.8023 12.4657 20.0088 12.5117C17.2255 12.4636 14.4415 12.5638 11.6688 12.8117C11.1206 12.9114 10.6133 13.1685 10.2088 13.5517C9.30882 14.3817 9.20882 15.8017 9.10882 17.0017C8.96373 19.1592 8.96373 21.3241 9.10882 23.4817C9.13775 24.1571 9.23831 24.8275 9.40882 25.4817C9.52939 25.9867 9.77334 26.454 10.1188 26.8417C10.5261 27.2451 11.0452 27.5169 11.6088 27.6217C13.7647 27.8878 15.937 27.9981 18.1088 27.9517C21.6088 28.0017 24.6788 27.9517 28.3088 27.6717C28.8863 27.5733 29.42 27.3012 29.8388 26.8917C30.1188 26.6116 30.3279 26.2688 30.4488 25.8917C30.8064 24.7943 30.9821 23.6458 30.9688 22.4917C31.0088 21.9317 31.0088 18.5517 31.0088 17.9517ZM17.7488 23.0917V16.9017L23.6688 20.0117C22.0088 20.9317 19.8188 21.9717 17.7488 23.0917Z" fill="#4d8fdb"/>
</svg>
