<svg width="27" height="27" viewBox="0 0 27 27" fill="none" xmlns="http://www.w3.org/2000/svg">
<path d="M5.60754 14.889C5.64672 14.8498 5.69325 14.8187 5.74446 14.7975C5.79568 14.7762 5.85057 14.7653 5.90601 14.7653C5.96146 14.7653 6.01635 14.7762 6.06757 14.7975C6.11878 14.8187 6.16531 14.8498 6.20449 14.889L13.0779 21.7624L13.0779 4.21875C13.0779 4.10686 13.1223 3.99956 13.2015 3.92044C13.2806 3.84132 13.3879 3.79688 13.4998 3.79688C13.6117 3.79688 13.719 3.84132 13.7981 3.92044C13.8772 3.99956 13.9216 4.10686 13.9216 4.21875L13.9216 21.7624L20.795 14.889C20.8342 14.8498 20.8808 14.8187 20.932 14.7975C20.9832 14.7763 21.0381 14.7654 21.0935 14.7654C21.1489 14.7654 21.2038 14.7763 21.255 14.7975C21.3063 14.8187 21.3528 14.8498 21.392 14.889C21.4312 14.9282 21.4623 14.9748 21.4835 15.026C21.5047 15.0772 21.5156 15.1321 21.5156 15.1875C21.5156 15.2429 21.5047 15.2978 21.4835 15.349C21.4623 15.4002 21.4312 15.4468 21.392 15.486L13.7982 23.0797C13.7591 23.119 13.7125 23.1501 13.6613 23.1713C13.6101 23.1925 13.5552 23.2035 13.4998 23.2035C13.4443 23.2035 13.3894 23.1925 13.3382 23.1713C13.287 23.1501 13.2405 23.119 13.2013 23.0797L5.60754 15.486C5.56831 15.4468 5.5372 15.4003 5.51597 15.3491C5.49474 15.2978 5.48381 15.2429 5.48381 15.1875C5.48381 15.1321 5.49474 15.0772 5.51597 15.0259C5.5372 14.9747 5.56831 14.9282 5.60754 14.889Z" fill="#4d8fdb"/>
</svg>
