<svg width="24" height="25" viewBox="0 0 24 25" fill="none" xmlns="http://www.w3.org/2000/svg">
<path d="M5.56142 10.6889L5.56133 10.6888C5.27985 10.4073 4.89808 10.2492 4.5 10.2492C4.10193 10.2492 3.72015 10.4073 3.43867 10.6888C3.15719 10.9703 2.99905 11.352 2.99905 11.7501C2.99905 12.1482 3.15719 12.53 3.43867 12.8114L8.688 18.0608C8.68807 18.0608 8.68814 18.0609 8.6882 18.061C8.8275 18.2006 8.99296 18.3113 9.1751 18.3869C9.35734 18.4625 9.5527 18.5015 9.75 18.5015C9.9473 18.5015 10.1427 18.4625 10.3249 18.3869C10.507 18.3113 10.6725 18.2006 10.8118 18.061C10.8119 18.0609 10.8119 18.0608 10.812 18.0608L21.3107 7.56212C21.4504 7.42278 21.5612 7.25725 21.6368 7.07502C21.7124 6.89279 21.7513 6.69742 21.7513 6.50012C21.7513 6.30282 21.7124 6.10745 21.6368 5.92522C21.5612 5.74299 21.4504 5.57746 21.3107 5.43812C21.1716 5.29906 21.0066 5.1887 20.8249 5.11332C20.6427 5.0377 20.4473 4.99878 20.25 4.99878C20.0527 4.99878 19.8573 5.0377 19.6751 5.11332C19.4929 5.18891 19.3275 5.29968 19.1882 5.43929C19.1881 5.43935 19.1881 5.4394 19.188 5.43946L9.75005 14.8788L5.56142 10.6889Z" fill="white" stroke="white" stroke-width="1.5"/>
</svg>
