<svg width="201" height="80" viewBox="0 0 201 80" fill="none" xmlns="http://www.w3.org/2000/svg">
<g clip-path="url(#clip0_1_73)">
<path d="M70.0003 22.9023V60.9492L62.9215 65.0217L57.0195 68.4201L49.9592 72.4833L43.5568 76.168L38.4516 79.1046L36.9043 80.0003V41.9535L43.5568 38.1211V67.3119L49.9592 63.6273V34.4365L57.0195 30.3732V59.5732L62.9215 56.1749V26.9748L64.0519 26.3284L70.0003 22.9023Z" fill="white"/>
<path d="M67.1185 19.2358L62.9212 21.6461L59.4189 23.6592L57.0192 25.0444L49.959 29.1077L43.5566 32.7923L36.904 36.6155L32.9292 38.9057V78.3655L28.6486 75.8998H28.6393L25.9338 74.3391V34.8517L32.9292 30.8254L36.904 28.5444L43.5566 24.712L49.959 21.0274L52.405 19.6237L49.959 18.22L46.4381 16.1884L43.5566 17.8506L36.904 21.6738L32.9292 23.964L25.9338 27.9903L20.0318 31.3887V70.9408L13.1198 66.9606L7.00463 63.4422L0 59.4159V19.3836L7.00463 15.3573L13.1198 11.8389L20.0318 7.85871L25.9338 4.46035L25.9987 4.42341L32.2157 0.84959L33.6889 0L36.904 1.84694V1.85617L40.9623 4.18331V4.19254L36.904 6.52892L34.8471 7.71096L33.272 8.61595L32.9292 8.42202V8.80988L25.9338 12.8362L20.0318 16.2346L13.1198 20.2147L7.00463 23.7331V53.8197L6.33752 54.2076L7.00463 54.5954L10.9702 56.8764L13.1198 58.1138V27.0391L20.0318 23.059L25.9338 19.6699L32.9292 15.6435L36.904 13.3533L39.2111 12.0328L43.5566 9.53019L46.9014 7.60014L49.959 9.36396L54.1284 11.765H54.1377L57.0192 13.4272L60.0953 15.191V15.2003L62.9212 16.8163V16.8256L67.1185 19.2358Z" fill="white"/>
</g>
<path d="M97.545 36L95.64 33.21H94.02V36H91.05V25.5H95.85C98.715 25.5 100.515 26.985 100.515 29.385C100.515 30.93 99.765 32.07 98.46 32.7L100.725 36H97.545ZM97.515 29.385C97.515 28.41 96.9 27.84 95.67 27.84H94.02V30.915H95.67C96.9 30.915 97.515 30.345 97.515 29.385ZM102.154 36V25.5H105.124V36H102.154ZM112.472 36.21C109.142 36.21 106.697 33.945 106.697 30.75C106.697 27.555 109.142 25.29 112.472 25.29C114.407 25.29 115.967 25.995 116.987 27.27L115.097 28.98C114.437 28.185 113.627 27.75 112.622 27.75C110.897 27.75 109.697 28.95 109.697 30.75C109.697 32.55 110.897 33.75 112.622 33.75C113.627 33.75 114.437 33.315 115.097 32.52L116.987 34.23C115.967 35.505 114.407 36.21 112.472 36.21ZM125.331 25.5H128.301V36H125.331V31.905H121.281V36H118.311V25.5H121.281V29.445H125.331V25.5ZM132.631 36V27.855H129.406V25.5H138.811V27.855H135.601V36H132.631ZM144.601 36.21C141.496 36.21 139.666 34.455 139.666 31.32V25.5H142.636V31.23C142.636 33.03 143.386 33.75 144.631 33.75C145.861 33.75 146.611 33.03 146.611 31.23V25.5H149.536V31.32C149.536 34.455 147.706 36.21 144.601 36.21ZM158.628 25.5H161.538V36H159.093L154.458 30.405V36H151.548V25.5H153.993L158.628 31.095V25.5ZM170.668 33.405V30.525H173.293V34.875C172.078 35.745 170.413 36.21 168.883 36.21C165.538 36.21 163.093 33.945 163.093 30.75C163.093 27.555 165.538 25.29 168.943 25.29C170.908 25.29 172.498 25.965 173.533 27.21L171.643 28.92C170.923 28.125 170.098 27.75 169.093 27.75C167.293 27.75 166.093 28.935 166.093 30.75C166.093 32.52 167.293 33.75 169.063 33.75C169.618 33.75 170.143 33.645 170.668 33.405ZM178.866 36.21C177.141 36.21 175.431 35.745 174.441 35.055L175.416 32.865C176.346 33.48 177.666 33.9 178.881 33.9C180.111 33.9 180.591 33.555 180.591 33.045C180.591 31.38 174.621 32.595 174.621 28.695C174.621 26.82 176.151 25.29 179.271 25.29C180.636 25.29 182.046 25.605 183.081 26.205L182.166 28.41C181.161 27.87 180.171 27.6 179.256 27.6C178.011 27.6 177.561 28.02 177.561 28.545C177.561 30.15 183.516 28.95 183.516 32.82C183.516 34.65 181.986 36.21 178.866 36.21ZM104.685 43.5H107.52L104.115 54H100.935L98.925 47.61L96.825 54H93.645L90.24 43.5H93.3L95.415 50.205L97.635 43.5H100.365L102.48 50.265L104.685 43.5ZM111.524 51.705H117.014V54H108.584V43.5H116.819V45.795H111.524V47.565H116.189V49.785H111.524V51.705ZM123.883 54.21C120.553 54.21 118.108 51.945 118.108 48.75C118.108 45.555 120.553 43.29 123.883 43.29C125.818 43.29 127.378 43.995 128.398 45.27L126.508 46.98C125.848 46.185 125.038 45.75 124.033 45.75C122.308 45.75 121.108 46.95 121.108 48.75C121.108 50.55 122.308 51.75 124.033 51.75C125.038 51.75 125.848 51.315 126.508 50.52L128.398 52.23C127.378 53.505 125.818 54.21 123.883 54.21ZM136.742 43.5H139.712V54H136.742V49.905H132.692V54H129.722V43.5H132.692V47.445H136.742V43.5ZM145.497 54.21C143.772 54.21 142.062 53.745 141.072 53.055L142.047 50.865C142.977 51.48 144.297 51.9 145.512 51.9C146.742 51.9 147.222 51.555 147.222 51.045C147.222 49.38 141.252 50.595 141.252 46.695C141.252 44.82 142.782 43.29 145.902 43.29C147.267 43.29 148.677 43.605 149.712 44.205L148.797 46.41C147.792 45.87 146.802 45.6 145.887 45.6C144.642 45.6 144.192 46.02 144.192 46.545C144.192 48.15 150.147 46.95 150.147 50.82C150.147 52.65 148.617 54.21 145.497 54.21ZM154.459 51.705H159.949V54H151.519V43.5H159.754V45.795H154.459V47.565H159.124V49.785H154.459V51.705ZM161.597 54V43.5H164.567V51.645H169.577V54H161.597Z" fill="white"/>
<defs>
<clipPath id="clip0_1_73">
<rect width="70" height="80" fill="white"/>
</clipPath>
</defs>
</svg>
